<svg width="1624" height="1364" viewBox="0 0 1624 1364" fill="none" xmlns="http://www.w3.org/2000/svg">
<line x1="812.25" x2="812.25" y2="1364" stroke="black" stroke-width="0.5"/>
<line y1="691.75" x2="1624.01" y2="691.75" stroke="black" stroke-width="0.5"/>
<path d="M61.9432 658.545V676H59.8295V660.761H59.7273L55.4659 663.591V661.443L59.8295 658.545H61.9432ZM72.554 676.239C71.3835 676.239 70.3494 676.031 69.4517 675.616C68.5597 675.196 67.8636 674.619 67.3636 673.886C66.8636 673.148 66.6165 672.307 66.6222 671.364C66.6165 670.625 66.7614 669.943 67.0568 669.318C67.3523 668.687 67.7557 668.162 68.267 667.741C68.7841 667.315 69.3608 667.045 69.9972 666.932V666.83C69.1619 666.614 68.4972 666.145 68.0028 665.423C67.5085 664.696 67.2642 663.869 67.2699 662.943C67.2642 662.057 67.4886 661.264 67.9432 660.565C68.3977 659.866 69.0227 659.315 69.8182 658.912C70.6193 658.509 71.5313 658.307 72.554 658.307C73.5653 658.307 74.4688 658.509 75.2642 658.912C76.0597 659.315 76.6847 659.866 77.1392 660.565C77.5994 661.264 77.8324 662.057 77.8381 662.943C77.8324 663.869 77.5795 664.696 77.0795 665.423C76.5852 666.145 75.929 666.614 75.1108 666.83V666.932C75.7415 667.045 76.3097 667.315 76.8153 667.741C77.321 668.162 77.7244 668.687 78.0256 669.318C78.3267 669.943 78.4801 670.625 78.4858 671.364C78.4801 672.307 78.2244 673.148 77.7188 673.886C77.2188 674.619 76.5227 675.196 75.6307 675.616C74.7443 676.031 73.7188 676.239 72.554 676.239ZM72.554 674.364C73.3438 674.364 74.0256 674.236 74.5994 673.98C75.1733 673.724 75.6165 673.364 75.929 672.898C76.2415 672.432 76.4006 671.886 76.4062 671.261C76.4006 670.602 76.2301 670.02 75.8949 669.514C75.5597 669.009 75.1023 668.611 74.5227 668.321C73.9489 668.031 73.2926 667.886 72.554 667.886C71.8097 667.886 71.1449 668.031 70.5597 668.321C69.9801 668.611 69.5227 669.009 69.1875 669.514C68.858 670.02 68.696 670.602 68.7017 671.261C68.696 671.886 68.8466 672.432 69.1534 672.898C69.4659 673.364 69.9119 673.724 70.4915 673.98C71.071 674.236 71.7585 674.364 72.554 674.364ZM72.554 666.08C73.179 666.08 73.733 665.955 74.2159 665.705C74.7045 665.455 75.0881 665.105 75.3665 664.656C75.6449 664.207 75.7869 663.682 75.7926 663.08C75.7869 662.489 75.6477 661.974 75.375 661.537C75.1023 661.094 74.7244 660.753 74.2415 660.514C73.7585 660.27 73.196 660.148 72.554 660.148C71.9006 660.148 71.3295 660.27 70.8409 660.514C70.3523 660.753 69.9744 661.094 69.7074 661.537C69.4403 661.974 69.3097 662.489 69.3153 663.08C69.3097 663.682 69.4432 664.207 69.7159 664.656C69.9943 665.105 70.3778 665.455 70.8665 665.705C71.3551 665.955 71.9176 666.08 72.554 666.08Z" fill="black"/>
<path d="M217.943 658.545V676H215.83V660.761H215.727L211.466 663.591V661.443L215.83 658.545H217.943ZM223.509 676L231.315 660.557V660.42H222.315V658.545H233.497V660.523L225.724 676H223.509Z" fill="black"/>
<path d="M379.943 658.545V676H377.83V660.761H377.727L373.466 663.591V661.443L377.83 658.545H379.943ZM390.759 676.239C390.043 676.227 389.327 676.091 388.611 675.83C387.895 675.568 387.241 675.128 386.651 674.509C386.06 673.884 385.585 673.04 385.227 671.977C384.869 670.909 384.69 669.568 384.69 667.955C384.69 666.409 384.835 665.04 385.125 663.847C385.415 662.648 385.835 661.639 386.386 660.821C386.938 659.997 387.602 659.372 388.381 658.946C389.165 658.52 390.048 658.307 391.031 658.307C392.009 658.307 392.878 658.503 393.639 658.895C394.406 659.281 395.031 659.821 395.514 660.514C395.997 661.207 396.31 662.006 396.452 662.909H394.372C394.179 662.125 393.804 661.474 393.247 660.957C392.69 660.44 391.952 660.182 391.031 660.182C389.679 660.182 388.614 660.77 387.835 661.946C387.063 663.122 386.673 664.773 386.668 666.898H386.804C387.122 666.415 387.5 666.003 387.938 665.662C388.381 665.315 388.869 665.048 389.403 664.861C389.938 664.673 390.503 664.58 391.099 664.58C392.099 664.58 393.014 664.83 393.844 665.33C394.673 665.824 395.338 666.509 395.838 667.384C396.338 668.253 396.588 669.25 396.588 670.375C396.588 671.455 396.347 672.443 395.864 673.341C395.381 674.233 394.702 674.943 393.827 675.472C392.957 675.994 391.935 676.25 390.759 676.239ZM390.759 674.364C391.474 674.364 392.116 674.185 392.685 673.827C393.259 673.469 393.71 672.989 394.04 672.386C394.375 671.784 394.543 671.114 394.543 670.375C394.543 669.653 394.381 668.997 394.057 668.406C393.739 667.81 393.298 667.335 392.736 666.983C392.179 666.631 391.543 666.455 390.827 666.455C390.287 666.455 389.784 666.562 389.318 666.778C388.852 666.989 388.443 667.278 388.091 667.648C387.744 668.017 387.472 668.44 387.273 668.918C387.074 669.389 386.974 669.886 386.974 670.409C386.974 671.102 387.136 671.75 387.46 672.352C387.79 672.955 388.239 673.44 388.807 673.81C389.381 674.179 390.031 674.364 390.759 674.364Z" fill="black"/>
<path d="M496.943 658.545V676H494.83V660.761H494.727L490.466 663.591V661.443L494.83 658.545H496.943ZM507.418 676.239C506.418 676.239 505.517 676.04 504.716 675.642C503.915 675.244 503.273 674.699 502.79 674.006C502.307 673.312 502.043 672.523 501.997 671.636H504.043C504.122 672.426 504.48 673.08 505.116 673.597C505.759 674.108 506.526 674.364 507.418 674.364C508.134 674.364 508.77 674.196 509.327 673.861C509.889 673.526 510.33 673.065 510.648 672.48C510.972 671.889 511.134 671.222 511.134 670.477C511.134 669.716 510.966 669.037 510.631 668.44C510.301 667.838 509.847 667.364 509.267 667.017C508.688 666.67 508.026 666.494 507.281 666.489C506.747 666.483 506.199 666.565 505.636 666.736C505.074 666.901 504.611 667.114 504.247 667.375L502.27 667.136L503.327 658.545H512.395V660.42H505.099L504.486 665.568H504.588C504.946 665.284 505.395 665.048 505.935 664.861C506.474 664.673 507.037 664.58 507.622 664.58C508.69 664.58 509.642 664.835 510.477 665.347C511.318 665.852 511.977 666.545 512.455 667.426C512.938 668.307 513.179 669.312 513.179 670.443C513.179 671.557 512.929 672.551 512.429 673.426C511.935 674.295 511.253 674.983 510.384 675.489C509.514 675.989 508.526 676.239 507.418 676.239Z" fill="black"/>
<path d="M567.943 658.545V676H565.83V660.761H565.727L561.466 663.591V661.443L565.83 658.545H567.943ZM572.554 672.42V670.682L580.224 658.545H581.486V661.239H580.634L574.838 670.409V670.545H585.168V672.42H572.554ZM580.77 676V671.892V671.082V658.545H582.781V676H580.77Z" fill="black"/>
<path d="M635.943 658.545V676H633.83V660.761H633.727L629.466 663.591V661.443L633.83 658.545H635.943ZM646.861 676.239C645.736 676.239 644.733 676.045 643.852 675.659C642.977 675.273 642.281 674.736 641.764 674.048C641.253 673.355 640.974 672.551 640.929 671.636H643.077C643.122 672.199 643.315 672.685 643.656 673.094C643.997 673.497 644.443 673.81 644.994 674.031C645.545 674.253 646.156 674.364 646.827 674.364C647.577 674.364 648.241 674.233 648.821 673.972C649.401 673.71 649.855 673.347 650.185 672.881C650.514 672.415 650.679 671.875 650.679 671.261C650.679 670.619 650.52 670.054 650.202 669.565C649.884 669.071 649.418 668.685 648.804 668.406C648.19 668.128 647.44 667.989 646.554 667.989H645.156V666.114H646.554C647.247 666.114 647.855 665.989 648.378 665.739C648.906 665.489 649.318 665.136 649.614 664.682C649.915 664.227 650.065 663.693 650.065 663.08C650.065 662.489 649.935 661.974 649.673 661.537C649.412 661.099 649.043 660.759 648.565 660.514C648.094 660.27 647.537 660.148 646.895 660.148C646.293 660.148 645.724 660.259 645.19 660.48C644.662 660.696 644.23 661.011 643.895 661.426C643.56 661.835 643.378 662.33 643.349 662.909H641.304C641.338 661.994 641.614 661.193 642.131 660.506C642.648 659.812 643.324 659.273 644.159 658.886C645 658.5 645.923 658.307 646.929 658.307C648.009 658.307 648.935 658.526 649.707 658.963C650.48 659.395 651.074 659.966 651.489 660.676C651.903 661.386 652.111 662.153 652.111 662.977C652.111 663.96 651.852 664.798 651.335 665.491C650.824 666.185 650.128 666.665 649.247 666.932V667.068C650.349 667.25 651.21 667.719 651.83 668.474C652.449 669.224 652.759 670.153 652.759 671.261C652.759 672.21 652.5 673.062 651.983 673.818C651.472 674.568 650.773 675.159 649.886 675.591C649 676.023 647.991 676.239 646.861 676.239Z" fill="black"/>
<path d="M700.943 658.545V676H698.83V660.761H698.727L694.466 663.591V661.443L698.83 658.545H700.943ZM705.963 676V674.466L711.724 668.159C712.401 667.42 712.957 666.778 713.395 666.233C713.832 665.682 714.156 665.165 714.366 664.682C714.582 664.193 714.69 663.682 714.69 663.148C714.69 662.534 714.543 662.003 714.247 661.554C713.957 661.105 713.56 660.759 713.054 660.514C712.548 660.27 711.98 660.148 711.349 660.148C710.679 660.148 710.094 660.287 709.594 660.565C709.099 660.838 708.716 661.222 708.443 661.716C708.176 662.21 708.043 662.79 708.043 663.455H706.031C706.031 662.432 706.267 661.534 706.739 660.761C707.21 659.989 707.852 659.386 708.665 658.955C709.483 658.523 710.401 658.307 711.418 658.307C712.44 658.307 713.347 658.523 714.136 658.955C714.926 659.386 715.545 659.969 715.994 660.702C716.443 661.435 716.668 662.25 716.668 663.148C716.668 663.79 716.551 664.418 716.318 665.031C716.091 665.639 715.693 666.318 715.125 667.068C714.562 667.812 713.781 668.722 712.781 669.795L708.861 673.989V674.125H716.974V676H705.963Z" fill="black"/>
<path d="M771.943 658.545V676H769.83V660.761H769.727L765.466 663.591V661.443L769.83 658.545H771.943ZM783.099 658.545V676H780.986V660.761H780.884L776.622 663.591V661.443L780.986 658.545H783.099Z" fill="black"/>
<path d="M839.807 676V674.466L845.568 668.159C846.244 667.42 846.801 666.778 847.239 666.233C847.676 665.682 848 665.165 848.21 664.682C848.426 664.193 848.534 663.682 848.534 663.148C848.534 662.534 848.386 662.003 848.091 661.554C847.801 661.105 847.403 660.759 846.898 660.514C846.392 660.27 845.824 660.148 845.193 660.148C844.523 660.148 843.938 660.287 843.438 660.565C842.943 660.838 842.56 661.222 842.287 661.716C842.02 662.21 841.886 662.79 841.886 663.455H839.875C839.875 662.432 840.111 661.534 840.582 660.761C841.054 659.989 841.696 659.386 842.509 658.955C843.327 658.523 844.244 658.307 845.261 658.307C846.284 658.307 847.19 658.523 847.98 658.955C848.77 659.386 849.389 659.969 849.838 660.702C850.287 661.435 850.511 662.25 850.511 663.148C850.511 663.79 850.395 664.418 850.162 665.031C849.935 665.639 849.537 666.318 848.969 667.068C848.406 667.812 847.625 668.722 846.625 669.795L842.705 673.989V674.125H850.818V676H839.807ZM860.474 658.545V676H858.361V660.761H858.259L853.997 663.591V661.443L858.361 658.545H860.474Z" fill="black"/>
<path d="M906.807 676V674.466L912.568 668.159C913.244 667.42 913.801 666.778 914.239 666.233C914.676 665.682 915 665.165 915.21 664.682C915.426 664.193 915.534 663.682 915.534 663.148C915.534 662.534 915.386 662.003 915.091 661.554C914.801 661.105 914.403 660.759 913.898 660.514C913.392 660.27 912.824 660.148 912.193 660.148C911.523 660.148 910.938 660.287 910.438 660.565C909.943 660.838 909.56 661.222 909.287 661.716C909.02 662.21 908.886 662.79 908.886 663.455H906.875C906.875 662.432 907.111 661.534 907.582 660.761C908.054 659.989 908.696 659.386 909.509 658.955C910.327 658.523 911.244 658.307 912.261 658.307C913.284 658.307 914.19 658.523 914.98 658.955C915.77 659.386 916.389 659.969 916.838 660.702C917.287 661.435 917.511 662.25 917.511 663.148C917.511 663.79 917.395 664.418 917.162 665.031C916.935 665.639 916.537 666.318 915.969 667.068C915.406 667.812 914.625 668.722 913.625 669.795L909.705 673.989V674.125H917.818V676H906.807ZM921.338 676V674.466L927.099 668.159C927.776 667.42 928.332 666.778 928.77 666.233C929.207 665.682 929.531 665.165 929.741 664.682C929.957 664.193 930.065 663.682 930.065 663.148C930.065 662.534 929.918 662.003 929.622 661.554C929.332 661.105 928.935 660.759 928.429 660.514C927.923 660.27 927.355 660.148 926.724 660.148C926.054 660.148 925.469 660.287 924.969 660.565C924.474 660.838 924.091 661.222 923.818 661.716C923.551 662.21 923.418 662.79 923.418 663.455H921.406C921.406 662.432 921.642 661.534 922.114 660.761C922.585 659.989 923.227 659.386 924.04 658.955C924.858 658.523 925.776 658.307 926.793 658.307C927.815 658.307 928.722 658.523 929.511 658.955C930.301 659.386 930.92 659.969 931.369 660.702C931.818 661.435 932.043 662.25 932.043 663.148C932.043 663.79 931.926 664.418 931.693 665.031C931.466 665.639 931.068 666.318 930.5 667.068C929.938 667.812 929.156 668.722 928.156 669.795L924.236 673.989V674.125H932.349V676H921.338Z" fill="black"/>
<path d="M970.807 676V674.466L976.568 668.159C977.244 667.42 977.801 666.778 978.239 666.233C978.676 665.682 979 665.165 979.21 664.682C979.426 664.193 979.534 663.682 979.534 663.148C979.534 662.534 979.386 662.003 979.091 661.554C978.801 661.105 978.403 660.759 977.898 660.514C977.392 660.27 976.824 660.148 976.193 660.148C975.523 660.148 974.938 660.287 974.438 660.565C973.943 660.838 973.56 661.222 973.287 661.716C973.02 662.21 972.886 662.79 972.886 663.455H970.875C970.875 662.432 971.111 661.534 971.582 660.761C972.054 659.989 972.696 659.386 973.509 658.955C974.327 658.523 975.244 658.307 976.261 658.307C977.284 658.307 978.19 658.523 978.98 658.955C979.77 659.386 980.389 659.969 980.838 660.702C981.287 661.435 981.511 662.25 981.511 663.148C981.511 663.79 981.395 664.418 981.162 665.031C980.935 665.639 980.537 666.318 979.969 667.068C979.406 667.812 978.625 668.722 977.625 669.795L973.705 673.989V674.125H981.818V676H970.807ZM991.236 676.239C990.111 676.239 989.108 676.045 988.227 675.659C987.352 675.273 986.656 674.736 986.139 674.048C985.628 673.355 985.349 672.551 985.304 671.636H987.452C987.497 672.199 987.69 672.685 988.031 673.094C988.372 673.497 988.818 673.81 989.369 674.031C989.92 674.253 990.531 674.364 991.202 674.364C991.952 674.364 992.616 674.233 993.196 673.972C993.776 673.71 994.23 673.347 994.56 672.881C994.889 672.415 995.054 671.875 995.054 671.261C995.054 670.619 994.895 670.054 994.577 669.565C994.259 669.071 993.793 668.685 993.179 668.406C992.565 668.128 991.815 667.989 990.929 667.989H989.531V666.114H990.929C991.622 666.114 992.23 665.989 992.753 665.739C993.281 665.489 993.693 665.136 993.989 664.682C994.29 664.227 994.44 663.693 994.44 663.08C994.44 662.489 994.31 661.974 994.048 661.537C993.787 661.099 993.418 660.759 992.94 660.514C992.469 660.27 991.912 660.148 991.27 660.148C990.668 660.148 990.099 660.259 989.565 660.48C989.037 660.696 988.605 661.011 988.27 661.426C987.935 661.835 987.753 662.33 987.724 662.909H985.679C985.713 661.994 985.989 661.193 986.506 660.506C987.023 659.812 987.699 659.273 988.534 658.886C989.375 658.5 990.298 658.307 991.304 658.307C992.384 658.307 993.31 658.526 994.082 658.963C994.855 659.395 995.449 659.966 995.864 660.676C996.278 661.386 996.486 662.153 996.486 662.977C996.486 663.96 996.227 664.798 995.71 665.491C995.199 666.185 994.503 666.665 993.622 666.932V667.068C994.724 667.25 995.585 667.719 996.205 668.474C996.824 669.224 997.134 670.153 997.134 671.261C997.134 672.21 996.875 673.062 996.358 673.818C995.847 674.568 995.148 675.159 994.261 675.591C993.375 676.023 992.366 676.239 991.236 676.239Z" fill="black"/>
<path d="M1038.81 676V674.466L1044.57 668.159C1045.24 667.42 1045.8 666.778 1046.24 666.233C1046.68 665.682 1047 665.165 1047.21 664.682C1047.43 664.193 1047.53 663.682 1047.53 663.148C1047.53 662.534 1047.39 662.003 1047.09 661.554C1046.8 661.105 1046.4 660.759 1045.9 660.514C1045.39 660.27 1044.82 660.148 1044.19 660.148C1043.52 660.148 1042.94 660.287 1042.44 660.565C1041.94 660.838 1041.56 661.222 1041.29 661.716C1041.02 662.21 1040.89 662.79 1040.89 663.455H1038.88C1038.88 662.432 1039.11 661.534 1039.58 660.761C1040.05 659.989 1040.7 659.386 1041.51 658.955C1042.33 658.523 1043.24 658.307 1044.26 658.307C1045.28 658.307 1046.19 658.523 1046.98 658.955C1047.77 659.386 1048.39 659.969 1048.84 660.702C1049.29 661.435 1049.51 662.25 1049.51 663.148C1049.51 663.79 1049.39 664.418 1049.16 665.031C1048.93 665.639 1048.54 666.318 1047.97 667.068C1047.41 667.812 1046.62 668.722 1045.62 669.795L1041.7 673.989V674.125H1049.82V676H1038.81ZM1052.55 672.42V670.682L1060.22 658.545H1061.49V661.239H1060.63L1054.84 670.409V670.545H1065.17V672.42H1052.55ZM1060.77 676V671.892V671.082V658.545H1062.78V676H1060.77Z" fill="black"/>
<path d="M1109.81 676V674.466L1115.57 668.159C1116.24 667.42 1116.8 666.778 1117.24 666.233C1117.68 665.682 1118 665.165 1118.21 664.682C1118.43 664.193 1118.53 663.682 1118.53 663.148C1118.53 662.534 1118.39 662.003 1118.09 661.554C1117.8 661.105 1117.4 660.759 1116.9 660.514C1116.39 660.27 1115.82 660.148 1115.19 660.148C1114.52 660.148 1113.94 660.287 1113.44 660.565C1112.94 660.838 1112.56 661.222 1112.29 661.716C1112.02 662.21 1111.89 662.79 1111.89 663.455H1109.88C1109.88 662.432 1110.11 661.534 1110.58 660.761C1111.05 659.989 1111.7 659.386 1112.51 658.955C1113.33 658.523 1114.24 658.307 1115.26 658.307C1116.28 658.307 1117.19 658.523 1117.98 658.955C1118.77 659.386 1119.39 659.969 1119.84 660.702C1120.29 661.435 1120.51 662.25 1120.51 663.148C1120.51 663.79 1120.39 664.418 1120.16 665.031C1119.93 665.639 1119.54 666.318 1118.97 667.068C1118.41 667.812 1117.62 668.722 1116.62 669.795L1112.7 673.989V674.125H1120.82V676H1109.81ZM1129.79 676.239C1128.79 676.239 1127.89 676.04 1127.09 675.642C1126.29 675.244 1125.65 674.699 1125.16 674.006C1124.68 673.312 1124.42 672.523 1124.37 671.636H1126.42C1126.5 672.426 1126.86 673.08 1127.49 673.597C1128.13 674.108 1128.9 674.364 1129.79 674.364C1130.51 674.364 1131.14 674.196 1131.7 673.861C1132.26 673.526 1132.7 673.065 1133.02 672.48C1133.35 671.889 1133.51 671.222 1133.51 670.477C1133.51 669.716 1133.34 669.037 1133.01 668.44C1132.68 667.838 1132.22 667.364 1131.64 667.017C1131.06 666.67 1130.4 666.494 1129.66 666.489C1129.12 666.483 1128.57 666.565 1128.01 666.736C1127.45 666.901 1126.99 667.114 1126.62 667.375L1124.64 667.136L1125.7 658.545H1134.77V660.42H1127.47L1126.86 665.568H1126.96C1127.32 665.284 1127.77 665.048 1128.31 664.861C1128.85 664.673 1129.41 664.58 1130 664.58C1131.07 664.58 1132.02 664.835 1132.85 665.347C1133.69 665.852 1134.35 666.545 1134.83 667.426C1135.31 668.307 1135.55 669.312 1135.55 670.443C1135.55 671.557 1135.3 672.551 1134.8 673.426C1134.31 674.295 1133.63 674.983 1132.76 675.489C1131.89 675.989 1130.9 676.239 1129.79 676.239Z" fill="black"/>
<path d="M1221.81 676V674.466L1227.57 668.159C1228.24 667.42 1228.8 666.778 1229.24 666.233C1229.68 665.682 1230 665.165 1230.21 664.682C1230.43 664.193 1230.53 663.682 1230.53 663.148C1230.53 662.534 1230.39 662.003 1230.09 661.554C1229.8 661.105 1229.4 660.759 1228.9 660.514C1228.39 660.27 1227.82 660.148 1227.19 660.148C1226.52 660.148 1225.94 660.287 1225.44 660.565C1224.94 660.838 1224.56 661.222 1224.29 661.716C1224.02 662.21 1223.89 662.79 1223.89 663.455H1221.88C1221.88 662.432 1222.11 661.534 1222.58 660.761C1223.05 659.989 1223.7 659.386 1224.51 658.955C1225.33 658.523 1226.24 658.307 1227.26 658.307C1228.28 658.307 1229.19 658.523 1229.98 658.955C1230.77 659.386 1231.39 659.969 1231.84 660.702C1232.29 661.435 1232.51 662.25 1232.51 663.148C1232.51 663.79 1232.39 664.418 1232.16 665.031C1231.93 665.639 1231.54 666.318 1230.97 667.068C1230.41 667.812 1229.62 668.722 1228.62 669.795L1224.7 673.989V674.125H1232.82V676H1221.81ZM1242.13 676.239C1241.42 676.227 1240.7 676.091 1239.99 675.83C1239.27 675.568 1238.62 675.128 1238.03 674.509C1237.43 673.884 1236.96 673.04 1236.6 671.977C1236.24 670.909 1236.07 669.568 1236.07 667.955C1236.07 666.409 1236.21 665.04 1236.5 663.847C1236.79 662.648 1237.21 661.639 1237.76 660.821C1238.31 659.997 1238.98 659.372 1239.76 658.946C1240.54 658.52 1241.42 658.307 1242.41 658.307C1243.38 658.307 1244.25 658.503 1245.01 658.895C1245.78 659.281 1246.41 659.821 1246.89 660.514C1247.37 661.207 1247.68 662.006 1247.83 662.909H1245.75C1245.55 662.125 1245.18 661.474 1244.62 660.957C1244.07 660.44 1243.33 660.182 1242.41 660.182C1241.05 660.182 1239.99 660.77 1239.21 661.946C1238.44 663.122 1238.05 664.773 1238.04 666.898H1238.18C1238.5 666.415 1238.88 666.003 1239.31 665.662C1239.76 665.315 1240.24 665.048 1240.78 664.861C1241.31 664.673 1241.88 664.58 1242.47 664.58C1243.47 664.58 1244.39 664.83 1245.22 665.33C1246.05 665.824 1246.71 666.509 1247.21 667.384C1247.71 668.253 1247.96 669.25 1247.96 670.375C1247.96 671.455 1247.72 672.443 1247.24 673.341C1246.76 674.233 1246.08 674.943 1245.2 675.472C1244.33 675.994 1243.31 676.25 1242.13 676.239ZM1242.13 674.364C1242.85 674.364 1243.49 674.185 1244.06 673.827C1244.63 673.469 1245.09 672.989 1245.41 672.386C1245.75 671.784 1245.92 671.114 1245.92 670.375C1245.92 669.653 1245.76 668.997 1245.43 668.406C1245.11 667.81 1244.67 667.335 1244.11 666.983C1243.55 666.631 1242.92 666.455 1242.2 666.455C1241.66 666.455 1241.16 666.562 1240.69 666.778C1240.23 666.989 1239.82 667.278 1239.47 667.648C1239.12 668.017 1238.85 668.44 1238.65 668.918C1238.45 669.389 1238.35 669.886 1238.35 670.409C1238.35 671.102 1238.51 671.75 1238.84 672.352C1239.16 672.955 1239.61 673.44 1240.18 673.81C1240.76 674.179 1241.41 674.364 1242.13 674.364Z" fill="black"/>
<path d="M1383.81 676V674.466L1389.57 668.159C1390.24 667.42 1390.8 666.778 1391.24 666.233C1391.68 665.682 1392 665.165 1392.21 664.682C1392.43 664.193 1392.53 663.682 1392.53 663.148C1392.53 662.534 1392.39 662.003 1392.09 661.554C1391.8 661.105 1391.4 660.759 1390.9 660.514C1390.39 660.27 1389.82 660.148 1389.19 660.148C1388.52 660.148 1387.94 660.287 1387.44 660.565C1386.94 660.838 1386.56 661.222 1386.29 661.716C1386.02 662.21 1385.89 662.79 1385.89 663.455H1383.88C1383.88 662.432 1384.11 661.534 1384.58 660.761C1385.05 659.989 1385.7 659.386 1386.51 658.955C1387.33 658.523 1388.24 658.307 1389.26 658.307C1390.28 658.307 1391.19 658.523 1391.98 658.955C1392.77 659.386 1393.39 659.969 1393.84 660.702C1394.29 661.435 1394.51 662.25 1394.51 663.148C1394.51 663.79 1394.39 664.418 1394.16 665.031C1393.93 665.639 1393.54 666.318 1392.97 667.068C1392.41 667.812 1391.62 668.722 1390.62 669.795L1386.7 673.989V674.125H1394.82V676H1383.81ZM1398.88 676L1406.69 660.557V660.42H1397.69V658.545H1408.87V660.523L1401.1 676H1398.88Z" fill="black"/>
<path d="M1523.81 676V674.466L1529.57 668.159C1530.24 667.42 1530.8 666.778 1531.24 666.233C1531.68 665.682 1532 665.165 1532.21 664.682C1532.43 664.193 1532.53 663.682 1532.53 663.148C1532.53 662.534 1532.39 662.003 1532.09 661.554C1531.8 661.105 1531.4 660.759 1530.9 660.514C1530.39 660.27 1529.82 660.148 1529.19 660.148C1528.52 660.148 1527.94 660.287 1527.44 660.565C1526.94 660.838 1526.56 661.222 1526.29 661.716C1526.02 662.21 1525.89 662.79 1525.89 663.455H1523.88C1523.88 662.432 1524.11 661.534 1524.58 660.761C1525.05 659.989 1525.7 659.386 1526.51 658.955C1527.33 658.523 1528.24 658.307 1529.26 658.307C1530.28 658.307 1531.19 658.523 1531.98 658.955C1532.77 659.386 1533.39 659.969 1533.84 660.702C1534.29 661.435 1534.51 662.25 1534.51 663.148C1534.51 663.79 1534.39 664.418 1534.16 665.031C1533.93 665.639 1533.54 666.318 1532.97 667.068C1532.41 667.812 1531.62 668.722 1530.62 669.795L1526.7 673.989V674.125H1534.82V676H1523.81ZM1543.93 676.239C1542.76 676.239 1541.72 676.031 1540.83 675.616C1539.93 675.196 1539.24 674.619 1538.74 673.886C1538.24 673.148 1537.99 672.307 1538 671.364C1537.99 670.625 1538.14 669.943 1538.43 669.318C1538.73 668.687 1539.13 668.162 1539.64 667.741C1540.16 667.315 1540.74 667.045 1541.37 666.932V666.83C1540.54 666.614 1539.87 666.145 1539.38 665.423C1538.88 664.696 1538.64 663.869 1538.64 662.943C1538.64 662.057 1538.86 661.264 1539.32 660.565C1539.77 659.866 1540.4 659.315 1541.19 658.912C1541.99 658.509 1542.91 658.307 1543.93 658.307C1544.94 658.307 1545.84 658.509 1546.64 658.912C1547.43 659.315 1548.06 659.866 1548.51 660.565C1548.97 661.264 1549.21 662.057 1549.21 662.943C1549.21 663.869 1548.95 664.696 1548.45 665.423C1547.96 666.145 1547.3 666.614 1546.49 666.83V666.932C1547.12 667.045 1547.68 667.315 1548.19 667.741C1548.7 668.162 1549.1 668.687 1549.4 669.318C1549.7 669.943 1549.86 670.625 1549.86 671.364C1549.86 672.307 1549.6 673.148 1549.09 673.886C1548.59 674.619 1547.9 675.196 1547.01 675.616C1546.12 676.031 1545.09 676.239 1543.93 676.239ZM1543.93 674.364C1544.72 674.364 1545.4 674.236 1545.97 673.98C1546.55 673.724 1546.99 673.364 1547.3 672.898C1547.62 672.432 1547.78 671.886 1547.78 671.261C1547.78 670.602 1547.61 670.02 1547.27 669.514C1546.93 669.009 1546.48 668.611 1545.9 668.321C1545.32 668.031 1544.67 667.886 1543.93 667.886C1543.18 667.886 1542.52 668.031 1541.93 668.321C1541.36 668.611 1540.9 669.009 1540.56 669.514C1540.23 670.02 1540.07 670.602 1540.08 671.261C1540.07 671.886 1540.22 672.432 1540.53 672.898C1540.84 673.364 1541.29 673.724 1541.87 673.98C1542.45 674.236 1543.13 674.364 1543.93 674.364ZM1543.93 666.08C1544.55 666.08 1545.11 665.955 1545.59 665.705C1546.08 665.455 1546.46 665.105 1546.74 664.656C1547.02 664.207 1547.16 663.682 1547.17 663.08C1547.16 662.489 1547.02 661.974 1546.75 661.537C1546.48 661.094 1546.1 660.753 1545.62 660.514C1545.13 660.27 1544.57 660.148 1543.93 660.148C1543.28 660.148 1542.7 660.27 1542.22 660.514C1541.73 660.753 1541.35 661.094 1541.08 661.537C1540.82 661.974 1540.68 662.489 1540.69 663.08C1540.68 663.682 1540.82 664.207 1541.09 664.656C1541.37 665.105 1541.75 665.455 1542.24 665.705C1542.73 665.955 1543.29 666.08 1543.93 666.08Z" fill="black"/>
<path d="M74.3977 721.42V719.682L82.0682 707.545H83.3295V710.239H82.4773L76.6818 719.409V719.545H87.0114V721.42H74.3977ZM82.6136 725V720.892V720.082V707.545H84.625V725H82.6136ZM95.7962 725.239C94.6257 725.239 93.5916 725.031 92.6939 724.616C91.8018 724.196 91.1058 723.619 90.6058 722.886C90.1058 722.148 89.8587 721.307 89.8643 720.364C89.8587 719.625 90.0036 718.943 90.299 718.318C90.5945 717.687 90.9979 717.162 91.5092 716.741C92.0263 716.315 92.603 716.045 93.2393 715.932V715.83C92.4041 715.614 91.7393 715.145 91.245 714.423C90.7507 713.696 90.5064 712.869 90.5121 711.943C90.5064 711.057 90.7308 710.264 91.1854 709.565C91.6399 708.866 92.2649 708.315 93.0604 707.912C93.8615 707.509 94.7734 707.307 95.7962 707.307C96.8075 707.307 97.7109 707.509 98.5064 707.912C99.3018 708.315 99.9268 708.866 100.381 709.565C100.842 710.264 101.075 711.057 101.08 711.943C101.075 712.869 100.822 713.696 100.322 714.423C99.8274 715.145 99.1712 715.614 98.353 715.83V715.932C98.9837 716.045 99.5518 716.315 100.058 716.741C100.563 717.162 100.967 717.687 101.268 718.318C101.569 718.943 101.722 719.625 101.728 720.364C101.722 721.307 101.467 722.148 100.961 722.886C100.461 723.619 99.7649 724.196 98.8729 724.616C97.9865 725.031 96.9609 725.239 95.7962 725.239ZM95.7962 723.364C96.5859 723.364 97.2678 723.236 97.8416 722.98C98.4155 722.724 98.8587 722.364 99.1712 721.898C99.4837 721.432 99.6428 720.886 99.6484 720.261C99.6428 719.602 99.4723 719.02 99.1371 718.514C98.8018 718.009 98.3445 717.611 97.7649 717.321C97.1911 717.031 96.5348 716.886 95.7962 716.886C95.0518 716.886 94.3871 717.031 93.8018 717.321C93.2223 717.611 92.7649 718.009 92.4297 718.514C92.1001 719.02 91.9382 719.602 91.9439 720.261C91.9382 720.886 92.0888 721.432 92.3956 721.898C92.7081 722.364 93.1541 722.724 93.7337 722.98C94.3132 723.236 95.0007 723.364 95.7962 723.364ZM95.7962 715.08C96.4212 715.08 96.9751 714.955 97.4581 714.705C97.9467 714.455 98.3303 714.105 98.6087 713.656C98.8871 713.207 99.0291 712.682 99.0348 712.08C99.0291 711.489 98.8899 710.974 98.6172 710.537C98.3445 710.094 97.9666 709.753 97.4837 709.514C97.0007 709.27 96.4382 709.148 95.7962 709.148C95.1428 709.148 94.5717 709.27 94.0831 709.514C93.5945 709.753 93.2166 710.094 92.9496 710.537C92.6825 710.974 92.5518 711.489 92.5575 712.08C92.5518 712.682 92.6854 713.207 92.9581 713.656C93.2365 714.105 93.62 714.455 94.1087 714.705C94.5973 714.955 95.1598 715.08 95.7962 715.08Z" fill="black"/>
<path d="M214.398 721.42V719.682L222.068 707.545H223.33V710.239H222.477L216.682 719.409V719.545H227.011V721.42H214.398ZM222.614 725V720.892V720.082V707.545H224.625V725H222.614ZM230.751 725L238.558 709.557V709.42H229.558V707.545H240.739V709.523L232.967 725H230.751Z" fill="black"/>
<path d="M367.398 721.42V719.682L375.068 707.545H376.33V710.239H375.477L369.682 719.409V719.545H380.011V721.42H367.398ZM375.614 725V720.892V720.082V707.545H377.625V725H375.614ZM389.001 725.239C388.285 725.227 387.569 725.091 386.853 724.83C386.137 724.568 385.484 724.128 384.893 723.509C384.302 722.884 383.827 722.04 383.469 720.977C383.112 719.909 382.933 718.568 382.933 716.955C382.933 715.409 383.077 714.04 383.367 712.847C383.657 711.648 384.077 710.639 384.629 709.821C385.18 708.997 385.844 708.372 386.623 707.946C387.407 707.52 388.29 707.307 389.273 707.307C390.251 707.307 391.12 707.503 391.881 707.895C392.648 708.281 393.273 708.821 393.756 709.514C394.239 710.207 394.552 711.006 394.694 711.909H392.614C392.421 711.125 392.046 710.474 391.489 709.957C390.933 709.44 390.194 709.182 389.273 709.182C387.921 709.182 386.856 709.77 386.077 710.946C385.305 712.122 384.915 713.773 384.91 715.898H385.046C385.364 715.415 385.742 715.003 386.18 714.662C386.623 714.315 387.112 714.048 387.646 713.861C388.18 713.673 388.745 713.58 389.342 713.58C390.342 713.58 391.256 713.83 392.086 714.33C392.915 714.824 393.58 715.509 394.08 716.384C394.58 717.253 394.83 718.25 394.83 719.375C394.83 720.455 394.589 721.443 394.106 722.341C393.623 723.233 392.944 723.943 392.069 724.472C391.2 724.994 390.177 725.25 389.001 725.239ZM389.001 723.364C389.717 723.364 390.359 723.185 390.927 722.827C391.501 722.469 391.952 721.989 392.282 721.386C392.617 720.784 392.785 720.114 392.785 719.375C392.785 718.653 392.623 717.997 392.299 717.406C391.981 716.81 391.54 716.335 390.978 715.983C390.421 715.631 389.785 715.455 389.069 715.455C388.529 715.455 388.026 715.562 387.56 715.778C387.094 715.989 386.685 716.278 386.333 716.648C385.987 717.017 385.714 717.44 385.515 717.918C385.316 718.389 385.217 718.886 385.217 719.409C385.217 720.102 385.379 720.75 385.702 721.352C386.032 721.955 386.481 722.44 387.049 722.81C387.623 723.179 388.273 723.364 389.001 723.364Z" fill="black"/>
<path d="M476.398 721.42V719.682L484.068 707.545H485.33V710.239H484.477L478.682 719.409V719.545H489.011V721.42H476.398ZM484.614 725V720.892V720.082V707.545H486.625V725H484.614ZM497.66 725.239C496.66 725.239 495.759 725.04 494.958 724.642C494.157 724.244 493.515 723.699 493.032 723.006C492.549 722.312 492.285 721.523 492.239 720.636H494.285C494.364 721.426 494.722 722.08 495.359 722.597C496.001 723.108 496.768 723.364 497.66 723.364C498.376 723.364 499.012 723.196 499.569 722.861C500.131 722.526 500.572 722.065 500.89 721.48C501.214 720.889 501.376 720.222 501.376 719.477C501.376 718.716 501.208 718.037 500.873 717.44C500.543 716.838 500.089 716.364 499.509 716.017C498.93 715.67 498.268 715.494 497.523 715.489C496.989 715.483 496.441 715.565 495.879 715.736C495.316 715.901 494.853 716.114 494.489 716.375L492.512 716.136L493.569 707.545H502.637V709.42H495.342L494.728 714.568H494.83C495.188 714.284 495.637 714.048 496.177 713.861C496.717 713.673 497.279 713.58 497.864 713.58C498.933 713.58 499.884 713.835 500.719 714.347C501.56 714.852 502.219 715.545 502.697 716.426C503.18 717.307 503.421 718.312 503.421 719.443C503.421 720.557 503.171 721.551 502.671 722.426C502.177 723.295 501.495 723.983 500.626 724.489C499.756 724.989 498.768 725.239 497.66 725.239Z" fill="black"/>
<path d="M550.398 721.42V719.682L558.068 707.545H559.33V710.239H558.477L552.682 719.409V719.545H563.011V721.42H550.398ZM558.614 725V720.892V720.082V707.545H560.625V725H558.614ZM565.796 721.42V719.682L573.467 707.545H574.728V710.239H573.876L568.08 719.409V719.545H578.41V721.42H565.796ZM574.012 725V720.892V720.082V707.545H576.023V725H574.012Z" fill="black"/>
<path d="M629.398 721.42V719.682L637.068 707.545H638.33V710.239H637.477L631.682 719.409V719.545H642.011V721.42H629.398ZM637.614 725V720.892V720.082V707.545H639.625V725H637.614ZM651.103 725.239C649.978 725.239 648.975 725.045 648.094 724.659C647.219 724.273 646.523 723.736 646.006 723.048C645.495 722.355 645.217 721.551 645.171 720.636H647.319C647.364 721.199 647.558 721.685 647.898 722.094C648.239 722.497 648.685 722.81 649.237 723.031C649.788 723.253 650.398 723.364 651.069 723.364C651.819 723.364 652.484 723.233 653.063 722.972C653.643 722.71 654.097 722.347 654.427 721.881C654.756 721.415 654.921 720.875 654.921 720.261C654.921 719.619 654.762 719.054 654.444 718.565C654.126 718.071 653.66 717.685 653.046 717.406C652.433 717.128 651.683 716.989 650.796 716.989H649.398V715.114H650.796C651.489 715.114 652.097 714.989 652.62 714.739C653.148 714.489 653.56 714.136 653.856 713.682C654.157 713.227 654.308 712.693 654.308 712.08C654.308 711.489 654.177 710.974 653.915 710.537C653.654 710.099 653.285 709.759 652.808 709.514C652.336 709.27 651.779 709.148 651.137 709.148C650.535 709.148 649.967 709.259 649.433 709.48C648.904 709.696 648.472 710.011 648.137 710.426C647.802 710.835 647.62 711.33 647.592 711.909H645.546C645.58 710.994 645.856 710.193 646.373 709.506C646.89 708.812 647.566 708.273 648.401 707.886C649.242 707.5 650.165 707.307 651.171 707.307C652.251 707.307 653.177 707.526 653.95 707.963C654.722 708.395 655.316 708.966 655.731 709.676C656.146 710.386 656.353 711.153 656.353 711.977C656.353 712.96 656.094 713.798 655.577 714.491C655.066 715.185 654.37 715.665 653.489 715.932V716.068C654.592 716.25 655.452 716.719 656.072 717.474C656.691 718.224 657.001 719.153 657.001 720.261C657.001 721.21 656.742 722.062 656.225 722.818C655.714 723.568 655.015 724.159 654.129 724.591C653.242 725.023 652.234 725.239 651.103 725.239Z" fill="black"/>
<path d="M698.398 721.42V719.682L706.068 707.545H707.33V710.239H706.477L700.682 719.409V719.545H711.011V721.42H698.398ZM706.614 725V720.892V720.082V707.545H708.625V725H706.614ZM714.205 725V723.466L719.967 717.159C720.643 716.42 721.2 715.778 721.637 715.233C722.075 714.682 722.398 714.165 722.609 713.682C722.825 713.193 722.933 712.682 722.933 712.148C722.933 711.534 722.785 711.003 722.489 710.554C722.2 710.105 721.802 709.759 721.296 709.514C720.79 709.27 720.222 709.148 719.592 709.148C718.921 709.148 718.336 709.287 717.836 709.565C717.342 709.838 716.958 710.222 716.685 710.716C716.418 711.21 716.285 711.79 716.285 712.455H714.273C714.273 711.432 714.509 710.534 714.981 709.761C715.452 708.989 716.094 708.386 716.907 707.955C717.725 707.523 718.643 707.307 719.66 707.307C720.683 707.307 721.589 707.523 722.379 707.955C723.168 708.386 723.788 708.969 724.237 709.702C724.685 710.435 724.91 711.25 724.91 712.148C724.91 712.79 724.793 713.418 724.56 714.031C724.333 714.639 723.935 715.318 723.367 716.068C722.805 716.812 722.023 717.722 721.023 718.795L717.103 722.989V723.125H725.217V725H714.205Z" fill="black"/>
<path d="M763.398 721.42V719.682L771.068 707.545H772.33V710.239H771.477L765.682 719.409V719.545H776.011V721.42H763.398ZM771.614 725V720.892V720.082V707.545H773.625V725H771.614ZM785.107 707.545V725H782.994V709.761H782.891L778.63 712.591V710.443L782.994 707.545H785.107Z" fill="black"/>
<path d="M839.705 725.239C838.58 725.239 837.577 725.045 836.696 724.659C835.821 724.273 835.125 723.736 834.608 723.048C834.097 722.355 833.818 721.551 833.773 720.636H835.92C835.966 721.199 836.159 721.685 836.5 722.094C836.841 722.497 837.287 722.81 837.838 723.031C838.389 723.253 839 723.364 839.67 723.364C840.42 723.364 841.085 723.233 841.665 722.972C842.244 722.71 842.699 722.347 843.028 721.881C843.358 721.415 843.523 720.875 843.523 720.261C843.523 719.619 843.364 719.054 843.045 718.565C842.727 718.071 842.261 717.685 841.648 717.406C841.034 717.128 840.284 716.989 839.398 716.989H838V715.114H839.398C840.091 715.114 840.699 714.989 841.222 714.739C841.75 714.489 842.162 714.136 842.457 713.682C842.759 713.227 842.909 712.693 842.909 712.08C842.909 711.489 842.778 710.974 842.517 710.537C842.256 710.099 841.886 709.759 841.409 709.514C840.938 709.27 840.381 709.148 839.739 709.148C839.136 709.148 838.568 709.259 838.034 709.48C837.506 709.696 837.074 710.011 836.739 710.426C836.403 710.835 836.222 711.33 836.193 711.909H834.148C834.182 710.994 834.457 710.193 834.974 709.506C835.491 708.812 836.168 708.273 837.003 707.886C837.844 707.5 838.767 707.307 839.773 707.307C840.852 707.307 841.778 707.526 842.551 707.963C843.324 708.395 843.918 708.966 844.332 709.676C844.747 710.386 844.955 711.153 844.955 711.977C844.955 712.96 844.696 713.798 844.179 714.491C843.668 715.185 842.972 715.665 842.091 715.932V716.068C843.193 716.25 844.054 716.719 844.673 717.474C845.293 718.224 845.602 719.153 845.602 720.261C845.602 721.21 845.344 722.062 844.827 722.818C844.315 723.568 843.616 724.159 842.73 724.591C841.844 725.023 840.835 725.239 839.705 725.239ZM855.224 707.545V725H853.111V709.761H853.009L848.747 712.591V710.443L853.111 707.545H855.224Z" fill="black"/>
<path d="M901.705 725.239C900.58 725.239 899.577 725.045 898.696 724.659C897.821 724.273 897.125 723.736 896.608 723.048C896.097 722.355 895.818 721.551 895.773 720.636H897.92C897.966 721.199 898.159 721.685 898.5 722.094C898.841 722.497 899.287 722.81 899.838 723.031C900.389 723.253 901 723.364 901.67 723.364C902.42 723.364 903.085 723.233 903.665 722.972C904.244 722.71 904.699 722.347 905.028 721.881C905.358 721.415 905.523 720.875 905.523 720.261C905.523 719.619 905.364 719.054 905.045 718.565C904.727 718.071 904.261 717.685 903.648 717.406C903.034 717.128 902.284 716.989 901.398 716.989H900V715.114H901.398C902.091 715.114 902.699 714.989 903.222 714.739C903.75 714.489 904.162 714.136 904.457 713.682C904.759 713.227 904.909 712.693 904.909 712.08C904.909 711.489 904.778 710.974 904.517 710.537C904.256 710.099 903.886 709.759 903.409 709.514C902.938 709.27 902.381 709.148 901.739 709.148C901.136 709.148 900.568 709.259 900.034 709.48C899.506 709.696 899.074 710.011 898.739 710.426C898.403 710.835 898.222 711.33 898.193 711.909H896.148C896.182 710.994 896.457 710.193 896.974 709.506C897.491 708.812 898.168 708.273 899.003 707.886C899.844 707.5 900.767 707.307 901.773 707.307C902.852 707.307 903.778 707.526 904.551 707.963C905.324 708.395 905.918 708.966 906.332 709.676C906.747 710.386 906.955 711.153 906.955 711.977C906.955 712.96 906.696 713.798 906.179 714.491C905.668 715.185 904.972 715.665 904.091 715.932V716.068C905.193 716.25 906.054 716.719 906.673 717.474C907.293 718.224 907.602 719.153 907.602 720.261C907.602 721.21 907.344 722.062 906.827 722.818C906.315 723.568 905.616 724.159 904.73 724.591C903.844 725.023 902.835 725.239 901.705 725.239ZM911.088 725V723.466L916.849 717.159C917.526 716.42 918.082 715.778 918.52 715.233C918.957 714.682 919.281 714.165 919.491 713.682C919.707 713.193 919.815 712.682 919.815 712.148C919.815 711.534 919.668 711.003 919.372 710.554C919.082 710.105 918.685 709.759 918.179 709.514C917.673 709.27 917.105 709.148 916.474 709.148C915.804 709.148 915.219 709.287 914.719 709.565C914.224 709.838 913.841 710.222 913.568 710.716C913.301 711.21 913.168 711.79 913.168 712.455H911.156C911.156 711.432 911.392 710.534 911.864 709.761C912.335 708.989 912.977 708.386 913.79 707.955C914.608 707.523 915.526 707.307 916.543 707.307C917.565 707.307 918.472 707.523 919.261 707.955C920.051 708.386 920.67 708.969 921.119 709.702C921.568 710.435 921.793 711.25 921.793 712.148C921.793 712.79 921.676 713.418 921.443 714.031C921.216 714.639 920.818 715.318 920.25 716.068C919.688 716.812 918.906 717.722 917.906 718.795L913.986 722.989V723.125H922.099V725H911.088Z" fill="black"/>
<path d="M978.705 725.239C977.58 725.239 976.577 725.045 975.696 724.659C974.821 724.273 974.125 723.736 973.608 723.048C973.097 722.355 972.818 721.551 972.773 720.636H974.92C974.966 721.199 975.159 721.685 975.5 722.094C975.841 722.497 976.287 722.81 976.838 723.031C977.389 723.253 978 723.364 978.67 723.364C979.42 723.364 980.085 723.233 980.665 722.972C981.244 722.71 981.699 722.347 982.028 721.881C982.358 721.415 982.523 720.875 982.523 720.261C982.523 719.619 982.364 719.054 982.045 718.565C981.727 718.071 981.261 717.685 980.648 717.406C980.034 717.128 979.284 716.989 978.398 716.989H977V715.114H978.398C979.091 715.114 979.699 714.989 980.222 714.739C980.75 714.489 981.162 714.136 981.457 713.682C981.759 713.227 981.909 712.693 981.909 712.08C981.909 711.489 981.778 710.974 981.517 710.537C981.256 710.099 980.886 709.759 980.409 709.514C979.938 709.27 979.381 709.148 978.739 709.148C978.136 709.148 977.568 709.259 977.034 709.48C976.506 709.696 976.074 710.011 975.739 710.426C975.403 710.835 975.222 711.33 975.193 711.909H973.148C973.182 710.994 973.457 710.193 973.974 709.506C974.491 708.812 975.168 708.273 976.003 707.886C976.844 707.5 977.767 707.307 978.773 707.307C979.852 707.307 980.778 707.526 981.551 707.963C982.324 708.395 982.918 708.966 983.332 709.676C983.747 710.386 983.955 711.153 983.955 711.977C983.955 712.96 983.696 713.798 983.179 714.491C982.668 715.185 981.972 715.665 981.091 715.932V716.068C982.193 716.25 983.054 716.719 983.673 717.474C984.293 718.224 984.602 719.153 984.602 720.261C984.602 721.21 984.344 722.062 983.827 722.818C983.315 723.568 982.616 724.159 981.73 724.591C980.844 725.023 979.835 725.239 978.705 725.239ZM993.986 725.239C992.861 725.239 991.858 725.045 990.977 724.659C990.102 724.273 989.406 723.736 988.889 723.048C988.378 722.355 988.099 721.551 988.054 720.636H990.202C990.247 721.199 990.44 721.685 990.781 722.094C991.122 722.497 991.568 722.81 992.119 723.031C992.67 723.253 993.281 723.364 993.952 723.364C994.702 723.364 995.366 723.233 995.946 722.972C996.526 722.71 996.98 722.347 997.31 721.881C997.639 721.415 997.804 720.875 997.804 720.261C997.804 719.619 997.645 719.054 997.327 718.565C997.009 718.071 996.543 717.685 995.929 717.406C995.315 717.128 994.565 716.989 993.679 716.989H992.281V715.114H993.679C994.372 715.114 994.98 714.989 995.503 714.739C996.031 714.489 996.443 714.136 996.739 713.682C997.04 713.227 997.19 712.693 997.19 712.08C997.19 711.489 997.06 710.974 996.798 710.537C996.537 710.099 996.168 709.759 995.69 709.514C995.219 709.27 994.662 709.148 994.02 709.148C993.418 709.148 992.849 709.259 992.315 709.48C991.787 709.696 991.355 710.011 991.02 710.426C990.685 710.835 990.503 711.33 990.474 711.909H988.429C988.463 710.994 988.739 710.193 989.256 709.506C989.773 708.812 990.449 708.273 991.284 707.886C992.125 707.5 993.048 707.307 994.054 707.307C995.134 707.307 996.06 707.526 996.832 707.963C997.605 708.395 998.199 708.966 998.614 709.676C999.028 710.386 999.236 711.153 999.236 711.977C999.236 712.96 998.977 713.798 998.46 714.491C997.949 715.185 997.253 715.665 996.372 715.932V716.068C997.474 716.25 998.335 716.719 998.955 717.474C999.574 718.224 999.884 719.153 999.884 720.261C999.884 721.21 999.625 722.062 999.108 722.818C998.597 723.568 997.898 724.159 997.011 724.591C996.125 725.023 995.116 725.239 993.986 725.239Z" fill="black"/>
<path d="M1056.7 725.239C1055.58 725.239 1054.58 725.045 1053.7 724.659C1052.82 724.273 1052.13 723.736 1051.61 723.048C1051.1 722.355 1050.82 721.551 1050.77 720.636H1052.92C1052.97 721.199 1053.16 721.685 1053.5 722.094C1053.84 722.497 1054.29 722.81 1054.84 723.031C1055.39 723.253 1056 723.364 1056.67 723.364C1057.42 723.364 1058.09 723.233 1058.66 722.972C1059.24 722.71 1059.7 722.347 1060.03 721.881C1060.36 721.415 1060.52 720.875 1060.52 720.261C1060.52 719.619 1060.36 719.054 1060.05 718.565C1059.73 718.071 1059.26 717.685 1058.65 717.406C1058.03 717.128 1057.28 716.989 1056.4 716.989H1055V715.114H1056.4C1057.09 715.114 1057.7 714.989 1058.22 714.739C1058.75 714.489 1059.16 714.136 1059.46 713.682C1059.76 713.227 1059.91 712.693 1059.91 712.08C1059.91 711.489 1059.78 710.974 1059.52 710.537C1059.26 710.099 1058.89 709.759 1058.41 709.514C1057.94 709.27 1057.38 709.148 1056.74 709.148C1056.14 709.148 1055.57 709.259 1055.03 709.48C1054.51 709.696 1054.07 710.011 1053.74 710.426C1053.4 710.835 1053.22 711.33 1053.19 711.909H1051.15C1051.18 710.994 1051.46 710.193 1051.97 709.506C1052.49 708.812 1053.17 708.273 1054 707.886C1054.84 707.5 1055.77 707.307 1056.77 707.307C1057.85 707.307 1058.78 707.526 1059.55 707.963C1060.32 708.395 1060.92 708.966 1061.33 709.676C1061.75 710.386 1061.95 711.153 1061.95 711.977C1061.95 712.96 1061.7 713.798 1061.18 714.491C1060.67 715.185 1059.97 715.665 1059.09 715.932V716.068C1060.19 716.25 1061.05 716.719 1061.67 717.474C1062.29 718.224 1062.6 719.153 1062.6 720.261C1062.6 721.21 1062.34 722.062 1061.83 722.818C1061.32 723.568 1060.62 724.159 1059.73 724.591C1058.84 725.023 1057.84 725.239 1056.7 725.239ZM1065.68 721.42V719.682L1073.35 707.545H1074.61V710.239H1073.76L1067.96 719.409V719.545H1078.29V721.42H1065.68ZM1073.89 725V720.892V720.082V707.545H1075.91V725H1073.89Z" fill="black"/>
<path d="M1132.7 725.239C1131.58 725.239 1130.58 725.045 1129.7 724.659C1128.82 724.273 1128.13 723.736 1127.61 723.048C1127.1 722.355 1126.82 721.551 1126.77 720.636H1128.92C1128.97 721.199 1129.16 721.685 1129.5 722.094C1129.84 722.497 1130.29 722.81 1130.84 723.031C1131.39 723.253 1132 723.364 1132.67 723.364C1133.42 723.364 1134.09 723.233 1134.66 722.972C1135.24 722.71 1135.7 722.347 1136.03 721.881C1136.36 721.415 1136.52 720.875 1136.52 720.261C1136.52 719.619 1136.36 719.054 1136.05 718.565C1135.73 718.071 1135.26 717.685 1134.65 717.406C1134.03 717.128 1133.28 716.989 1132.4 716.989H1131V715.114H1132.4C1133.09 715.114 1133.7 714.989 1134.22 714.739C1134.75 714.489 1135.16 714.136 1135.46 713.682C1135.76 713.227 1135.91 712.693 1135.91 712.08C1135.91 711.489 1135.78 710.974 1135.52 710.537C1135.26 710.099 1134.89 709.759 1134.41 709.514C1133.94 709.27 1133.38 709.148 1132.74 709.148C1132.14 709.148 1131.57 709.259 1131.03 709.48C1130.51 709.696 1130.07 710.011 1129.74 710.426C1129.4 710.835 1129.22 711.33 1129.19 711.909H1127.15C1127.18 710.994 1127.46 710.193 1127.97 709.506C1128.49 708.812 1129.17 708.273 1130 707.886C1130.84 707.5 1131.77 707.307 1132.77 707.307C1133.85 707.307 1134.78 707.526 1135.55 707.963C1136.32 708.395 1136.92 708.966 1137.33 709.676C1137.75 710.386 1137.95 711.153 1137.95 711.977C1137.95 712.96 1137.7 713.798 1137.18 714.491C1136.67 715.185 1135.97 715.665 1135.09 715.932V716.068C1136.19 716.25 1137.05 716.719 1137.67 717.474C1138.29 718.224 1138.6 719.153 1138.6 720.261C1138.6 721.21 1138.34 722.062 1137.83 722.818C1137.32 723.568 1136.62 724.159 1135.73 724.591C1134.84 725.023 1133.84 725.239 1132.7 725.239ZM1147.54 725.239C1146.54 725.239 1145.64 725.04 1144.84 724.642C1144.04 724.244 1143.4 723.699 1142.91 723.006C1142.43 722.312 1142.17 721.523 1142.12 720.636H1144.17C1144.25 721.426 1144.61 722.08 1145.24 722.597C1145.88 723.108 1146.65 723.364 1147.54 723.364C1148.26 723.364 1148.89 723.196 1149.45 722.861C1150.01 722.526 1150.45 722.065 1150.77 721.48C1151.1 720.889 1151.26 720.222 1151.26 719.477C1151.26 718.716 1151.09 718.037 1150.76 717.44C1150.43 716.838 1149.97 716.364 1149.39 716.017C1148.81 715.67 1148.15 715.494 1147.41 715.489C1146.87 715.483 1146.32 715.565 1145.76 715.736C1145.2 715.901 1144.74 716.114 1144.37 716.375L1142.39 716.136L1143.45 707.545H1152.52V709.42H1145.22L1144.61 714.568H1144.71C1145.07 714.284 1145.52 714.048 1146.06 713.861C1146.6 713.673 1147.16 713.58 1147.75 713.58C1148.82 713.58 1149.77 713.835 1150.6 714.347C1151.44 714.852 1152.1 715.545 1152.58 716.426C1153.06 717.307 1153.3 718.312 1153.3 719.443C1153.3 720.557 1153.05 721.551 1152.55 722.426C1152.06 723.295 1151.38 723.983 1150.51 724.489C1149.64 724.989 1148.65 725.239 1147.54 725.239Z" fill="black"/>
<path d="M1239.7 725.239C1238.58 725.239 1237.58 725.045 1236.7 724.659C1235.82 724.273 1235.13 723.736 1234.61 723.048C1234.1 722.355 1233.82 721.551 1233.77 720.636H1235.92C1235.97 721.199 1236.16 721.685 1236.5 722.094C1236.84 722.497 1237.29 722.81 1237.84 723.031C1238.39 723.253 1239 723.364 1239.67 723.364C1240.42 723.364 1241.09 723.233 1241.66 722.972C1242.24 722.71 1242.7 722.347 1243.03 721.881C1243.36 721.415 1243.52 720.875 1243.52 720.261C1243.52 719.619 1243.36 719.054 1243.05 718.565C1242.73 718.071 1242.26 717.685 1241.65 717.406C1241.03 717.128 1240.28 716.989 1239.4 716.989H1238V715.114H1239.4C1240.09 715.114 1240.7 714.989 1241.22 714.739C1241.75 714.489 1242.16 714.136 1242.46 713.682C1242.76 713.227 1242.91 712.693 1242.91 712.08C1242.91 711.489 1242.78 710.974 1242.52 710.537C1242.26 710.099 1241.89 709.759 1241.41 709.514C1240.94 709.27 1240.38 709.148 1239.74 709.148C1239.14 709.148 1238.57 709.259 1238.03 709.48C1237.51 709.696 1237.07 710.011 1236.74 710.426C1236.4 710.835 1236.22 711.33 1236.19 711.909H1234.15C1234.18 710.994 1234.46 710.193 1234.97 709.506C1235.49 708.812 1236.17 708.273 1237 707.886C1237.84 707.5 1238.77 707.307 1239.77 707.307C1240.85 707.307 1241.78 707.526 1242.55 707.963C1243.32 708.395 1243.92 708.966 1244.33 709.676C1244.75 710.386 1244.95 711.153 1244.95 711.977C1244.95 712.96 1244.7 713.798 1244.18 714.491C1243.67 715.185 1242.97 715.665 1242.09 715.932V716.068C1243.19 716.25 1244.05 716.719 1244.67 717.474C1245.29 718.224 1245.6 719.153 1245.6 720.261C1245.6 721.21 1245.34 722.062 1244.83 722.818C1244.32 723.568 1243.62 724.159 1242.73 724.591C1241.84 725.023 1240.84 725.239 1239.7 725.239ZM1254.88 725.239C1254.17 725.227 1253.45 725.091 1252.74 724.83C1252.02 724.568 1251.37 724.128 1250.78 723.509C1250.18 722.884 1249.71 722.04 1249.35 720.977C1248.99 719.909 1248.82 718.568 1248.82 716.955C1248.82 715.409 1248.96 714.04 1249.25 712.847C1249.54 711.648 1249.96 710.639 1250.51 709.821C1251.06 708.997 1251.73 708.372 1252.51 707.946C1253.29 707.52 1254.17 707.307 1255.16 707.307C1256.13 707.307 1257 707.503 1257.76 707.895C1258.53 708.281 1259.16 708.821 1259.64 709.514C1260.12 710.207 1260.43 711.006 1260.58 711.909H1258.5C1258.3 711.125 1257.93 710.474 1257.37 709.957C1256.82 709.44 1256.08 709.182 1255.16 709.182C1253.8 709.182 1252.74 709.77 1251.96 710.946C1251.19 712.122 1250.8 713.773 1250.79 715.898H1250.93C1251.25 715.415 1251.62 715.003 1252.06 714.662C1252.51 714.315 1252.99 714.048 1253.53 713.861C1254.06 713.673 1254.63 713.58 1255.22 713.58C1256.22 713.58 1257.14 713.83 1257.97 714.33C1258.8 714.824 1259.46 715.509 1259.96 716.384C1260.46 717.253 1260.71 718.25 1260.71 719.375C1260.71 720.455 1260.47 721.443 1259.99 722.341C1259.51 723.233 1258.83 723.943 1257.95 724.472C1257.08 724.994 1256.06 725.25 1254.88 725.239ZM1254.88 723.364C1255.6 723.364 1256.24 723.185 1256.81 722.827C1257.38 722.469 1257.84 721.989 1258.16 721.386C1258.5 720.784 1258.67 720.114 1258.67 719.375C1258.67 718.653 1258.51 717.997 1258.18 717.406C1257.86 716.81 1257.42 716.335 1256.86 715.983C1256.3 715.631 1255.67 715.455 1254.95 715.455C1254.41 715.455 1253.91 715.562 1253.44 715.778C1252.98 715.989 1252.57 716.278 1252.22 716.648C1251.87 717.017 1251.6 717.44 1251.4 717.918C1251.2 718.389 1251.1 718.886 1251.1 719.409C1251.1 720.102 1251.26 720.75 1251.59 721.352C1251.91 721.955 1252.36 722.44 1252.93 722.81C1253.51 723.179 1254.16 723.364 1254.88 723.364Z" fill="black"/>
<path d="M1399.7 725.239C1398.58 725.239 1397.58 725.045 1396.7 724.659C1395.82 724.273 1395.13 723.736 1394.61 723.048C1394.1 722.355 1393.82 721.551 1393.77 720.636H1395.92C1395.97 721.199 1396.16 721.685 1396.5 722.094C1396.84 722.497 1397.29 722.81 1397.84 723.031C1398.39 723.253 1399 723.364 1399.67 723.364C1400.42 723.364 1401.09 723.233 1401.66 722.972C1402.24 722.71 1402.7 722.347 1403.03 721.881C1403.36 721.415 1403.52 720.875 1403.52 720.261C1403.52 719.619 1403.36 719.054 1403.05 718.565C1402.73 718.071 1402.26 717.685 1401.65 717.406C1401.03 717.128 1400.28 716.989 1399.4 716.989H1398V715.114H1399.4C1400.09 715.114 1400.7 714.989 1401.22 714.739C1401.75 714.489 1402.16 714.136 1402.46 713.682C1402.76 713.227 1402.91 712.693 1402.91 712.08C1402.91 711.489 1402.78 710.974 1402.52 710.537C1402.26 710.099 1401.89 709.759 1401.41 709.514C1400.94 709.27 1400.38 709.148 1399.74 709.148C1399.14 709.148 1398.57 709.259 1398.03 709.48C1397.51 709.696 1397.07 710.011 1396.74 710.426C1396.4 710.835 1396.22 711.33 1396.19 711.909H1394.15C1394.18 710.994 1394.46 710.193 1394.97 709.506C1395.49 708.812 1396.17 708.273 1397 707.886C1397.84 707.5 1398.77 707.307 1399.77 707.307C1400.85 707.307 1401.78 707.526 1402.55 707.963C1403.32 708.395 1403.92 708.966 1404.33 709.676C1404.75 710.386 1404.95 711.153 1404.95 711.977C1404.95 712.96 1404.7 713.798 1404.18 714.491C1403.67 715.185 1402.97 715.665 1402.09 715.932V716.068C1403.19 716.25 1404.05 716.719 1404.67 717.474C1405.29 718.224 1405.6 719.153 1405.6 720.261C1405.6 721.21 1405.34 722.062 1404.83 722.818C1404.32 723.568 1403.62 724.159 1402.73 724.591C1401.84 725.023 1400.84 725.239 1399.7 725.239ZM1409.63 725L1417.44 709.557V709.42H1408.44V707.545H1419.62V709.523L1411.85 725H1409.63Z" fill="black"/>
<path d="M1527.7 725.239C1526.58 725.239 1525.58 725.045 1524.7 724.659C1523.82 724.273 1523.13 723.736 1522.61 723.048C1522.1 722.355 1521.82 721.551 1521.77 720.636H1523.92C1523.97 721.199 1524.16 721.685 1524.5 722.094C1524.84 722.497 1525.29 722.81 1525.84 723.031C1526.39 723.253 1527 723.364 1527.67 723.364C1528.42 723.364 1529.09 723.233 1529.66 722.972C1530.24 722.71 1530.7 722.347 1531.03 721.881C1531.36 721.415 1531.52 720.875 1531.52 720.261C1531.52 719.619 1531.36 719.054 1531.05 718.565C1530.73 718.071 1530.26 717.685 1529.65 717.406C1529.03 717.128 1528.28 716.989 1527.4 716.989H1526V715.114H1527.4C1528.09 715.114 1528.7 714.989 1529.22 714.739C1529.75 714.489 1530.16 714.136 1530.46 713.682C1530.76 713.227 1530.91 712.693 1530.91 712.08C1530.91 711.489 1530.78 710.974 1530.52 710.537C1530.26 710.099 1529.89 709.759 1529.41 709.514C1528.94 709.27 1528.38 709.148 1527.74 709.148C1527.14 709.148 1526.57 709.259 1526.03 709.48C1525.51 709.696 1525.07 710.011 1524.74 710.426C1524.4 710.835 1524.22 711.33 1524.19 711.909H1522.15C1522.18 710.994 1522.46 710.193 1522.97 709.506C1523.49 708.812 1524.17 708.273 1525 707.886C1525.84 707.5 1526.77 707.307 1527.77 707.307C1528.85 707.307 1529.78 707.526 1530.55 707.963C1531.32 708.395 1531.92 708.966 1532.33 709.676C1532.75 710.386 1532.95 711.153 1532.95 711.977C1532.95 712.96 1532.7 713.798 1532.18 714.491C1531.67 715.185 1530.97 715.665 1530.09 715.932V716.068C1531.19 716.25 1532.05 716.719 1532.67 717.474C1533.29 718.224 1533.6 719.153 1533.6 720.261C1533.6 721.21 1533.34 722.062 1532.83 722.818C1532.32 723.568 1531.62 724.159 1530.73 724.591C1529.84 725.023 1528.84 725.239 1527.7 725.239ZM1542.68 725.239C1541.51 725.239 1540.47 725.031 1539.58 724.616C1538.68 724.196 1537.99 723.619 1537.49 722.886C1536.99 722.148 1536.74 721.307 1536.75 720.364C1536.74 719.625 1536.89 718.943 1537.18 718.318C1537.48 717.687 1537.88 717.162 1538.39 716.741C1538.91 716.315 1539.49 716.045 1540.12 715.932V715.83C1539.29 715.614 1538.62 715.145 1538.13 714.423C1537.63 713.696 1537.39 712.869 1537.39 711.943C1537.39 711.057 1537.61 710.264 1538.07 709.565C1538.52 708.866 1539.15 708.315 1539.94 707.912C1540.74 707.509 1541.66 707.307 1542.68 707.307C1543.69 707.307 1544.59 707.509 1545.39 707.912C1546.18 708.315 1546.81 708.866 1547.26 709.565C1547.72 710.264 1547.96 711.057 1547.96 711.943C1547.96 712.869 1547.7 713.696 1547.2 714.423C1546.71 715.145 1546.05 715.614 1545.24 715.83V715.932C1545.87 716.045 1546.43 716.315 1546.94 716.741C1547.45 717.162 1547.85 717.687 1548.15 718.318C1548.45 718.943 1548.61 719.625 1548.61 720.364C1548.61 721.307 1548.35 722.148 1547.84 722.886C1547.34 723.619 1546.65 724.196 1545.76 724.616C1544.87 725.031 1543.84 725.239 1542.68 725.239ZM1542.68 723.364C1543.47 723.364 1544.15 723.236 1544.72 722.98C1545.3 722.724 1545.74 722.364 1546.05 721.898C1546.37 721.432 1546.53 720.886 1546.53 720.261C1546.53 719.602 1546.36 719.02 1546.02 718.514C1545.68 718.009 1545.23 717.611 1544.65 717.321C1544.07 717.031 1543.42 716.886 1542.68 716.886C1541.93 716.886 1541.27 717.031 1540.68 717.321C1540.11 717.611 1539.65 718.009 1539.31 718.514C1538.98 719.02 1538.82 719.602 1538.83 720.261C1538.82 720.886 1538.97 721.432 1539.28 721.898C1539.59 722.364 1540.04 722.724 1540.62 722.98C1541.2 723.236 1541.88 723.364 1542.68 723.364ZM1542.68 715.08C1543.3 715.08 1543.86 714.955 1544.34 714.705C1544.83 714.455 1545.21 714.105 1545.49 713.656C1545.77 713.207 1545.91 712.682 1545.92 712.08C1545.91 711.489 1545.77 710.974 1545.5 710.537C1545.23 710.094 1544.85 709.753 1544.37 709.514C1543.88 709.27 1543.32 709.148 1542.68 709.148C1542.03 709.148 1541.45 709.27 1540.97 709.514C1540.48 709.753 1540.1 710.094 1539.83 710.537C1539.57 710.974 1539.43 711.489 1539.44 712.08C1539.43 712.682 1539.57 713.207 1539.84 713.656C1540.12 714.105 1540.5 714.455 1540.99 714.705C1541.48 714.955 1542.04 715.08 1542.68 715.08Z" fill="black"/>
</svg>
