<svg width="1624" height="1364" viewBox="0 0 1624 1364" fill="none" xmlns="http://www.w3.org/2000/svg">
<line x1="812.25" x2="812.25" y2="1364" stroke="black" stroke-width="0.5"/>
<line y1="691.75" x2="1624.01" y2="691.75" stroke="black" stroke-width="0.5"/>
<path d="M56.9432 658.545V676H54.8295V660.761H54.7273L50.4659 663.591V661.443L54.8295 658.545H56.9432ZM67.554 676.239C66.3835 676.239 65.3494 676.031 64.4517 675.616C63.5597 675.196 62.8636 674.619 62.3636 673.886C61.8636 673.148 61.6165 672.307 61.6222 671.364C61.6165 670.625 61.7614 669.943 62.0568 669.318C62.3523 668.687 62.7557 668.162 63.267 667.741C63.7841 667.315 64.3608 667.045 64.9972 666.932V666.83C64.1619 666.614 63.4972 666.145 63.0028 665.423C62.5085 664.696 62.2642 663.869 62.2699 662.943C62.2642 662.057 62.4886 661.264 62.9432 660.565C63.3977 659.866 64.0227 659.315 64.8182 658.912C65.6193 658.509 66.5313 658.307 67.554 658.307C68.5653 658.307 69.4688 658.509 70.2642 658.912C71.0597 659.315 71.6847 659.866 72.1392 660.565C72.5994 661.264 72.8324 662.057 72.8381 662.943C72.8324 663.869 72.5795 664.696 72.0795 665.423C71.5852 666.145 70.929 666.614 70.1108 666.83V666.932C70.7415 667.045 71.3097 667.315 71.8153 667.741C72.321 668.162 72.7244 668.687 73.0256 669.318C73.3267 669.943 73.4801 670.625 73.4858 671.364C73.4801 672.307 73.2244 673.148 72.7188 673.886C72.2188 674.619 71.5227 675.196 70.6307 675.616C69.7443 676.031 68.7188 676.239 67.554 676.239ZM67.554 674.364C68.3438 674.364 69.0256 674.236 69.5994 673.98C70.1733 673.724 70.6165 673.364 70.929 672.898C71.2415 672.432 71.4006 671.886 71.4062 671.261C71.4006 670.602 71.2301 670.02 70.8949 669.514C70.5597 669.009 70.1023 668.611 69.5227 668.321C68.9489 668.031 68.2926 667.886 67.554 667.886C66.8097 667.886 66.1449 668.031 65.5597 668.321C64.9801 668.611 64.5227 669.009 64.1875 669.514C63.858 670.02 63.696 670.602 63.7017 671.261C63.696 671.886 63.8466 672.432 64.1534 672.898C64.4659 673.364 64.9119 673.724 65.4915 673.98C66.071 674.236 66.7585 674.364 67.554 674.364ZM67.554 666.08C68.179 666.08 68.733 665.955 69.2159 665.705C69.7045 665.455 70.0881 665.105 70.3665 664.656C70.6449 664.207 70.7869 663.682 70.7926 663.08C70.7869 662.489 70.6477 661.974 70.375 661.537C70.1023 661.094 69.7244 660.753 69.2415 660.514C68.7585 660.27 68.196 660.148 67.554 660.148C66.9006 660.148 66.3295 660.27 65.8409 660.514C65.3523 660.753 64.9744 661.094 64.7074 661.537C64.4403 661.974 64.3097 662.489 64.3153 663.08C64.3097 663.682 64.4432 664.207 64.7159 664.656C64.9943 665.105 65.3778 665.455 65.8665 665.705C66.3551 665.955 66.9176 666.08 67.554 666.08Z" fill="black"/>
<path d="M241.943 658.545V676H239.83V660.761H239.727L235.466 663.591V661.443L239.83 658.545H241.943ZM247.509 676L255.315 660.557V660.42H246.315V658.545H257.497V660.523L249.724 676H247.509Z" fill="black"/>
<path d="M396.943 658.545V676H394.83V660.761H394.727L390.466 663.591V661.443L394.83 658.545H396.943ZM407.759 676.239C407.043 676.227 406.327 676.091 405.611 675.83C404.895 675.568 404.241 675.128 403.651 674.509C403.06 673.884 402.585 673.04 402.227 671.977C401.869 670.909 401.69 669.568 401.69 667.955C401.69 666.409 401.835 665.04 402.125 663.847C402.415 662.648 402.835 661.639 403.386 660.821C403.938 659.997 404.602 659.372 405.381 658.946C406.165 658.52 407.048 658.307 408.031 658.307C409.009 658.307 409.878 658.503 410.639 658.895C411.406 659.281 412.031 659.821 412.514 660.514C412.997 661.207 413.31 662.006 413.452 662.909H411.372C411.179 662.125 410.804 661.474 410.247 660.957C409.69 660.44 408.952 660.182 408.031 660.182C406.679 660.182 405.614 660.77 404.835 661.946C404.063 663.122 403.673 664.773 403.668 666.898H403.804C404.122 666.415 404.5 666.003 404.938 665.662C405.381 665.315 405.869 665.048 406.403 664.861C406.938 664.673 407.503 664.58 408.099 664.58C409.099 664.58 410.014 664.83 410.844 665.33C411.673 665.824 412.338 666.509 412.838 667.384C413.338 668.253 413.588 669.25 413.588 670.375C413.588 671.455 413.347 672.443 412.864 673.341C412.381 674.233 411.702 674.943 410.827 675.472C409.957 675.994 408.935 676.25 407.759 676.239ZM407.759 674.364C408.474 674.364 409.116 674.185 409.685 673.827C410.259 673.469 410.71 672.989 411.04 672.386C411.375 671.784 411.543 671.114 411.543 670.375C411.543 669.653 411.381 668.997 411.057 668.406C410.739 667.81 410.298 667.335 409.736 666.983C409.179 666.631 408.543 666.455 407.827 666.455C407.287 666.455 406.784 666.562 406.318 666.778C405.852 666.989 405.443 667.278 405.091 667.648C404.744 668.017 404.472 668.44 404.273 668.918C404.074 669.389 403.974 669.886 403.974 670.409C403.974 671.102 404.136 671.75 404.46 672.352C404.79 672.955 405.239 673.44 405.807 673.81C406.381 674.179 407.031 674.364 407.759 674.364Z" fill="black"/>
<path d="M511.943 658.545V676H509.83V660.761H509.727L505.466 663.591V661.443L509.83 658.545H511.943ZM522.418 676.239C521.418 676.239 520.517 676.04 519.716 675.642C518.915 675.244 518.273 674.699 517.79 674.006C517.307 673.312 517.043 672.523 516.997 671.636H519.043C519.122 672.426 519.48 673.08 520.116 673.597C520.759 674.108 521.526 674.364 522.418 674.364C523.134 674.364 523.77 674.196 524.327 673.861C524.889 673.526 525.33 673.065 525.648 672.48C525.972 671.889 526.134 671.222 526.134 670.477C526.134 669.716 525.966 669.037 525.631 668.44C525.301 667.838 524.847 667.364 524.267 667.017C523.688 666.67 523.026 666.494 522.281 666.489C521.747 666.483 521.199 666.565 520.636 666.736C520.074 666.901 519.611 667.114 519.247 667.375L517.27 667.136L518.327 658.545H527.395V660.42H520.099L519.486 665.568H519.588C519.946 665.284 520.395 665.048 520.935 664.861C521.474 664.673 522.037 664.58 522.622 664.58C523.69 664.58 524.642 664.835 525.477 665.347C526.318 665.852 526.977 666.545 527.455 667.426C527.938 668.307 528.179 669.312 528.179 670.443C528.179 671.557 527.929 672.551 527.429 673.426C526.935 674.295 526.253 674.983 525.384 675.489C524.514 675.989 523.526 676.239 522.418 676.239Z" fill="black"/>
<path d="M582.943 658.545V676H580.83V660.761H580.727L576.466 663.591V661.443L580.83 658.545H582.943ZM587.554 672.42V670.682L595.224 658.545H596.486V661.239H595.634L589.838 670.409V670.545H600.168V672.42H587.554ZM595.77 676V671.892V671.082V658.545H597.781V676H595.77Z" fill="black"/>
<path d="M647.943 658.545V676H645.83V660.761H645.727L641.466 663.591V661.443L645.83 658.545H647.943ZM658.861 676.239C657.736 676.239 656.733 676.045 655.852 675.659C654.977 675.273 654.281 674.736 653.764 674.048C653.253 673.355 652.974 672.551 652.929 671.636H655.077C655.122 672.199 655.315 672.685 655.656 673.094C655.997 673.497 656.443 673.81 656.994 674.031C657.545 674.253 658.156 674.364 658.827 674.364C659.577 674.364 660.241 674.233 660.821 673.972C661.401 673.71 661.855 673.347 662.185 672.881C662.514 672.415 662.679 671.875 662.679 671.261C662.679 670.619 662.52 670.054 662.202 669.565C661.884 669.071 661.418 668.685 660.804 668.406C660.19 668.128 659.44 667.989 658.554 667.989H657.156V666.114H658.554C659.247 666.114 659.855 665.989 660.378 665.739C660.906 665.489 661.318 665.136 661.614 664.682C661.915 664.227 662.065 663.693 662.065 663.08C662.065 662.489 661.935 661.974 661.673 661.537C661.412 661.099 661.043 660.759 660.565 660.514C660.094 660.27 659.537 660.148 658.895 660.148C658.293 660.148 657.724 660.259 657.19 660.48C656.662 660.696 656.23 661.011 655.895 661.426C655.56 661.835 655.378 662.33 655.349 662.909H653.304C653.338 661.994 653.614 661.193 654.131 660.506C654.648 659.812 655.324 659.273 656.159 658.886C657 658.5 657.923 658.307 658.929 658.307C660.009 658.307 660.935 658.526 661.707 658.963C662.48 659.395 663.074 659.966 663.489 660.676C663.903 661.386 664.111 662.153 664.111 662.977C664.111 663.96 663.852 664.798 663.335 665.491C662.824 666.185 662.128 666.665 661.247 666.932V667.068C662.349 667.25 663.21 667.719 663.83 668.474C664.449 669.224 664.759 670.153 664.759 671.261C664.759 672.21 664.5 673.062 663.983 673.818C663.472 674.568 662.773 675.159 661.886 675.591C661 676.023 659.991 676.239 658.861 676.239Z" fill="black"/>
<path d="M710.943 658.545V676H708.83V660.761H708.727L704.466 663.591V661.443L708.83 658.545H710.943ZM715.963 676V674.466L721.724 668.159C722.401 667.42 722.957 666.778 723.395 666.233C723.832 665.682 724.156 665.165 724.366 664.682C724.582 664.193 724.69 663.682 724.69 663.148C724.69 662.534 724.543 662.003 724.247 661.554C723.957 661.105 723.56 660.759 723.054 660.514C722.548 660.27 721.98 660.148 721.349 660.148C720.679 660.148 720.094 660.287 719.594 660.565C719.099 660.838 718.716 661.222 718.443 661.716C718.176 662.21 718.043 662.79 718.043 663.455H716.031C716.031 662.432 716.267 661.534 716.739 660.761C717.21 659.989 717.852 659.386 718.665 658.955C719.483 658.523 720.401 658.307 721.418 658.307C722.44 658.307 723.347 658.523 724.136 658.955C724.926 659.386 725.545 659.969 725.994 660.702C726.443 661.435 726.668 662.25 726.668 663.148C726.668 663.79 726.551 664.418 726.318 665.031C726.091 665.639 725.693 666.318 725.125 667.068C724.562 667.812 723.781 668.722 722.781 669.795L718.861 673.989V674.125H726.974V676H715.963Z" fill="black"/>
<path d="M772.943 658.545V676H770.83V660.761H770.727L766.466 663.591V661.443L770.83 658.545H772.943ZM784.099 658.545V676H781.986V660.761H781.884L777.622 663.591V661.443L781.986 658.545H784.099Z" fill="black"/>
<path d="M839.807 676V674.466L845.568 668.159C846.244 667.42 846.801 666.778 847.239 666.233C847.676 665.682 848 665.165 848.21 664.682C848.426 664.193 848.534 663.682 848.534 663.148C848.534 662.534 848.386 662.003 848.091 661.554C847.801 661.105 847.403 660.759 846.898 660.514C846.392 660.27 845.824 660.148 845.193 660.148C844.523 660.148 843.938 660.287 843.438 660.565C842.943 660.838 842.56 661.222 842.287 661.716C842.02 662.21 841.886 662.79 841.886 663.455H839.875C839.875 662.432 840.111 661.534 840.582 660.761C841.054 659.989 841.696 659.386 842.509 658.955C843.327 658.523 844.244 658.307 845.261 658.307C846.284 658.307 847.19 658.523 847.98 658.955C848.77 659.386 849.389 659.969 849.838 660.702C850.287 661.435 850.511 662.25 850.511 663.148C850.511 663.79 850.395 664.418 850.162 665.031C849.935 665.639 849.537 666.318 848.969 667.068C848.406 667.812 847.625 668.722 846.625 669.795L842.705 673.989V674.125H850.818V676H839.807ZM860.474 658.545V676H858.361V660.761H858.259L853.997 663.591V661.443L858.361 658.545H860.474Z" fill="black"/>
<path d="M901.807 676V674.466L907.568 668.159C908.244 667.42 908.801 666.778 909.239 666.233C909.676 665.682 910 665.165 910.21 664.682C910.426 664.193 910.534 663.682 910.534 663.148C910.534 662.534 910.386 662.003 910.091 661.554C909.801 661.105 909.403 660.759 908.898 660.514C908.392 660.27 907.824 660.148 907.193 660.148C906.523 660.148 905.938 660.287 905.438 660.565C904.943 660.838 904.56 661.222 904.287 661.716C904.02 662.21 903.886 662.79 903.886 663.455H901.875C901.875 662.432 902.111 661.534 902.582 660.761C903.054 659.989 903.696 659.386 904.509 658.955C905.327 658.523 906.244 658.307 907.261 658.307C908.284 658.307 909.19 658.523 909.98 658.955C910.77 659.386 911.389 659.969 911.838 660.702C912.287 661.435 912.511 662.25 912.511 663.148C912.511 663.79 912.395 664.418 912.162 665.031C911.935 665.639 911.537 666.318 910.969 667.068C910.406 667.812 909.625 668.722 908.625 669.795L904.705 673.989V674.125H912.818V676H901.807ZM916.338 676V674.466L922.099 668.159C922.776 667.42 923.332 666.778 923.77 666.233C924.207 665.682 924.531 665.165 924.741 664.682C924.957 664.193 925.065 663.682 925.065 663.148C925.065 662.534 924.918 662.003 924.622 661.554C924.332 661.105 923.935 660.759 923.429 660.514C922.923 660.27 922.355 660.148 921.724 660.148C921.054 660.148 920.469 660.287 919.969 660.565C919.474 660.838 919.091 661.222 918.818 661.716C918.551 662.21 918.418 662.79 918.418 663.455H916.406C916.406 662.432 916.642 661.534 917.114 660.761C917.585 659.989 918.227 659.386 919.04 658.955C919.858 658.523 920.776 658.307 921.793 658.307C922.815 658.307 923.722 658.523 924.511 658.955C925.301 659.386 925.92 659.969 926.369 660.702C926.818 661.435 927.043 662.25 927.043 663.148C927.043 663.79 926.926 664.418 926.693 665.031C926.466 665.639 926.068 666.318 925.5 667.068C924.938 667.812 924.156 668.722 923.156 669.795L919.236 673.989V674.125H927.349V676H916.338Z" fill="black"/>
<path d="M962.807 676V674.466L968.568 668.159C969.244 667.42 969.801 666.778 970.239 666.233C970.676 665.682 971 665.165 971.21 664.682C971.426 664.193 971.534 663.682 971.534 663.148C971.534 662.534 971.386 662.003 971.091 661.554C970.801 661.105 970.403 660.759 969.898 660.514C969.392 660.27 968.824 660.148 968.193 660.148C967.523 660.148 966.938 660.287 966.438 660.565C965.943 660.838 965.56 661.222 965.287 661.716C965.02 662.21 964.886 662.79 964.886 663.455H962.875C962.875 662.432 963.111 661.534 963.582 660.761C964.054 659.989 964.696 659.386 965.509 658.955C966.327 658.523 967.244 658.307 968.261 658.307C969.284 658.307 970.19 658.523 970.98 658.955C971.77 659.386 972.389 659.969 972.838 660.702C973.287 661.435 973.511 662.25 973.511 663.148C973.511 663.79 973.395 664.418 973.162 665.031C972.935 665.639 972.537 666.318 971.969 667.068C971.406 667.812 970.625 668.722 969.625 669.795L965.705 673.989V674.125H973.818V676H962.807ZM983.236 676.239C982.111 676.239 981.108 676.045 980.227 675.659C979.352 675.273 978.656 674.736 978.139 674.048C977.628 673.355 977.349 672.551 977.304 671.636H979.452C979.497 672.199 979.69 672.685 980.031 673.094C980.372 673.497 980.818 673.81 981.369 674.031C981.92 674.253 982.531 674.364 983.202 674.364C983.952 674.364 984.616 674.233 985.196 673.972C985.776 673.71 986.23 673.347 986.56 672.881C986.889 672.415 987.054 671.875 987.054 671.261C987.054 670.619 986.895 670.054 986.577 669.565C986.259 669.071 985.793 668.685 985.179 668.406C984.565 668.128 983.815 667.989 982.929 667.989H981.531V666.114H982.929C983.622 666.114 984.23 665.989 984.753 665.739C985.281 665.489 985.693 665.136 985.989 664.682C986.29 664.227 986.44 663.693 986.44 663.08C986.44 662.489 986.31 661.974 986.048 661.537C985.787 661.099 985.418 660.759 984.94 660.514C984.469 660.27 983.912 660.148 983.27 660.148C982.668 660.148 982.099 660.259 981.565 660.48C981.037 660.696 980.605 661.011 980.27 661.426C979.935 661.835 979.753 662.33 979.724 662.909H977.679C977.713 661.994 977.989 661.193 978.506 660.506C979.023 659.812 979.699 659.273 980.534 658.886C981.375 658.5 982.298 658.307 983.304 658.307C984.384 658.307 985.31 658.526 986.082 658.963C986.855 659.395 987.449 659.966 987.864 660.676C988.278 661.386 988.486 662.153 988.486 662.977C988.486 663.96 988.227 664.798 987.71 665.491C987.199 666.185 986.503 666.665 985.622 666.932V667.068C986.724 667.25 987.585 667.719 988.205 668.474C988.824 669.224 989.134 670.153 989.134 671.261C989.134 672.21 988.875 673.062 988.358 673.818C987.847 674.568 987.148 675.159 986.261 675.591C985.375 676.023 984.366 676.239 983.236 676.239Z" fill="black"/>
<path d="M1030.81 676V674.466L1036.57 668.159C1037.24 667.42 1037.8 666.778 1038.24 666.233C1038.68 665.682 1039 665.165 1039.21 664.682C1039.43 664.193 1039.53 663.682 1039.53 663.148C1039.53 662.534 1039.39 662.003 1039.09 661.554C1038.8 661.105 1038.4 660.759 1037.9 660.514C1037.39 660.27 1036.82 660.148 1036.19 660.148C1035.52 660.148 1034.94 660.287 1034.44 660.565C1033.94 660.838 1033.56 661.222 1033.29 661.716C1033.02 662.21 1032.89 662.79 1032.89 663.455H1030.88C1030.88 662.432 1031.11 661.534 1031.58 660.761C1032.05 659.989 1032.7 659.386 1033.51 658.955C1034.33 658.523 1035.24 658.307 1036.26 658.307C1037.28 658.307 1038.19 658.523 1038.98 658.955C1039.77 659.386 1040.39 659.969 1040.84 660.702C1041.29 661.435 1041.51 662.25 1041.51 663.148C1041.51 663.79 1041.39 664.418 1041.16 665.031C1040.93 665.639 1040.54 666.318 1039.97 667.068C1039.41 667.812 1038.62 668.722 1037.62 669.795L1033.7 673.989V674.125H1041.82V676H1030.81ZM1044.55 672.42V670.682L1052.22 658.545H1053.49V661.239H1052.63L1046.84 670.409V670.545H1057.17V672.42H1044.55ZM1052.77 676V671.892V671.082V658.545H1054.78V676H1052.77Z" fill="black"/>
<path d="M1098.81 676V674.466L1104.57 668.159C1105.24 667.42 1105.8 666.778 1106.24 666.233C1106.68 665.682 1107 665.165 1107.21 664.682C1107.43 664.193 1107.53 663.682 1107.53 663.148C1107.53 662.534 1107.39 662.003 1107.09 661.554C1106.8 661.105 1106.4 660.759 1105.9 660.514C1105.39 660.27 1104.82 660.148 1104.19 660.148C1103.52 660.148 1102.94 660.287 1102.44 660.565C1101.94 660.838 1101.56 661.222 1101.29 661.716C1101.02 662.21 1100.89 662.79 1100.89 663.455H1098.88C1098.88 662.432 1099.11 661.534 1099.58 660.761C1100.05 659.989 1100.7 659.386 1101.51 658.955C1102.33 658.523 1103.24 658.307 1104.26 658.307C1105.28 658.307 1106.19 658.523 1106.98 658.955C1107.77 659.386 1108.39 659.969 1108.84 660.702C1109.29 661.435 1109.51 662.25 1109.51 663.148C1109.51 663.79 1109.39 664.418 1109.16 665.031C1108.93 665.639 1108.54 666.318 1107.97 667.068C1107.41 667.812 1106.62 668.722 1105.62 669.795L1101.7 673.989V674.125H1109.82V676H1098.81ZM1118.79 676.239C1117.79 676.239 1116.89 676.04 1116.09 675.642C1115.29 675.244 1114.65 674.699 1114.16 674.006C1113.68 673.312 1113.42 672.523 1113.37 671.636H1115.42C1115.5 672.426 1115.86 673.08 1116.49 673.597C1117.13 674.108 1117.9 674.364 1118.79 674.364C1119.51 674.364 1120.14 674.196 1120.7 673.861C1121.26 673.526 1121.7 673.065 1122.02 672.48C1122.35 671.889 1122.51 671.222 1122.51 670.477C1122.51 669.716 1122.34 669.037 1122.01 668.44C1121.68 667.838 1121.22 667.364 1120.64 667.017C1120.06 666.67 1119.4 666.494 1118.66 666.489C1118.12 666.483 1117.57 666.565 1117.01 666.736C1116.45 666.901 1115.99 667.114 1115.62 667.375L1113.64 667.136L1114.7 658.545H1123.77V660.42H1116.47L1115.86 665.568H1115.96C1116.32 665.284 1116.77 665.048 1117.31 664.861C1117.85 664.673 1118.41 664.58 1119 664.58C1120.07 664.58 1121.02 664.835 1121.85 665.347C1122.69 665.852 1123.35 666.545 1123.83 667.426C1124.31 668.307 1124.55 669.312 1124.55 670.443C1124.55 671.557 1124.3 672.551 1123.8 673.426C1123.31 674.295 1122.63 674.983 1121.76 675.489C1120.89 675.989 1119.9 676.239 1118.79 676.239Z" fill="black"/>
<path d="M1210.81 676V674.466L1216.57 668.159C1217.24 667.42 1217.8 666.778 1218.24 666.233C1218.68 665.682 1219 665.165 1219.21 664.682C1219.43 664.193 1219.53 663.682 1219.53 663.148C1219.53 662.534 1219.39 662.003 1219.09 661.554C1218.8 661.105 1218.4 660.759 1217.9 660.514C1217.39 660.27 1216.82 660.148 1216.19 660.148C1215.52 660.148 1214.94 660.287 1214.44 660.565C1213.94 660.838 1213.56 661.222 1213.29 661.716C1213.02 662.21 1212.89 662.79 1212.89 663.455H1210.88C1210.88 662.432 1211.11 661.534 1211.58 660.761C1212.05 659.989 1212.7 659.386 1213.51 658.955C1214.33 658.523 1215.24 658.307 1216.26 658.307C1217.28 658.307 1218.19 658.523 1218.98 658.955C1219.77 659.386 1220.39 659.969 1220.84 660.702C1221.29 661.435 1221.51 662.25 1221.51 663.148C1221.51 663.79 1221.39 664.418 1221.16 665.031C1220.93 665.639 1220.54 666.318 1219.97 667.068C1219.41 667.812 1218.62 668.722 1217.62 669.795L1213.7 673.989V674.125H1221.82V676H1210.81ZM1231.13 676.239C1230.42 676.227 1229.7 676.091 1228.99 675.83C1228.27 675.568 1227.62 675.128 1227.03 674.509C1226.43 673.884 1225.96 673.04 1225.6 671.977C1225.24 670.909 1225.07 669.568 1225.07 667.955C1225.07 666.409 1225.21 665.04 1225.5 663.847C1225.79 662.648 1226.21 661.639 1226.76 660.821C1227.31 659.997 1227.98 659.372 1228.76 658.946C1229.54 658.52 1230.42 658.307 1231.41 658.307C1232.38 658.307 1233.25 658.503 1234.01 658.895C1234.78 659.281 1235.41 659.821 1235.89 660.514C1236.37 661.207 1236.68 662.006 1236.83 662.909H1234.75C1234.55 662.125 1234.18 661.474 1233.62 660.957C1233.07 660.44 1232.33 660.182 1231.41 660.182C1230.05 660.182 1228.99 660.77 1228.21 661.946C1227.44 663.122 1227.05 664.773 1227.04 666.898H1227.18C1227.5 666.415 1227.88 666.003 1228.31 665.662C1228.76 665.315 1229.24 665.048 1229.78 664.861C1230.31 664.673 1230.88 664.58 1231.47 664.58C1232.47 664.58 1233.39 664.83 1234.22 665.33C1235.05 665.824 1235.71 666.509 1236.21 667.384C1236.71 668.253 1236.96 669.25 1236.96 670.375C1236.96 671.455 1236.72 672.443 1236.24 673.341C1235.76 674.233 1235.08 674.943 1234.2 675.472C1233.33 675.994 1232.31 676.25 1231.13 676.239ZM1231.13 674.364C1231.85 674.364 1232.49 674.185 1233.06 673.827C1233.63 673.469 1234.09 672.989 1234.41 672.386C1234.75 671.784 1234.92 671.114 1234.92 670.375C1234.92 669.653 1234.76 668.997 1234.43 668.406C1234.11 667.81 1233.67 667.335 1233.11 666.983C1232.55 666.631 1231.92 666.455 1231.2 666.455C1230.66 666.455 1230.16 666.562 1229.69 666.778C1229.23 666.989 1228.82 667.278 1228.47 667.648C1228.12 668.017 1227.85 668.44 1227.65 668.918C1227.45 669.389 1227.35 669.886 1227.35 670.409C1227.35 671.102 1227.51 671.75 1227.84 672.352C1228.16 672.955 1228.61 673.44 1229.18 673.81C1229.76 674.179 1230.41 674.364 1231.13 674.364Z" fill="black"/>
<path d="M1367.81 676V674.466L1373.57 668.159C1374.24 667.42 1374.8 666.778 1375.24 666.233C1375.68 665.682 1376 665.165 1376.21 664.682C1376.43 664.193 1376.53 663.682 1376.53 663.148C1376.53 662.534 1376.39 662.003 1376.09 661.554C1375.8 661.105 1375.4 660.759 1374.9 660.514C1374.39 660.27 1373.82 660.148 1373.19 660.148C1372.52 660.148 1371.94 660.287 1371.44 660.565C1370.94 660.838 1370.56 661.222 1370.29 661.716C1370.02 662.21 1369.89 662.79 1369.89 663.455H1367.88C1367.88 662.432 1368.11 661.534 1368.58 660.761C1369.05 659.989 1369.7 659.386 1370.51 658.955C1371.33 658.523 1372.24 658.307 1373.26 658.307C1374.28 658.307 1375.19 658.523 1375.98 658.955C1376.77 659.386 1377.39 659.969 1377.84 660.702C1378.29 661.435 1378.51 662.25 1378.51 663.148C1378.51 663.79 1378.39 664.418 1378.16 665.031C1377.93 665.639 1377.54 666.318 1376.97 667.068C1376.41 667.812 1375.62 668.722 1374.62 669.795L1370.7 673.989V674.125H1378.82V676H1367.81ZM1382.88 676L1390.69 660.557V660.42H1381.69V658.545H1392.87V660.523L1385.1 676H1382.88Z" fill="black"/>
<path d="M1543.81 676V674.466L1549.57 668.159C1550.24 667.42 1550.8 666.778 1551.24 666.233C1551.68 665.682 1552 665.165 1552.21 664.682C1552.43 664.193 1552.53 663.682 1552.53 663.148C1552.53 662.534 1552.39 662.003 1552.09 661.554C1551.8 661.105 1551.4 660.759 1550.9 660.514C1550.39 660.27 1549.82 660.148 1549.19 660.148C1548.52 660.148 1547.94 660.287 1547.44 660.565C1546.94 660.838 1546.56 661.222 1546.29 661.716C1546.02 662.21 1545.89 662.79 1545.89 663.455H1543.88C1543.88 662.432 1544.11 661.534 1544.58 660.761C1545.05 659.989 1545.7 659.386 1546.51 658.955C1547.33 658.523 1548.24 658.307 1549.26 658.307C1550.28 658.307 1551.19 658.523 1551.98 658.955C1552.77 659.386 1553.39 659.969 1553.84 660.702C1554.29 661.435 1554.51 662.25 1554.51 663.148C1554.51 663.79 1554.39 664.418 1554.16 665.031C1553.93 665.639 1553.54 666.318 1552.97 667.068C1552.41 667.812 1551.62 668.722 1550.62 669.795L1546.7 673.989V674.125H1554.82V676H1543.81ZM1563.93 676.239C1562.76 676.239 1561.72 676.031 1560.83 675.616C1559.93 675.196 1559.24 674.619 1558.74 673.886C1558.24 673.148 1557.99 672.307 1558 671.364C1557.99 670.625 1558.14 669.943 1558.43 669.318C1558.73 668.687 1559.13 668.162 1559.64 667.741C1560.16 667.315 1560.74 667.045 1561.37 666.932V666.83C1560.54 666.614 1559.87 666.145 1559.38 665.423C1558.88 664.696 1558.64 663.869 1558.64 662.943C1558.64 662.057 1558.86 661.264 1559.32 660.565C1559.77 659.866 1560.4 659.315 1561.19 658.912C1561.99 658.509 1562.91 658.307 1563.93 658.307C1564.94 658.307 1565.84 658.509 1566.64 658.912C1567.43 659.315 1568.06 659.866 1568.51 660.565C1568.97 661.264 1569.21 662.057 1569.21 662.943C1569.21 663.869 1568.95 664.696 1568.45 665.423C1567.96 666.145 1567.3 666.614 1566.49 666.83V666.932C1567.12 667.045 1567.68 667.315 1568.19 667.741C1568.7 668.162 1569.1 668.687 1569.4 669.318C1569.7 669.943 1569.86 670.625 1569.86 671.364C1569.86 672.307 1569.6 673.148 1569.09 673.886C1568.59 674.619 1567.9 675.196 1567.01 675.616C1566.12 676.031 1565.09 676.239 1563.93 676.239ZM1563.93 674.364C1564.72 674.364 1565.4 674.236 1565.97 673.98C1566.55 673.724 1566.99 673.364 1567.3 672.898C1567.62 672.432 1567.78 671.886 1567.78 671.261C1567.78 670.602 1567.61 670.02 1567.27 669.514C1566.93 669.009 1566.48 668.611 1565.9 668.321C1565.32 668.031 1564.67 667.886 1563.93 667.886C1563.18 667.886 1562.52 668.031 1561.93 668.321C1561.36 668.611 1560.9 669.009 1560.56 669.514C1560.23 670.02 1560.07 670.602 1560.08 671.261C1560.07 671.886 1560.22 672.432 1560.53 672.898C1560.84 673.364 1561.29 673.724 1561.87 673.98C1562.45 674.236 1563.13 674.364 1563.93 674.364ZM1563.93 666.08C1564.55 666.08 1565.11 665.955 1565.59 665.705C1566.08 665.455 1566.46 665.105 1566.74 664.656C1567.02 664.207 1567.16 663.682 1567.17 663.08C1567.16 662.489 1567.02 661.974 1566.75 661.537C1566.48 661.094 1566.1 660.753 1565.62 660.514C1565.13 660.27 1564.57 660.148 1563.93 660.148C1563.28 660.148 1562.7 660.27 1562.22 660.514C1561.73 660.753 1561.35 661.094 1561.08 661.537C1560.82 661.974 1560.68 662.489 1560.69 663.08C1560.68 663.682 1560.82 664.207 1561.09 664.656C1561.37 665.105 1561.75 665.455 1562.24 665.705C1562.73 665.955 1563.29 666.08 1563.93 666.08Z" fill="black"/>
<path d="M47.3977 721.42V719.682L55.0682 707.545H56.3295V710.239H55.4773L49.6818 719.409V719.545H60.0114V721.42H47.3977ZM55.6136 725V720.892V720.082V707.545H57.625V725H55.6136ZM68.7962 725.239C67.6257 725.239 66.5916 725.031 65.6939 724.616C64.8018 724.196 64.1058 723.619 63.6058 722.886C63.1058 722.148 62.8587 721.307 62.8643 720.364C62.8587 719.625 63.0036 718.943 63.299 718.318C63.5945 717.687 63.9979 717.162 64.5092 716.741C65.0263 716.315 65.603 716.045 66.2393 715.932V715.83C65.4041 715.614 64.7393 715.145 64.245 714.423C63.7507 713.696 63.5064 712.869 63.5121 711.943C63.5064 711.057 63.7308 710.264 64.1854 709.565C64.6399 708.866 65.2649 708.315 66.0604 707.912C66.8615 707.509 67.7734 707.307 68.7962 707.307C69.8075 707.307 70.7109 707.509 71.5064 707.912C72.3018 708.315 72.9268 708.866 73.3814 709.565C73.8416 710.264 74.0746 711.057 74.0803 711.943C74.0746 712.869 73.8217 713.696 73.3217 714.423C72.8274 715.145 72.1712 715.614 71.353 715.83V715.932C71.9837 716.045 72.5518 716.315 73.0575 716.741C73.5632 717.162 73.9666 717.687 74.2678 718.318C74.5689 718.943 74.7223 719.625 74.728 720.364C74.7223 721.307 74.4666 722.148 73.9609 722.886C73.4609 723.619 72.7649 724.196 71.8729 724.616C70.9865 725.031 69.9609 725.239 68.7962 725.239ZM68.7962 723.364C69.5859 723.364 70.2678 723.236 70.8416 722.98C71.4155 722.724 71.8587 722.364 72.1712 721.898C72.4837 721.432 72.6428 720.886 72.6484 720.261C72.6428 719.602 72.4723 719.02 72.1371 718.514C71.8018 718.009 71.3445 717.611 70.7649 717.321C70.1911 717.031 69.5348 716.886 68.7962 716.886C68.0518 716.886 67.3871 717.031 66.8018 717.321C66.2223 717.611 65.7649 718.009 65.4297 718.514C65.1001 719.02 64.9382 719.602 64.9439 720.261C64.9382 720.886 65.0888 721.432 65.3956 721.898C65.7081 722.364 66.1541 722.724 66.7337 722.98C67.3132 723.236 68.0007 723.364 68.7962 723.364ZM68.7962 715.08C69.4212 715.08 69.9751 714.955 70.4581 714.705C70.9467 714.455 71.3303 714.105 71.6087 713.656C71.8871 713.207 72.0291 712.682 72.0348 712.08C72.0291 711.489 71.8899 710.974 71.6172 710.537C71.3445 710.094 70.9666 709.753 70.4837 709.514C70.0007 709.27 69.4382 709.148 68.7962 709.148C68.1428 709.148 67.5717 709.27 67.0831 709.514C66.5945 709.753 66.2166 710.094 65.9496 710.537C65.6825 710.974 65.5518 711.489 65.5575 712.08C65.5518 712.682 65.6854 713.207 65.9581 713.656C66.2365 714.105 66.62 714.455 67.1087 714.705C67.5973 714.955 68.1598 715.08 68.7962 715.08Z" fill="black"/>
<path d="M214.398 721.42V719.682L222.068 707.545H223.33V710.239H222.477L216.682 719.409V719.545H227.011V721.42H214.398ZM222.614 725V720.892V720.082V707.545H224.625V725H222.614ZM230.751 725L238.558 709.557V709.42H229.558V707.545H240.739V709.523L232.967 725H230.751Z" fill="black"/>
<path d="M367.398 721.42V719.682L375.068 707.545H376.33V710.239H375.477L369.682 719.409V719.545H380.011V721.42H367.398ZM375.614 725V720.892V720.082V707.545H377.625V725H375.614ZM389.001 725.239C388.285 725.227 387.569 725.091 386.853 724.83C386.137 724.568 385.484 724.128 384.893 723.509C384.302 722.884 383.827 722.04 383.469 720.977C383.112 719.909 382.933 718.568 382.933 716.955C382.933 715.409 383.077 714.04 383.367 712.847C383.657 711.648 384.077 710.639 384.629 709.821C385.18 708.997 385.844 708.372 386.623 707.946C387.407 707.52 388.29 707.307 389.273 707.307C390.251 707.307 391.12 707.503 391.881 707.895C392.648 708.281 393.273 708.821 393.756 709.514C394.239 710.207 394.552 711.006 394.694 711.909H392.614C392.421 711.125 392.046 710.474 391.489 709.957C390.933 709.44 390.194 709.182 389.273 709.182C387.921 709.182 386.856 709.77 386.077 710.946C385.305 712.122 384.915 713.773 384.91 715.898H385.046C385.364 715.415 385.742 715.003 386.18 714.662C386.623 714.315 387.112 714.048 387.646 713.861C388.18 713.673 388.745 713.58 389.342 713.58C390.342 713.58 391.256 713.83 392.086 714.33C392.915 714.824 393.58 715.509 394.08 716.384C394.58 717.253 394.83 718.25 394.83 719.375C394.83 720.455 394.589 721.443 394.106 722.341C393.623 723.233 392.944 723.943 392.069 724.472C391.2 724.994 390.177 725.25 389.001 725.239ZM389.001 723.364C389.717 723.364 390.359 723.185 390.927 722.827C391.501 722.469 391.952 721.989 392.282 721.386C392.617 720.784 392.785 720.114 392.785 719.375C392.785 718.653 392.623 717.997 392.299 717.406C391.981 716.81 391.54 716.335 390.978 715.983C390.421 715.631 389.785 715.455 389.069 715.455C388.529 715.455 388.026 715.562 387.56 715.778C387.094 715.989 386.685 716.278 386.333 716.648C385.987 717.017 385.714 717.44 385.515 717.918C385.316 718.389 385.217 718.886 385.217 719.409C385.217 720.102 385.379 720.75 385.702 721.352C386.032 721.955 386.481 722.44 387.049 722.81C387.623 723.179 388.273 723.364 389.001 723.364Z" fill="black"/>
<path d="M476.398 721.42V719.682L484.068 707.545H485.33V710.239H484.477L478.682 719.409V719.545H489.011V721.42H476.398ZM484.614 725V720.892V720.082V707.545H486.625V725H484.614ZM497.66 725.239C496.66 725.239 495.759 725.04 494.958 724.642C494.157 724.244 493.515 723.699 493.032 723.006C492.549 722.312 492.285 721.523 492.239 720.636H494.285C494.364 721.426 494.722 722.08 495.359 722.597C496.001 723.108 496.768 723.364 497.66 723.364C498.376 723.364 499.012 723.196 499.569 722.861C500.131 722.526 500.572 722.065 500.89 721.48C501.214 720.889 501.376 720.222 501.376 719.477C501.376 718.716 501.208 718.037 500.873 717.44C500.543 716.838 500.089 716.364 499.509 716.017C498.93 715.67 498.268 715.494 497.523 715.489C496.989 715.483 496.441 715.565 495.879 715.736C495.316 715.901 494.853 716.114 494.489 716.375L492.512 716.136L493.569 707.545H502.637V709.42H495.342L494.728 714.568H494.83C495.188 714.284 495.637 714.048 496.177 713.861C496.717 713.673 497.279 713.58 497.864 713.58C498.933 713.58 499.884 713.835 500.719 714.347C501.56 714.852 502.219 715.545 502.697 716.426C503.18 717.307 503.421 718.312 503.421 719.443C503.421 720.557 503.171 721.551 502.671 722.426C502.177 723.295 501.495 723.983 500.626 724.489C499.756 724.989 498.768 725.239 497.66 725.239Z" fill="black"/>
<path d="M550.398 721.42V719.682L558.068 707.545H559.33V710.239H558.477L552.682 719.409V719.545H563.011V721.42H550.398ZM558.614 725V720.892V720.082V707.545H560.625V725H558.614ZM565.796 721.42V719.682L573.467 707.545H574.728V710.239H573.876L568.08 719.409V719.545H578.41V721.42H565.796ZM574.012 725V720.892V720.082V707.545H576.023V725H574.012Z" fill="black"/>
<path d="M629.398 721.42V719.682L637.068 707.545H638.33V710.239H637.477L631.682 719.409V719.545H642.011V721.42H629.398ZM637.614 725V720.892V720.082V707.545H639.625V725H637.614ZM651.103 725.239C649.978 725.239 648.975 725.045 648.094 724.659C647.219 724.273 646.523 723.736 646.006 723.048C645.495 722.355 645.217 721.551 645.171 720.636H647.319C647.364 721.199 647.558 721.685 647.898 722.094C648.239 722.497 648.685 722.81 649.237 723.031C649.788 723.253 650.398 723.364 651.069 723.364C651.819 723.364 652.484 723.233 653.063 722.972C653.643 722.71 654.097 722.347 654.427 721.881C654.756 721.415 654.921 720.875 654.921 720.261C654.921 719.619 654.762 719.054 654.444 718.565C654.126 718.071 653.66 717.685 653.046 717.406C652.433 717.128 651.683 716.989 650.796 716.989H649.398V715.114H650.796C651.489 715.114 652.097 714.989 652.62 714.739C653.148 714.489 653.56 714.136 653.856 713.682C654.157 713.227 654.308 712.693 654.308 712.08C654.308 711.489 654.177 710.974 653.915 710.537C653.654 710.099 653.285 709.759 652.808 709.514C652.336 709.27 651.779 709.148 651.137 709.148C650.535 709.148 649.967 709.259 649.433 709.48C648.904 709.696 648.472 710.011 648.137 710.426C647.802 710.835 647.62 711.33 647.592 711.909H645.546C645.58 710.994 645.856 710.193 646.373 709.506C646.89 708.812 647.566 708.273 648.401 707.886C649.242 707.5 650.165 707.307 651.171 707.307C652.251 707.307 653.177 707.526 653.95 707.963C654.722 708.395 655.316 708.966 655.731 709.676C656.146 710.386 656.353 711.153 656.353 711.977C656.353 712.96 656.094 713.798 655.577 714.491C655.066 715.185 654.37 715.665 653.489 715.932V716.068C654.592 716.25 655.452 716.719 656.072 717.474C656.691 718.224 657.001 719.153 657.001 720.261C657.001 721.21 656.742 722.062 656.225 722.818C655.714 723.568 655.015 724.159 654.129 724.591C653.242 725.023 652.234 725.239 651.103 725.239Z" fill="black"/>
<path d="M698.398 721.42V719.682L706.068 707.545H707.33V710.239H706.477L700.682 719.409V719.545H711.011V721.42H698.398ZM706.614 725V720.892V720.082V707.545H708.625V725H706.614ZM714.205 725V723.466L719.967 717.159C720.643 716.42 721.2 715.778 721.637 715.233C722.075 714.682 722.398 714.165 722.609 713.682C722.825 713.193 722.933 712.682 722.933 712.148C722.933 711.534 722.785 711.003 722.489 710.554C722.2 710.105 721.802 709.759 721.296 709.514C720.79 709.27 720.222 709.148 719.592 709.148C718.921 709.148 718.336 709.287 717.836 709.565C717.342 709.838 716.958 710.222 716.685 710.716C716.418 711.21 716.285 711.79 716.285 712.455H714.273C714.273 711.432 714.509 710.534 714.981 709.761C715.452 708.989 716.094 708.386 716.907 707.955C717.725 707.523 718.643 707.307 719.66 707.307C720.683 707.307 721.589 707.523 722.379 707.955C723.168 708.386 723.788 708.969 724.237 709.702C724.685 710.435 724.91 711.25 724.91 712.148C724.91 712.79 724.793 713.418 724.56 714.031C724.333 714.639 723.935 715.318 723.367 716.068C722.805 716.812 722.023 717.722 721.023 718.795L717.103 722.989V723.125H725.217V725H714.205Z" fill="black"/>
<path d="M763.398 721.42V719.682L771.068 707.545H772.33V710.239H771.477L765.682 719.409V719.545H776.011V721.42H763.398ZM771.614 725V720.892V720.082V707.545H773.625V725H771.614ZM785.107 707.545V725H782.994V709.761H782.891L778.63 712.591V710.443L782.994 707.545H785.107Z" fill="black"/>
<path d="M839.705 725.239C838.58 725.239 837.577 725.045 836.696 724.659C835.821 724.273 835.125 723.736 834.608 723.048C834.097 722.355 833.818 721.551 833.773 720.636H835.92C835.966 721.199 836.159 721.685 836.5 722.094C836.841 722.497 837.287 722.81 837.838 723.031C838.389 723.253 839 723.364 839.67 723.364C840.42 723.364 841.085 723.233 841.665 722.972C842.244 722.71 842.699 722.347 843.028 721.881C843.358 721.415 843.523 720.875 843.523 720.261C843.523 719.619 843.364 719.054 843.045 718.565C842.727 718.071 842.261 717.685 841.648 717.406C841.034 717.128 840.284 716.989 839.398 716.989H838V715.114H839.398C840.091 715.114 840.699 714.989 841.222 714.739C841.75 714.489 842.162 714.136 842.457 713.682C842.759 713.227 842.909 712.693 842.909 712.08C842.909 711.489 842.778 710.974 842.517 710.537C842.256 710.099 841.886 709.759 841.409 709.514C840.938 709.27 840.381 709.148 839.739 709.148C839.136 709.148 838.568 709.259 838.034 709.48C837.506 709.696 837.074 710.011 836.739 710.426C836.403 710.835 836.222 711.33 836.193 711.909H834.148C834.182 710.994 834.457 710.193 834.974 709.506C835.491 708.812 836.168 708.273 837.003 707.886C837.844 707.5 838.767 707.307 839.773 707.307C840.852 707.307 841.778 707.526 842.551 707.963C843.324 708.395 843.918 708.966 844.332 709.676C844.747 710.386 844.955 711.153 844.955 711.977C844.955 712.96 844.696 713.798 844.179 714.491C843.668 715.185 842.972 715.665 842.091 715.932V716.068C843.193 716.25 844.054 716.719 844.673 717.474C845.293 718.224 845.602 719.153 845.602 720.261C845.602 721.21 845.344 722.062 844.827 722.818C844.315 723.568 843.616 724.159 842.73 724.591C841.844 725.023 840.835 725.239 839.705 725.239ZM855.224 707.545V725H853.111V709.761H853.009L848.747 712.591V710.443L853.111 707.545H855.224Z" fill="black"/>
<path d="M901.705 725.239C900.58 725.239 899.577 725.045 898.696 724.659C897.821 724.273 897.125 723.736 896.608 723.048C896.097 722.355 895.818 721.551 895.773 720.636H897.92C897.966 721.199 898.159 721.685 898.5 722.094C898.841 722.497 899.287 722.81 899.838 723.031C900.389 723.253 901 723.364 901.67 723.364C902.42 723.364 903.085 723.233 903.665 722.972C904.244 722.71 904.699 722.347 905.028 721.881C905.358 721.415 905.523 720.875 905.523 720.261C905.523 719.619 905.364 719.054 905.045 718.565C904.727 718.071 904.261 717.685 903.648 717.406C903.034 717.128 902.284 716.989 901.398 716.989H900V715.114H901.398C902.091 715.114 902.699 714.989 903.222 714.739C903.75 714.489 904.162 714.136 904.457 713.682C904.759 713.227 904.909 712.693 904.909 712.08C904.909 711.489 904.778 710.974 904.517 710.537C904.256 710.099 903.886 709.759 903.409 709.514C902.938 709.27 902.381 709.148 901.739 709.148C901.136 709.148 900.568 709.259 900.034 709.48C899.506 709.696 899.074 710.011 898.739 710.426C898.403 710.835 898.222 711.33 898.193 711.909H896.148C896.182 710.994 896.457 710.193 896.974 709.506C897.491 708.812 898.168 708.273 899.003 707.886C899.844 707.5 900.767 707.307 901.773 707.307C902.852 707.307 903.778 707.526 904.551 707.963C905.324 708.395 905.918 708.966 906.332 709.676C906.747 710.386 906.955 711.153 906.955 711.977C906.955 712.96 906.696 713.798 906.179 714.491C905.668 715.185 904.972 715.665 904.091 715.932V716.068C905.193 716.25 906.054 716.719 906.673 717.474C907.293 718.224 907.602 719.153 907.602 720.261C907.602 721.21 907.344 722.062 906.827 722.818C906.315 723.568 905.616 724.159 904.73 724.591C903.844 725.023 902.835 725.239 901.705 725.239ZM911.088 725V723.466L916.849 717.159C917.526 716.42 918.082 715.778 918.52 715.233C918.957 714.682 919.281 714.165 919.491 713.682C919.707 713.193 919.815 712.682 919.815 712.148C919.815 711.534 919.668 711.003 919.372 710.554C919.082 710.105 918.685 709.759 918.179 709.514C917.673 709.27 917.105 709.148 916.474 709.148C915.804 709.148 915.219 709.287 914.719 709.565C914.224 709.838 913.841 710.222 913.568 710.716C913.301 711.21 913.168 711.79 913.168 712.455H911.156C911.156 711.432 911.392 710.534 911.864 709.761C912.335 708.989 912.977 708.386 913.79 707.955C914.608 707.523 915.526 707.307 916.543 707.307C917.565 707.307 918.472 707.523 919.261 707.955C920.051 708.386 920.67 708.969 921.119 709.702C921.568 710.435 921.793 711.25 921.793 712.148C921.793 712.79 921.676 713.418 921.443 714.031C921.216 714.639 920.818 715.318 920.25 716.068C919.688 716.812 918.906 717.722 917.906 718.795L913.986 722.989V723.125H922.099V725H911.088Z" fill="black"/>
<path d="M978.705 725.239C977.58 725.239 976.577 725.045 975.696 724.659C974.821 724.273 974.125 723.736 973.608 723.048C973.097 722.355 972.818 721.551 972.773 720.636H974.92C974.966 721.199 975.159 721.685 975.5 722.094C975.841 722.497 976.287 722.81 976.838 723.031C977.389 723.253 978 723.364 978.67 723.364C979.42 723.364 980.085 723.233 980.665 722.972C981.244 722.71 981.699 722.347 982.028 721.881C982.358 721.415 982.523 720.875 982.523 720.261C982.523 719.619 982.364 719.054 982.045 718.565C981.727 718.071 981.261 717.685 980.648 717.406C980.034 717.128 979.284 716.989 978.398 716.989H977V715.114H978.398C979.091 715.114 979.699 714.989 980.222 714.739C980.75 714.489 981.162 714.136 981.457 713.682C981.759 713.227 981.909 712.693 981.909 712.08C981.909 711.489 981.778 710.974 981.517 710.537C981.256 710.099 980.886 709.759 980.409 709.514C979.938 709.27 979.381 709.148 978.739 709.148C978.136 709.148 977.568 709.259 977.034 709.48C976.506 709.696 976.074 710.011 975.739 710.426C975.403 710.835 975.222 711.33 975.193 711.909H973.148C973.182 710.994 973.457 710.193 973.974 709.506C974.491 708.812 975.168 708.273 976.003 707.886C976.844 707.5 977.767 707.307 978.773 707.307C979.852 707.307 980.778 707.526 981.551 707.963C982.324 708.395 982.918 708.966 983.332 709.676C983.747 710.386 983.955 711.153 983.955 711.977C983.955 712.96 983.696 713.798 983.179 714.491C982.668 715.185 981.972 715.665 981.091 715.932V716.068C982.193 716.25 983.054 716.719 983.673 717.474C984.293 718.224 984.602 719.153 984.602 720.261C984.602 721.21 984.344 722.062 983.827 722.818C983.315 723.568 982.616 724.159 981.73 724.591C980.844 725.023 979.835 725.239 978.705 725.239ZM993.986 725.239C992.861 725.239 991.858 725.045 990.977 724.659C990.102 724.273 989.406 723.736 988.889 723.048C988.378 722.355 988.099 721.551 988.054 720.636H990.202C990.247 721.199 990.44 721.685 990.781 722.094C991.122 722.497 991.568 722.81 992.119 723.031C992.67 723.253 993.281 723.364 993.952 723.364C994.702 723.364 995.366 723.233 995.946 722.972C996.526 722.71 996.98 722.347 997.31 721.881C997.639 721.415 997.804 720.875 997.804 720.261C997.804 719.619 997.645 719.054 997.327 718.565C997.009 718.071 996.543 717.685 995.929 717.406C995.315 717.128 994.565 716.989 993.679 716.989H992.281V715.114H993.679C994.372 715.114 994.98 714.989 995.503 714.739C996.031 714.489 996.443 714.136 996.739 713.682C997.04 713.227 997.19 712.693 997.19 712.08C997.19 711.489 997.06 710.974 996.798 710.537C996.537 710.099 996.168 709.759 995.69 709.514C995.219 709.27 994.662 709.148 994.02 709.148C993.418 709.148 992.849 709.259 992.315 709.48C991.787 709.696 991.355 710.011 991.02 710.426C990.685 710.835 990.503 711.33 990.474 711.909H988.429C988.463 710.994 988.739 710.193 989.256 709.506C989.773 708.812 990.449 708.273 991.284 707.886C992.125 707.5 993.048 707.307 994.054 707.307C995.134 707.307 996.06 707.526 996.832 707.963C997.605 708.395 998.199 708.966 998.614 709.676C999.028 710.386 999.236 711.153 999.236 711.977C999.236 712.96 998.977 713.798 998.46 714.491C997.949 715.185 997.253 715.665 996.372 715.932V716.068C997.474 716.25 998.335 716.719 998.955 717.474C999.574 718.224 999.884 719.153 999.884 720.261C999.884 721.21 999.625 722.062 999.108 722.818C998.597 723.568 997.898 724.159 997.011 724.591C996.125 725.023 995.116 725.239 993.986 725.239Z" fill="black"/>
<path d="M1056.7 725.239C1055.58 725.239 1054.58 725.045 1053.7 724.659C1052.82 724.273 1052.13 723.736 1051.61 723.048C1051.1 722.355 1050.82 721.551 1050.77 720.636H1052.92C1052.97 721.199 1053.16 721.685 1053.5 722.094C1053.84 722.497 1054.29 722.81 1054.84 723.031C1055.39 723.253 1056 723.364 1056.67 723.364C1057.42 723.364 1058.09 723.233 1058.66 722.972C1059.24 722.71 1059.7 722.347 1060.03 721.881C1060.36 721.415 1060.52 720.875 1060.52 720.261C1060.52 719.619 1060.36 719.054 1060.05 718.565C1059.73 718.071 1059.26 717.685 1058.65 717.406C1058.03 717.128 1057.28 716.989 1056.4 716.989H1055V715.114H1056.4C1057.09 715.114 1057.7 714.989 1058.22 714.739C1058.75 714.489 1059.16 714.136 1059.46 713.682C1059.76 713.227 1059.91 712.693 1059.91 712.08C1059.91 711.489 1059.78 710.974 1059.52 710.537C1059.26 710.099 1058.89 709.759 1058.41 709.514C1057.94 709.27 1057.38 709.148 1056.74 709.148C1056.14 709.148 1055.57 709.259 1055.03 709.48C1054.51 709.696 1054.07 710.011 1053.74 710.426C1053.4 710.835 1053.22 711.33 1053.19 711.909H1051.15C1051.18 710.994 1051.46 710.193 1051.97 709.506C1052.49 708.812 1053.17 708.273 1054 707.886C1054.84 707.5 1055.77 707.307 1056.77 707.307C1057.85 707.307 1058.78 707.526 1059.55 707.963C1060.32 708.395 1060.92 708.966 1061.33 709.676C1061.75 710.386 1061.95 711.153 1061.95 711.977C1061.95 712.96 1061.7 713.798 1061.18 714.491C1060.67 715.185 1059.97 715.665 1059.09 715.932V716.068C1060.19 716.25 1061.05 716.719 1061.67 717.474C1062.29 718.224 1062.6 719.153 1062.6 720.261C1062.6 721.21 1062.34 722.062 1061.83 722.818C1061.32 723.568 1060.62 724.159 1059.73 724.591C1058.84 725.023 1057.84 725.239 1056.7 725.239ZM1065.68 721.42V719.682L1073.35 707.545H1074.61V710.239H1073.76L1067.96 719.409V719.545H1078.29V721.42H1065.68ZM1073.89 725V720.892V720.082V707.545H1075.91V725H1073.89Z" fill="black"/>
<path d="M1132.7 725.239C1131.58 725.239 1130.58 725.045 1129.7 724.659C1128.82 724.273 1128.13 723.736 1127.61 723.048C1127.1 722.355 1126.82 721.551 1126.77 720.636H1128.92C1128.97 721.199 1129.16 721.685 1129.5 722.094C1129.84 722.497 1130.29 722.81 1130.84 723.031C1131.39 723.253 1132 723.364 1132.67 723.364C1133.42 723.364 1134.09 723.233 1134.66 722.972C1135.24 722.71 1135.7 722.347 1136.03 721.881C1136.36 721.415 1136.52 720.875 1136.52 720.261C1136.52 719.619 1136.36 719.054 1136.05 718.565C1135.73 718.071 1135.26 717.685 1134.65 717.406C1134.03 717.128 1133.28 716.989 1132.4 716.989H1131V715.114H1132.4C1133.09 715.114 1133.7 714.989 1134.22 714.739C1134.75 714.489 1135.16 714.136 1135.46 713.682C1135.76 713.227 1135.91 712.693 1135.91 712.08C1135.91 711.489 1135.78 710.974 1135.52 710.537C1135.26 710.099 1134.89 709.759 1134.41 709.514C1133.94 709.27 1133.38 709.148 1132.74 709.148C1132.14 709.148 1131.57 709.259 1131.03 709.48C1130.51 709.696 1130.07 710.011 1129.74 710.426C1129.4 710.835 1129.22 711.33 1129.19 711.909H1127.15C1127.18 710.994 1127.46 710.193 1127.97 709.506C1128.49 708.812 1129.17 708.273 1130 707.886C1130.84 707.5 1131.77 707.307 1132.77 707.307C1133.85 707.307 1134.78 707.526 1135.55 707.963C1136.32 708.395 1136.92 708.966 1137.33 709.676C1137.75 710.386 1137.95 711.153 1137.95 711.977C1137.95 712.96 1137.7 713.798 1137.18 714.491C1136.67 715.185 1135.97 715.665 1135.09 715.932V716.068C1136.19 716.25 1137.05 716.719 1137.67 717.474C1138.29 718.224 1138.6 719.153 1138.6 720.261C1138.6 721.21 1138.34 722.062 1137.83 722.818C1137.32 723.568 1136.62 724.159 1135.73 724.591C1134.84 725.023 1133.84 725.239 1132.7 725.239ZM1147.54 725.239C1146.54 725.239 1145.64 725.04 1144.84 724.642C1144.04 724.244 1143.4 723.699 1142.91 723.006C1142.43 722.312 1142.17 721.523 1142.12 720.636H1144.17C1144.25 721.426 1144.61 722.08 1145.24 722.597C1145.88 723.108 1146.65 723.364 1147.54 723.364C1148.26 723.364 1148.89 723.196 1149.45 722.861C1150.01 722.526 1150.45 722.065 1150.77 721.48C1151.1 720.889 1151.26 720.222 1151.26 719.477C1151.26 718.716 1151.09 718.037 1150.76 717.44C1150.43 716.838 1149.97 716.364 1149.39 716.017C1148.81 715.67 1148.15 715.494 1147.41 715.489C1146.87 715.483 1146.32 715.565 1145.76 715.736C1145.2 715.901 1144.74 716.114 1144.37 716.375L1142.39 716.136L1143.45 707.545H1152.52V709.42H1145.22L1144.61 714.568H1144.71C1145.07 714.284 1145.52 714.048 1146.06 713.861C1146.6 713.673 1147.16 713.58 1147.75 713.58C1148.82 713.58 1149.77 713.835 1150.6 714.347C1151.44 714.852 1152.1 715.545 1152.58 716.426C1153.06 717.307 1153.3 718.312 1153.3 719.443C1153.3 720.557 1153.05 721.551 1152.55 722.426C1152.06 723.295 1151.38 723.983 1150.51 724.489C1149.64 724.989 1148.65 725.239 1147.54 725.239Z" fill="black"/>
<path d="M1239.7 725.239C1238.58 725.239 1237.58 725.045 1236.7 724.659C1235.82 724.273 1235.13 723.736 1234.61 723.048C1234.1 722.355 1233.82 721.551 1233.77 720.636H1235.92C1235.97 721.199 1236.16 721.685 1236.5 722.094C1236.84 722.497 1237.29 722.81 1237.84 723.031C1238.39 723.253 1239 723.364 1239.67 723.364C1240.42 723.364 1241.09 723.233 1241.66 722.972C1242.24 722.71 1242.7 722.347 1243.03 721.881C1243.36 721.415 1243.52 720.875 1243.52 720.261C1243.52 719.619 1243.36 719.054 1243.05 718.565C1242.73 718.071 1242.26 717.685 1241.65 717.406C1241.03 717.128 1240.28 716.989 1239.4 716.989H1238V715.114H1239.4C1240.09 715.114 1240.7 714.989 1241.22 714.739C1241.75 714.489 1242.16 714.136 1242.46 713.682C1242.76 713.227 1242.91 712.693 1242.91 712.08C1242.91 711.489 1242.78 710.974 1242.52 710.537C1242.26 710.099 1241.89 709.759 1241.41 709.514C1240.94 709.27 1240.38 709.148 1239.74 709.148C1239.14 709.148 1238.57 709.259 1238.03 709.48C1237.51 709.696 1237.07 710.011 1236.74 710.426C1236.4 710.835 1236.22 711.33 1236.19 711.909H1234.15C1234.18 710.994 1234.46 710.193 1234.97 709.506C1235.49 708.812 1236.17 708.273 1237 707.886C1237.84 707.5 1238.77 707.307 1239.77 707.307C1240.85 707.307 1241.78 707.526 1242.55 707.963C1243.32 708.395 1243.92 708.966 1244.33 709.676C1244.75 710.386 1244.95 711.153 1244.95 711.977C1244.95 712.96 1244.7 713.798 1244.18 714.491C1243.67 715.185 1242.97 715.665 1242.09 715.932V716.068C1243.19 716.25 1244.05 716.719 1244.67 717.474C1245.29 718.224 1245.6 719.153 1245.6 720.261C1245.6 721.21 1245.34 722.062 1244.83 722.818C1244.32 723.568 1243.62 724.159 1242.73 724.591C1241.84 725.023 1240.84 725.239 1239.7 725.239ZM1254.88 725.239C1254.17 725.227 1253.45 725.091 1252.74 724.83C1252.02 724.568 1251.37 724.128 1250.78 723.509C1250.18 722.884 1249.71 722.04 1249.35 720.977C1248.99 719.909 1248.82 718.568 1248.82 716.955C1248.82 715.409 1248.96 714.04 1249.25 712.847C1249.54 711.648 1249.96 710.639 1250.51 709.821C1251.06 708.997 1251.73 708.372 1252.51 707.946C1253.29 707.52 1254.17 707.307 1255.16 707.307C1256.13 707.307 1257 707.503 1257.76 707.895C1258.53 708.281 1259.16 708.821 1259.64 709.514C1260.12 710.207 1260.43 711.006 1260.58 711.909H1258.5C1258.3 711.125 1257.93 710.474 1257.37 709.957C1256.82 709.44 1256.08 709.182 1255.16 709.182C1253.8 709.182 1252.74 709.77 1251.96 710.946C1251.19 712.122 1250.8 713.773 1250.79 715.898H1250.93C1251.25 715.415 1251.62 715.003 1252.06 714.662C1252.51 714.315 1252.99 714.048 1253.53 713.861C1254.06 713.673 1254.63 713.58 1255.22 713.58C1256.22 713.58 1257.14 713.83 1257.97 714.33C1258.8 714.824 1259.46 715.509 1259.96 716.384C1260.46 717.253 1260.71 718.25 1260.71 719.375C1260.71 720.455 1260.47 721.443 1259.99 722.341C1259.51 723.233 1258.83 723.943 1257.95 724.472C1257.08 724.994 1256.06 725.25 1254.88 725.239ZM1254.88 723.364C1255.6 723.364 1256.24 723.185 1256.81 722.827C1257.38 722.469 1257.84 721.989 1258.16 721.386C1258.5 720.784 1258.67 720.114 1258.67 719.375C1258.67 718.653 1258.51 717.997 1258.18 717.406C1257.86 716.81 1257.42 716.335 1256.86 715.983C1256.3 715.631 1255.67 715.455 1254.95 715.455C1254.41 715.455 1253.91 715.562 1253.44 715.778C1252.98 715.989 1252.57 716.278 1252.22 716.648C1251.87 717.017 1251.6 717.44 1251.4 717.918C1251.2 718.389 1251.1 718.886 1251.1 719.409C1251.1 720.102 1251.26 720.75 1251.59 721.352C1251.91 721.955 1252.36 722.44 1252.93 722.81C1253.51 723.179 1254.16 723.364 1254.88 723.364Z" fill="black"/>
<path d="M1399.7 725.239C1398.58 725.239 1397.58 725.045 1396.7 724.659C1395.82 724.273 1395.13 723.736 1394.61 723.048C1394.1 722.355 1393.82 721.551 1393.77 720.636H1395.92C1395.97 721.199 1396.16 721.685 1396.5 722.094C1396.84 722.497 1397.29 722.81 1397.84 723.031C1398.39 723.253 1399 723.364 1399.67 723.364C1400.42 723.364 1401.09 723.233 1401.66 722.972C1402.24 722.71 1402.7 722.347 1403.03 721.881C1403.36 721.415 1403.52 720.875 1403.52 720.261C1403.52 719.619 1403.36 719.054 1403.05 718.565C1402.73 718.071 1402.26 717.685 1401.65 717.406C1401.03 717.128 1400.28 716.989 1399.4 716.989H1398V715.114H1399.4C1400.09 715.114 1400.7 714.989 1401.22 714.739C1401.75 714.489 1402.16 714.136 1402.46 713.682C1402.76 713.227 1402.91 712.693 1402.91 712.08C1402.91 711.489 1402.78 710.974 1402.52 710.537C1402.26 710.099 1401.89 709.759 1401.41 709.514C1400.94 709.27 1400.38 709.148 1399.74 709.148C1399.14 709.148 1398.57 709.259 1398.03 709.48C1397.51 709.696 1397.07 710.011 1396.74 710.426C1396.4 710.835 1396.22 711.33 1396.19 711.909H1394.15C1394.18 710.994 1394.46 710.193 1394.97 709.506C1395.49 708.812 1396.17 708.273 1397 707.886C1397.84 707.5 1398.77 707.307 1399.77 707.307C1400.85 707.307 1401.78 707.526 1402.55 707.963C1403.32 708.395 1403.92 708.966 1404.33 709.676C1404.75 710.386 1404.95 711.153 1404.95 711.977C1404.95 712.96 1404.7 713.798 1404.18 714.491C1403.67 715.185 1402.97 715.665 1402.09 715.932V716.068C1403.19 716.25 1404.05 716.719 1404.67 717.474C1405.29 718.224 1405.6 719.153 1405.6 720.261C1405.6 721.21 1405.34 722.062 1404.83 722.818C1404.32 723.568 1403.62 724.159 1402.73 724.591C1401.84 725.023 1400.84 725.239 1399.7 725.239ZM1409.63 725L1417.44 709.557V709.42H1408.44V707.545H1419.62V709.523L1411.85 725H1409.63Z" fill="black"/>
<path d="M1544.7 725.239C1543.58 725.239 1542.58 725.045 1541.7 724.659C1540.82 724.273 1540.13 723.736 1539.61 723.048C1539.1 722.355 1538.82 721.551 1538.77 720.636H1540.92C1540.97 721.199 1541.16 721.685 1541.5 722.094C1541.84 722.497 1542.29 722.81 1542.84 723.031C1543.39 723.253 1544 723.364 1544.67 723.364C1545.42 723.364 1546.09 723.233 1546.66 722.972C1547.24 722.71 1547.7 722.347 1548.03 721.881C1548.36 721.415 1548.52 720.875 1548.52 720.261C1548.52 719.619 1548.36 719.054 1548.05 718.565C1547.73 718.071 1547.26 717.685 1546.65 717.406C1546.03 717.128 1545.28 716.989 1544.4 716.989H1543V715.114H1544.4C1545.09 715.114 1545.7 714.989 1546.22 714.739C1546.75 714.489 1547.16 714.136 1547.46 713.682C1547.76 713.227 1547.91 712.693 1547.91 712.08C1547.91 711.489 1547.78 710.974 1547.52 710.537C1547.26 710.099 1546.89 709.759 1546.41 709.514C1545.94 709.27 1545.38 709.148 1544.74 709.148C1544.14 709.148 1543.57 709.259 1543.03 709.48C1542.51 709.696 1542.07 710.011 1541.74 710.426C1541.4 710.835 1541.22 711.33 1541.19 711.909H1539.15C1539.18 710.994 1539.46 710.193 1539.97 709.506C1540.49 708.812 1541.17 708.273 1542 707.886C1542.84 707.5 1543.77 707.307 1544.77 707.307C1545.85 707.307 1546.78 707.526 1547.55 707.963C1548.32 708.395 1548.92 708.966 1549.33 709.676C1549.75 710.386 1549.95 711.153 1549.95 711.977C1549.95 712.96 1549.7 713.798 1549.18 714.491C1548.67 715.185 1547.97 715.665 1547.09 715.932V716.068C1548.19 716.25 1549.05 716.719 1549.67 717.474C1550.29 718.224 1550.6 719.153 1550.6 720.261C1550.6 721.21 1550.34 722.062 1549.83 722.818C1549.32 723.568 1548.62 724.159 1547.73 724.591C1546.84 725.023 1545.84 725.239 1544.7 725.239ZM1559.68 725.239C1558.51 725.239 1557.47 725.031 1556.58 724.616C1555.68 724.196 1554.99 723.619 1554.49 722.886C1553.99 722.148 1553.74 721.307 1553.75 720.364C1553.74 719.625 1553.89 718.943 1554.18 718.318C1554.48 717.687 1554.88 717.162 1555.39 716.741C1555.91 716.315 1556.49 716.045 1557.12 715.932V715.83C1556.29 715.614 1555.62 715.145 1555.13 714.423C1554.63 713.696 1554.39 712.869 1554.39 711.943C1554.39 711.057 1554.61 710.264 1555.07 709.565C1555.52 708.866 1556.15 708.315 1556.94 707.912C1557.74 707.509 1558.66 707.307 1559.68 707.307C1560.69 707.307 1561.59 707.509 1562.39 707.912C1563.18 708.315 1563.81 708.866 1564.26 709.565C1564.72 710.264 1564.96 711.057 1564.96 711.943C1564.96 712.869 1564.7 713.696 1564.2 714.423C1563.71 715.145 1563.05 715.614 1562.24 715.83V715.932C1562.87 716.045 1563.43 716.315 1563.94 716.741C1564.45 717.162 1564.85 717.687 1565.15 718.318C1565.45 718.943 1565.61 719.625 1565.61 720.364C1565.61 721.307 1565.35 722.148 1564.84 722.886C1564.34 723.619 1563.65 724.196 1562.76 724.616C1561.87 725.031 1560.84 725.239 1559.68 725.239ZM1559.68 723.364C1560.47 723.364 1561.15 723.236 1561.72 722.98C1562.3 722.724 1562.74 722.364 1563.05 721.898C1563.37 721.432 1563.53 720.886 1563.53 720.261C1563.53 719.602 1563.36 719.02 1563.02 718.514C1562.68 718.009 1562.23 717.611 1561.65 717.321C1561.07 717.031 1560.42 716.886 1559.68 716.886C1558.93 716.886 1558.27 717.031 1557.68 717.321C1557.11 717.611 1556.65 718.009 1556.31 718.514C1555.98 719.02 1555.82 719.602 1555.83 720.261C1555.82 720.886 1555.97 721.432 1556.28 721.898C1556.59 722.364 1557.04 722.724 1557.62 722.98C1558.2 723.236 1558.88 723.364 1559.68 723.364ZM1559.68 715.08C1560.3 715.08 1560.86 714.955 1561.34 714.705C1561.83 714.455 1562.21 714.105 1562.49 713.656C1562.77 713.207 1562.91 712.682 1562.92 712.08C1562.91 711.489 1562.77 710.974 1562.5 710.537C1562.23 710.094 1561.85 709.753 1561.37 709.514C1560.88 709.27 1560.32 709.148 1559.68 709.148C1559.03 709.148 1558.45 709.27 1557.97 709.514C1557.48 709.753 1557.1 710.094 1556.83 710.537C1556.57 710.974 1556.43 711.489 1556.44 712.08C1556.43 712.682 1556.57 713.207 1556.84 713.656C1557.12 714.105 1557.5 714.455 1557.99 714.705C1558.48 714.955 1559.04 715.08 1559.68 715.08Z" fill="black"/>
</svg>
