<svg width="166" height="107" viewBox="0 0 166 107" fill="none" xmlns="http://www.w3.org/2000/svg">
<path d="M125.663 106.229C181.941 81.911 165.358 30.3641 150.702 4.25367C146.586 -6.89767 109.019 19.2734 102.713 24.4186C96.4057 29.5639 82.9281 28.7863 81.9297 28.7287C81.1311 28.6826 81.7506 41.8187 81.9297 44.5001C81.2002 43.256 80.4738 30.815 80.4322 28.6423C74.8108 21.9073 60.9966 21.1771 54.7922 21.6538C46.7057 15.9786 46.8088 6.66907 47.8711 2.72372C45.237 -0.232917 39.1196 1.05018 36.3902 2.06131C27.6816 7.16816 19.444 15.1068 16.4137 18.4378C4.82525 31.7925 1.35319 58.8855 1.06572 70.7627C22.4415 110.289 102.389 104.408 125.663 106.229Z" fill="#D7D7D7" fill-opacity="0.9" stroke="#606060"/>
</svg>
