<svg width="85" height="194" viewBox="0 0 85 194" fill="none" xmlns="http://www.w3.org/2000/svg">
<path d="M24.5822 36.6042C41.3822 41.4042 53.9156 34.6042 58.0822 30.6042C63.2489 38.9376 72.7822 61.8042 69.5822 86.6042C65.7489 91.9376 58.0822 110.604 58.0822 142.604C59.7489 152.938 64.3822 175.704 69.5822 184.104C70.5822 190.604 69.6822 199.704 58.0822 184.104C43.5822 164.604 22.5822 142.604 14.0822 86.6042C13.6822 62.6042 20.9156 43.2709 24.5822 36.6042Z" fill="#D1A711" stroke="#D1A711"/>
<path d="M49.3154 55.2769C49.4091 55.2179 49.4981 55.1603 49.5822 55.1042C49.4914 55.1518 49.4025 55.2094 49.3154 55.2769C46.6242 56.9702 40.04 59.7639 33.0822 58.6042C25.8822 57.4042 45.5822 148.604 64.0822 185.604C48.7496 150.488 41.343 61.4554 49.3154 55.2769Z" fill="#ECECEC"/>
<path d="M49.5822 55.1042C47.0822 56.7709 40.2822 59.8042 33.0822 58.6042C25.8822 57.4042 45.5822 148.604 64.0822 185.604C48.5822 150.104 41.1822 59.5042 49.5822 55.1042Z" stroke="#ECECEC"/>
<path opacity="0.9" d="M9.08221 78.1043C1.88221 54.1043 1.08221 38.7709 1.58221 34.1043C2.3322 27.1043 16.8822 36.0043 28.0822 13.6043C39.2822 -8.79572 52.0822 4.27095 57.0822 13.6043C60.4156 17.1043 64.2822 21.9043 73.0822 21.1043C81.8822 20.3043 83.7489 29.4376 83.5822 34.1043C83.9822 55.3043 79.7171 70.1043 75.0822 78.1043C45.8822 128.504 18.9155 99.1043 9.08221 78.1043Z" fill="#D7D7D7" stroke="#606060"/>
<path opacity="0.9" d="M7.58215 73.1042C18.3822 73.5042 28.2488 70.9376 28.5821 70.6042C32.9821 68.6042 26.2488 35.6042 26.5821 16.6042H26.4567C15.5241 35.1905 2.29637 27.4385 1.58218 34.1042C1.11783 38.4382 1.77472 51.9722 7.63805 73.1042L7.58215 73.1042Z" stroke="#606060" stroke-width="0.5"/>
<path opacity="0.9" d="M57.5822 14.1042L59.0822 40.1042L60.5822 66.1042C60.7488 67.7709 64.5822 70.9042 78.5822 70.1042H78.6855C81.6872 61.6072 83.8737 49.5556 83.5822 34.1043C83.7489 29.4376 81.8822 20.3043 73.0822 21.1043C64.7183 21.8646 60.8109 17.5662 57.5822 14.1333V14.1042Z" stroke="#606060" stroke-width="0.5"/>
<path opacity="0.9" d="M59.5448 48.123L60.5822 66.1042C60.7488 67.7709 64.5822 70.9042 78.5822 70.1042C77.7488 72.6043 75.8822 77.7043 75.0822 78.1043C45.8822 128.504 18.9155 99.1043 9.08218 78.1043L7.58215 73.1042C18.3822 73.5042 28.2488 70.9376 28.5821 70.6042C30.4959 69.7344 30.3035 63.0002 29.5025 54.1042H29.5822C49.5406 55.6011 53.5655 51.1229 59.5448 48.123ZM59.5448 48.123C59.5572 48.1167 59.5697 48.1105 59.5822 48.1042L59.5448 48.123Z" stroke="#606060" stroke-width="0.5"/>
<path opacity="0.9" d="M59.5448 48.123L57.5839 14.1352L57.5822 14.1042L57.0822 13.6043C52.0822 4.27094 39.2822 -8.79571 28.0822 13.6043L26.5821 16.6042C26.3938 27.3404 28.4618 42.5468 29.5025 54.1042H29.5822C49.5406 55.6011 53.5655 51.1229 59.5448 48.123ZM59.5448 48.123C59.5572 48.1167 59.5697 48.1105 59.5822 48.1042L59.5448 48.123Z" stroke="#606060" stroke-width="0.5"/>
</svg>
