<svg width="66" height="186" viewBox="0 0 66 186" fill="none" xmlns="http://www.w3.org/2000/svg">
<path d="M35 154.5C36.6 150.5 47 149.167 52 149C46.3333 100.834 31.6 3.80031 18 1.00031C4.40001 -1.79969 16.3333 109.834 24 166C27 163.834 33.4 158.5 35 154.5Z" fill="#D1A711" stroke="#D1A711"/>
<path d="M36 140.5C37.6 138.5 40 134.334 41 130.5C35 119.3 23.5 46.167 18.5 11.0003L26.5 138C29 143.5 34.4 142.5 36 140.5Z" fill="#ECECEC" stroke="#ECECEC"/>
<path opacity="0.9" d="M56.0001 168C62.0001 166.8 64.8334 154.5 65.5001 148.5C59.5001 106 50.5001 101 44.0001 95.0002C37.0136 88.5512 24.5001 88.0003 18.0001 97.0003C7.50001 109.5 -1.50001 129.5 1.5001 146.5C9 171.5 23.0001 186.334 28.0001 185C31.0001 182.834 37.4001 177.5 39.0001 173.5C40.6001 169.5 51.0001 168.167 56.0001 168Z" fill="#D7D7D7" stroke="#606060"/>
<path opacity="0.9" d="M6.53575 115.5C2.12657 125.445 -0.266042 136.492 1.5001 146.5C7.48623 166.454 17.6134 179.931 24 183.881C26.8 178.986 19.1667 139.587 15 120.5L6.53575 115.5Z" stroke="#606060" stroke-width="0.5"/>
<path opacity="0.9" d="M56.0001 168C62.0001 166.8 64.8334 154.5 65.5001 148.5C63.3514 133.28 60.818 122.87 58.1524 115.5C56.1016 116.667 51.5 119.3 49.5 120.5C47 122 47 163.795 49.5 168.648C51.9204 168.253 54.2798 168.058 56.0001 168Z" stroke="#606060" stroke-width="0.5"/>
<path opacity="0.9" d="M28.0001 185C31.0001 182.834 37.4001 177.5 39.0001 173.5C40.0496 170.876 44.8855 169.4 49.5 168.648C47 163.795 47 122 49.5 120.5C51.5 119.3 56.1016 116.667 58.1524 115.5C53.3746 102.291 48.1724 98.8515 44.0001 95.0002C37.0137 88.5512 24.5001 88.0003 18.0001 97.0003C13.6813 102.142 9.61636 108.552 6.53577 115.5L15 120.5C19.1667 139.587 26.8 178.986 24 183.881C25.6151 184.88 26.9909 185.269 28.0001 185Z" stroke="#606060" stroke-width="0.5"/>
</svg>
