<svg width="153" height="215" viewBox="0 0 153 215" fill="none" xmlns="http://www.w3.org/2000/svg">
<path d="M81.074 56.9999C86.674 53.3999 97.4073 43.6665 108.074 35.4999C117.674 35.4999 131.074 57.9999 142.574 73.9999C151.774 84.3999 151.574 122 151.574 150.5C151.574 214 130.741 216.667 125.074 210C129.074 154.8 101.074 134 86.574 130.5C74.174 132.9 75.074 144.833 74.074 153.5C68.474 165.9 94.4073 196.333 108.074 210C106.074 213.833 96.474 218 74.074 204C51.674 190 36.7406 154.167 32.074 138C23.274 129.2 19.7406 69.9999 19.074 41.4999C37.4073 48.1665 75.474 60.5999 81.074 56.9999Z" fill="#D1A711" stroke="#D1A711"/>
<path d="M57.074 88.4999C84.274 89.2999 97.4073 81.4999 100.574 77.4999C109.374 75.8999 123.241 110.5 129.074 128C142.274 176 136.241 200 129.074 204C138.274 193.6 125.241 147 117.574 125C93.574 91.7999 75.574 106.833 69.574 118.5C56.774 166.9 80.9073 198 94.574 207.5C48.574 187.5 53.574 123.5 57.074 118.5C59.874 114.5 61.074 95.4999 57.074 88.4999Z" fill="#ECECEC" stroke="#ECECEC"/>
<path opacity="0.9" d="M140.49 72.8198C155.271 55.0538 134.332 17.5374 122.015 0.999878C121.025 2.25988 118.477 4.77987 116.203 4.77987C116.045 6.35487 115.161 9.97737 112.887 11.8674C110.045 14.2299 85.411 20.8449 86.3585 24.1523C85.3079 28.3438 83.6457 36.2826 83.9878 39.7065C83.1462 36.6204 82.3983 30.8197 83.9899 24.1523C79.5685 22.1048 68.2622 19.2384 58.4088 24.1523C46.092 30.2948 2.98311 10.4499 0.614487 24.1523C-0.175064 52.1873 10.2784 106.934 58.4088 101.642C106.539 96.3502 133.184 80.2223 140.49 72.8198Z" fill="#D7D7D7" stroke="#606060"/>
<path opacity="0.9" d="M116.203 4.77987C118.477 4.77987 121.025 2.25988 122.015 0.999878C131.183 13.3091 145.127 37.2409 145.563 56C137.714 56.8333 120.853 57.3 116.203 52.5C115.05 51.3098 113.935 49.042 112.887 46.1431C109.71 37.3511 107.156 22.7543 106.074 14.8104C109.407 13.5948 112.063 12.5523 112.887 11.8674C115.161 9.97737 116.045 6.35487 116.203 4.77987Z" stroke="#606060" stroke-width="0.5"/>
<path opacity="0.9" d="M86.3586 24.1524C85.0953 29.1924 82.9477 39.6504 84.4637 41.1624C83.5162 38.7999 82.095 32.0904 83.9899 24.1524C79.5685 22.1049 68.2623 19.2384 58.4088 24.1524C52.1351 27.2811 37.8725 23.6675 25.074 21.1791C28.7835 30.1612 35.0249 46.4126 37.3463 56C77.164 63.8856 104.298 52.7144 112.887 46.1431C109.71 37.3511 107.156 22.7544 106.074 14.8104C97.911 17.7876 85.6858 21.8038 86.3586 24.1524Z" stroke="#606060" stroke-width="0.5"/>
<path opacity="0.9" d="M58.4088 101.642C106.539 96.3502 133.184 80.2223 140.49 72.8198C144.269 68.2774 145.713 62.4439 145.563 56C137.714 56.8333 120.853 57.3 116.203 52.5C115.05 51.3098 113.935 49.042 112.887 46.1431C104.297 52.7143 77.164 63.8855 37.3462 56C38.1538 59.3354 38.487 61.8643 38.074 63C36.074 68.5 26.9386 80.5 13.7765 80C22.5762 94.1457 36.6382 104.036 58.4088 101.642Z" stroke="#606060" stroke-width="0.5"/>
<path opacity="0.9" d="M0.614532 24.1524C1.77667 17.4294 12.7461 18.7822 25.074 21.1791C28.7835 30.1612 35.0249 46.4126 37.3463 56C38.1539 59.3355 38.487 61.8644 38.074 63C36.074 68.5 26.9386 80.5 13.7766 80C3.12202 62.8725 0.182121 39.5064 0.614532 24.1524Z" stroke="#606060" stroke-width="0.5"/>
</svg>
