<svg width="169" height="311" viewBox="0 0 169 311" fill="none" xmlns="http://www.w3.org/2000/svg">
<path d="M32.3095 263.263C62.3095 230.063 112.476 242.096 133.81 252.263C147.41 243.463 147.143 226.596 145.31 219.263C146.51 207.263 145.643 166.596 141.31 152.763C138.51 130.763 153.31 113.263 156.81 88.7626C154.81 78.2626 174.81 8.76263 161.81 12.7626C151.41 15.9626 131.143 58.7626 122.31 79.7626C123.51 66.1626 113.73 57.7626 113.31 48.2626C112.476 29.4293 108.11 -6.13739 97.3095 2.2626C86.5095 10.6626 75.4762 42.7626 71.3095 57.7626C72.3095 51.9293 70.5095 39.4626 55.3095 36.2626C40.1095 33.0626 23.6429 97.2626 17.3095 129.763C5.30954 146.563 22.3095 225.763 32.3095 263.263Z" fill="#D1A711" stroke="#D1A711"/>
<path d="M62.3843 197.416C82.2254 181.019 96.6925 194.131 101.81 203.763C116.618 155.272 145.009 63.7834 154.462 38.3571C155.471 36.0334 156.424 33.8261 157.31 31.7626C156.845 32.2783 155.861 34.5943 154.462 38.3571C140.481 70.5684 115.779 125.159 109.81 129.263C107.143 124.263 101.81 113.463 101.81 110.263C101.81 108.497 105.97 101.983 110.847 94.9855C114.898 89.498 119.379 83.2512 122.31 79.2626C119.246 83.297 114.81 89.3006 110.847 94.9855C106.604 100.734 102.833 105.649 101.81 106.263C100.376 82.7556 98.08 36.6656 98.7373 18.6246C98.9453 16.3616 99.1368 14.229 99.3096 12.2626C99.0296 13.4945 98.8443 15.688 98.7373 18.6246C96.3368 44.749 91.7545 88.2409 88.8096 93.7626C87.0337 90.1064 84.7012 85.2748 82.3355 80.3268C77.1524 68.4534 71.8096 56.4387 71.8096 57.2626C71.8096 58.0866 77.1524 69.4862 82.3355 80.3268C84.7012 85.7463 87.0337 91.1363 88.8096 95.2626C87.8096 99.2626 85.4096 107.863 83.8096 110.263C76.1659 94.1415 62.0791 63.7433 57.3772 51.3042C56.3555 47.3513 55.7417 45.4482 55.8096 46.2626C55.876 47.0601 56.4403 48.8257 57.3772 51.3042C63.3514 74.4192 83.2721 167.627 62.3843 197.416C60.2531 199.178 58.0599 201.28 55.8096 203.763C58.3491 202.211 60.5279 200.064 62.3843 197.416Z" fill="#ECECEC"/>
<path d="M101.81 203.763C96.1429 193.096 79.0096 178.163 55.8096 203.763C91.8096 181.763 55.3096 40.2626 55.8096 46.2626C56.2096 51.0626 74.6429 90.9293 83.8096 110.263C85.4096 107.863 87.8096 99.2626 88.8096 95.2626C83.1429 82.096 71.8096 56.0626 71.8096 57.2626C71.8096 58.4626 83.1429 82.096 88.8096 93.7626C92.0096 87.7626 97.1429 36.9293 99.3096 12.2626C97.3096 21.0626 100.143 78.9293 101.81 106.263C103.81 105.063 116.31 87.4293 122.31 79.2626C115.476 88.2626 101.81 107.063 101.81 110.263C101.81 113.463 107.143 124.263 109.81 129.263C116.21 124.863 144.143 62.4293 157.31 31.7626C153.71 35.7626 118.81 148.096 101.81 203.763Z" stroke="#ECECEC" stroke-width="0.5"/>
<path opacity="0.9" d="M130.523 173.096C74.4553 148.385 17.0654 177.18 4.37798 199.641C6.27361 209.045 5.77478 223.099 4.31938 240.717C0.617809 251.456 -3.42929 277.142 9.9949 293.973C17.1926 299.889 36.1799 311.448 54.5473 310.354C56.2982 308.914 59.3411 305.06 57.5062 301.162C64.8068 300.394 79.2533 296.261 78.6352 285.879C79.5125 280.985 81.7008 270.069 83.4358 265.558C82.8536 272.605 83.0227 287.221 88.3561 289.308C89.5525 292.576 95.1395 298.921 107.917 298.161C112.575 297.883 123.255 298.349 128.708 302.432C134.16 306.515 136.165 301.487 136.485 298.463C148.927 288.706 176.075 260.536 166.033 231.088C156.323 202.614 135.55 181.812 130.523 173.096Z" fill="#D7D7D7" stroke="#606060"/>
<path opacity="0.9" d="M130.523 173.096C74.4554 148.385 17.0655 177.18 4.37805 199.641L35.8096 215.763C38.0341 224.639 40.8533 236.238 43.6396 248.263C65.1036 225.863 100.179 233.899 115.034 240.717C113.477 223.851 112.153 206.839 111.31 194.763L130.523 173.096Z" stroke="#606060"/>
<path opacity="0.9" d="M136.485 298.463C136.165 301.487 134.16 306.516 128.708 302.432C127.221 301.319 125.346 300.475 123.31 299.841C120.646 294.652 117.539 267.874 115.033 240.717C113.477 223.851 112.153 206.839 111.31 194.763L130.523 173.096C135.55 181.812 156.323 202.614 166.033 231.088C176.075 260.536 148.928 288.706 136.485 298.463Z" stroke="#606060"/>
<path opacity="0.9" d="M57.5063 301.162C59.3412 305.06 56.2983 308.914 54.5474 310.354C56.6498 307.594 50.237 276.735 43.6396 248.263C65.1037 225.863 100.179 233.899 115.034 240.717C117.539 267.874 120.646 294.652 123.31 299.841C117.879 298.15 111.305 297.959 107.917 298.161C95.1397 298.921 89.5526 292.576 88.3562 289.308C83.0228 287.221 82.8537 272.605 83.4359 265.558C81.701 270.069 79.5126 280.985 78.6353 285.879C79.2534 296.261 64.8069 300.394 57.5063 301.162Z" stroke="#606060"/>
<path opacity="0.9" d="M4.31938 240.717C5.77479 223.099 6.27362 209.045 4.37798 199.641L35.8095 215.763C38.0341 224.639 40.8533 236.238 43.6395 248.263C50.2369 276.735 56.6497 307.594 54.5473 310.354C36.1799 311.448 17.1926 299.889 9.9949 293.973C-3.42929 277.142 0.617809 251.456 4.31938 240.717Z" stroke="#606060"/>
</svg>
