<svg width="78" height="102" viewBox="0 0 78 102" fill="none" xmlns="http://www.w3.org/2000/svg">
<path d="M55.6211 27.7864C42.5937 11.2914 23.0527 18.7001 23.0527 27.7864C21.4117 32.2129 17.3722 41.7651 14.3426 44.5608C11.3129 47.3565 10.5555 54.3459 10.5555 57.4912C7.52592 71.1204 17.6246 82.1869 23.0527 86.1476C27.7234 87.5455 38.2008 89.5025 42.7452 86.1476C47.2897 82.7927 50.698 82.1869 51.8341 82.3034C61.6804 78.1098 67.3609 69.3731 66.9822 57.4912C66.6792 47.9856 59.2819 33.7273 55.6211 27.7864Z" fill="#D1A711" stroke="#D1A711"/>
<path opacity="0.9" d="M61.5 15.0001C44.3 -8.59993 18.5 2 18.5 15.0001C16.3333 21.3334 11 35 7 39C2.99999 43 1.99999 53 1.99999 57.5C-1.99999 77 11.3333 92.8334 18.5 98.5001C24.6667 100.5 38.5 103.3 44.5 98.5001C50.5 93.7001 55 92.8334 56.5 93.0001C69.5 87.0001 77 74.5 76.5 57.5C76.1 43.9 66.3333 23.5001 61.5 15.0001Z" fill="#D7D7D7" stroke="#606060"/>
<path d="M24.0804 59.4228C24.5804 53.5894 25.9804 46.9228 29.5804 48.9228C31.4137 51.2561 37.7804 54.5227 48.5804 48.9228C50.247 47.5894 53.3804 47.8228 52.5804 59.4228" stroke="#454545" stroke-width="0.5"/>
<path d="M41.0804 34.4229C30.6804 32.4229 29.5804 37.9228 26.0804 42.4228C23.0804 47.4229 18.5804 66.9228 22.5804 70.9228C26.5804 74.9228 41.0804 75.9228 49.5804 72.4228C58.0804 68.9228 56.5804 52.9228 57.0804 50.9228C57.5804 48.9228 54.0804 36.9229 41.0804 34.4229Z" stroke="#606060" stroke-width="0.5"/>
<path d="M68.5 83.5C63.3 81.9 56.6667 72.8333 54 68.5H53.9143C52.8797 70.2346 51.4797 71.6407 49.5804 72.4228C41.8925 75.5884 29.2963 75.0728 24 71.9858V72C21.3333 78.6667 15.2 92 12 92H11.9621C14.2829 94.7963 16.6067 97.003 18.5 98.5C24.6666 100.5 38.5 103.3 44.5 98.5C50.5 93.7 55 92.8333 56.5 93C61.3801 90.7476 65.4852 87.5792 68.683 83.6007L68.5 83.5Z" stroke="#606060" stroke-width="0.5"/>
<path opacity="0.9" d="M12.6334 29.6343C10.7514 33.6566 8.74835 37.2517 7 39.0001C2.99999 43.0001 1.99999 53.0001 1.99999 57.5001C-0.943242 71.8485 5.49812 84.2116 11.9621 92H12C15.2 92 21.3333 78.6667 24 72V71.9858C23.4405 71.6597 22.9625 71.305 22.5804 70.9228C18.8316 67.174 22.5488 49.8106 25.5 43.5287V43.5C22.0736 39.7473 14.8138 31.8417 12.6334 29.6343ZM12.6334 29.6343C12.5866 29.5869 12.5421 29.5421 12.5 29.5L12.6334 29.6343Z" stroke="#606060" stroke-width="0.5"/>
<path opacity="0.9" d="M66.4063 24.5282C64.5934 20.6929 62.8533 17.38 61.5 15.0001C44.3 -8.59994 18.5 1.99999 18.5 15.0001C17.2841 18.5543 15.0708 24.4181 12.6556 29.5868L12.6335 29.6343C14.8138 31.8417 22.0736 39.7473 25.5 43.5H25.5135C25.7066 43.091 25.8963 42.7296 26.0804 42.4228C29.5804 37.9228 30.6804 32.4229 41.0804 34.4229C47.4147 35.641 51.4936 39.1146 53.9532 42.5878L54 42.5C55.3272 37.3571 59.6599 26.5996 66.4063 24.5282ZM66.4063 24.5282C66.4375 24.5186 66.4687 24.5092 66.5 24.5L66.4063 24.5282Z" stroke="#606060" stroke-width="0.5"/>
<path opacity="0.9" d="M57.0804 50.9228C57.3352 49.9035 56.5511 46.2869 54 42.6542V42.5001C55.3272 37.3572 59.6599 26.5996 66.4063 24.5282L66.379 24.4706C71.0481 34.3388 76.2114 47.6889 76.5 57.5001C76.8129 68.1382 73.9931 77.0142 68.6531 83.6379L68.5 83.5C63.3 81.9 56.6666 72.8334 54 68.5L53.9449 68.4483C57.5052 62.4146 56.6932 52.4715 57.0804 50.9228Z" stroke="#606060" stroke-width="0.5"/>
</svg>
