<svg width="77" height="102" viewBox="0 0 77 102" fill="none" xmlns="http://www.w3.org/2000/svg">
<path d="M21.8789 27.781C34.9063 11.2861 54.4473 18.6948 54.4473 27.781C56.0883 32.2076 60.1278 41.7597 63.1574 44.5554C66.1871 47.3512 66.9445 54.3406 66.9445 57.4858C69.9741 71.1151 59.8754 82.1816 54.4473 86.1422C49.7766 87.5401 39.2992 89.4971 34.7548 86.1422C30.2103 82.7873 26.802 82.1816 25.6659 82.2981C15.8196 78.1044 10.1391 69.3677 10.5178 57.4858C10.8208 47.9803 18.2181 33.722 21.8789 27.781Z" fill="#D1A711" stroke="#D1A711"/>
<path opacity="0.9" d="M16.0001 14.9947C33.2001 -8.6053 59.0001 1.99463 59.0001 14.9947C61.1667 21.328 66.5001 34.9946 70.5001 38.9946C74.5001 42.9946 75.5001 52.9947 75.5001 57.4947C79.5 76.9947 66.1667 92.828 59.0001 98.4947C52.8334 100.495 39.0001 103.295 33.0001 98.4947C27.0001 93.6947 22.5001 92.828 21.0001 92.9947C8.00007 86.9947 0.500061 74.4947 1.00006 57.4947C1.40006 43.8947 11.1667 23.4947 16.0001 14.9947Z" fill="#D7D7D7" stroke="#606060"/>
<path d="M53.4197 59.4174C52.9197 53.5841 51.5197 46.9174 47.9197 48.9174C46.0863 51.2507 39.7197 54.5174 28.9197 48.9174C27.253 47.5841 24.1197 47.8174 24.9197 59.4174" stroke="#454545" stroke-width="0.5"/>
<path d="M36.4196 34.4175C46.8196 32.4175 47.9196 37.9175 51.4196 42.4174C54.4196 47.4175 58.9196 66.9174 54.9196 70.9174C50.9196 74.9174 36.4196 75.9174 27.9196 72.4174C19.4196 68.9174 20.9196 52.9174 20.4196 50.9174C19.9196 48.9174 23.4196 36.9175 36.4196 34.4175Z" stroke="#606060" stroke-width="0.5"/>
<path d="M9.0001 83.4946C14.2001 81.8946 20.8334 72.828 23.5001 68.4946H23.5858C24.6204 70.2292 26.0204 71.6354 27.9197 72.4174C35.6076 75.583 48.2038 75.0674 53.5001 71.9804V71.9946C56.1668 78.6613 62.3001 91.9946 65.5001 91.9946H65.538C63.2172 94.791 60.8934 96.9976 59.0001 98.4946C52.8334 100.495 39.0001 103.295 33.0001 98.4946C27.0001 93.6946 22.5001 92.828 21.0001 92.9946C16.1199 90.7422 12.0149 87.5739 8.8171 83.5953L9.0001 83.4946Z" stroke="#606060" stroke-width="0.5"/>
<path opacity="0.9" d="M64.8666 29.6289C66.7486 33.6512 68.7517 37.2463 70.5001 38.9947C74.5001 42.9947 75.5001 52.9947 75.5001 57.4947C78.4433 71.8431 72.0019 84.2062 65.538 91.9947H65.5001C62.3001 91.9947 56.1667 78.6613 53.5001 71.9947V71.9804C54.0595 71.6544 54.5375 71.2996 54.9197 70.9174C58.6685 67.1686 54.9513 49.8052 52.0001 43.5234V43.4946C55.4264 39.7419 62.6863 31.8363 64.8666 29.6289ZM64.8666 29.6289C64.9135 29.5815 64.958 29.5367 65.0001 29.4946L64.8666 29.6289Z" stroke="#606060" stroke-width="0.5"/>
<path opacity="0.9" d="M11.0937 24.5228C12.9067 20.6875 14.6467 17.3746 16 14.9947C33.2 -8.60531 59 1.99462 59 14.9947C60.2159 18.5489 62.4292 24.4127 64.8444 29.5815L64.8666 29.6289C62.6862 31.8363 55.4264 39.7419 52 43.4946H51.9865C51.7934 43.0856 51.6037 42.7242 51.4196 42.4174C47.9196 37.9175 46.8196 32.4175 36.4196 34.4175C30.0853 35.6356 26.0064 39.1092 23.5468 42.5825L23.5 42.4946C22.1728 37.3517 17.8401 26.5942 11.0937 24.5228ZM11.0937 24.5228C11.0625 24.5132 11.0313 24.5038 11 24.4946L11.0937 24.5228Z" stroke="#606060" stroke-width="0.5"/>
<path opacity="0.9" d="M20.4197 50.9174C20.1649 49.8982 20.949 46.2816 23.5001 42.6489V42.4947C22.1729 37.3518 17.8402 26.5943 11.0938 24.5229L11.1211 24.4652C6.45197 34.3334 1.28867 47.6836 1.00011 57.4948C0.687225 68.1329 3.50706 77.0088 8.84699 83.6325L9.00015 83.4947C14.2001 81.8947 20.8335 72.828 23.5001 68.4947L23.5552 68.4429C19.9949 62.4092 20.8069 52.4661 20.4197 50.9174Z" stroke="#606060" stroke-width="0.5"/>
</svg>
