<svg width="72" height="152" viewBox="0 0 72 152" fill="none" xmlns="http://www.w3.org/2000/svg">
<path d="M63.4999 20.5H18.4999H13.4999C8.99995 20.5 9.49993 33 9.49993 33C9.09993 55 20.3333 85.8333 24.9999 98.5C31.1666 122 47.2999 164.6 54.4999 147C63.4999 125 66.9999 68 68.9999 47C70.5999 30.2 65.9999 22.3333 63.4999 20.5Z" fill="#D1A711" stroke="#D1A711"/>
<path d="M40.9999 37.4999H27.9999H21.4999C21.4999 37.4999 18.9999 36.4998 23.4999 43.9999C27.9999 51.5 39.6665 114.333 50.4999 144C50.9999 92.9999 51.933 86.2942 48.9999 65.4999C46.9999 51.3209 49.4999 37.4999 40.9999 37.4999Z" fill="#ECECEC" stroke="#ECECEC"/>
<path opacity="0.9" d="M66.0304 1H5.03036C0.230364 1 0.69703 5 1.53036 7C8.3637 44 26.8304 114.2 46.0304 99C70.0304 80 72.5304 12.5 71.0304 7C69.8304 2.6 67.197 1.16667 66.0304 1Z" fill="#D7D7D7" stroke="#606060"/>
<path d="M53 54L58 1H66C69.2 1.8 70.6667 5.33333 71 7C72.6 17 69.5 44.5 66.5 56.5L53 54Z" stroke="#606060" stroke-width="0.5"/>
<path d="M28 54L19.5 1H3.99998C0.399979 1.8 0.833312 5.33333 1.49998 7C1.89998 11.8 8.99998 42 13.5 56.5L28 54Z" stroke="#606060" stroke-width="0.5"/>
<path d="M58 1H19.5L28 54L13.5 56.5C25.9 96.5 37 102 41 101C54.2 99 63.5 70.5 66.5 56.5L53 54L58 1Z" stroke="#606060" stroke-width="0.5"/>
</svg>
