<svg width="185" height="241" viewBox="0 0 185 241" fill="none" xmlns="http://www.w3.org/2000/svg">
<path d="M92.6689 86.2663L54.8242 68.3565C16.9795 99.463 5.76622 169.217 2.02846 181.471C-0.961738 191.274 3.27438 213.834 5.76622 223.889C17.4467 253.11 32.8649 235.986 42.6765 223.889C78.1852 111.906 82.0787 178.486 79.5868 225.774C75.4753 241.987 92.8247 236.3 102.013 231.43C111.513 223.574 130.607 202.585 130.981 181.471C131.355 160.356 146.399 137.482 153.875 128.684C162.845 91.7335 155.121 71.4986 150.137 66L92.6689 86.2663Z" fill="#D1A711" stroke="#D1A711"/>
<path d="M116 95.5C90 111.5 78.6667 99.6667 76 93C62.4 101.4 33.3333 196.667 23.5 231C83 93 89 132.5 92 233C96.1667 211.667 103.3 162.5 98.5 148.5C93.7 134.5 108.333 106 116 95.5Z" fill="#ECECEC" stroke="#ECECEC"/>
<path d="M132.663 136.229C188.941 111.911 172.358 60.364 157.702 34.2535C153.586 23.1022 116.019 49.2733 109.713 54.4185C103.406 59.5638 89.9281 58.7862 88.9297 58.7286C88.1311 58.6825 88.7506 71.8186 88.9297 74.5C88.2002 73.2559 87.4738 60.8148 87.4322 58.6422C81.8108 51.9072 67.9966 51.1769 61.7922 51.6537C53.7057 45.9785 53.8088 36.6689 54.8711 32.7236C52.237 29.767 46.1196 31.05 43.3902 32.0612C34.6816 37.168 26.444 45.1067 23.4137 48.4377C11.8253 61.7924 8.35319 88.8854 8.06572 100.763C29.4415 140.289 109.389 134.408 132.663 136.229Z" fill="#D7D7D7" fill-opacity="0.9" stroke="#606060"/>
<path d="M39.5 82.5C44 77.5 56.8333 61 61.5 51.5L61.5211 51.4598C53.7081 45.7687 53.8208 36.6243 54.8711 32.7236C52.237 29.767 46.1196 31.0501 43.3902 32.0612C34.6816 37.168 26.444 45.1067 23.4137 48.4377C14.9292 58.2153 10.7955 75.3572 9.07693 88.5H9C30.6 92.1 38.15 84 39.5 82.5Z" stroke="#606060" stroke-width="0.5"/>
<path d="M133.022 39.0531C144.227 32.8058 155.547 28.4161 157.702 34.2535C166.906 50.6515 176.871 77.0821 169.07 100.5H169C161 99.8333 145.1 95.7 145.5 84.5C145.899 73.3188 137.362 49.58 133.022 39.0531ZM133.022 39.0531C133.015 39.0353 133.007 39.0176 133 39L133.022 39.0531Z" stroke="#606060" stroke-width="0.5"/>
<path d="M133.022 39.0531C133.039 39.0437 132.949 39.0282 133.022 39.0531ZM133.022 39.0531C122.805 44.7445 112.723 51.9627 109.713 54.4186C103.406 59.5638 89.9281 58.7862 88.9297 58.7286C88.1311 58.6826 88.7506 71.8186 88.9297 74.5001C88.2002 73.256 87.4738 60.8149 87.4322 58.6422C81.8108 51.9073 67.9966 51.177 61.7922 51.6537L61.5 51.5001C57.9746 58.6767 49.7888 69.8481 44.0556 77.0386M133.022 39.0531C137.171 49.1167 145.156 71.2547 145.502 82.9528L145.5 83.0001C97.1655 100.976 57.7734 86.5392 44.0556 77.0386M44.0556 77.0386C44.037 77.0258 44.0185 77.0129 44 77.0001L44.0556 77.0386Z" stroke="#606060" stroke-width="0.5"/>
<path d="M9.07529 88.5125C30.6175 92.0812 38.1516 83.9983 39.5 82.5C40.5938 81.2846 42.1801 79.3898 44.0217 77.0811L44.0556 77.0386C57.7734 86.5392 97.1655 100.976 145.5 83V84.5C145.1 95.7 161 99.8333 169 100.5L169.053 100.55C164.423 114.401 153.572 127.194 132.663 136.229C109.389 134.408 29.4415 140.289 8.06572 100.763C8.14266 97.584 8.44767 93.3157 9.07529 88.5125ZM9.07529 88.5125C9.05021 88.5084 9.02512 88.5042 9 88.5L9.07529 88.5125Z" stroke="#606060" stroke-width="0.5"/>
</svg>
