<svg width="82" height="98" viewBox="0 0 82 98" fill="none" xmlns="http://www.w3.org/2000/svg">
<path d="M26.6391 26.1271C38.8424 10.587 48.3269 19.6521 53.4115 26.1271C54.7605 30.6597 59.2641 40.3075 66.4865 50.4086C67.7317 53.9698 69.475 62.5816 66.4865 68.5387C64.5148 71.992 58.0812 80.5175 44.3836 81.8125C37.2236 80.6254 25.3939 78.575 20.413 72.7475C16.366 68.0126 15.6188 60.7686 13.8755 50.4086C13.8755 42.6385 24.6468 34.6742 26.6391 26.1271Z" fill="#D1A711" stroke="#D1A711"/>
<path opacity="0.9" d="M19.8534 13.6518C37.8791 -9.71766 51.8889 3.9145 59.3996 13.6518C61.3923 20.4678 68.0446 34.9763 78.7129 50.1665C80.5522 55.522 83.1273 68.4725 78.7129 77.4308C75.8006 82.624 66.2972 95.4447 46.0643 97.3922C35.488 95.607 18.0141 92.5235 10.6566 83.76C4.67872 76.6396 3.5751 65.7461 1 50.1665C1 38.4818 16.9104 26.5049 19.8534 13.6518Z" fill="#D7D7D7" stroke="#606060"/>
<path opacity="0.9" d="M31.5 34.5C37.9 32.1 46.8333 35.5 50.5 37.5C51.092 38.195 51.773 39.033 52.5 39.9755C57.1315 39.317 66.4551 36.5 66.6973 30.5C62.952 23.3574 60.4848 17.3638 59.3996 13.6518C51.8889 3.9145 37.8791 -9.71766 19.8534 13.6518C18.7716 18.3766 15.9374 22.983 12.7855 27.5C14.6139 37.1 21.0237 39.2595 24 39.1392C25.8955 37.3048 28.4421 35.6467 31.5 34.5Z" stroke="#606060" stroke-width="0.5"/>
<g opacity="0.9">
<path d="M31.5 34.5C37.9 32.1 46.8333 35.5 50.5 37.5C51.092 38.195 51.773 39.033 52.5 39.9755C56.4804 45.1358 61.8382 53.4266 61.5 58.5C61.1 64.5 54 69.3333 50.5 71C45.1667 72.3333 33 73.5 27 67.5C21 61.5 20.1667 52 20.5 48C19.5733 45.529 20.9365 42.1038 24 39.1392C25.8955 37.3048 28.4421 35.6467 31.5 34.5Z" stroke="#606060" stroke-width="0.5"/>
</g>
<path opacity="0.9" d="M20.5 48.0001C19.5733 45.529 20.9365 42.1039 24 39.1392C21.0237 39.2595 14.6139 37.1001 12.7855 27.5001L12.8278 27.4395C7.39618 35.2319 1 42.7579 1 50.1665C3.5751 65.7461 4.67872 76.6397 10.6566 83.76C10.3819 76.768 20.5439 69.0067 25.6592 66.0001C20.8743 60.0177 20.1933 51.6806 20.5 48.0001Z" stroke="#606060" stroke-width="0.5"/>
<path opacity="0.9" d="M27 67.4999C33 73.4999 45.1667 72.3333 50.5 70.9999C52.4714 70.0612 55.5849 68.1178 58 65.5271C63 66.6516 73 72.1105 73 84.9503C67.7731 90.3077 59.1694 96.1307 46.0643 97.3921C35.5851 95.6233 18.3344 92.58 10.8619 83.9999M10.6566 83.7599C10.3819 76.7679 20.5439 69.0066 25.6593 65.9999M10.6566 83.7599C10.7242 83.8404 10.7926 83.9204 10.8619 83.9999M10.6566 83.7599L10.8619 83.9999" stroke="#606060" stroke-width="0.5"/>
<path opacity="0.9" d="M78.7129 77.4308C83.1273 68.4725 80.5522 55.522 78.7129 50.1665C73.912 43.3307 69.9244 36.633 66.8088 30.7123L66.6973 30.5C66.4551 36.5 57.1315 39.317 52.5 39.9755C56.4804 45.1358 61.8382 53.4266 61.5 58.5C61.3267 61.0995 59.8957 63.4801 58.0448 65.479L58 65.5271C63 66.6516 73 72.1105 73 84.9503L73.3071 84.6321C75.9763 81.8352 77.7243 79.1936 78.7129 77.4308Z" stroke="#606060" stroke-width="0.5"/>
<path d="M28 58.4999C26.3333 55.8333 24.5 52.3999 26.5 49.9999C30.1667 51.6666 39 53.9999 45 49.9999C51 45.9999 53.5 53.9999 54 58.4999" stroke="#454545" stroke-width="0.5"/>
</svg>
