<svg width="173" height="211" viewBox="0 0 173 211" fill="none" xmlns="http://www.w3.org/2000/svg">
<path d="M79.9133 56.3707L117.758 38.4609C155.603 69.5673 166.816 139.321 170.554 151.575C173.544 161.378 169.308 183.938 166.816 193.993C155.136 223.214 139.717 206.09 129.906 193.993C94.3971 82.0099 90.5036 148.59 92.9955 195.878C97.107 212.091 79.7576 206.404 70.569 201.534C61.0688 193.679 41.9752 172.69 41.6014 151.575C41.2276 130.461 26.1832 107.586 18.7077 98.7885C9.73705 61.8379 17.4617 41.603 22.4454 36.1044L79.9133 56.3707Z" fill="#D1A711" stroke="#D1A711"/>
<path d="M56.5823 65.6044C82.5823 81.6044 93.9156 69.771 96.5823 63.1044C110.182 71.5044 139.249 166.771 149.082 201.104C89.5823 63.1044 83.5823 102.604 80.5823 203.104C76.4156 181.771 69.2823 132.604 74.0823 118.604C78.8823 104.604 64.2489 76.1044 56.5823 65.6044Z" fill="#ECECEC" stroke="#ECECEC"/>
<path d="M39.9188 106.334C-16.3582 82.0152 0.224154 30.4684 14.8802 4.35792C18.9963 -6.79343 56.563 19.3776 62.8698 24.5229C69.1767 29.6682 82.6542 28.8905 83.6526 28.8329C84.4513 28.7869 83.8318 41.9229 83.6526 44.6044C84.3821 43.3603 85.1085 30.9192 85.1501 28.7465C90.7715 22.0116 104.586 21.2813 110.79 21.7581C118.877 16.0828 118.774 6.77332 117.711 2.82796C120.345 -0.128669 126.463 1.15443 129.192 2.16555C137.901 7.27241 146.138 15.2111 149.169 18.5421C160.757 31.8967 164.229 58.9898 164.517 70.8669C143.141 110.393 63.1929 104.512 39.9188 106.334Z" fill="#D7D7D7" fill-opacity="0.9" stroke="#606060"/>
<path d="M133.082 52.6044C128.582 47.6044 115.749 31.1044 111.082 21.6044L111.061 21.5642C118.874 15.873 118.762 6.72872 117.711 2.82796C120.345 -0.128669 126.463 1.15443 129.192 2.16555C137.901 7.27241 146.138 15.2111 149.169 18.5421C157.653 28.3197 161.787 45.4616 163.505 58.6044H163.582C141.982 62.2044 134.432 54.1044 133.082 52.6044Z" stroke="#606060" stroke-width="0.5"/>
<path d="M39.5604 9.15744C28.3556 2.91018 17.0348 -1.47953 14.8802 4.35786C5.67579 20.7559 -4.28838 47.1865 3.51241 70.6044H3.58228C11.5823 69.9377 27.4823 65.8044 27.0823 54.6044C26.683 43.4232 35.2202 19.6844 39.5604 9.15744ZM39.5604 9.15744C39.5677 9.13971 39.575 9.12201 39.5823 9.10436L39.5604 9.15744Z" stroke="#606060" stroke-width="0.5"/>
<path d="M128.527 47.143C122.794 39.9524 114.608 28.7811 111.082 21.6045L110.79 21.7581C104.586 21.2814 90.7714 22.0116 85.15 28.7466C85.1085 30.9193 84.3821 43.3603 83.6525 44.6044C83.8317 41.923 84.4512 28.7869 83.6525 28.833C82.6542 28.8906 69.1766 29.6682 62.8698 24.523C59.8594 22.067 49.7995 14.7957 39.5823 9.10437C35.4331 19.1679 27.4264 41.359 27.0804 53.0572L27.0823 53.1044C75.4168 71.0801 114.809 56.6436 128.527 47.143ZM128.527 47.143C128.545 47.1301 128.564 47.1173 128.582 47.1044L128.527 47.143Z" stroke="#606060" stroke-width="0.5"/>
<path d="M163.507 58.6169C141.965 62.1856 134.431 54.1027 133.082 52.6044C131.988 51.389 130.402 49.4941 128.561 47.1855L128.527 47.1429C114.809 56.6435 75.4168 71.08 27.0823 53.1044V54.6044C27.4823 65.8044 11.5823 69.9377 3.58232 70.6044L3.52921 70.6546C8.159 84.5055 19.0105 97.2988 39.9188 106.334C63.1929 104.512 143.141 110.393 164.517 70.8669C164.44 67.6884 164.135 63.42 163.507 58.6169ZM163.507 58.6169C163.532 58.6128 163.557 58.6086 163.582 58.6044L163.507 58.6169Z" stroke="#606060" stroke-width="0.5"/>
</svg>
