<svg width="152" height="135" viewBox="0 0 152 135" fill="none" xmlns="http://www.w3.org/2000/svg">
<path d="M32.2396 33.6178C39.115 22.6641 47.4378 18.5563 64.8072 29.1678C76.0972 33.9023 92.6706 28.6303 99.546 25.4025C110.257 24.0333 116.553 31.6781 118.363 35.6717C130.521 54.8408 133.561 61.0024 127.409 84.2792C127.409 109.61 112.09 107.1 104.25 105.16C95.8549 100.231 85.0714 106.073 80.7291 109.61C71.7549 117.551 58.4143 112.919 53.2276 109.61C50.6945 106.529 51.4183 105.16 41.2861 105.16C31.154 105.16 23.3137 99.2266 22.4693 96.2599C18.8507 63.0563 26.088 39.4371 32.2396 33.6178Z" fill="#D1A711" stroke="#D1A711"/>
<path opacity="0.9" d="M15.5 16.4946C25 0.494754 36.5 -5.5054 60.5 9.99462C76.0999 16.9102 99 9.20952 108.5 4.49475C123.3 2.49475 132 13.6614 134.5 19.4948C151.3 47.4948 155.5 56.4948 147 90.4948C147 127.495 125.833 123.828 115 120.995C103.4 113.795 88.5 122.328 82.5 127.495C70.1 139.095 51.6666 132.328 44.5 127.495C41 122.995 42 120.995 28 120.995C14 120.995 3.1667 112.328 2.00003 107.995C-2.99997 59.4949 7.00003 24.9948 15.5 16.4946Z" fill="#D7D7D7" stroke="#606060"/>
<path d="M98 45.4948C92.8 39.4948 76.5 38.6614 69 38.9948C57.8 38.4587 50.6667 43.1047 48.5 45.4948C33.7 57.0947 33.3334 67.6614 35 71.4948C35 74.9948 56.5 94.4948 81.5 93.9948C101.5 93.5948 107.167 78.8281 107.5 71.4948C109.5 66.4948 104.5 52.9948 98 45.4948Z" stroke="#606060" stroke-width="0.5"/>
<path d="M98 45.4948C92.8 39.4948 76.5 38.6614 69 38.9948C57.8 38.4587 50.6667 43.1047 48.5 45.4948C47.0279 46.6485 45.6986 47.7921 44.4999 48.9198C33.6999 41.6599 22.5707 21.3455 18.3561 12.0957C27.3703 -0.473644 38.8484 -3.98867 60.4999 9.99462C74.0233 15.9896 93.0327 11.0007 104.043 6.49475C105.733 5.80285 107.235 5.12235 108.5 4.49475C118.048 3.20455 125.056 7.39373 129.5 12.0957C127.534 21.2287 119.143 41.5947 101.301 49.9948C100.269 48.3589 99.1585 46.8315 98 45.4948Z" stroke="#606060" stroke-width="0.5"/>
<path d="M134.5 19.4948C151.3 47.4948 155.5 56.4948 147 90.4948C147 105.661 143.443 113.995 138.5 118.354C127.3 117.841 110.126 95.2341 102.939 83.9948C106.107 79.6525 107.349 74.8128 107.5 71.4948C109.133 67.4121 106.099 57.6619 101.392 50.1387L101.302 49.9947C119.143 41.5947 127.534 21.2287 129.5 12.0957L129.658 12.2644C132.017 14.8012 133.632 17.4694 134.5 19.4948Z" stroke="#606060" stroke-width="0.5"/>
<path opacity="0.9" d="M138.5 118.354C127.3 117.841 110.126 95.234 102.938 83.9947L102.563 84.4947C98.6761 89.5336 92.1019 93.7827 81.5 93.9947C64.4895 94.3349 49.0994 85.4157 41 78.5776C38.3333 88.1288 28.9 109.258 12.5 117.363C16.7842 119.462 22.112 120.995 28 120.995C42 120.995 40.9999 122.995 44.4999 127.495C51.6666 132.328 70.0999 139.095 82.4999 127.495C88.4999 122.328 103.4 113.795 115 120.995C121.288 122.639 131.058 124.565 138.149 118.655L138.5 118.354Z" stroke="#606060" stroke-width="0.5"/>
<path opacity="0.9" d="M12.5001 117.363C28.9001 109.258 38.3334 88.1288 41.0001 78.5776L40.5001 78.1503C37.0041 75.1234 35.0001 72.5634 35.0001 71.4948C33.5274 68.1077 33.6422 59.4636 43.8987 49.4948L44.5 48.9198C33.7 41.6599 22.5708 21.3454 18.3562 12.0957L18.1414 12.3975C17.2393 13.6753 16.3615 15.0439 15.5001 16.4946C7.00005 24.9948 -2.99995 59.4949 2.00005 107.995C2.63712 110.361 6.15657 114.019 11.5001 116.853L12.5001 117.363Z" stroke="#606060" stroke-width="0.5"/>
<path d="M107 93.4948L104 77.9948C99.8333 75.8281 91.2 70.7948 90 67.9948M90 67.9948C95.2 64.7948 101.5 59.3281 104 56.9948M90 67.9948C85 65.4948 74 60.7948 70 61.9948M70 61.9948C70 53.1948 66.6667 35.9948 65 28.4948M70 61.9948C72 69.5948 69.1667 82.4948 67.5 87.9948L70 95.4948L71 101.495M70 61.9948C65.3333 66.3281 54.2 74.2948 47 71.4948C46 68.3281 42.8 61.9948 38 61.9948C33.2 61.9948 27 58.6614 24.5 56.9948" stroke="#454545" stroke-width="0.5"/>
</svg>
