<svg width="78" height="181" viewBox="0 0 78 181" fill="none" xmlns="http://www.w3.org/2000/svg">
<path d="M19.4819 30.1057C38.9431 42.8628 52.1969 35.4212 58.0688 30.1057C68.5544 44.0077 63.018 84.4871 59.3271 91.0292L50.5192 97.9802C47.8628 103.296 46.5501 140.822 46.5501 164.046C46.5501 165.818 47.1373 170.425 49.4861 174.677C50.0453 176.721 50.2411 180.647 46.5501 179.992C44.1734 180.401 37.8261 179.911 31.4509 174.677C21.0492 167.154 16.6857 113.381 17.8042 95.9358L10.674 91.0292C10.3385 88.4123 8.15747 46.0521 19.4819 30.1057Z" fill="#D1A711" stroke="#D1A711"/>
<path d="M26.1925 48.5055C36.5942 53.7392 47.0239 50.6862 50.9385 48.5055C31.4772 91.6835 39.5169 156.14 42.0335 173.721C32.6384 144.936 24.9342 72.0844 26.1925 48.5055Z" fill="#ECECEC" stroke="#ECECEC"/>
<path opacity="0.9" d="M29.5479 9.25273C39.9496 -5.79414 49.82 2.98321 51.7773 9.25273C59.7464 21.9281 79.2076 16.3673 76.5233 39.9189C73.839 63.4705 70.6514 77.8087 66.4572 82.8516C38.3558 123.331 4.38254 88.167 2.28542 80.3983C-1.48939 68.5407 2.56504 49.1869 4.80196 35.8301C8.15735 27.3253 10.1147 20.974 18.6429 19.8837C25.7731 16.6126 27.852 11.706 29.5479 9.25273Z" fill="#D7D7D7" stroke="#606060"/>
<path opacity="0.9" d="M0.78154 70.6042C0.911873 74.1832 1.36682 77.5127 2.28543 80.3983C4.38255 88.167 38.3559 123.331 66.4572 82.8516C67.5229 81.5702 68.5236 79.6887 69.4677 77.2083L69.5071 77.1043L69.0822 77.1042C54.6822 74.3042 51.0822 69.2709 51.0822 67.1042L52.2702 48.6042C48.5042 51.9376 37.7831 56.6042 25.0271 48.6042L23.5822 66.1042C23.7482 67.1007 19.413 69.388 0.781082 70.5915M0.78154 70.6042C0.781385 70.6 0.781237 70.5957 0.781082 70.5915M0.78154 70.6042H0.582153C0.64864 70.6 0.714956 70.5957 0.781082 70.5915" stroke="#606060" stroke-width="0.5"/>
<path opacity="0.9" d="M54.5822 12.6534C53.5491 11.68 52.6017 10.564 51.7773 9.25273C49.82 2.98321 39.9496 -5.79414 29.5479 9.25273C29.105 9.8935 28.6359 10.7016 28.0575 11.6042H28.0821L25.0271 48.6042C37.7831 56.6042 48.5042 51.9376 52.2702 48.6042L54.5822 12.6534ZM54.5822 12.6534L54.5821 12.6042" stroke="#606060" stroke-width="0.5"/>
<path opacity="0.9" d="M51.0822 67.1042L54.5822 12.6042V12.6533C63.5358 21.0891 78.9299 18.8036 76.5233 39.9189C74.5306 57.4027 72.2605 69.809 69.5071 77.1043L69.0822 77.1042C54.6822 74.3042 51.0822 69.2709 51.0822 67.1042Z" stroke="#606060" stroke-width="0.5"/>
<path opacity="0.9" d="M28.0822 11.6042L23.5822 66.1042C23.7488 67.1042 19.3822 69.4042 0.582153 70.6042H0.781534C0.376286 59.4763 3.1094 45.9365 4.80197 35.83C8.15735 27.3253 10.1147 20.974 18.6429 19.8836C23.9108 17.4669 26.4214 14.1575 28.0575 11.6042H28.0822Z" stroke="#606060" stroke-width="0.5"/>
</svg>
