<svg width="73" height="68" viewBox="0 0 73 68" fill="none" xmlns="http://www.w3.org/2000/svg">
<path d="M25.2535 21.565C20.1597 33.3823 20.7965 39.4284 17.9312 41.4896C9.01711 54.9558 14.217 59.4675 17.9312 60.04H47.8572C63.9026 60.04 57.7263 44.8103 51.0408 37.0237C47.2204 32.0769 42.2328 24.8858 41.8083 21.565C39.2614 16.6411 30.3473 9.74767 25.2535 21.565Z" fill="#D1A711" stroke="#D1A711"/>
<path opacity="0.9" d="M20.2394 10.5371C12.2394 27.737 13.2394 36.537 8.7394 39.537C-5.2606 59.137 2.90607 65.7037 8.7394 66.537H55.7394C80.9394 66.537 71.2394 44.3704 60.7394 33.037C54.7394 25.837 46.906 15.3704 46.2394 10.537C42.2394 3.37037 28.2394 -6.66294 20.2394 10.5371Z" fill="#D7D7D7" stroke="#606060"/>
<path d="M22.5093 66.54C31.7093 49.34 20.6759 33.2067 14.0093 27.54C12.8093 34.34 9.84259 38.8734 8.50926 40.04C-5.09074 58.84 2.8426 65.54 8.50926 66.54H22.5093Z" stroke="#606060" stroke-width="0.5"/>
<path d="M53.0093 66.54C39.4093 52.94 49.676 34.8734 56.5093 27.54C60.8426 32.7067 69.6093 43.94 70.0093 47.54C76.5093 62.04 64.6759 66.3734 59.0093 66.54H53.0093Z" stroke="#606060" stroke-width="0.5"/>
<path d="M24.3484 43.04H47.5093C48.3426 40.2067 51.3093 33.14 56.5093 27.54C50.5093 21.54 47.0093 13.7067 46.0093 10.54C42.4093 3.34004 35.1759 1.20667 32.0093 1.03999C23.0093 0.0400375 16.0093 18.0401 14.0093 27.54C20.0093 32.74 23.402 40.04 24.3484 43.04Z" stroke="#606060" stroke-width="0.3"/>
<path d="M47.5093 43.04H24.3281C25.5093 46.54 28.1093 56.14 22.5093 66.54H53.0093C44.5093 58.54 46.0093 47.54 47.5093 43.04Z" stroke="#606060" stroke-width="0.3"/>
</svg>
