<svg width="183" height="208" viewBox="0 0 183 208" fill="none" xmlns="http://www.w3.org/2000/svg">
<path d="M63.0959 50.5917L38.4973 42.8619C30.6944 49.0816 16.1011 65.2699 20.1512 80.2663C24.2014 95.2627 15.9415 113.03 11.3053 120.039C5.36967 139.681 -3.88885 181.854 6.56207 193.405C17.013 204.956 32.6492 195.53 39.161 189.373C79.7292 81.4869 105.657 153.766 113.747 200.335C115.143 203.641 120.941 208.518 132.973 201.578C145.006 194.637 148.484 180.654 148.719 174.53C150.553 131.234 157.168 118.506 164.602 93.1134C170.548 72.7994 165.041 56.4517 161.544 50.8171L133.13 57.3121L98.5788 46.7463L63.0959 50.5917Z" fill="#D1A711" stroke="#D1A711"/>
<path d="M132.134 70.372C100.345 93.503 79.2185 76.237 72.6291 64.7126C62.4531 74.7372 63.286 77.0907 61.3666 82.1201C48.944 96.5744 54.9843 88.6202 51.9788 94.9678C50.2596 98.5989 31.4799 162.353 21 193.417C75.7106 32.3126 125.41 134.329 123.348 203.151C124.396 168.189 128.863 122.938 123.533 110.302C118.202 97.6652 127.045 78.4167 132.134 70.372Z" fill="#ECECEC" stroke="#ECECEC"/>
<path opacity="0.9" d="M150.002 14.3235C169.47 27.6104 198.281 64.2485 157.78 104.505C135.688 126.463 90.8169 126.606 19.9347 91.0537C11.9242 83.9086 -0.244388 62.0567 15.1661 31.8105C16.4811 26.915 22.7426 16.9762 29.3066 15.6072C31.5844 18.0065 39.2471 23.9119 39.7325 27.1745C41.3265 27.9999 47.9375 25.4633 50.4742 25.2085C51.9238 25.0629 52.2081 26.772 52.1221 28.9137L52.5133 24.9051C54.7952 22.1135 65.2264 15.0934 68.0131 15.3654C69.1541 13.9696 71.3874 11.6757 72.3827 11.7728L73.8756 11.9185L104.267 29.9555C104.324 32.8078 103.93 38.5634 101.9 38.7673C99.8711 38.9711 101.071 45.5521 101.925 48.8171L100.104 57.1798L102.92 48.9142L102.653 41.3526C103.628 39.9406 105.527 36.6093 105.323 34.5799C105.119 32.5505 105.198 30.7161 105.263 30.0526C117.76 22.8993 144.205 9.73876 150.002 14.3235Z" fill="#D7D7D7" stroke="#606060"/>
<path opacity="0.9" d="M155 78C159 80.8 170 80.1667 175 79.5L174.944 79.5745C171.839 87.5967 166.367 95.9696 157.78 104.505C135.688 126.463 90.8169 126.606 19.9347 91.0537C15.7224 87.2964 10.3604 79.4726 8.46323 68.5C26.4632 74.9 37.6667 73.1667 41 71.5C42.9503 69.9677 44.6741 66.2077 46.142 61.5C64.2613 70.3333 110.6 84.6 151 71L151.067 70.9689C152.295 74.4378 153.611 76.9376 155 78Z" stroke="#606060" stroke-width="0.5"/>
<path opacity="0.9" d="M51.6392 33.8625C50.8789 40.923 48.8891 52.6899 46.142 61.5C64.2613 70.3333 110.6 84.6 151 71L151.071 70.979C146.287 57.4782 142.829 29.2748 141.501 14.0165M51.6392 33.8625C51.7849 32.3696 52.0577 30.52 52.1221 28.9137M51.6392 33.8625L52.1221 28.9137M52.1221 28.9137L52.5133 24.9051C54.7952 22.1135 65.2264 15.0934 68.0131 15.3654C69.1541 13.9696 71.3874 11.6756 72.3827 11.7728L73.8756 11.9184L104.267 29.9555C104.324 32.8078 103.93 38.5634 101.9 38.7672C99.8711 38.9711 101.071 45.5521 101.925 48.8171L100.104 57.1798L102.92 48.9142L102.653 41.3525C103.628 39.9406 105.527 36.6093 105.323 34.5799C105.119 32.5505 105.198 30.7161 105.263 30.0526C114.395 24.8257 130.973 16.3916 141.501 14.0165M141.501 14.0165C141.501 14.011 141.5 14.0055 141.5 14L141.501 14.0165Z" stroke="#606060" stroke-width="0.5"/>
<path opacity="0.9" d="M51.6392 33.8625C50.8789 40.923 48.8891 52.6899 46.142 61.5C44.6741 66.2077 42.9503 69.9676 41 71.5C37.6667 73.1666 26.4632 74.9 8.46323 68.5C6.75258 58.606 7.85914 46.1518 15.1661 31.8104C16.4811 26.915 22.7427 16.9761 29.3067 15.6072C31.5844 18.0064 39.2471 23.9119 39.7325 27.1745C41.3265 27.9998 47.9375 25.4633 50.4742 25.2084M51.6392 33.8625C51.9792 30.379 53.011 24.9536 50.4742 25.2084M51.6392 33.8625C51.7849 32.3696 52.0577 30.52 52.1221 28.9137M51.6392 33.8625L52.1221 28.9137M50.4742 25.2084C51.9238 25.0628 52.2081 26.772 52.1221 28.9137M52.1221 28.9137L52.5133 24.9051" stroke="#606060" stroke-width="0.5"/>
<path opacity="0.9" d="M155 78C148.2 72.8 143.167 33.1667 141.5 14C145.381 13.1243 148.441 13.0886 150.002 14.3235C165.33 24.7845 186.476 49.72 175 79.5C170 80.1667 159 80.8 155 78Z" stroke="#606060" stroke-width="0.5"/>
</svg>
