<svg width="66" height="65" viewBox="0 0 66 65" fill="none" xmlns="http://www.w3.org/2000/svg">
<path d="M14.88 56.0835C1.67414 48.7312 10.6572 36.2322 15.6478 28.8798C17.9511 23.3656 15.6478 27.0418 20.2545 18.9541C25.9823 8.89821 29.8517 10.1313 33.3067 10.1313C37.5295 10.1313 40.6774 14.3957 44.0557 22.6303C47.8946 26.3065 52.5013 36.2322 52.5013 36.2322C52.5013 36.2322 64.018 56.0835 50.1979 56.0835H14.88Z" fill="#D1A711" stroke="#D1A711"/>
<path opacity="0.9" d="M9.96086 63.6486C-7.23914 53.6486 4.46088 36.6486 10.9609 26.6485C13.9609 19.1486 10.9609 24.1486 16.9609 13.1486C24.4211 -0.528619 29.4609 1.14855 33.9609 1.14855C39.4609 1.14857 43.5609 6.94853 47.9609 18.1486C52.9609 23.1485 58.9609 36.6486 58.9609 36.6486C58.9609 36.6486 73.9609 63.6486 55.9609 63.6486H9.96086Z" fill="#D7D7D7" stroke="#606060"/>
<path d="M21 63.5835C29.8 42.3835 17.3333 31.0835 10 28.0835C-5.99998 49.6835 3.33335 60.7502 10 63.5835H21Z" stroke="#606060" stroke-width="0.5"/>
<path d="M50 63.5835C33.2 53.1835 45.6667 34.9168 54 27.0835C57.6667 33.5835 65 48.1835 65 54.5835C65 60.9835 60.6667 63.2502 58.5 63.5835H50Z" stroke="#606060" stroke-width="0.5"/>
<path d="M43.5 41.5835H22.6371C19.9469 33.5835 13.0914 29.2502 10 28.0835L11 26.5835C11.8 25.3835 12.6667 22.0835 13 20.5835C17.8 9.7835 23.3333 4.0835 25.5 2.5835C27.1 1.3835 31.1667 1.08349 33 1.08349C39.8 -0.116514 45.8333 11.9168 48 18.0835C50 20.0835 52.8333 24.9168 54 27.0835C48.8 31.8835 45 38.4168 43.5 41.5835Z" stroke="#606060" stroke-width="0.3"/>
<path d="M43.5 41.5835H22.6124C25.8124 49.1835 23 59.5835 21 63.5835H49.9148C38.9148 57.0835 41.5 46.0835 43.5 41.5835Z" stroke="#606060" stroke-width="0.3"/>
</svg>
