<svg width="61" height="66" viewBox="0 0 61 66" fill="none" xmlns="http://www.w3.org/2000/svg">
<path d="M16.3883 14.9466C19.5077 9.16828 24.4868 8.35178 26.5864 8.66582C43.1433 17.2077 46.6826 27.9269 46.3827 32.2187C52.8614 42.2679 49.0822 50.4329 46.3827 53.2593C36.3845 56.3997 15.4885 60.7962 11.8892 53.2593C8.28984 45.7224 10.3894 36.0918 11.8892 32.2187C15.4885 25.6867 16.3883 17.9823 16.3883 14.9466Z" fill="#D1A711" stroke="#D1A711"/>
<path opacity="0.9" d="M10.5496 9.32517C15.1421 1.74916 22.4723 0.67864 25.5634 1.09038C49.9388 12.2897 55.1495 26.3437 54.7079 31.9708C64.2461 45.1465 58.6822 55.8517 54.7079 59.5574C39.9885 63.6748 9.22485 69.4391 3.92585 59.5574C-1.37315 49.6756 1.71794 37.0489 3.92585 31.9708C9.22485 23.4066 10.5496 13.3053 10.5496 9.32517Z" fill="#D7D7D7" stroke="#606060"/>
<path d="M19.9163 43.3194C19.9163 58.5056 13.24 63.3868 9.90181 63.9292C4.11563 63.0614 1.55636 54.5282 1 50.3701C1 45.8504 1.66764 35.7263 4.33818 31.3874C7.00872 27.0485 8.04727 23.6135 8.23272 22.1672C12.1273 23.0712 19.9163 28.1332 19.9163 43.3194Z" stroke="#606060" stroke-width="0.5"/>
<path d="M44.9527 61.7597C31.6 47.0075 43.84 29.218 51.6291 22.1672C54.2996 26.0722 54.9672 30.6643 54.9672 32.4721C59.4181 37.6788 60.16 45.4888 59.9745 48.743C59.2327 51.9972 57.0814 58.7225 54.4109 59.5903C51.7403 60.4581 46.9927 61.3982 44.9527 61.7597Z" stroke="#606060" stroke-width="0.5"/>
<path d="M39.3891 43.3194H19.9164C20.3614 29.001 12.3127 23.2519 8.23273 22.1672C10.0131 18.2622 10.4582 11.8623 10.4582 9.1505C14.9091 2.20825 22.3273 0.834267 25.48 1.01506C38.3876 5.78785 48.8472 16.7436 51.629 22.1672C44.3963 28.6756 39.3891 38.9805 39.3891 43.3194Z" stroke="#606060" stroke-width="0.3"/>
<path d="M39.389 43.3193C37.7199 51.4548 42.1709 59.0479 44.9527 61.7597C30.2647 66.0986 15.4654 65.0139 9.90179 63.9291C18.3585 61.7597 20.1018 49.2853 19.9163 43.3193H39.389Z" stroke="#606060" stroke-width="0.3"/>
</svg>
