<svg width="68" height="150" viewBox="0 0 65 149" fill="none" xmlns="http://www.w3.org/2000/svg">
<path d="M12 16.5H52.5C57.5 72.5 44.5001 103.5 40.5001 131C37.3001 153 30.5001 148.833 27.5001 144C6.30009 92 6.16669 37.1667 12 16.5Z" fill="#D1A711" stroke="#D1A711"/>
<path d="M20.1818 38.5025C22.3036 30.6151 27.7851 27.5477 30.2606 27H39.8091C49.3575 41.2412 42.4614 46.7186 45.6442 64.2462C48.1904 78.2683 36.4494 117.925 30.2606 136C14.3466 96.5628 17.5294 48.3618 20.1818 38.5025Z" fill="#ECECEC" stroke="#ECECEC"/>
<path opacity="0.9" d="M7.50006 0.5H57.0001C63.8001 3.7 64.1667 8.83333 63.5001 11C59.3334 37.8333 46.1001 93.1 26.5001 99.5C6.90006 105.9 1.00006 40.5 0.500061 7C1.70006 2.6 5.66673 0.833333 7.50006 0.5Z" fill="#D7D7D7" stroke="#606060"/>
<path d="M16.4357 49.9731L17.5 0.5L7 0.500067C-1.90735e-06 3 1.5 6 0.499998 7C-0.519806 8.0198 1.97895 37.0942 3.46844 51.6413L16.4357 49.9731Z" stroke="#606060" stroke-width="0.5"/>
<path d="M46.0632 0.0343628L43.225 50.8859L54 52.0001" stroke="#606060" stroke-width="0.5"/>
</svg>
