<svg width="62" height="83" viewBox="0 0 62 83" fill="none" xmlns="http://www.w3.org/2000/svg">
<path d="M51.0847 27.6982C38.578 3.44814 18.0691 14.4096 14.2942 29.6157C12.177 33.9332 10.9008 44.0514 11.5215 50.5686C15.2246 60.9504 18.7285 60.7677 21.1677 67.1219C42.1773 72.5083 43.3306 67.6724 47.4601 59.2703C49.5582 52.3385 51.9087 56.9917 53.5678 48.3772C55.6542 45.2666 52.3146 33.3195 51.0847 27.6982Z" fill="#D1A711" stroke="#D1A711"/>
<path opacity="0.9" d="M56.579 22.2354C38.701 -13.3824 9.49636 2.65942 4.15021 24.9679C2.31372 32.6312 -1.32118 35.2666 3.11089 53.0601C14.9027 67.9665 7.96426 69.3295 18.9445 78.2701C48.8989 86.2219 49.086 80.204 54.9526 67.8819C57.9274 57.7133 57.8184 65.2292 60.1638 52.59C63.1304 48.0294 58.3443 30.4881 56.579 22.2354Z" fill="#D7D7D7" stroke="#606060"/>
<path d="M20 39.5001C18 33.9002 24.4999 26 30.5 25C38.9 25 43 29.8333 44 32.5C47.2 34.9 45.3333 45.8333 44 51C42 60.1999 32.8333 59.8333 28.5 58.5C21.7 53.3 20 43.6667 20 39.5001Z" stroke="#606060" stroke-width="0.5"/>
<path d="M18.5 43.5003C22.5 42.8336 31.5 42.5003 35.5 46.5003M35.5 46.5003C37.8333 46.8337 43.2 46.7003 46 43.5003M35.5 46.5003C29.1 44.1003 22.1667 46.6669 20.5 50.5002M35.5 46.5003C37.5 48.8336 43.4 49.3003 47 46.5003" stroke="#606060" stroke-width="0.5"/>
<path d="M51.337 13.6174C51.3921 13.5773 51.4465 13.5381 51.5 13.4999L51.337 13.6174ZM51.337 13.6174C47.7876 16.1986 41 22.5917 41 28.4999L40.9008 28.4194C38.6848 26.573 35.2921 24.9999 30.5 24.9999C27.1238 25.5626 23.5893 28.3101 21.5 31.6031L21.5 31.5C19.1342 20.8538 12.0392 15.8111 8.64472 14.5521M51.337 13.6174C36.7633 -5.95036 17.7677 0.50845 8.64472 14.5521M8.64472 14.5521C8.5957 14.5339 8.54745 14.5165 8.5 14.4999L8.64472 14.5521Z" stroke="#606060" stroke-width="0.5"/>
<path opacity="0.9" d="M24 53.5001C20.4 59.1001 12.5 61.5001 8.99998 62.0001L8.86314 61.7289C7.68427 59.4225 5.93461 56.6296 3.11092 53.0601C-1.32115 35.2667 2.31375 32.6312 4.15024 24.9679C5.03169 21.2898 6.5617 17.7821 8.58258 14.6481L8.6447 14.552C12.0392 15.811 19.1341 20.8537 21.5 31.4999L21.5 31.6031C19.8762 34.1624 19.1253 37.0512 19.9999 39.5001C19.9999 42.5286 20.8981 48.4452 24 53.4483L24 53.5001Z" stroke="#606060" stroke-width="0.5"/>
<path opacity="0.9" d="M23.9999 53.5C20.3999 59.1 12.4999 61.5 8.99994 62L9.11865 62.2392C12.518 69.1703 10.7906 71.6309 18.9445 78.2702C41.2892 84.2019 47.0698 82.3601 51 75.9267C47.8379 72.6681 43.3491 61.3353 41.5 56.0761C37.8924 59.9692 31.7971 59.5143 28.5 58.4999C26.6772 57.106 25.2209 55.3936 24.0655 53.5533L23.9999 53.5Z" stroke="#606060" stroke-width="0.5"/>
<path d="M50.9999 75.9268C47.8378 72.6683 43.3491 61.3354 41.4999 56.0762L41.6089 55.9565C42.6906 54.7456 43.5372 53.1289 44 51C45.3333 45.8333 47.2 34.9 44 32.5C43.5925 31.4133 42.6702 29.9668 41.1519 28.6342L40.9999 28.5C40.9999 22.5917 47.7875 16.1986 51.337 13.6174L51.5 13.8377C53.2677 16.2403 54.9693 19.0285 56.579 22.2356C58.3443 30.4882 63.1304 48.0296 60.1637 52.5902C57.8184 65.2294 57.9274 57.7135 54.9526 67.8821C53.5188 70.8937 52.4242 73.5286 51.1514 75.6751L50.9999 75.9268Z" stroke="#606060" stroke-width="0.5"/>
</svg>
