<svg width="136" height="120" viewBox="0 0 136 120" fill="none" xmlns="http://www.w3.org/2000/svg">
<path opacity="0.9" d="M68.3121 21.7714C43.4183 16.7277 31.6468 37.6499 28.8728 48.7415C19.6653 64.4331 21.6593 80.0314 23.8072 85.8691C25.4957 89.9555 33.3594 98.9688 51.3062 102.331C69.2529 105.694 88.6952 95.5596 96.173 90.0722C118.462 86.1493 113.903 60.8838 108.837 48.7415C107.969 31.3685 81.4586 23.5227 68.3121 21.7714Z" fill="#D1A711" stroke="#D1A711"/>
<path opacity="0.9" d="M69.1959 2.11007C32.539 -5.14801 15.2051 24.9596 11.1203 40.9206C-2.43788 63.5013 0.498242 85.9476 3.66108 94.3482C6.14749 100.229 17.7271 113.199 44.1541 118.038C70.5812 122.876 99.2104 108.293 110.222 100.397C143.042 94.7514 136.329 58.3938 128.87 40.9206C127.591 15.9206 88.5544 4.63023 69.1959 2.11007Z" fill="#D7D7D7" stroke="#606060"/>
<path d="M39.5 48.5C43 52.6667 50 61.9 50 65.5M50 65.5C41.5 69.8333 25 80 27 86M50 65.5C54.9238 65.2362 63.1965 64.6941 71.5 63.9472M91.5 61.5C99 55 84.6 37.3 85 32.5C85.4 27.7 73.5 25.1667 67.5 24.5M91.5 61.5C86.3975 62.4449 78.9364 63.2782 71.5 63.9472M91.5 61.5C92.8333 66.6667 96.2 77.2 99 78C101.333 75.1667 107 69.5 111 69.5C115 69.5 121.333 71.5 124 72.5M71.5 63.9472C69 73.9648 65.5 94.8 71.5 98" stroke="#454545" stroke-width="0.5"/>
<path d="M11.1203 40.9206C-2.43788 63.5013 0.498242 85.9476 3.66108 94.3482C4.6355 96.6527 7.00646 100.046 11.1203 103.612C21.6166 102.502 33.6877 84.0748 38.4112 75C34.4957 65.1588 39.7016 54.5553 46.3169 46.5C34.1704 43.3 26.5732 25.1667 24.2929 16.5C17.1109 24.5157 12.8826 34.0347 11.1203 40.9206Z" stroke="#606060" stroke-width="0.5"/>
<path d="M69.1959 2.11007C48.3536 -2.01671 33.7581 5.93608 24.2929 16.5C26.5732 25.1667 34.1704 43.3 46.3169 46.5C49.505 42.618 53.0204 39.3278 56 37C76.604 28.253 88.1245 32.2183 94.1416 40.9206C105.455 40.9206 113.094 26.3264 115.5 19.0293C102.047 8.93118 81.5889 3.72344 69.1959 2.11007Z" stroke="#606060" stroke-width="0.5"/>
<path d="M128.87 40.9207C128.41 31.9253 123.061 24.7049 115.5 19.0293C113.094 26.3264 105.455 40.9207 94.1416 40.9207C100.507 50.1264 100.714 64.6332 99 75C97.5796 76.0365 95.9451 77.1394 94.1416 78.2551C96.8044 84.7893 104.804 98.1116 115.5 99.1271C142.268 90.6315 135.9 57.3888 128.87 40.9207Z" stroke="#606060" stroke-width="0.5"/>
<path d="M44.1541 118.038C70.5812 122.876 99.2104 108.293 110.222 100.397C112.109 100.072 113.866 99.6456 115.5 99.1271C104.804 98.1116 96.8045 84.7893 94.1416 78.2551C80.2856 86.8269 56.4494 96.1573 43 82C40.8564 79.7436 39.3638 77.3944 38.4112 75C33.6877 84.0748 21.6166 102.502 11.1203 103.612C17.5038 109.146 28.0837 115.095 44.1541 118.038Z" stroke="#606060" stroke-width="0.5"/>
<path d="M43 82C40.8564 79.7436 39.3638 77.3943 38.4112 75C34.4957 65.1588 39.7016 54.5553 46.3169 46.5C49.505 42.618 53.0204 39.3278 56 37C76.604 28.253 88.1245 32.2183 94.1416 40.9206C100.507 50.1264 100.714 64.6332 99 75C97.5796 76.0365 95.9451 77.1394 94.1416 78.2551C80.2856 86.8268 56.4494 96.1572 43 82Z" stroke="#606060" stroke-width="0.5"/>
</svg>
