<svg width="69" height="177" viewBox="0 0 69 177" fill="none" xmlns="http://www.w3.org/2000/svg">
<path d="M35.8095 152.263C41.0095 149.063 50.9762 132.263 55.3095 124.263C66.8095 109.763 60.3095 2.76278 55.3095 0.762808C51.3095 -0.83717 45.9762 9.09613 43.8095 14.2628C42.9762 9.42945 40.2095 0.362781 35.8095 2.76278C30.3095 5.76278 7.80949 139.263 10.3095 135.263C12.3095 132.063 16.4762 139.263 18.3095 143.263C21.9762 147.596 30.6095 155.463 35.8095 152.263Z" fill="#D1A711" stroke="#D1A711"/>
<path d="M39.8095 124.263C33.4095 118.663 25.4762 121.929 22.3095 124.263C36.7095 97.8626 38.9762 33.0961 37.8095 6.76283L42.8095 36.2628C50.8095 31.7628 49.3095 14.2628 52.8095 6.76282C55.6095 0.762817 39.8095 83.7628 39.8095 124.263Z" fill="#ECECEC" stroke="#ECECEC"/>
<path opacity="0.9" d="M6.80956 114.763C24.8096 50.7629 47.3096 81.2628 59.8096 107.763C67.3097 121.263 70.3095 132.763 65.3096 149.763C59.8096 161.263 39.3095 176.763 33.8096 175.763C29.3571 174.953 23.8095 170.763 22.3095 168.263C17.8095 162.263 13.4762 160.929 6.80956 162.263C2.40956 159.863 2.30954 151.263 1.30954 147.763C-1.09046 133.363 3.97623 119.763 6.80956 114.763Z" fill="#D7D7D7" stroke="#606060"/>
<path opacity="0.9" d="M59.8096 107.763C67.3097 121.263 70.3095 132.763 65.3096 149.763C62.2415 156.178 54.5055 163.838 47.3095 169.184C45.8765 167.706 46.0863 150.042 46.5264 134.763C46.6228 131.417 46.7302 128.185 46.8338 125.263C47.0826 118.248 47.3095 113.016 47.3095 112.263C47.3095 110.262 54.3416 105.763 57.8576 103.763C58.5322 105.098 59.1835 106.435 59.8096 107.763Z" stroke="#606060" stroke-width="0.5"/>
<path opacity="0.9" d="M1.30957 147.763C-1.09043 133.363 3.97626 119.763 6.80959 114.763C7.94415 110.729 9.09658 107.07 10.2633 103.763C12.612 105.763 17.6095 110.262 18.8095 112.263C19.2929 113.068 19.4128 118.369 19.2865 125.263C19.0207 139.764 17.6651 161.315 16.3095 162.91C13.586 161.607 10.5687 161.511 6.80959 162.263C2.40959 159.863 2.30957 151.263 1.30957 147.763Z" stroke="#606060" stroke-width="0.5"/>
<path opacity="0.9" d="M33.8096 175.763C29.3571 174.953 23.8095 170.763 22.3095 168.263C20.3469 165.646 18.4161 163.917 16.3095 162.91C17.6651 161.315 19.0206 139.764 19.2864 125.263C29.2679 120.463 41.8103 123.263 46.8338 125.263C46.7302 128.185 46.6228 131.417 46.5264 134.763C46.0863 150.042 45.8765 167.706 47.3095 169.184C41.6058 173.421 36.2414 176.205 33.8096 175.763Z" stroke="#606060" stroke-width="0.5"/>
<path opacity="0.9" d="M47.3095 112.263C47.3095 110.262 54.3416 105.763 57.8577 103.763C45.9154 80.1243 26.679 57.2209 10.2633 103.763C12.612 105.763 17.6096 110.262 18.8096 112.263C19.2929 113.068 19.4128 118.369 19.2865 125.263C29.268 120.463 41.8104 123.263 46.8339 125.263C47.0826 118.248 47.3095 113.016 47.3095 112.263Z" stroke="#606060" stroke-width="0.5"/>
</svg>
