<svg width="173" height="211" viewBox="0 0 173 211" fill="none" xmlns="http://www.w3.org/2000/svg">
<path d="M92.6689 56.2664L54.8242 38.3567C16.9795 69.4631 5.76622 139.217 2.02846 151.471C-0.961738 161.274 3.27438 183.834 5.76622 193.889C17.4467 223.11 32.8649 205.986 42.6765 193.889C78.1852 81.9057 82.0787 148.486 79.5868 195.774C75.4753 211.987 92.8247 206.3 102.013 201.43C111.513 193.575 130.607 172.586 130.981 151.471C131.355 130.356 146.399 107.482 153.875 98.6843C162.845 61.7336 155.121 41.4987 150.137 36.0001L92.6689 56.2664Z" fill="#D1A711" stroke="#D1A711"/>
<path d="M116 65.5001C90 81.5001 78.6667 69.6668 76 63.0001C62.4 71.4001 33.3333 166.667 23.5 201C83 63.0001 89 102.5 92 203C96.1667 181.667 103.3 132.5 98.5 118.5C93.7 104.5 108.333 76.0001 116 65.5001Z" fill="#ECECEC" stroke="#ECECEC"/>
<path d="M132.663 106.229C188.941 81.911 172.358 30.3641 157.702 4.25367C153.586 -6.89767 116.019 19.2734 109.713 24.4186C103.406 29.5639 89.9281 28.7863 88.9297 28.7287C88.1311 28.6826 88.7506 41.8187 88.9297 44.5001C88.2002 43.256 87.4738 30.815 87.4322 28.6423C81.8108 21.9073 67.9966 21.1771 61.7922 21.6538C53.7057 15.9786 53.8088 6.66907 54.8711 2.72372C52.237 -0.232917 46.1196 1.05018 43.3902 2.06131C34.6816 7.16816 26.444 15.1068 23.4137 18.4378C11.8253 31.7925 8.35319 58.8855 8.06572 70.7627C29.4415 110.289 109.389 104.408 132.663 106.229Z" fill="#D7D7D7" fill-opacity="0.9" stroke="#606060"/>
<path d="M39.5 52.5001C44 47.5001 56.8333 31.0001 61.5 21.5001L61.5211 21.4599C53.7081 15.7688 53.8208 6.62447 54.8711 2.72372C52.237 -0.232917 46.1196 1.05018 43.3902 2.06131C34.6816 7.16816 26.444 15.1068 23.4137 18.4378C14.9292 28.2154 10.7955 45.3573 9.07693 58.5001H9C30.6 62.1001 38.15 54.0001 39.5 52.5001Z" stroke="#606060" stroke-width="0.5"/>
<path d="M133.022 9.05319C144.227 2.80593 155.547 -1.58377 157.702 4.25361C166.906 20.6517 176.871 47.0822 169.07 70.5001H169C161 69.8334 145.1 65.7001 145.5 54.5001C145.899 43.3189 137.362 19.5801 133.022 9.05319ZM133.022 9.05319C133.015 9.03546 133.007 9.01777 133 9.00011L133.022 9.05319Z" stroke="#606060" stroke-width="0.5"/>
<path d="M44.0556 47.0388C49.7888 39.8482 57.9746 28.6768 61.5 21.5002L61.7922 21.6539C67.9966 21.1771 81.8108 21.9074 87.4322 28.6424C87.4738 30.815 88.2002 43.2561 88.9297 44.5002C88.7506 41.8187 88.1311 28.6827 88.9297 28.7288C89.9281 28.7864 103.406 29.564 109.713 24.4187C112.723 21.9628 122.783 14.6915 133 9.00012C137.149 19.0637 145.156 41.2548 145.502 52.9529L145.5 53.0002C97.1655 70.9758 57.7734 56.5394 44.0556 47.0388ZM44.0556 47.0388C44.037 47.0259 44.0185 47.013 44 47.0002L44.0556 47.0388Z" stroke="#606060" stroke-width="0.5"/>
<path d="M9.07529 58.5127C30.6175 62.0813 38.1516 53.9984 39.5 52.5001C40.5938 51.2848 42.1801 49.3899 44.0217 47.0812L44.0556 47.0387C57.7734 56.5393 97.1655 70.9758 145.5 53.0001V54.5001C145.1 65.7001 161 69.8334 169 70.5001L169.053 70.5504C164.423 84.4013 153.572 97.1946 132.663 106.229C109.389 104.408 29.4415 110.289 8.06572 70.7627C8.14266 67.5841 8.44767 63.3158 9.07529 58.5127ZM9.07529 58.5127C9.05021 58.5085 9.02512 58.5043 9 58.5001L9.07529 58.5127Z" stroke="#606060" stroke-width="0.5"/>
</svg>
