<svg width="62" height="76" viewBox="0 0 62 76" fill="none" xmlns="http://www.w3.org/2000/svg">
<path d="M10.8349 35.3204C18.6225 -2.82542 51.6363 14.3239 52.6171 33.1428C52.7775 36.2201 52.3766 43.2667 49.4903 46.8351C46.6039 50.4034 48.0304 59.0164 46.8227 62.6397C39.7884 68.3468 24.1537 63.1091 23.5649 58.5113C23.0939 54.8331 9.66773 46.4183 10.8349 35.3204Z" fill="#D1A711" stroke="#D1A711"/>
<path opacity="0.9" d="M0.753884 32.6814C11.9764 -20.9755 59.2933 3.09437 60.6726 29.5585C60.8981 33.886 60.3131 43.7964 56.1689 48.8189C52.0247 53.8414 54.0578 65.952 52.3207 71.0493C42.2253 79.0856 19.8127 71.7423 18.9751 65.2771C18.305 60.105 -0.935952 48.2903 0.753884 32.6814Z" fill="#D7D7D7" stroke="#606060"/>
<path opacity="0.9" d="M57.7469 46.3746C57.2893 47.27 56.766 48.0953 56.1688 48.819C52.0246 53.8415 54.0578 65.9521 52.3206 71.0495C42.2252 79.0858 19.8127 71.7424 18.975 65.2772C18.6551 62.8078 14.1018 58.8242 9.61443 53.6363L9.49988 53.5003C15.9762 46.3597 34.6633 34.9834 57.7469 46.3746ZM57.7469 46.3746C57.8312 46.4162 57.9155 46.4581 57.9999 46.5003L57.7469 46.3746Z" stroke="#606060" stroke-width="0.5"/>
<path opacity="0.9" d="M24.5 40.0004C25.3 38.8004 13.5 22.5004 7.50001 14.5004L7.42262 14.4115C4.63559 19.0974 2.33608 25.1171 0.753945 32.6816C-0.118385 40.7392 4.58702 47.7858 9.43611 53.4294L9.49994 53.5001C12.0115 50.7309 16.3596 47.3247 22.0884 44.8564L22.1107 44.8468C22.6107 43.6801 23.7 41.2003 24.5 40.0004Z" stroke="#606060" stroke-width="0.5"/>
<path opacity="0.9" d="M50.4889 9.52573C56.2888 14.9086 60.2858 22.1395 60.6725 29.5585C60.8643 33.238 60.4701 40.9539 57.8002 46.2694L57.7469 46.3745C51.8321 43.4557 46.2059 42.0317 40.9999 41.6482L40.9999 41.5C40.8332 40.8334 40.2999 39.3001 39.4999 38.5001C38.7006 37.7009 46.4856 18.8679 50.4889 9.52573ZM50.4889 9.52573L50.4999 9.50012" stroke="#606060" stroke-width="0.5"/>
<path opacity="0.9" d="M24.5 40.0003C25.3 38.8003 13.5 22.5003 7.50003 14.5003L7.41602 14.4225C18.8391 -4.79749 38.4597 -1.59675 50.4388 9.47926L50.4889 9.52565C46.4856 18.8679 38.7006 37.7008 39.4999 38.5C40.2999 39.3 40.8332 40.8333 40.9999 41.4999L40.9999 41.6482C33.8162 41.1191 27.4325 42.5713 22.194 44.8111L22.1107 44.8467C22.6107 43.68 23.7 41.2003 24.5 40.0003Z" stroke="#606060" stroke-width="0.5"/>
<path d="M45.4999 36.0003C41.4999 34.667 31.0999 33.7003 21.4999 40.5003" stroke="#454545" stroke-width="0.5"/>
</svg>
