<svg width="78" height="181" viewBox="0 0 78 181" fill="none" xmlns="http://www.w3.org/2000/svg">
<path d="M58.1003 30.0015C38.6391 42.7586 25.3853 35.3169 19.5134 30.0015C9.02784 43.9035 14.5642 84.3828 18.2551 90.9249L27.063 97.8759C29.7194 103.191 31.0321 140.717 31.0321 163.942C31.0321 165.714 30.4449 170.32 28.0961 174.573C27.5369 176.617 27.3411 180.542 31.0321 179.888C33.4088 180.297 39.7561 179.806 46.1313 174.573C56.533 167.049 60.8965 113.277 59.778 95.8315L66.9082 90.9249C67.2437 88.3081 69.4247 45.9479 58.1003 30.0015Z" fill="#D1A711" stroke="#D1A711"/>
<path d="M51.3896 48.4012C40.9879 53.6349 30.5582 50.582 26.6436 48.4012C46.1048 91.5792 38.0652 156.035 35.5486 173.617C44.9437 144.832 52.6478 71.9801 51.3896 48.4012Z" fill="#ECECEC" stroke="#ECECEC"/>
<path opacity="0.9" d="M48.0342 9.14849C37.6325 -5.89838 27.7621 2.87896 25.8048 9.14849C17.8357 21.8239 -1.62546 16.2631 1.05885 39.8147C3.74316 63.3663 6.93077 77.7044 11.125 82.7473C39.2263 123.227 73.1996 88.0628 75.2967 80.294C79.0715 68.4364 75.0171 49.0827 72.7802 35.7258C69.4248 27.2211 67.4675 20.8698 58.9392 19.7794C51.809 16.5084 49.7302 11.6018 48.0342 9.14849Z" fill="#D7D7D7" stroke="#606060"/>
<path opacity="0.9" d="M76.8006 70.5C76.6703 74.079 76.2153 77.4085 75.2967 80.294C73.1996 88.0628 39.2263 123.227 11.125 82.7473C10.0593 81.4659 9.05851 79.5844 8.1145 77.1041L8.07507 77L8.5 77C22.9 74.2 26.5 69.1667 26.5 67L25.3119 48.5C29.078 51.8333 39.7991 56.5 52.555 48.5L54 66C53.8339 66.9965 58.1692 69.2837 76.8011 70.4872M76.8006 70.5C76.8008 70.4957 76.8009 70.4915 76.8011 70.4872M76.8006 70.5H77C76.9335 70.4958 76.8672 70.4915 76.8011 70.4872" stroke="#606060" stroke-width="0.5"/>
<path opacity="0.9" d="M23 12.5491C24.0331 11.5758 24.9804 10.4597 25.8048 9.14849C27.7621 2.87896 37.6325 -5.89838 48.0342 9.14849C48.4772 9.78925 48.9463 10.5974 49.5246 11.5H49.5L52.555 48.5C39.7991 56.5 29.078 51.8333 25.3119 48.5L23 12.5491ZM23 12.5491L23 12.5" stroke="#606060" stroke-width="0.5"/>
<path opacity="0.9" d="M26.5 67L23 12.5V12.5491C14.0463 20.9849 -1.34778 18.6993 1.05885 39.8146C3.05158 57.2985 5.32169 69.7048 8.07508 77L8.5 77C22.9 74.2 26.5 69.1667 26.5 67Z" stroke="#606060" stroke-width="0.5"/>
<path opacity="0.9" d="M49.5 11.5L54 66C53.8333 67 58.2 69.3 77 70.5H76.8006C77.2059 59.372 74.4727 45.8322 72.7802 35.7258C69.4248 27.221 67.4675 20.8697 58.9392 19.7794C53.6714 17.3627 51.1607 14.0533 49.5247 11.5H49.5Z" stroke="#606060" stroke-width="0.5"/>
</svg>
