<svg width="153" height="135" viewBox="0 0 153 135" fill="none" xmlns="http://www.w3.org/2000/svg">
<path d="M120.26 33.6229C113.385 22.6692 105.062 18.5614 87.6928 29.1729C76.4028 33.9074 59.8294 28.6354 52.954 25.4076C42.2429 24.0384 35.9465 31.6833 34.1372 35.6768C21.9786 54.846 18.939 61.0075 25.0907 84.2843C25.0907 109.615 40.4095 107.105 48.2499 105.165C56.6451 100.236 67.4286 106.078 71.7709 109.615C80.7451 117.556 94.0857 112.924 99.2724 109.615C101.805 106.534 101.082 105.165 111.214 105.165C121.346 105.165 129.186 99.2317 130.031 96.265C133.649 63.0614 126.412 39.4422 120.26 33.6229Z" fill="#D1A711" stroke="#D1A711"/>
<path opacity="0.9" d="M137 16.4998C127.5 0.499881 116 -5.50027 92.0001 9.99975C76.4001 16.9153 53.5 9.21465 44 4.49988C29.2 2.49988 20.5 13.6665 18 19.4999C1.20001 47.4999 -3 56.4999 5.50003 90.4999C5.50003 127.5 26.6667 123.833 37.5 121C49.1 113.8 64.0001 122.333 70.0001 127.5C82.4001 139.1 100.833 132.333 108 127.5C111.5 123 110.5 121 124.5 121C138.5 121 149.333 112.333 150.5 108C155.5 59.5 145.5 24.9999 137 16.4998Z" fill="#D7D7D7" stroke="#606060"/>
<path d="M54.5 45.4999C59.7 39.4999 76 38.6665 83.5 38.9999C94.7 38.4638 101.833 43.1099 104 45.4999C118.8 57.0998 119.167 67.6666 117.5 71.4999C117.5 74.9999 96 94.4999 71 93.9999C51 93.5999 45.3333 78.8333 45 71.4999C43 66.4999 48 52.9999 54.5 45.4999Z" stroke="#606060" stroke-width="0.5"/>
<path d="M54.5 45.4999C59.7 39.4999 76 38.6665 83.5 38.9999C94.7 38.4638 101.833 43.1099 104 45.4999C105.472 46.6537 106.801 47.7972 108 48.925C118.8 41.665 129.929 21.3506 134.144 12.1009C125.13 -0.468517 113.652 -3.98354 92.0001 9.99975C78.4767 15.9947 59.4673 11.0058 48.4572 6.49988C46.7666 5.80798 45.2646 5.12748 44 4.49988C34.4525 3.20967 27.4436 7.39886 23 12.1009C24.9657 21.2339 33.3573 41.5999 51.1985 49.9999C52.2306 48.364 53.3415 46.8366 54.5 45.4999Z" stroke="#606060" stroke-width="0.5"/>
<path d="M18 19.4999C1.20001 47.4999 -3 56.4999 5.50003 90.4999C5.50003 105.666 9.05653 114 14 118.359C25.2 117.846 42.3744 95.2392 49.5615 83.9999C46.3935 79.6577 45.1508 74.8179 45 71.4999C43.3669 67.4172 46.4011 57.667 51.1081 50.1438L51.1985 49.9998C33.3573 41.5998 24.9657 21.2338 23 12.1008L22.8419 12.2695C20.4834 14.8064 18.868 17.4746 18 19.4999Z" stroke="#606060" stroke-width="0.5"/>
<path opacity="0.9" d="M14 118.359C25.2 117.846 42.3744 95.2392 49.5615 83.9998L49.9367 84.4999C53.8239 89.5387 60.3981 93.7878 71 93.9999C88.0105 94.3401 103.401 85.4209 111.5 78.5828C114.167 88.1339 123.6 109.263 140 117.368C135.716 119.467 130.388 121 124.5 121C110.5 121 111.5 123 108 127.5C100.833 132.333 82.4001 139.1 70.0001 127.5C64.0001 122.333 49.1 113.8 37.5 121C31.2117 122.644 21.4418 124.57 14.3508 118.66L14 118.359Z" stroke="#606060" stroke-width="0.5"/>
<path opacity="0.9" d="M140 117.368C123.6 109.263 114.167 88.1339 111.5 78.5828L112 78.1554C115.496 75.1285 117.5 72.5685 117.5 71.4999C118.973 68.1128 118.858 59.4687 108.601 49.4999L108 48.9249C118.8 41.665 129.929 21.3506 134.144 12.1008L134.359 12.4026C135.261 13.6804 136.139 15.049 137 16.4998C145.5 24.9999 155.5 59.5 150.5 108C149.863 110.366 146.343 114.024 141 116.858L140 117.368Z" stroke="#606060" stroke-width="0.5"/>
<path d="M45.5 93.4999L48.5 77.9999C52.6667 75.8332 61.3 70.7999 62.5 67.9999M62.5 67.9999C57.3 64.7999 51 59.3332 48.5 56.9999M62.5 67.9999C67.5 65.4999 78.5 60.7999 82.5 61.9999M82.5 61.9999C82.5 53.1999 85.8333 35.9999 87.5 28.4999M82.5 61.9999C80.5 69.5999 83.3333 82.4999 85 87.9999L82.5 95.4999L81.5 101.5M82.5 61.9999C87.1667 66.3332 98.3 74.2999 105.5 71.4999C106.5 68.3332 109.7 61.9999 114.5 61.9999C119.3 61.9999 125.5 58.6665 128 56.9999" stroke="#454545" stroke-width="0.5"/>
</svg>
