<svg width="84" height="194" viewBox="0 0 84 194" fill="none" xmlns="http://www.w3.org/2000/svg">
<path d="M60 36.5C43.2 41.3 30.6667 34.5 26.5 30.5C21.3333 38.8333 11.8 61.7 15 86.5C18.8333 91.8333 26.5 110.5 26.5 142.5C24.8333 152.833 20.2 175.6 15 184C14 190.5 14.9 199.6 26.5 184C41 164.5 62 142.5 70.5 86.5C70.9 62.5 63.6667 43.1667 60 36.5Z" fill="#D1A711" stroke="#D1A711"/>
<path d="M35.2667 55.1726C35.1731 55.1137 35.0841 55.0561 35 55C35.0908 55.0475 35.1797 55.1051 35.2667 55.1726C37.9579 56.8659 44.5422 59.6596 51.5 58.5C58.7 57.3 39 148.5 20.5 185.5C35.8325 150.384 43.2392 61.3512 35.2667 55.1726Z" fill="#ECECEC"/>
<path d="M35 55C37.5 56.6667 44.3 59.7 51.5 58.5C58.7 57.3 39 148.5 20.5 185.5C36 150 43.4 59.4 35 55Z" stroke="#ECECEC"/>
<path opacity="0.9" d="M75.5 78C82.7 54 83.5 38.6667 83 34C82.25 27.0001 67.7 35.9 56.5 13.5C45.3 -8.89997 32.5 4.1667 27.5 13.5C24.1666 17 20.3 21.8 11.5 21C2.69997 20.2 0.83331 29.3334 0.999979 34C0.599979 55.2 4.86508 70.0001 9.49998 78C38.7 128.4 65.6666 99 75.5 78Z" fill="#D7D7D7" stroke="#606060"/>
<path opacity="0.9" d="M77 73C66.2 73.4 56.3334 70.8333 56 70.5C51.6 68.5 58.3334 35.5 58 16.5H58.1255C69.0581 35.0863 82.2858 27.3343 83 34C83.4643 38.334 82.8074 51.868 76.9441 73L77 73Z" stroke="#606060" stroke-width="0.5"/>
<path opacity="0.9" d="M27 14L25.5 40L24 66C23.8333 67.6667 20 70.8 6 70H5.89671C2.895 61.5029 0.708446 49.4513 0.999979 34C0.83331 29.3334 2.69997 20.2 11.5 21C19.8639 21.7604 23.7713 17.462 27 14.0291V14Z" stroke="#606060" stroke-width="0.5"/>
<path opacity="0.9" d="M25.0374 48.0187L24 66C23.8333 67.6667 20 70.8 6 70C6.83332 72.5 8.69996 77.6 9.49998 78C38.7 128.4 65.6666 99 75.5 78L77 73C66.2 73.4 56.3334 70.8333 56 70.5C54.0863 69.6301 54.2787 62.896 55.0797 54H55C35.0416 55.4969 31.0167 51.0187 25.0374 48.0187ZM25.0374 48.0187C25.0249 48.0125 25.0125 48.0062 25 48L25.0374 48.0187Z" stroke="#606060" stroke-width="0.5"/>
<path opacity="0.9" d="M25.0374 48.0187L26.9982 14.0309L27 14L27.5 13.5C32.5 4.1667 45.3 -8.89996 56.5 13.5L58 16.5C58.1884 27.2362 56.1204 42.4425 55.0797 54H55C35.0416 55.4969 31.0167 51.0187 25.0374 48.0187ZM25.0374 48.0187C25.0249 48.0125 25.0125 48.0062 25 48L25.0374 48.0187Z" stroke="#606060" stroke-width="0.5"/>
</svg>
