<svg width="179" height="197" viewBox="0 0 179 197" fill="none" xmlns="http://www.w3.org/2000/svg">
<path d="M63.0959 39.5917L38.4973 31.8619C30.6944 38.0816 16.1011 54.2699 20.1512 69.2663C24.2014 84.2627 15.9415 102.03 11.3053 109.039C5.36967 128.681 -3.88885 170.854 6.56207 182.405C17.013 193.956 32.6492 184.53 39.161 178.373C79.7292 70.4869 105.657 142.766 113.747 189.335C115.143 192.641 120.941 197.518 132.973 190.578C145.006 183.637 148.484 169.654 148.719 163.53C150.553 120.234 157.168 107.506 164.602 82.1134C170.548 61.7994 165.041 45.4517 161.544 39.8171L133.13 46.3121L98.5788 35.7463L63.0959 39.5917Z" fill="#D1A711" stroke="#D1A711"/>
<path d="M132.134 59.372C100.345 82.503 79.2185 65.237 72.6291 53.7126C62.4531 63.7372 63.286 66.0907 61.3666 71.1201C48.944 85.5744 54.9843 77.6202 51.9788 83.9678C50.2596 87.5989 31.4799 151.353 21 182.417C75.7106 21.3126 125.41 123.329 123.348 192.151C124.396 157.189 128.863 111.938 123.533 99.3018C118.202 86.6652 127.045 67.4167 132.134 59.372Z" fill="#ECECEC" stroke="#ECECEC"/>
<path opacity="0.9" d="M150.002 3.32357C169.47 16.6105 198.281 53.2486 157.78 93.5053C135.688 115.464 90.8169 115.606 19.9347 80.0538C11.9242 72.9087 -0.24438 51.0568 15.1661 20.8106C16.4811 15.9151 22.7427 5.97629 29.3067 4.60733C31.5844 7.00656 39.2471 12.912 39.7325 16.1746C41.3265 17 47.9375 14.4634 50.4742 14.2086C51.9238 14.063 52.2081 15.7721 52.1222 17.9138L52.5133 13.9052C54.7952 11.1136 65.2264 4.09354 68.0131 4.36548C69.1541 2.9697 71.3874 0.675761 72.3827 0.772884L73.8756 0.918569L104.267 18.9556C104.324 21.8079 103.93 27.5635 101.9 27.7674C99.8711 27.9712 101.071 34.5522 101.925 37.8172L100.104 46.1799L102.92 37.9143L102.653 30.3527C103.628 28.9407 105.527 25.6094 105.323 23.58C105.119 21.5506 105.198 19.7162 105.263 19.0527C117.76 11.8994 144.205 -1.26113 150.002 3.32357Z" fill="#D7D7D7" stroke="#606060"/>
<path opacity="0.9" d="M155 67C159 69.8 170 69.1667 175 68.5L174.944 68.5745C171.839 76.5967 166.367 84.9696 157.78 93.5053C135.688 115.463 90.8169 115.606 19.9347 80.0537C15.7224 76.2964 10.3604 68.4726 8.46323 57.5C26.4632 63.9 37.6667 62.1667 41 60.5C42.9503 58.9677 44.6741 55.2077 46.142 50.5C64.2613 59.3333 110.6 73.6 151 60L151.067 59.9689C152.295 63.4378 153.611 65.9376 155 67Z" stroke="#606060" stroke-width="0.5"/>
<path opacity="0.9" d="M51.6392 22.8625C50.8789 29.923 48.8891 41.6899 46.142 50.5C64.2613 59.3333 110.6 73.6 151 60L151.071 59.979C146.287 46.4782 142.829 18.2748 141.501 3.01647C130.973 5.3916 114.395 13.8257 105.263 19.0526C105.198 19.7161 105.119 21.5505 105.323 23.5799C105.527 25.6093 103.628 28.9406 102.653 30.3525L102.92 37.9142L100.104 46.1798L101.925 37.8171C101.071 34.5521 99.8711 27.9711 101.9 27.7672C103.93 27.5634 104.324 21.8078 104.267 18.9555L73.8756 0.918447L72.3827 0.772762C71.3874 0.675639 69.1541 2.96957 68.0131 4.36536C65.2264 4.09342 54.7952 11.1135 52.5133 13.9051L52.1221 17.9137M51.6392 22.8625C51.7849 21.3696 52.0577 19.52 52.1221 17.9137M51.6392 22.8625L52.1221 17.9137" stroke="#606060" stroke-width="0.5"/>
<path opacity="0.9" d="M8.46323 57.5C26.4632 63.9 37.6667 62.1666 41 60.5C42.9503 58.9676 44.6741 55.2077 46.142 50.5C48.8891 41.6899 50.8789 29.923 51.6392 22.8625C51.9792 19.379 53.011 13.9536 50.4742 14.2084C47.9375 14.4633 41.3265 16.9998 39.7325 16.1745C39.2471 12.9119 31.5844 7.00641 29.3067 4.60718C22.7427 5.97613 16.4811 15.915 15.1661 20.8104C7.85914 35.1518 6.75258 47.606 8.46323 57.5Z" stroke="#606060" stroke-width="0.5"/>
<path opacity="0.9" d="M155 67C148.2 61.8 143.167 22.1667 141.5 3.00001C145.381 2.12429 148.441 2.08861 150.002 3.32347C165.33 13.7845 186.476 38.72 175 68.5C170 69.1667 159 69.8 155 67Z" stroke="#606060" stroke-width="0.5"/>
</svg>
