<svg width="77" height="96" viewBox="0 0 77 96" fill="none" xmlns="http://www.w3.org/2000/svg">
<path d="M40.6711 80.9902C64.5526 76.7478 60.9342 67.2841 66 55.2096C66 40.1981 56.9539 49.0092 46.4605 24.5339C44.867 20.8171 42.8421 19.3125 36.6908 20.2916C25.4737 20.9442 20.1667 32.8011 17.875 41.5034C17.875 49.3356 11 51.2936 11 55.2096C11.2895 73.4845 30.9013 81.3166 40.6711 80.9902Z" fill="#D1A711" stroke="#D1A711"/>
<path opacity="0.9" d="M41.5 94.4999C74.5 87.9999 69.5 73.4999 76.5 54.9999C76.5 31.9999 64 45.4999 49.5 7.99992C47.298 2.30508 44.5 -8.01086e-05 36 1.49995C20.5 2.49994 13.1667 20.6666 10 33.9999C10 45.9999 0.5 48.9999 0.5 54.9999C0.9 82.9999 28 94.9999 41.5 94.4999Z" fill="#D7D7D7" stroke="#606060"/>
<path opacity="0.9" d="M54.4919 19.2107C52.8665 16.0788 51.197 12.3886 49.5 7.99992C47.298 2.30508 44.5 -8.0049e-05 36 1.49995C23.095 2.33252 15.851 15.0649 11.9596 27H12C12.2642 31.2278 16.5712 39.3098 30.5 44.0728C34.1422 45.3182 38.4423 46.3367 43.5 47C43.1 45 48.6667 38.8333 51.5 36C53.4693 33.2429 54.3075 23.7959 54.4919 19.2107ZM54.4919 19.2107C54.4947 19.1393 54.4974 19.069 54.5 19L54.4919 19.2107Z" stroke="#606060" stroke-width="0.5"/>
<path d="M8 77.5C8.02899 77.5031 8.05808 77.5062 8.08727 77.5091M8.08727 77.5091C16.2796 78.3428 32.0943 72.8285 30.5 44.0727C16.5712 39.3098 12.2642 31.2278 12 27V26.8765C11.1993 29.3187 10.5393 31.7294 10 33.9999C10 46 0.5 49 0.5 54.9999C0.631183 64.1827 3.63412 71.6447 8.08727 77.5091Z" stroke="#606060" stroke-width="0.5"/>
<path opacity="0.9" d="M72.3433 69.5168C69.3195 80.9956 65.2562 89.8207 41.5 94.4999C32.3984 94.837 17.1153 89.4924 8 77.3937V77.5C16.1667 78.3818 32.1 72.931 30.5 44.0728C34.1422 45.3182 38.4423 46.3367 43.5 47C43.9991 49.4952 44.9962 72.4126 72.3433 69.5168ZM72.3433 69.5168C72.3955 69.5113 72.4477 69.5057 72.5 69.5L72.3433 69.5168Z" stroke="#606060" stroke-width="0.5"/>
<path opacity="0.9" d="M72.3433 69.5168C73.52 65.0503 74.5392 60.182 76.5 54.9999C76.5 34.6916 66.7546 42.84 54.4919 19.2107M72.3433 69.5168C44.9962 72.4126 43.9991 49.4952 43.5 47C43.1 45 48.6667 38.8333 51.5 36C53.4693 33.2429 54.3075 23.7959 54.4919 19.2107M72.3433 69.5168C72.3955 69.5113 72.4477 69.5057 72.5 69.5L72.3433 69.5168ZM54.4919 19.2107C54.4947 19.1393 54.4974 19.069 54.5 19L54.4919 19.2107Z" stroke="#606060" stroke-width="0.5"/>
<path d="M27 50C31.2593 53.0185 42.2222 57.2444 52 50" stroke="#454545" stroke-width="0.5"/>
</svg>
