<svg width="75" height="59" viewBox="0 0 75 59" fill="none" xmlns="http://www.w3.org/2000/svg">
<path opacity="0.9" d="M14.3084 15.3874C31.6088 5.32885 48.3859 9.796 55.7631 13.2269C60.0042 15.6766 65.9416 19.1063 56.3977 25.4031C46.8538 31.6999 53.6565 38.5762 48.0433 42.6842C35.6497 52.1818 26.4429 46.7528 23.4308 41.3243C17.7311 31.0523 23.1866 36.6403 14.943 27.5636C7.62986 19.5114 11.0155 17.9755 14.3084 15.3874Z" fill="#D1A711" stroke="#D1A711"/>
<path opacity="0.9" d="M6.61377 9.8802C31.5208 -4.86967 54.5901 1.77488 65.2224 6.82565C71.3355 10.4305 79.8937 15.4773 66.1546 24.7128C52.4156 33.9483 62.2253 44.0594 54.1453 50.0854C36.3059 64.0186 21.9724 56.7604 18.6879 48.0514C12.5631 31.8113 18.2301 43.5666 7.546 27.7673C-0.458361 15.9308 -0.552463 14.124 6.61377 9.8802Z" fill="#D7D7D7" stroke="#606060"/>
<path d="M7.546 27.7674C-0.458361 15.9308 -0.552463 14.124 6.61377 9.88023L12.0001 7.00012C16.5001 13.6668 25.5001 27.3002 25.5001 28.5001C25.5 30.0001 19.0001 41.5001 17.0001 43.0001L16.8299 43.0001C13.7638 34.4103 16.8358 41.5048 7.546 27.7674Z" stroke="#606060" stroke-width="0.5"/>
<path opacity="0.9" d="M47.5 27C46.7 24.2 55.1666 10.8333 59.5 4.5L59.6592 4.53169C61.7676 5.2808 63.6338 6.071 65.2224 6.82563C71.3354 10.4305 79.8937 15.4773 66.1546 24.7128C59.1116 29.4471 58.2569 34.4116 58.0082 38.9378L57.9999 39C54.8333 36.1667 48.2999 29.8 47.5 27Z" stroke="#606060" stroke-width="0.5"/>
<path opacity="0.9" d="M25.5 28.5001C29.8333 29.3334 40.2999 30 47.4999 26L47.5579 25.7006C48.5291 21.3185 55.6478 10.1301 59.5 4.49999L59.419 4.44691C48.4349 0.594508 31.0235 -2.0844 12.0553 6.97332L12 7.00011C16.4661 13.6166 25.3646 27.0951 25.4985 28.4709M25.5 28.5001C25.5 28.4911 25.4995 28.4813 25.4985 28.4709M25.5 28.5001L25.4985 28.4709" stroke="#606060" stroke-width="0.5"/>
<path opacity="0.9" d="M54.1453 50.0852C36.3058 64.0184 21.9724 56.7602 18.6878 48.0512C17.898 45.9569 17.3042 44.3282 16.8463 43.0459L17 43C19 41.5 25.5 29.9999 25.5 28.5C29.8333 29.3333 40.2999 30 47.4999 26L47.4999 26.9998C48.3002 29.7999 54.8333 36.1666 57.9999 38.9998L58.0011 39.0702C57.7777 43.3212 58.0428 47.1785 54.1453 50.0852Z" stroke="#606060" stroke-width="0.5"/>
</svg>
