<svg width="169" height="312" viewBox="0 0 169 312" fill="none" xmlns="http://www.w3.org/2000/svg">
<path d="M136.5 263.5C106.5 230.3 56.3333 242.333 35 252.5C21.4 243.7 21.6667 226.833 23.5 219.5C22.3 207.5 23.1667 166.833 27.5 153C30.3 131 15.5 113.5 12 89C14 78.5 -6.00001 9 6.99999 13C17.4 16.2 37.6667 59 46.5 80C45.3 66.4 55.0796 58 55.5 48.5C56.3333 29.6666 60.7 -5.90003 71.5 2.49997C82.3 10.9 93.3333 43 97.5 58C96.5 52.1666 98.3 39.7 113.5 36.5C128.7 33.3 145.167 97.5 151.5 130C163.5 146.8 146.5 226 136.5 263.5Z" fill="#D1A711" stroke="#D1A711"/>
<path d="M106.425 197.654C86.5842 181.257 72.117 194.368 67 204C52.1915 155.509 23.8007 64.0208 14.3473 38.5945C13.3387 36.2708 12.3859 34.0635 11.5 32C11.9641 32.5157 12.9483 34.8317 14.3473 38.5945C28.3283 70.8058 53.0306 125.396 59 129.5C61.6667 124.5 67 113.7 67 110.5C67 108.734 62.8397 102.22 57.9621 95.2229C53.9113 89.7354 49.4304 83.4886 46.5 79.5C49.5631 83.5344 53.9994 89.5379 57.9621 95.2229C62.2054 100.971 65.9768 105.886 67 106.5C68.4334 82.993 70.7296 36.9029 70.0722 18.8619C69.8643 16.599 69.6727 14.4663 69.5 12.5C69.78 13.7319 69.9652 15.9253 70.0722 18.8619C72.4728 44.9863 77.0551 88.4783 80 94C81.7759 90.3438 84.1083 85.5122 86.4741 80.5642C91.6571 68.6908 97 56.6761 97 57.5C97 58.3239 91.6571 69.7236 86.4741 80.5642C84.1083 85.9836 81.7759 91.3737 80 95.5C81 99.5 83.4 108.1 85 110.5C92.6436 94.3788 106.73 63.9807 111.432 51.5416C112.454 47.5887 113.068 45.6856 113 46.5C112.934 47.2975 112.369 49.063 111.432 51.5416C105.458 74.6566 85.5375 167.865 106.425 197.654C108.556 199.415 110.75 201.517 113 204C110.46 202.448 108.282 200.301 106.425 197.654Z" fill="#ECECEC"/>
<path d="M67 204C72.6667 193.333 89.8 178.4 113 204C77 182 113.5 40.5 113 46.5C112.6 51.3 94.1667 91.1667 85 110.5C83.4 108.1 81 99.5 80 95.5C85.6667 82.3333 97 56.3 97 57.5C97 58.7 85.6667 82.3333 80 94C76.8 88 71.6667 37.1667 69.5 12.5C71.5 21.3 68.6667 79.1667 67 106.5C65 105.3 52.5 87.6667 46.5 79.5C53.3333 88.5 67 107.3 67 110.5C67 113.7 61.6667 124.5 59 129.5C52.6 125.1 24.6667 62.6667 11.5 32C15.1 36 50 148.333 67 204Z" stroke="#ECECEC" stroke-width="0.5"/>
<path opacity="0.9" d="M38.2863 173.333C94.3542 148.622 151.744 177.418 164.432 199.878C162.536 209.282 163.035 223.337 164.49 240.954C168.192 251.693 172.239 277.379 158.815 294.211C151.617 300.127 132.63 311.685 114.262 310.592C112.511 309.152 109.468 305.297 111.303 301.4C104.003 300.631 89.5562 296.498 90.1743 286.117C89.297 281.223 87.1087 270.307 85.3737 265.795C85.9559 272.842 85.7868 287.458 80.4534 289.545C79.257 292.813 73.67 299.159 60.8926 298.398C56.2342 298.121 45.5543 298.587 40.1019 302.67C34.6496 306.753 32.6449 301.725 32.3241 298.7C19.882 288.944 -7.26529 260.773 2.77655 231.325C12.4861 202.852 33.2593 182.05 38.2863 173.333Z" fill="#D7D7D7" stroke="#606060"/>
<path opacity="0.9" d="M38.2863 173.333C94.3542 148.622 151.744 177.418 164.432 199.878L133 216C130.775 224.877 127.956 236.475 125.17 248.5C103.706 226.1 68.6307 234.136 53.7761 240.954C55.3323 224.088 56.6569 207.077 57.5 195L38.2863 173.333Z" stroke="#606060"/>
<path opacity="0.9" d="M32.3241 298.7C32.6449 301.725 34.6496 306.753 40.1019 302.67C41.5886 301.556 43.464 300.712 45.5 300.078C48.164 294.89 51.2703 268.111 53.7761 240.954C55.3323 224.088 56.6569 207.076 57.5 195L38.2863 173.333C33.2593 182.05 12.4861 202.852 2.77655 231.325C-7.26529 260.773 19.882 288.944 32.3241 298.7Z" stroke="#606060"/>
<path opacity="0.9" d="M111.303 301.4C109.468 305.297 112.511 309.152 114.262 310.592C112.16 307.831 118.573 276.972 125.17 248.5C103.706 226.1 68.6307 234.136 53.7761 240.954C51.2703 268.111 48.164 294.89 45.5 300.078C50.9308 298.388 57.5044 298.196 60.8926 298.398C73.67 299.159 79.257 292.813 80.4534 289.545C85.7869 287.458 85.9559 272.842 85.3737 265.795C87.1087 270.306 89.297 281.222 90.1744 286.117C89.5562 296.498 104.003 300.631 111.303 301.4Z" stroke="#606060"/>
<path opacity="0.9" d="M164.49 240.954C163.035 223.337 162.536 209.282 164.432 199.878L133 216C130.775 224.877 127.956 236.475 125.17 248.5C118.573 276.972 112.16 307.831 114.262 310.592C132.63 311.685 151.617 300.127 158.815 294.211C172.239 277.379 168.192 251.693 164.49 240.954Z" stroke="#606060"/>
</svg>
