<svg width="156" height="135" viewBox="0 0 156 135" fill="none" xmlns="http://www.w3.org/2000/svg">
<path d="M25.7237 41.2182C29.0854 24.923 54.1129 24.7777 66.2065 26.7419C71.5348 24.5622 81.3264 26.6767 84.6671 28.8685C89.0281 27.6947 98.1337 26.4009 106.78 23.7194C115.426 21.0379 123.527 25.0187 126.496 27.3442C130.913 29.3073 134.333 47.2408 135.491 55.9621C136.229 61.7648 138.401 69.4343 139.396 72.5437C140.787 91.2226 132.49 97.5709 117.273 103.161C90.7028 115.009 56.7668 113.293 43.7104 108.641C15.1387 110.006 19.8144 64.2611 25.7237 41.2182Z" fill="#D1A711" stroke="#D1A711"/>
<path opacity="0.9" d="M7.23152 27.9607C11.3358 4.07333 43.5425 4.20071 59.1328 7.25033C65.9602 4.12155 78.5901 7.3605 82.9192 10.6252C88.5155 8.96056 100.216 7.18435 111.307 3.36367C122.397 -0.457014 132.876 5.49998 136.729 8.95606C142.44 11.8994 147.086 38.2855 148.695 51.1106C149.723 59.6432 152.624 70.9372 153.946 75.5176C155.991 102.971 145.4 112.182 125.893 120.185C91.8599 137.225 48.1633 134.242 31.2973 127.232C-5.4539 128.847 -0.0595574 61.7241 7.23152 27.9607Z" fill="#D7D7D7" stroke="#606060"/>
<path d="M41.4597 54.4946C45.0597 41.6946 53.4597 38.4946 69.4597 30.9947C89.9597 25.4946 102.46 33.1613 109.46 38.4946C113.96 42.4946 121.96 54.0946 117.96 68.4946C113.96 82.8946 99.9597 91.8279 93.4597 94.4946C73.4597 101.495 50.9597 93.9946 41.4597 87.4946C33.8597 82.2946 38.293 63.328 41.4597 54.4946Z" stroke="#606060" stroke-width="0.5"/>
<path d="M41.4597 54.4946C42.5197 50.7257 43.9959 47.7891 45.9597 45.33C35.1706 39.5515 13.4791 25.5946 13.026 15.9946C10.1492 19.0732 8.08418 22.9989 7.23165 27.9607C1.2375 55.7183 -3.47468 106.023 15.4597 122.144C13.4597 107.063 29.83 89.7607 38.2651 82.9946C35.5592 75.2072 38.9176 61.5858 41.4597 54.4946Z" stroke="#606060" stroke-width="0.5"/>
<path opacity="0.9" d="M15.4597 122.144C13.4597 107.063 29.83 89.7607 38.2651 82.9946L38.364 83.2694C39.0306 85.0574 40.0332 86.5185 41.4597 87.4946C50.9597 93.9946 73.4597 101.495 93.4597 94.4946C97.3224 92.9099 103.834 89.1122 109.321 83.2694C110.696 81.8053 112.007 80.2129 113.195 78.4946C116.795 85.828 127.692 102.595 142.478 110.995C138.064 114.635 132.488 117.479 125.893 120.185C91.86 137.225 48.1634 134.242 31.2975 127.232C24.8516 127.515 19.7022 125.684 15.6321 122.289L15.4597 122.144Z" stroke="#606060" stroke-width="0.5"/>
<path opacity="0.9" d="M142.478 110.995C127.692 102.595 116.795 85.8279 113.195 78.4946L113.46 78.1071C115.39 75.2409 116.977 72.0328 117.96 68.4946C120.973 57.6459 117.176 48.3864 113.195 42.7687C119.384 26.988 133.884 17.0107 140.361 13.9946C144.357 22.9696 147.444 41.1389 148.695 51.1104C149.723 59.643 152.624 70.937 153.946 75.5175C155.279 93.4153 151.242 103.56 142.864 110.671L142.478 110.995Z" stroke="#606060" stroke-width="0.5"/>
<path opacity="0.9" d="M69.4597 30.9947C89.9597 25.4946 102.46 33.1613 109.46 38.4946C110.468 39.391 111.652 40.6691 112.838 42.2748L113.195 42.7687C119.384 26.988 133.885 17.0107 140.361 13.9946L140.268 13.7877C139.152 11.3288 137.966 9.59311 136.729 8.95594C132.876 5.49986 122.398 -0.457137 111.307 3.36354C100.216 7.18423 88.5157 8.96044 82.9194 10.625C78.5902 7.36038 65.9604 4.12143 59.1329 7.25021C46.8441 4.84638 24.231 4.25819 13.1949 15.8157L13.0261 15.9946C13.4791 25.5946 35.1706 39.5515 45.9597 45.3299L46.1597 45.0832C50.877 39.3484 58.3295 36.212 69.4597 30.9947Z" stroke="#606060" stroke-width="0.5"/>
<path d="M80.7362 24.0353C76.3786 26.3316 68.4573 39.8277 71.8467 58.0905M71.8467 58.0905C74.7335 68.2488 80.1109 93.2244 76.4013 100.988M71.8467 58.0905C68.7843 62.2104 62.5879 67.0871 57.6512 64.4234C56.7614 60.2548 52.0798 58.2811 47.5682 57.7918M71.8467 58.0905C76.7001 61.404 87.3181 67.3914 90.9637 64.8332C94.6092 62.275 103.058 61.0051 106.826 60.69C111.166 59.8395 119.297 56.8304 117.103 51.5974C118.821 49.6301 122.152 45.152 121.726 42.9776M47.5682 57.7918L34.6287 53.8366M47.5682 57.7918C45.6817 58.1301 41.5565 59.887 40.1481 64.2081" stroke="#454545" stroke-width="0.5"/>
</svg>
