<svg width="2085" height="1603" viewBox="0 0 2085 1603" fill="none" xmlns="http://www.w3.org/2000/svg">
<path d="M305.1 90.5C298.4 106.5 295.5 123 296.3 139.6C297.1 156 301.6 172.3 306.1 188.5C308.3 196.7 310.7 204.9 313.3 213C316 221.6 320.1 230.1 327.7 236.3C332.7 240.4 339 243.3 345.4 246.2C349.9 248.3 354.5 249.5 357.3 246.8C358.7 245.5 359.4 243.8 359.5 242.2C359.6 240.1 360.4 238.1 361.8 236.2C363.6 233.8 366.5 231.7 370.3 231.5C374 231.4 377.1 233.1 379.5 235.2C381.6 237 383.3 239.1 384.8 241.2C386.1 243.1 387.5 245.1 390.3 245.5C392.6 245.8 394.6 244.8 396.3 243.5C398.2 242.1 399.4 240.4 400.3 238.6C401.4 236.4 402.3 234.1 402.9 231.7C403.7 228.8 404.3 225.8 405.6 223C406.3 221.5 407.1 220.1 408.4 218.9C409.7 217.6 411.5 216.7 413.4 216.2C414.7 215.9 416.1 215.7 417.7 216C420.3 216.4 422.8 219.2 424 220.8C425.1 222.3 425.2 222.9 425.9 224.5C427.1 227.1 427.6 228.8 429.2 231.2C429.7 232 430.4 232.8 431.5 233.2C434 234.2 436.9 233.9 439.7 234.1C442.7 234.3 444.9 235.9 446.5 237.6C449.5 240.8 450.9 244.6 453.4 248C458 254.4 465.9 259.2 476.2 259.1C484.1 259 491 255.7 495.3 251C499.4 246.5 502.8 240.7 510.2 241.3C517.2 241.9 519.7 248.2 520.5 254C521 257.5 522.2 260.7 527.7 260.3C531.1 260 532.4 257.8 533 255.4C533.9 251.8 534.7 247.6 534.9 243.6C535.3 236.2 540 229 549.1 229.6C554.3 229.9 557.8 233.2 559.9 236.7C562.3 240.7 563.6 245 565.3 249.2C566.3 251.6 567.5 254.1 568.3 256.5C569.1 258.8 571.1 260.9 573.7 260.2C575.5 259.7 575.7 258.6 575.7 257.3C575.8 255.7 576 253.8 576 252C576 248.5 577.7 244.8 581.5 243.1C586.2 241.1 592 242.4 595.9 245.3C600.5 248.7 602.4 253.5 604.9 257.7C607 261.2 609.9 264.3 615.3 264.8C624.4 265.6 627.1 260.8 628.3 254.5C630 245.5 629.2 235.2 631.1 225.4C631.3 224.5 631.5 223.7 631.8 222.8C633.4 218.1 636.8 213.8 643.6 213.1C652.9 212.2 660.2 216.9 663.2 223.2C664.6 226.1 665.9 229.2 666.9 232.1C668.1 235.6 669.4 239.3 670.2 242.7C670.9 245.7 671.6 248.5 674.5 251C682 257.4 689.9 257.7 694.1 250C695.4 247.5 696.3 243.6 696.3 240.5C696.4 237.3 696.7 234 697.7 230.8C698.8 227.2 702.4 223.7 707.2 222.4C710.1 221.6 713.3 221.8 716.2 222.6C718.8 223.3 721.3 224.5 722.8 226.2C724.2 227.9 725 230.1 727.8 230.4C730.9 230.7 732.6 228.5 733.4 226.1C737.9 213.1 739.5 199.2 741.6 185.7C742.9 177.2 744.2 168.8 744.9 160.3C746.8 138.2 747.3 116.1 746.3 93.9L305.1 90.5Z" stroke="#DDDDDD" stroke-width="0.32" stroke-miterlimit="10"/>
<path d="M1792 92.6C1798.7 108.6 1801.6 125.1 1800.8 141.7C1800 158.1 1795.5 174.4 1791 190.6C1788.8 198.8 1786.4 207 1783.8 215.1C1781.1 223.7 1777 232.2 1769.4 238.4C1764.4 242.5 1760.1 246.4 1753.7 249.3C1750.1 251 1745.9 252.2 1743 248C1742 246.5 1740.9 244.7 1740.2 243.1C1739.4 241.4 1738.4 239.8 1737.3 238.3C1735.5 235.9 1731.6 233.8 1727.8 233.6C1724.1 233.5 1720 235.2 1717.6 237.3C1715.5 239.1 1713.8 241.2 1712.3 243.3C1711 245.2 1710.4 247.3 1708.8 247.6C1706.6 248.1 1705.5 246.9 1703.8 245.6C1701.9 244.2 1700.7 242.5 1699.8 240.7C1697.6 236.5 1695.9 230.9 1694 226.6C1692.9 224 1691.8 221.3 1689.9 219.2C1688 217.2 1684.1 215.8 1681.3 215.9C1678.7 216 1675.5 217.1 1673.8 219C1672 221 1670.5 223.6 1669.6 226.1C1668.8 228.5 1668.3 231.1 1666.9 233.2C1666.4 234 1665.7 234.8 1664.6 235.2C1662.1 236.2 1660.2 235.9 1657.4 236.1C1654.4 236.3 1652.2 237.9 1650.6 239.6C1647.6 242.8 1646.2 246.6 1643.7 250C1639.1 256.4 1631.2 261.2 1620.9 261.1C1613 261 1606.1 257.7 1601.8 253C1597.7 248.5 1594.3 242.7 1586.9 243.3C1579.9 243.9 1576.3 249.1 1574.6 256C1573.7 259.5 1573.4 262.1 1570.4 262.3C1567 262.5 1566.7 259.8 1566.1 257.4C1565.2 253.8 1565.1 249.6 1564.2 245.6C1562.4 237.2 1557.1 231 1548 231.6C1542.8 231.9 1539.3 235.2 1537.2 238.7C1534.8 242.7 1533.5 247 1531.8 251.2C1530.8 253.6 1528.3 260.2 1526 262C1525.1 262.7 1523.5 262.6 1522.5 262C1520.9 261 1521 255.2 1521 254.1C1521 250.6 1519.3 246.9 1515.5 245.2C1510.8 243.2 1505 244.5 1501.1 247.4C1496.5 250.8 1494.6 255.6 1492.1 259.8C1490 263.3 1487.1 266.4 1481.7 266.9C1472.6 267.7 1470.9 262.9 1469.7 256.6C1468 247.6 1468.8 237.3 1466.9 227.5C1466.7 226.6 1466.5 225.8 1466.2 224.9C1464.6 220.2 1460.2 213.9 1453.4 213.2C1444.1 212.3 1436.8 220 1433.8 226.3C1432.4 229.2 1431.1 232.3 1430.1 235.2C1428.9 238.7 1427.6 242.4 1426.8 245.8C1426.1 248.8 1425.4 251.6 1422.5 254.1C1415 260.5 1408.1 258.8 1403.9 251.1C1402.6 248.6 1401.4 245.2 1400.7 242.6C1399.8 239.5 1399.3 236.1 1398.3 232.9C1397.2 229.3 1394.6 224.8 1389.8 223.5C1386.9 222.7 1383.7 222.9 1380.8 223.7C1378.2 224.4 1375.7 226.6 1374.2 228.3C1372.8 230 1372 232.2 1369.2 232.5C1366.1 232.8 1364.4 230.6 1363.6 228.2C1359.1 215.2 1357.5 201.3 1355.4 187.8C1354.1 179.3 1352.8 170.9 1352.1 162.4C1350.2 140.3 1349.7 118.2 1350.7 96L1792 92.6Z" stroke="#DDDDDD" stroke-width="0.32" stroke-miterlimit="10"/>
<path d="M2045.7 755.2H1050V127H1047.9V755.2H47.9V757.4H1047.9V1516.5H1050V757.4H2045.7V755.2Z" fill="#D5D5D5"/>
<path opacity="0.33" d="M1924.4 1038.7C1921.4 1050.2 1917.6 1061.5 1913.1 1072.6C1909.4 1081.7 1905.3 1090.6 1899.7 1099C1886.7 1118.5 1866.7 1134 1842.2 1141.3C1833.2 1144 1823.7 1145.5 1814.3 1146.6C1806 1147.6 1797.5 1148.2 1789.6 1145.7C1787.2 1144.9 1784.5 1144 1782.4 1145.1C1781.5 1145.6 1780.9 1146.4 1780.3 1147.2C1773.5 1156.2 1764.7 1164 1754.3 1169.7C1742.1 1176.4 1728.1 1180.1 1714 1183.2C1690.7 1188.4 1666.5 1192.1 1643.1 1187.1C1640.2 1186.5 1637.2 1185.7 1634.3 1186.3C1631.8 1186.8 1629.8 1188.3 1627.8 1189.6C1605.4 1204.6 1577.1 1210.2 1549 1212.9C1524 1215.3 1498 1215.4 1476 1204.8C1473.2 1203.4 1470.3 1201.9 1467.1 1202.1C1464.1 1202.3 1461.7 1203.9 1459.3 1205.5C1449.1 1212.2 1438 1218.3 1425.3 1219.5C1409.7 1220.9 1395.1 1214.6 1380.8 1209.2C1376.7 1207.6 1372.5 1206.1 1368.1 1206.5C1364.7 1206.8 1361.6 1208.2 1358.8 1209.9C1352.3 1213.9 1347.5 1219.6 1341 1223.5C1334.4 1227.6 1326.4 1229.7 1318.1 1229.8C1310.1 1229.9 1302.4 1228 1295.5 1224.8C1288.7 1221.6 1286.8 1218.2 1280.3 1214.3C1278.4 1213.1 1276.3 1212 1273.9 1212C1270.9 1212 1269.4 1212.8 1267.4 1214.8C1261.3 1220.6 1255.1 1234.5 1248.9 1239.9C1243.7 1244.5 1237 1248 1229.4 1248.3C1219.3 1248.7 1207.6 1239.5 1200.9 1233.2C1196.3 1228.9 1193.5 1224.1 1189.1 1219.6C1187.7 1218.2 1186 1216.8 1183.9 1216.9C1181.7 1217 1180.3 1218.8 1179 1220.3C1175.2 1224.9 1169.3 1231.9 1164.3 1235.1C1159 1238.5 1153.2 1239 1146.5 1238.8C1135 1238.4 1129 1227.9 1120.4 1221.3C1118.6 1219.9 1116.7 1218.6 1114.5 1218.8C1112.1 1218.9 1110.4 1220.5 1108.7 1222C1101.7 1228.5 1094.6 1232.6 1084.4 1233.8C1074.2 1234.9 1061.4 1230.9 1055 1224C1053.5 1222.4 1052.1 1220.5 1050.1 1219.3C1049.7 1219.1 1049.3 1218.9 1048.9 1218.7L1049.6 1516.7C1090.5 1516.6 1131.3 1515.4 1172.1 1513C1192.1 1511.9 1212.1 1510.4 1231.9 1507.2C1272.8 1500.5 1311.4 1486.1 1351.8 1477.4C1383.2 1470.7 1415.4 1467.4 1446.8 1461C1480.1 1454.2 1512.4 1444 1544.7 1434.4C1587.3 1421.7 1630.3 1409.8 1673.9 1399.7C1711.6 1391 1750 1383.5 1787.6 1374.7C1818.9 1367.4 1849.3 1359.2 1879.6 1348.9C1894 1344.1 1908.1 1338.8 1922.1 1333.1L1924.4 1038.7Z" stroke="#7C7C7C" stroke-width="0.542"/>
<path opacity="0.33" d="M174.5 1038.7C177.5 1050.2 181.3 1061.5 185.8 1072.6C189.5 1081.7 193.6 1090.6 199.2 1099C212.2 1118.5 232.2 1134 256.7 1141.3C265.7 1144 275.2 1145.5 284.6 1146.6C292.9 1147.6 301.4 1148.2 309.3 1145.7C311.7 1144.9 314.4 1144 316.5 1145.1C317.4 1145.6 318 1146.4 318.6 1147.2C325.4 1156.2 334.2 1164 344.6 1169.7C356.8 1176.4 370.8 1182.1 384.9 1185.2C408.2 1190.4 432.4 1192.1 455.8 1187.1C458.7 1186.5 461.7 1185.7 464.6 1186.3C467.1 1186.8 469.1 1188.3 471.1 1189.6C493.5 1204.6 521.8 1210.2 549.9 1212.9C574.9 1215.3 600.9 1215.4 622.9 1204.8C625.7 1203.4 628.6 1201.9 631.8 1202.1C634.8 1202.3 637.2 1203.9 639.6 1205.5C649.8 1212.2 660.9 1218.3 673.6 1219.5C689.2 1220.9 703.8 1214.6 718.1 1209.2C722.2 1207.6 726.4 1206.1 730.8 1206.5C734.2 1206.8 737.3 1208.2 740.1 1209.9C746.6 1213.9 751.4 1219.6 757.9 1223.5C764.5 1227.6 772.5 1229.7 780.8 1229.8C788.8 1229.9 796.5 1229 803.4 1225.8C810.2 1222.6 816.1 1220.2 822.6 1216.3C824.5 1215.1 826.6 1214 829 1214C832 1214 832.8 1215.6 834.5 1217.8C841.9 1227.1 846.8 1237.5 853 1242.9C858.2 1247.5 864.9 1248 872.5 1248.3C882.6 1248.7 889.3 1244.5 896 1238.2C900.6 1233.9 906.4 1221.1 910.8 1216.6C912.2 1215.2 913.9 1213.8 916 1213.9C918.2 1214 919.6 1215.8 920.9 1217.3C924.7 1221.9 929.6 1228.9 934.6 1232.1C939.9 1235.5 945.7 1238 952.4 1237.8C963.9 1237.4 971.9 1225.9 980.5 1219.3C982.3 1217.9 984.2 1216.6 986.4 1216.8C988.8 1216.9 990.5 1218.5 992.2 1220C999.2 1226.5 1007.3 1232.6 1017.5 1233.8C1027.7 1234.9 1037.5 1230.9 1044 1224C1045.5 1222.4 1046.9 1220.5 1048.9 1219.3C1049.3 1219.1 1049.7 1218.9 1050.1 1218.7L1049.4 1516.7C1008.5 1516.6 967.7 1515.4 926.9 1513C906.9 1511.9 886.9 1510.4 867.1 1507.2C826.2 1500.5 787.6 1486.1 747.2 1477.4C715.8 1470.7 683.6 1467.4 652.2 1461C618.9 1454.2 586.6 1444 554.3 1434.4C511.7 1421.7 468.7 1409.8 425.1 1399.7C387.4 1391 349 1383.5 311.4 1374.7C280.1 1367.4 249.7 1359.2 219.4 1348.9C205 1344.1 190.9 1338.8 176.9 1333.1L174.5 1038.7Z" stroke="#7C7C7C" stroke-width="0.542"/>
<path opacity="0.5" d="M166.4 258.5C167.7 260.2 168.9 261.8 170.2 263.5C171.4 265.2 172.6 266.9 173.7 268.7C174.4 269.8 175.1 271 175.8 272.1C179.8 278.8 183.2 285.7 186 292.9C189.3 301.4 191.9 310.3 194 319C195.7 326 197.1 332.8 201.8 338.7C202.1 339.1 202.4 339.4 202.6 339.7C205.5 343.2 207.3 343.7 212.3 342C215.2 341 224.3 335.8 228.6 333.5C228.8 333.4 229 333.3 229.3 333.2C229.5 333.1 229.7 333 229.9 332.9C230 332.8 230.1 332.8 230.2 332.7C230.6 332.5 231 332.3 231.4 332.1C231.8 331.9 232.1 331.7 232.5 331.6C236.1 329.9 239.3 328.5 242.4 327.5C249.2 325.2 255.5 324.5 265 324.6H265.1C267.4 324.6 269.7 324.8 271.9 325C276.3 325.4 280.6 326.2 284.8 327.3C285.7 327.5 286.7 327.8 287.6 328.1H287.7C298.8 331.5 308.9 337 317.6 343.6C319.7 345.2 321.7 346.8 323.6 348.5C323.9 348.7 324.1 349 324.4 349.2C328 352.4 331.6 355.7 336.4 356.6C336.9 356.7 337.4 356.8 337.9 356.8C343 357.2 347.6 354.5 352.1 352.3C352.6 352.1 353.1 351.8 353.6 351.6C354.1 351.4 354.5 351.2 355 351C355.5 350.8 356 350.6 356.6 350.4C357.1 350.2 357.6 350 358.1 349.9C358.6 349.7 359.1 349.5 359.6 349.4C360 349.3 360.4 349.2 360.7 349C361.9 348.6 363 348.3 364.2 348C365 347.8 365.9 347.6 366.7 347.4C367.4 347.3 368 347.1 368.7 347C369.6 346.8 370.5 346.7 371.5 346.5C371.6 346.5 371.7 346.5 371.7 346.5C372.2 346.4 372.7 346.3 373.2 346.3C373.7 346.2 374.2 346.2 374.7 346.1C375.2 346 375.7 346 376.2 345.9C376.7 345.8 377.2 345.8 377.7 345.7C378.2 345.7 378.7 345.6 379.2 345.6C381.4 345.4 383.5 345.3 385.7 345.2C386.5 345.2 387.3 345.2 388.1 345.2H388.4C390.2 345.2 392 345.2 393.8 345.3C396.8 345.4 399.8 345.6 402.7 345.8C403.4 345.9 404.1 345.9 404.8 346C405.4 346.1 405.9 346.1 406.5 346.2C407.2 346.3 407.9 346.4 408.6 346.4H408.7C409.2 346.5 409.6 346.5 410.1 346.6C410.6 346.7 411 346.7 411.5 346.8C412.2 346.9 412.9 347 413.7 347.1C414.2 347.2 414.8 347.3 415.3 347.4C416.4 347.6 417.4 347.8 418.5 348C419 348.1 419.6 348.2 420.1 348.4C420.8 348.6 421.5 348.7 422.2 348.9C422.9 349.1 423.6 349.3 424.3 349.5C425 349.7 425.6 349.9 426.3 350.1C426.4 350.1 426.5 350.1 426.6 350.2C427.2 350.4 427.8 350.6 428.4 350.8C429 351 429.5 351.2 430.1 351.3C430.9 351.6 431.6 351.8 432.3 352.1C432.9 352.3 433.6 352.6 434.2 352.9C434.7 353.1 435.3 353.3 435.8 353.6C436.4 353.8 437 354.1 437.6 354.4C438.2 354.6 438.8 354.9 439.3 355.2C439.8 355.4 440.2 355.6 440.7 355.9C440.9 356 441.1 356.1 441.2 356.2C441.4 356.3 441.7 356.5 442 356.6C442.3 356.7 442.5 356.9 442.8 357C443.4 357.3 443.9 357.6 444.5 357.9C445.1 358.2 445.6 358.5 446.1 358.9C446.7 359.2 447.3 359.6 447.9 360C448.2 360.2 448.4 360.3 448.7 360.5C448.9 360.6 449.2 360.8 449.4 361C449.4 361 449.5 361 449.5 361.1C449.9 361.4 450.4 361.7 450.8 362C451.2 362.3 451.6 362.5 451.9 362.8C452.1 362.9 452.2 363 452.4 363.2C452.8 363.5 453.1 363.7 453.5 364C453.9 364.3 454.3 364.7 454.7 365C455.1 365.4 455.6 365.7 456 366.1C456.5 366.5 457 367 457.5 367.4L457.6 367.5C458.1 367.9 458.5 368.4 459 368.8C459.1 368.9 459.1 368.9 459.2 369C459.4 369.2 459.6 369.4 459.8 369.6C460.3 370.1 460.8 370.6 461.3 371.1C461.6 371.4 461.9 371.7 462.1 372C462.5 372.4 462.9 372.8 463.3 373.3C463.8 373.9 464.3 374.4 464.9 375C465.1 375.2 465.4 375.5 465.7 375.7C465.9 375.9 466.2 376.2 466.4 376.4L466.5 376.5C466.7 376.7 466.9 376.8 467.1 377C467.5 377.4 468 377.7 468.5 378C469.1 378.4 469.6 378.7 470.2 379C470.8 379.3 471.4 379.5 472.1 379.7C472.2 379.7 472.4 379.8 472.5 379.8C472.9 379.9 473.4 380 473.9 380C474.1 380 474.4 380 474.7 380C475 380 475.2 380 475.5 380C476 380 476.5 379.9 477 379.8C477.3 379.7 477.6 379.6 477.9 379.6C478.1 379.5 478.4 379.4 478.6 379.3H478.7C478.9 379.2 479.2 379.1 479.4 379C479.7 378.9 479.9 378.8 480.2 378.6C480.4 378.5 480.7 378.4 480.9 378.2L481 378.1C481.2 378 481.5 377.8 481.7 377.7C481.9 377.6 482.2 377.4 482.4 377.2C482.6 377 482.9 376.9 483.1 376.7C483.5 376.4 484 376.1 484.4 375.8C484.8 375.5 485.3 375.2 485.7 374.9C486.1 374.6 486.6 374.3 487 374.1C487.3 373.9 487.5 373.8 487.8 373.6C488.2 373.4 488.7 373.1 489.1 372.9C489.5 372.7 489.9 372.5 490.3 372.3C490.6 372.1 491 371.9 491.3 371.8C491.6 371.6 492 371.5 492.3 371.3C492.7 371.1 493 371 493.4 370.8C493.9 370.6 494.5 370.3 495 370.1C495.5 369.9 496.1 369.7 496.6 369.5C496.7 369.5 496.8 369.4 496.8 369.4C497.5 369.2 498.1 368.9 498.8 368.7C499.5 368.5 500.1 368.3 500.8 368.1C501.2 368 501.6 367.9 502.1 367.7C503.4 367.4 504.7 367 506 366.7C506.4 366.6 506.9 366.5 507.3 366.4C507.7 366.3 508.2 366.2 508.6 366.2C509 366.1 509.5 366 509.9 366C510.3 365.9 510.8 365.9 511.3 365.8C511.6 365.7 512 365.7 512.3 365.7C513.1 365.6 514 365.5 514.8 365.4L516.6 365.2C517.5 365.1 518.5 365 519.5 365C520.3 365 521.2 364.9 522 364.9C522.9 364.9 523.8 364.8 524.8 364.8C525 364.8 525.3 364.8 525.5 364.8C526.9 364.8 528.3 364.8 529.7 364.8C530.4 364.8 531.1 364.8 531.8 364.8H531.9C532.6 364.8 533.3 364.8 533.9 364.9C535.3 364.9 536.7 365 538.1 365.1C538.5 365.1 538.8 365.1 539.2 365.2C539.5 365.2 539.9 365.3 540.3 365.3C540.9 365.4 541.6 365.4 542.2 365.5C545.3 365.8 548.4 366.2 551.5 366.6C552.6 366.8 553.6 366.9 554.7 367.1C555.5 367.2 556.4 367.4 557.2 367.5C558.6 367.7 560 368 561.4 368.3C563.4 368.7 565.4 369.1 567.4 369.6C568.3 369.8 569.3 370 570.2 370.3C571.2 370.5 572.1 370.8 573.1 371.1C573.7 371.2 574.2 371.4 574.7 371.6C575.2 371.7 575.8 371.9 576.3 372.1C577.4 372.4 578.5 372.8 579.5 373.2C580 373.4 580.5 373.5 581 373.7H581.1C582.1 374.1 583.2 374.5 584.2 374.9C585.2 375.3 586.3 375.8 587.3 376.3C587.5 376.4 587.7 376.5 587.9 376.6C589.7 377.5 591.5 378.4 593.2 379.5C597.1 381.9 600 383.9 603.1 385.9C605 387.2 607 388.5 609.3 390C610.1 390.5 610.9 391 611.7 391.6C612.7 392.2 613.8 392.9 615 392.9C616.2 393 617.3 392.5 618.3 392C620 391.2 621.6 390.2 623.2 389.2C629.7 385.2 635.8 380.1 642.7 377.2C644.6 376.4 646.6 375.9 648.5 375.6C653.4 374.9 658.4 375.8 663.1 377.5C666 378.6 668.9 380 671.6 381.5C672.1 381.8 672.6 382.1 673 382.4C673.1 382.4 673.1 382.5 673.2 382.5C679.4 386.4 684.5 391.2 689.6 396.8C691.3 398.7 692.9 400.6 694.6 402.6C695.7 404 697.1 405.3 698.9 405.2C699 405.2 699.1 405.2 699.1 405.2C700.4 405 701.3 404.1 702.1 403.2C702.9 402.4 703.6 401.6 704.4 400.7C709.3 395.7 714.7 391.2 720.6 387.7C723.2 386.2 725.9 385.2 728.7 384.5C730.8 384 733 383.7 735.3 383.6C738.1 383.4 740.9 383.8 743.6 384.5C746.2 385.2 748.7 386.3 751.1 387.6C752.1 388.2 753.1 388.7 754.1 389.4C755 390 755.9 390.6 756.8 391.2C760 393.4 763 396 765.7 398.7C768.4 401.4 770.7 404.6 773.5 407.2C773.7 407.4 773.9 407.6 774.2 407.8C774.7 408.2 775.2 408.6 775.8 408.8C775.9 408.8 776 408.9 776.1 408.9C776.2 408.9 776.3 408.9 776.4 409C777.8 409.3 779.3 408.4 780.3 407.4C785.4 402.3 790 397 795.9 392.7C800.4 389.3 805.8 384.7 811.2 382.9C818.6 380.4 829.7 380.9 836.5 384.6C849 391.3 855.9 400.5 862.5 406.9C865.2 409.5 867.6 411.4 869.9 412.5C872.3 413.6 874.6 413.9 877 413.2C881.2 412 884.8 410.8 888.6 408.6C892.7 406.3 897.1 404.5 901.9 404.3C915.9 403.6 925.5 413.2 937.7 419.1C939.7 420.1 941.9 420.9 944.2 420.9C946.5 420.9 948.7 420 950.7 419.1C966.4 411.7 979 394.5 996.9 394.6C1015.1 394.7 1027.6 410.3 1043.1 418.6C1044.1 419.1 1045 419.6 1046.1 419.8C1047.1 420 1048.1 419.9 1049.1 419.6L1048.6 174.8C1031.2 174.6 1013.8 175.7 996.6 178.3C980 180.8 963.6 184.5 946.9 186.9C927 189.7 906.7 190.4 887 186.8C877.4 185 868 182.2 859.9 177.5C851.8 172.8 845.1 166.3 840.4 158.4C838.2 154.6 836.5 150.7 835.5 146.6C835.5 146.5 835.5 146.4 835.4 146.3C835.1 145.4 834.9 144.4 834.8 143.5C834.7 143 834.6 142.6 834.5 142.1C834.4 141.6 834.4 141.1 834.3 140.7C834.2 140.2 834.2 139.6 834.1 139.1C834.1 138.8 834 138.4 834 138.1C834 138 834 137.8 834 137.7C834 137.3 834 136.9 833.9 136.5C833.9 136 833.9 135.5 833.9 135.1C833.9 134.4 833.9 133.7 833.9 133H833.6L749.5 133.2H749.4H749.3H747.7C747.4 143.3 746.9 153.4 746 163.4C745.2 171.9 744 180.4 742.7 188.8C740.6 202.4 739 216.3 734.5 229.2C733.7 231.6 732 233.9 728.8 233.5C726 233.2 725.3 231 723.9 229.3C722.4 227.6 719.9 225.4 717.3 224.7C714.4 223.9 711.2 223.7 708.3 224.5C703.5 225.8 700.9 230.3 699.8 233.9C698.8 237.1 698.3 240.6 697.4 243.6C696.6 246.1 695.5 249.5 694.2 252.1C691.7 256.8 688.1 259.3 684.1 259C681.5 258.9 678.6 257.6 675.7 255.1C672.8 252.6 672.2 249.8 671.4 246.8C670.6 243.4 669.2 239.7 668.1 236.2C667.1 233.3 665.8 230.2 664.4 227.3C661.3 221 654.1 213.2 644.8 214.2C638 214.9 633.6 221.2 632 225.9C631.7 226.8 631.5 227.6 631.3 228.5C629.3 238.2 630.1 248.6 628.5 257.5C627.6 262.4 626.3 266.5 621.4 267.6C620.1 267.9 618.5 268 616.5 267.8C611.1 267.3 608.2 264.2 606.1 260.7C603.5 256.5 601.7 251.6 597 248.3C593.1 245.4 587.2 244.2 582.6 246.1C578.8 247.7 577.1 251.4 577.1 255C577.1 256.1 577.2 261.8 575.6 262.8C574.6 263.5 573 263.5 572.1 262.8C569.8 261 567.3 254.5 566.3 252C564.6 247.8 563.3 243.5 560.9 239.5C558.8 236 555.4 232.7 550.1 232.4C541 231.8 535.8 238 533.9 246.4C533 250.4 532.9 254.6 532 258.2C531.4 260.6 531.1 263.3 527.7 263.1C524.7 263 524.4 260.3 523.5 256.8C521.7 249.9 518.1 244.7 511.2 244.1C503.8 243.5 500.4 249.3 496.3 253.8C492 258.5 485.1 261.8 477.2 261.9C476.5 261.9 475.8 261.9 475.1 261.8C465.8 261.3 458.8 256.7 454.4 250.7C451.9 247.3 450.5 243.5 447.5 240.3C445.9 238.5 443.6 236.9 440.7 236.8C437.9 236.6 436 236.9 433.5 235.9C432.4 235.5 431.7 234.7 431.2 233.9C429.8 231.8 429.3 229.2 428.5 226.8C427.6 224.3 426.1 221.6 424.3 219.7C422.6 217.8 419.4 216.6 416.8 216.6C414 216.5 410.1 217.9 408.2 219.9C406.3 222 405.2 224.7 404.1 227.3C402.2 231.7 400.5 237.2 398.3 241.4C397.4 243.2 396.2 244.9 394.3 246.3C392.6 247.6 391.5 248.7 389.3 248.3C387.8 248 387.1 245.9 385.8 244C384.4 241.9 382.7 239.8 380.5 238C378.1 235.9 374 234.2 370.3 234.3C366.5 234.5 362.6 236.6 360.8 239C359.7 240.5 358.7 242.1 357.9 243.8C357.1 245.4 356.1 247.1 355.1 248.7C352.4 252.6 348.6 251.8 345.1 250.3C344.9 250.2 344.6 250.1 344.4 250C338 247.1 333.7 243.1 328.7 239.1C321.1 232.9 317 224.4 314.3 215.8C311.7 207.7 309.3 199.5 307.1 191.3C302.6 175.1 298.1 158.8 297.3 142.4C297.2 139.5 297.1 136.5 297.2 133.6L166.8 133.5V133.6L166.4 258.5Z" stroke="#7C7C7C" stroke-width="0.542"/>
<path opacity="0.5" d="M1931.5 258.5C1930.2 260.2 1929 261.8 1927.7 263.5C1926.5 265.2 1925.3 266.9 1924.2 268.7C1923.5 269.8 1922.8 271 1922.1 272.1C1918.1 278.8 1914.7 285.7 1911.9 292.9C1908.6 301.4 1906 310.3 1903.9 319C1902.2 326 1900.8 332.8 1896.1 338.7C1895.8 339.1 1895.5 339.4 1895.3 339.7C1892.4 343.2 1890.6 343.7 1885.6 342C1882.7 341 1873.6 335.8 1869.3 333.5C1869.1 333.4 1868.9 333.3 1868.6 333.2C1868.4 333.1 1868.2 333 1868 332.9C1867.9 332.8 1867.8 332.8 1867.7 332.7C1867.3 332.5 1866.9 332.3 1866.5 332.1C1866.1 331.9 1865.8 331.7 1865.4 331.6C1861.8 329.9 1858.6 328.5 1855.5 327.5C1848.7 325.2 1842.4 324.5 1832.9 324.6H1832.8C1830.5 324.6 1828.2 324.8 1826 325C1821.6 325.4 1817.3 326.2 1813.1 327.3C1812.2 327.5 1811.2 327.8 1810.3 328.1H1810.2C1799.1 331.5 1789 337 1780.3 343.6C1778.2 345.2 1776.2 346.8 1774.3 348.5C1774 348.7 1773.8 349 1773.5 349.2C1769.9 352.4 1766.3 355.7 1761.5 356.6C1761 356.7 1760.5 356.8 1760 356.8C1754.9 357.2 1750.3 354.5 1745.8 352.3C1745.3 352.1 1744.8 351.8 1744.3 351.6C1743.8 351.4 1743.4 351.2 1742.9 351C1742.4 350.8 1741.9 350.6 1741.3 350.4C1740.8 350.2 1740.3 350 1739.8 349.9C1739.3 349.7 1738.8 349.5 1738.3 349.4C1737.9 349.3 1737.5 349.2 1737.2 349C1736 348.6 1734.9 348.3 1733.7 348C1732.9 347.8 1732 347.6 1731.2 347.4C1730.5 347.3 1729.9 347.1 1729.2 347C1728.3 346.8 1727.4 346.7 1726.4 346.5C1726.3 346.5 1726.2 346.5 1726.2 346.5C1725.7 346.4 1725.2 346.3 1724.7 346.3C1724.2 346.2 1723.7 346.2 1723.2 346.1C1722.7 346 1722.2 346 1721.7 345.9C1721.2 345.8 1720.7 345.8 1720.2 345.7C1719.7 345.7 1719.2 345.6 1718.7 345.6C1716.5 345.4 1714.4 345.3 1712.2 345.2C1711.4 345.2 1710.6 345.2 1709.8 345.2H1709.5C1707.7 345.2 1705.9 345.2 1704.1 345.3C1701.1 345.4 1698.1 345.6 1695.2 345.8C1694.5 345.9 1693.8 345.9 1693.1 346C1692.5 346.1 1692 346.1 1691.4 346.2C1690.7 346.3 1690 346.4 1689.3 346.4H1689.2C1688.7 346.5 1688.3 346.5 1687.8 346.6C1687.3 346.7 1686.9 346.7 1686.4 346.8C1685.7 346.9 1685 347 1684.2 347.1C1683.7 347.2 1683.1 347.3 1682.6 347.4C1681.5 347.6 1680.5 347.8 1679.4 348C1678.9 348.1 1678.3 348.2 1677.8 348.4C1677.1 348.6 1676.4 348.7 1675.7 348.9C1675 349.1 1674.3 349.3 1673.6 349.5C1672.9 349.7 1672.3 349.9 1671.6 350.1C1671.5 350.1 1671.4 350.1 1671.3 350.2C1670.7 350.4 1670.1 350.6 1669.5 350.8C1668.9 351 1668.4 351.2 1667.8 351.3C1667 351.6 1666.3 351.8 1665.6 352.1C1665 352.3 1664.3 352.6 1663.7 352.9C1663.2 353.1 1662.6 353.3 1662.1 353.6C1661.5 353.8 1660.9 354.1 1660.3 354.4C1659.7 354.6 1659.1 354.9 1658.6 355.2C1658.1 355.4 1657.7 355.6 1657.2 355.9C1657 356 1656.8 356.1 1656.7 356.2C1656.5 356.3 1656.2 356.5 1655.9 356.6C1655.6 356.7 1655.4 356.9 1655.1 357C1654.5 357.3 1654 357.6 1653.4 357.9C1652.8 358.2 1652.3 358.5 1651.8 358.9C1651.2 359.2 1650.6 359.6 1650 360C1649.7 360.2 1649.5 360.3 1649.2 360.5C1649 360.6 1648.7 360.8 1648.5 361C1648.5 361 1648.4 361 1648.4 361.1C1648 361.4 1647.5 361.7 1647.1 362C1646.7 362.3 1646.3 362.5 1646 362.8C1645.8 362.9 1645.7 363 1645.5 363.2C1645.1 363.5 1644.8 363.7 1644.4 364C1644 364.3 1643.6 364.7 1643.2 365C1642.8 365.4 1642.3 365.7 1641.9 366.1C1641.4 366.5 1640.9 367 1640.4 367.4L1640.3 367.5C1639.8 367.9 1639.4 368.4 1638.9 368.8C1638.8 368.9 1638.8 368.9 1638.7 369C1638.5 369.2 1638.3 369.4 1638.1 369.6C1637.6 370.1 1637.1 370.6 1636.6 371.1C1636.3 371.4 1636 371.7 1635.8 372C1635.4 372.4 1635 372.8 1634.6 373.3C1634.1 373.9 1633.6 374.4 1633 375C1632.8 375.2 1632.5 375.5 1632.2 375.7C1632 375.9 1631.7 376.2 1631.5 376.4L1631.4 376.5C1631.2 376.7 1631 376.8 1630.8 377C1630.4 377.4 1629.9 377.7 1629.4 378C1628.8 378.4 1628.3 378.7 1627.7 379C1627.1 379.3 1626.5 379.5 1625.8 379.7C1625.7 379.7 1625.5 379.8 1625.4 379.8C1625 379.9 1624.5 380 1624 380C1623.8 380 1623.5 380 1623.2 380C1622.9 380 1622.7 380 1622.4 380C1621.9 380 1621.4 379.9 1620.9 379.8C1620.6 379.7 1620.3 379.6 1620 379.6C1619.8 379.5 1619.5 379.4 1619.3 379.3H1619.2C1619 379.2 1618.7 379.1 1618.5 379C1618.2 378.9 1618 378.8 1617.7 378.6C1617.5 378.5 1617.2 378.4 1617 378.2L1616.9 378.1C1616.7 378 1616.4 377.8 1616.2 377.7C1616 377.6 1615.7 377.4 1615.5 377.2C1615.3 377 1615 376.9 1614.8 376.7C1614.4 376.4 1613.9 376.1 1613.5 375.8C1613.1 375.5 1612.6 375.2 1612.2 374.9C1611.8 374.6 1611.3 374.3 1610.9 374.1C1610.6 373.9 1610.4 373.8 1610.1 373.6C1609.7 373.4 1609.2 373.1 1608.8 372.9C1608.4 372.7 1608 372.5 1607.6 372.3C1607.3 372.1 1606.9 371.9 1606.6 371.8C1606.3 371.6 1605.9 371.5 1605.6 371.3C1605.2 371.1 1604.9 371 1604.5 370.8C1604 370.6 1603.4 370.3 1602.9 370.1C1602.4 369.9 1601.8 369.7 1601.3 369.5C1601.2 369.5 1601.1 369.4 1601.1 369.4C1600.4 369.2 1599.8 368.9 1599.1 368.7C1598.4 368.5 1597.8 368.3 1597.1 368.1C1596.7 368 1596.3 367.9 1595.8 367.7C1594.5 367.4 1593.2 367 1591.9 366.7C1591.5 366.6 1591 366.5 1590.6 366.4C1590.2 366.3 1589.7 366.2 1589.3 366.2C1588.9 366.1 1588.4 366 1588 366C1587.6 365.9 1587.1 365.9 1586.6 365.8C1586.3 365.7 1585.9 365.7 1585.6 365.7C1584.8 365.6 1583.9 365.5 1583.1 365.4L1581.3 365.2C1580.4 365.1 1579.4 365 1578.4 365C1577.6 365 1576.7 364.9 1575.9 364.9C1575 364.9 1574.1 364.8 1573.1 364.8C1572.9 364.8 1572.6 364.8 1572.4 364.8C1571 364.8 1569.6 364.8 1568.2 364.8C1567.5 364.8 1566.8 364.8 1566.1 364.8H1566C1565.3 364.8 1564.6 364.8 1564 364.9C1562.6 364.9 1561.2 365 1559.8 365.1C1559.4 365.1 1559.1 365.1 1558.7 365.2C1558.4 365.2 1558 365.3 1557.6 365.3C1557 365.4 1556.3 365.4 1555.7 365.5C1552.6 365.8 1549.5 366.2 1546.4 366.6C1545.3 366.8 1544.3 366.9 1543.2 367.1C1542.4 367.2 1541.5 367.4 1540.7 367.5C1539.3 367.7 1537.9 368 1536.5 368.3C1534.5 368.7 1532.5 369.1 1530.5 369.6C1529.6 369.8 1528.6 370 1527.7 370.3C1526.7 370.5 1525.8 370.8 1524.8 371.1C1524.2 371.2 1523.7 371.4 1523.2 371.6C1522.7 371.7 1522.1 371.9 1521.6 372.1C1520.5 372.4 1519.4 372.8 1518.4 373.2C1517.9 373.4 1517.4 373.5 1516.9 373.7H1516.8C1515.8 374.1 1514.7 374.5 1513.7 374.9C1512.7 375.3 1511.6 375.8 1510.6 376.3C1510.4 376.4 1510.2 376.5 1510 376.6C1508.2 377.5 1506.4 378.4 1504.7 379.5C1500.8 381.9 1497.9 383.9 1494.8 385.9C1492.9 387.2 1490.9 388.5 1488.6 390C1487.8 390.5 1487 391 1486.2 391.6C1485.2 392.2 1484.1 392.9 1482.9 392.9C1481.7 393 1480.6 392.5 1479.6 392C1477.9 391.2 1476.3 390.2 1474.7 389.2C1468.2 385.2 1462.1 380.1 1455.2 377.2C1453.3 376.4 1451.3 375.9 1449.4 375.6C1444.5 374.9 1439.5 375.8 1434.8 377.5C1431.9 378.6 1429 380 1426.3 381.5C1425.8 381.8 1425.3 382.1 1424.9 382.4C1424.8 382.4 1424.8 382.5 1424.7 382.5C1418.5 386.4 1413.4 391.2 1408.3 396.8C1406.6 398.7 1405 400.6 1403.3 402.6C1402.2 404 1400.8 405.3 1399 405.2C1398.9 405.2 1398.8 405.2 1398.8 405.2C1397.5 405 1396.6 404.1 1395.8 403.2C1395 402.4 1394.3 401.6 1393.5 400.7C1388.6 395.7 1383.2 391.2 1377.3 387.7C1374.7 386.2 1372 385.2 1369.2 384.5C1367.1 384 1364.9 383.7 1362.6 383.6C1359.8 383.4 1357 383.8 1354.3 384.5C1351.7 385.2 1349.2 386.3 1346.8 387.6C1345.8 388.2 1344.8 388.7 1343.8 389.4C1342.9 390 1342 390.6 1341.1 391.2C1337.9 393.4 1334.9 396 1332.2 398.7C1329.5 401.4 1327.2 404.6 1324.4 407.2C1324.2 407.4 1324 407.6 1323.7 407.8C1323.2 408.2 1322.7 408.6 1322.1 408.8C1322 408.8 1321.9 408.9 1321.8 408.9C1321.7 408.9 1321.6 408.9 1321.5 409C1320.1 409.3 1318.6 408.4 1317.6 407.4C1312.5 402.3 1307.9 397 1302 392.7C1297.5 389.3 1292.1 384.7 1286.7 382.9C1279.3 380.4 1268.2 380.9 1261.4 384.6C1248.9 391.3 1242 400.5 1235.4 406.9C1232.7 409.5 1230.3 411.4 1228 412.5C1225.6 413.6 1223.3 413.9 1220.9 413.2C1216.7 412 1213.1 410.8 1209.3 408.6C1205.2 406.3 1200.8 404.5 1196 404.3C1182 403.6 1172.4 413.2 1160.2 419.1C1158.2 420.1 1156 420.9 1153.7 420.9C1151.4 420.9 1149.2 420 1147.2 419.1C1131.5 411.7 1118.9 394.5 1101 394.6C1082.8 394.7 1070.3 410.3 1054.8 418.6C1053.8 419.1 1052.9 419.6 1051.8 419.8C1050.8 420 1049.8 419.9 1048.8 419.6L1049.3 174.8C1066.7 174.6 1084.1 175.7 1101.3 178.3C1117.9 180.8 1134.3 184.5 1151 186.9C1170.9 189.7 1191.2 190.4 1210.9 186.8C1220.5 185 1229.9 182.2 1238 177.5C1246.1 172.8 1252.8 166.3 1257.5 158.4C1259.7 154.6 1261.4 150.7 1262.4 146.6C1262.4 146.5 1262.4 146.4 1262.5 146.3C1262.8 145.4 1263 144.4 1263.1 143.5C1263.2 143 1263.3 142.6 1263.4 142.1C1263.5 141.6 1263.5 141.1 1263.6 140.7C1263.7 140.2 1263.7 139.6 1263.8 139.1C1263.8 138.8 1263.9 138.4 1263.9 138.1C1263.9 138 1263.9 137.8 1263.9 137.7C1263.9 137.3 1263.9 136.9 1264 136.5C1264 136 1264 135.5 1264 135.1C1264 134.4 1264 133.7 1264 133H1264.3L1348.4 133.2H1348.5H1348.6H1350.2C1350.5 143.3 1351 153.4 1351.9 163.4C1352.7 171.9 1353.9 180.4 1355.2 188.8C1357.3 202.4 1358.9 216.3 1363.4 229.2C1364.2 231.6 1365.9 233.9 1369.1 233.5C1371.9 233.2 1372.6 231 1374 229.3C1375.5 227.6 1378 225.4 1380.6 224.7C1383.5 223.9 1386.7 223.7 1389.6 224.5C1394.4 225.8 1397 230.3 1398.1 233.9C1399.1 237.1 1399.6 240.6 1400.5 243.6C1401.3 246.1 1402.4 249.5 1403.7 252.1C1406.2 256.8 1409.8 259.3 1413.8 259C1416.4 258.9 1419.3 257.6 1422.2 255.1C1425.1 252.6 1425.7 249.8 1426.5 246.8C1427.3 243.4 1428.7 239.7 1429.8 236.2C1430.8 233.3 1432.1 230.2 1433.5 227.3C1436.6 221 1443.8 213.2 1453.1 214.2C1459.9 214.9 1464.3 221.2 1465.9 225.9C1466.2 226.8 1466.4 227.6 1466.6 228.5C1468.6 238.2 1467.8 248.6 1469.4 257.5C1470.3 262.4 1471.6 266.5 1476.5 267.6C1477.8 267.9 1479.4 268 1481.4 267.8C1486.8 267.3 1489.7 264.2 1491.8 260.7C1494.4 256.5 1496.2 251.6 1500.9 248.3C1504.8 245.4 1510.7 244.2 1515.3 246.1C1519.1 247.7 1520.8 251.4 1520.8 255C1520.8 256.1 1520.7 261.8 1522.3 262.8C1523.3 263.5 1524.9 263.5 1525.8 262.8C1528.1 261 1530.6 254.5 1531.6 252C1533.3 247.8 1534.6 243.5 1537 239.5C1539.1 236 1542.5 232.7 1547.8 232.4C1556.9 231.8 1562.1 238 1564 246.4C1564.9 250.4 1565 254.6 1565.9 258.2C1566.5 260.6 1566.8 263.3 1570.2 263.1C1573.2 263 1573.5 260.3 1574.4 256.8C1576.2 249.9 1579.8 244.7 1586.7 244.1C1594.1 243.5 1597.5 249.3 1601.6 253.8C1605.9 258.5 1612.8 261.8 1620.7 261.9C1621.4 261.9 1622.1 261.9 1622.8 261.8C1632.1 261.3 1639.1 256.7 1643.5 250.7C1646 247.3 1647.4 243.5 1650.4 240.3C1652 238.5 1654.3 236.9 1657.2 236.8C1660 236.6 1661.9 236.9 1664.4 235.9C1665.5 235.5 1666.2 234.7 1666.7 233.9C1668.1 231.8 1668.6 229.2 1669.4 226.8C1670.3 224.3 1671.8 221.6 1673.6 219.7C1675.3 217.8 1678.5 216.6 1681.1 216.6C1683.9 216.5 1687.8 217.9 1689.7 219.9C1691.6 222 1692.7 224.7 1693.8 227.3C1695.7 231.7 1697.4 237.2 1699.6 241.4C1700.5 243.2 1701.7 244.9 1703.6 246.3C1705.3 247.6 1706.4 248.7 1708.6 248.3C1710.1 248 1710.8 245.9 1712.1 244C1713.5 241.9 1715.2 239.8 1717.4 238C1719.8 235.9 1723.9 234.2 1727.6 234.3C1731.4 234.5 1735.3 236.6 1737.1 239C1738.2 240.5 1739.2 242.1 1740 243.8C1740.8 245.4 1741.8 247.1 1742.8 248.7C1745.5 252.6 1749.3 251.8 1752.8 250.3C1753 250.2 1753.3 250.1 1753.5 250C1759.9 247.1 1764.2 243.1 1769.2 239.1C1776.8 232.9 1780.9 224.4 1783.6 215.8C1786.2 207.7 1788.6 199.5 1790.8 191.3C1795.3 175.1 1799.8 158.8 1800.6 142.4C1800.7 139.5 1800.8 136.5 1800.7 133.6L1931.1 133.5V133.6L1931.5 258.5Z" stroke="#7C7C7C" stroke-width="0.542"/>
<path d="M249.317 835.629V832.958L261.102 814.311H263.04V818.449H261.731L252.827 832.539V832.748H268.697V835.629H249.317ZM261.94 841.129V834.817V833.573V814.311H265.031V841.129H261.94ZM282.194 841.495C280.396 841.495 278.807 841.177 277.428 840.539C276.057 839.893 274.988 839.007 274.22 837.881C273.451 836.746 273.072 835.454 273.08 834.005C273.072 832.871 273.294 831.823 273.748 830.863C274.202 829.894 274.822 829.086 275.608 828.44C276.402 827.786 277.288 827.371 278.266 827.196V827.039C276.983 826.707 275.961 825.987 275.202 824.879C274.442 823.761 274.067 822.491 274.076 821.068C274.067 819.706 274.412 818.489 275.11 817.415C275.808 816.341 276.769 815.494 277.991 814.874C279.222 814.255 280.623 813.945 282.194 813.945C283.748 813.945 285.136 814.255 286.358 814.874C287.58 815.494 288.541 816.341 289.239 817.415C289.946 818.489 290.304 819.706 290.313 821.068C290.304 822.491 289.915 823.761 289.147 824.879C288.388 825.987 287.38 826.707 286.122 827.039V827.196C287.091 827.371 287.964 827.786 288.741 828.44C289.518 829.086 290.138 829.894 290.601 830.863C291.063 831.823 291.299 832.871 291.308 834.005C291.299 835.454 290.906 836.746 290.129 837.881C289.361 839.007 288.292 839.893 286.921 840.539C285.559 841.177 283.984 841.495 282.194 841.495ZM282.194 838.615C283.408 838.615 284.455 838.418 285.337 838.025C286.218 837.633 286.899 837.078 287.38 836.362C287.86 835.647 288.104 834.808 288.113 833.848C288.104 832.836 287.842 831.941 287.327 831.164C286.812 830.387 286.109 829.776 285.219 829.331C284.337 828.885 283.329 828.663 282.194 828.663C281.051 828.663 280.029 828.885 279.13 829.331C278.24 829.776 277.537 830.387 277.022 831.164C276.516 831.941 276.267 832.836 276.275 833.848C276.267 834.808 276.498 835.647 276.969 836.362C277.45 837.078 278.135 837.633 279.025 838.025C279.916 838.418 280.972 838.615 282.194 838.615ZM282.194 825.887C283.154 825.887 284.006 825.695 284.748 825.311C285.498 824.927 286.088 824.39 286.515 823.7C286.943 823.01 287.161 822.203 287.17 821.278C287.161 820.37 286.947 819.58 286.528 818.908C286.109 818.227 285.529 817.703 284.787 817.336C284.045 816.961 283.181 816.773 282.194 816.773C281.19 816.773 280.313 816.961 279.562 817.336C278.811 817.703 278.231 818.227 277.821 818.908C277.41 819.58 277.21 820.37 277.218 821.278C277.21 822.203 277.415 823.01 277.834 823.7C278.261 824.39 278.851 824.927 279.601 825.311C280.352 825.695 281.216 825.887 282.194 825.887Z" fill="#5E5E5E"/>
<path d="M390.306 835.629V832.958L402.091 814.311H404.029V818.449H402.719L393.815 832.539V832.748H409.685V835.629H390.306ZM402.929 841.129V834.817V833.573V814.311H406.019V841.129H402.929ZM415.431 841.129L427.425 817.402V817.192H413.597V814.311H430.777V817.349L418.835 841.129H415.431Z" fill="#5E5E5E"/>
<path d="M544.309 835.629V832.958L556.094 814.311H558.031V818.449H556.722L547.818 832.539V832.748H563.688V835.629H544.309ZM556.932 841.129V834.817V833.573V814.311H560.022V841.129H556.932ZM577.5 841.495C576.4 841.478 575.3 841.268 574.2 840.867C573.1 840.465 572.096 839.789 571.188 838.837C570.28 837.877 569.551 836.581 569.001 834.948C568.451 833.307 568.176 831.247 568.176 828.768C568.176 826.393 568.399 824.289 568.844 822.456C569.289 820.614 569.935 819.065 570.782 817.808C571.629 816.542 572.65 815.582 573.846 814.927C575.051 814.272 576.408 813.945 577.919 813.945C579.42 813.945 580.756 814.246 581.925 814.848C583.104 815.442 584.064 816.271 584.806 817.336C585.548 818.401 586.028 819.628 586.247 821.016H583.052C582.755 819.811 582.179 818.812 581.323 818.017C580.468 817.223 579.333 816.826 577.919 816.826C575.841 816.826 574.204 817.729 573.008 819.536C571.821 821.343 571.223 823.879 571.214 827.144H571.424C571.913 826.402 572.493 825.769 573.165 825.245C573.846 824.713 574.597 824.302 575.418 824.014C576.238 823.726 577.107 823.582 578.023 823.582C579.56 823.582 580.965 823.966 582.24 824.735C583.514 825.494 584.536 826.546 585.304 827.89C586.072 829.226 586.456 830.758 586.456 832.486C586.456 834.145 586.085 835.664 585.343 837.043C584.601 838.414 583.558 839.505 582.214 840.317C580.878 841.12 579.307 841.513 577.5 841.495ZM577.5 838.615C578.599 838.615 579.586 838.34 580.459 837.79C581.341 837.24 582.035 836.502 582.541 835.577C583.056 834.651 583.313 833.621 583.313 832.486C583.313 831.378 583.065 830.37 582.567 829.462C582.078 828.545 581.402 827.816 580.537 827.275C579.682 826.734 578.704 826.463 577.604 826.463C576.775 826.463 576.002 826.629 575.287 826.961C574.571 827.284 573.942 827.729 573.401 828.296C572.869 828.864 572.449 829.514 572.144 830.247C571.838 830.972 571.686 831.736 571.686 832.539C571.686 833.604 571.934 834.599 572.432 835.524C572.938 836.45 573.628 837.196 574.501 837.763C575.383 838.331 576.382 838.615 577.5 838.615Z" fill="#5E5E5E"/>
<path d="M661.437 835.629V832.958L673.222 814.311H675.16V818.449H673.85L664.946 832.539V832.748H680.816V835.629H661.437ZM674.06 841.129V834.817V833.573V814.311H677.15V841.129H674.06ZM694.104 841.495C692.567 841.495 691.184 841.19 689.953 840.579C688.722 839.968 687.736 839.13 686.994 838.065C686.252 837 685.846 835.786 685.776 834.424H688.918C689.041 835.638 689.591 836.642 690.568 837.436C691.555 838.222 692.733 838.615 694.104 838.615C695.204 838.615 696.181 838.357 697.037 837.842C697.901 837.327 698.578 836.62 699.067 835.721C699.564 834.813 699.813 833.787 699.813 832.644C699.813 831.474 699.555 830.431 699.04 829.514C698.534 828.589 697.836 827.86 696.945 827.327C696.055 826.795 695.038 826.524 693.894 826.515C693.074 826.507 692.231 826.633 691.367 826.895C690.503 827.148 689.791 827.476 689.233 827.877L686.195 827.511L687.819 814.311H701.751V817.192H690.542L689.599 825.101H689.756C690.306 824.665 690.996 824.302 691.825 824.014C692.655 823.726 693.519 823.582 694.418 823.582C696.059 823.582 697.521 823.975 698.805 824.761C700.097 825.538 701.109 826.603 701.843 827.956C702.585 829.309 702.956 830.854 702.956 832.591C702.956 834.302 702.572 835.83 701.803 837.174C701.044 838.51 699.996 839.566 698.661 840.343C697.325 841.111 695.806 841.495 694.104 841.495Z" fill="#5E5E5E"/>
<path d="M754.706 835.629V832.958L766.491 814.311H768.429V818.449H767.12L758.215 832.539V832.748H774.086V835.629H754.706ZM767.329 841.129V834.817V833.573V814.311H770.419V841.129H767.329ZM778.364 835.629V832.958L790.149 814.311H792.087V818.449H790.778L781.874 832.539V832.748H797.744V835.629H778.364ZM790.987 841.129V834.817V833.573V814.311H794.078V841.129H790.987Z" fill="#5E5E5E"/>
<path d="M854.481 835.629V832.958L866.266 814.311H868.204V818.449H866.895L857.991 832.539V832.748H873.861V835.629H854.481ZM867.104 841.129V834.817V833.573V814.311H870.195V841.129H867.104ZM887.83 841.495C886.101 841.495 884.56 841.199 883.207 840.605C881.863 840.011 880.794 839.186 879.999 838.13C879.213 837.065 878.786 835.83 878.716 834.424H882.016C882.086 835.289 882.382 836.035 882.906 836.664C883.43 837.283 884.115 837.763 884.962 838.104C885.809 838.444 886.747 838.615 887.777 838.615C888.93 838.615 889.951 838.414 890.841 838.012C891.732 837.611 892.43 837.052 892.936 836.336C893.443 835.62 893.696 834.791 893.696 833.848C893.696 832.862 893.451 831.993 892.963 831.242C892.474 830.483 891.758 829.889 890.815 829.462C889.872 829.034 888.72 828.82 887.358 828.82H885.211V825.939H887.358C888.423 825.939 889.357 825.747 890.16 825.363C890.972 824.979 891.605 824.438 892.059 823.739C892.522 823.041 892.753 822.22 892.753 821.278C892.753 820.37 892.552 819.58 892.151 818.908C891.749 818.235 891.182 817.712 890.448 817.336C889.724 816.961 888.868 816.773 887.882 816.773C886.957 816.773 886.084 816.943 885.263 817.284C884.451 817.616 883.788 818.1 883.273 818.737C882.758 819.366 882.478 820.125 882.435 821.016H879.292C879.344 819.61 879.768 818.379 880.562 817.323C881.357 816.258 882.395 815.429 883.679 814.835C884.971 814.242 886.389 813.945 887.934 813.945C889.593 813.945 891.016 814.281 892.203 814.953C893.39 815.616 894.303 816.494 894.94 817.585C895.577 818.676 895.896 819.855 895.896 821.12C895.896 822.631 895.499 823.918 894.704 824.983C893.918 826.048 892.849 826.786 891.496 827.196V827.406C893.19 827.685 894.512 828.405 895.464 829.566C896.415 830.719 896.891 832.146 896.891 833.848C896.891 835.306 896.494 836.616 895.699 837.777C894.914 838.929 893.84 839.837 892.478 840.5C891.116 841.164 889.567 841.495 887.83 841.495Z" fill="#5E5E5E"/>
<path d="M934.737 835.629V832.958L946.522 814.311H948.46V818.449H947.151L938.247 832.539V832.748H954.117V835.629H934.737ZM947.36 841.129V834.817V833.573V814.311H950.451V841.129H947.36ZM959.024 841.129V838.772L967.876 829.082C968.915 827.947 969.77 826.961 970.442 826.123C971.115 825.276 971.612 824.481 971.935 823.739C972.267 822.989 972.433 822.203 972.433 821.382C972.433 820.44 972.206 819.623 971.752 818.934C971.307 818.244 970.696 817.712 969.919 817.336C969.142 816.961 968.269 816.773 967.3 816.773C966.27 816.773 965.37 816.987 964.602 817.415C963.843 817.834 963.254 818.423 962.835 819.183C962.424 819.942 962.219 820.832 962.219 821.854H959.129C959.129 820.282 959.491 818.903 960.216 817.716C960.94 816.529 961.927 815.603 963.175 814.94C964.432 814.276 965.842 813.945 967.404 813.945C968.976 813.945 970.368 814.276 971.582 814.94C972.795 815.603 973.747 816.498 974.436 817.624C975.126 818.75 975.471 820.003 975.471 821.382C975.471 822.369 975.292 823.333 974.934 824.276C974.585 825.21 973.974 826.253 973.101 827.406C972.236 828.549 971.036 829.946 969.5 831.596L963.476 838.038V838.248H975.942V841.129H959.024Z" fill="#5E5E5E"/>
<path d="M997.64 835.629V832.958L1009.42 814.311H1011.36V818.449H1010.05L1001.15 832.539V832.748H1017.02V835.629H997.64ZM1010.26 841.129V834.817V833.573V814.311H1013.35V841.129H1010.26ZM1030.99 814.311V841.129H1027.75V817.716H1027.59L1021.04 822.063V818.764L1027.75 814.311H1030.99Z" fill="#5E5E5E"/>
<path d="M1073.38 841.495C1071.65 841.495 1070.11 841.199 1068.76 840.605C1067.41 840.011 1066.35 839.186 1065.55 838.13C1064.77 837.065 1064.34 835.83 1064.27 834.424H1067.57C1067.64 835.289 1067.93 836.035 1068.46 836.664C1068.98 837.283 1069.67 837.763 1070.51 838.104C1071.36 838.444 1072.3 838.615 1073.33 838.615C1074.48 838.615 1075.5 838.414 1076.39 838.012C1077.28 837.611 1077.98 837.052 1078.49 836.336C1078.99 835.62 1079.25 834.791 1079.25 833.848C1079.25 832.862 1079 831.993 1078.51 831.242C1078.03 830.483 1077.31 829.889 1076.37 829.462C1075.42 829.034 1074.27 828.82 1072.91 828.82H1070.76V825.939H1072.91C1073.97 825.939 1074.91 825.747 1075.71 825.363C1076.52 824.979 1077.16 824.438 1077.61 823.739C1078.07 823.041 1078.3 822.22 1078.3 821.278C1078.3 820.37 1078.1 819.58 1077.7 818.908C1077.3 818.235 1076.73 817.712 1076 817.336C1075.28 816.961 1074.42 816.773 1073.43 816.773C1072.51 816.773 1071.64 816.943 1070.81 817.284C1070 817.616 1069.34 818.1 1068.82 818.737C1068.31 819.366 1068.03 820.125 1067.99 821.016H1064.84C1064.9 819.61 1065.32 818.379 1066.11 817.323C1066.91 816.258 1067.95 815.429 1069.23 814.835C1070.52 814.242 1071.94 813.945 1073.49 813.945C1075.14 813.945 1076.57 814.281 1077.75 814.953C1078.94 815.616 1079.85 816.494 1080.49 817.585C1081.13 818.676 1081.45 819.855 1081.45 821.12C1081.45 822.631 1081.05 823.918 1080.26 824.983C1079.47 826.048 1078.4 826.786 1077.05 827.196V827.406C1078.74 827.685 1080.06 828.405 1081.02 829.566C1081.97 830.719 1082.44 832.146 1082.44 833.848C1082.44 835.306 1082.05 836.616 1081.25 837.777C1080.47 838.929 1079.39 839.837 1078.03 840.5C1076.67 841.164 1075.12 841.495 1073.38 841.495ZM1097.23 814.311V841.129H1093.98V817.716H1093.82L1087.27 822.063V818.764L1093.98 814.311H1097.23Z" fill="#5E5E5E"/>
<path d="M1136.28 841.495C1134.56 841.495 1133.01 841.199 1131.66 840.605C1130.32 840.011 1129.25 839.186 1128.45 838.13C1127.67 837.065 1127.24 835.83 1127.17 834.424H1130.47C1130.54 835.289 1130.84 836.035 1131.36 836.664C1131.88 837.283 1132.57 837.763 1133.42 838.104C1134.26 838.444 1135.2 838.615 1136.23 838.615C1137.38 838.615 1138.4 838.414 1139.3 838.012C1140.19 837.611 1140.88 837.052 1141.39 836.336C1141.9 835.62 1142.15 834.791 1142.15 833.848C1142.15 832.862 1141.91 831.993 1141.42 831.242C1140.93 830.483 1140.21 829.889 1139.27 829.462C1138.33 829.034 1137.17 828.82 1135.81 828.82H1133.66V825.939H1135.81C1136.88 825.939 1137.81 825.747 1138.61 825.363C1139.43 824.979 1140.06 824.438 1140.51 823.739C1140.98 823.041 1141.21 822.22 1141.21 821.278C1141.21 820.37 1141.01 819.58 1140.6 818.908C1140.2 818.235 1139.64 817.712 1138.9 817.336C1138.18 816.961 1137.32 816.773 1136.34 816.773C1135.41 816.773 1134.54 816.943 1133.72 817.284C1132.91 817.616 1132.24 818.1 1131.73 818.737C1131.21 819.366 1130.93 820.125 1130.89 821.016H1127.75C1127.8 819.61 1128.22 818.379 1129.02 817.323C1129.81 816.258 1130.85 815.429 1132.13 814.835C1133.42 814.242 1134.84 813.945 1136.39 813.945C1138.05 813.945 1139.47 814.281 1140.66 814.953C1141.84 815.616 1142.76 816.494 1143.39 817.585C1144.03 818.676 1144.35 819.855 1144.35 821.12C1144.35 822.631 1143.95 823.918 1143.16 824.983C1142.37 826.048 1141.3 826.786 1139.95 827.196V827.406C1141.64 827.685 1142.97 828.405 1143.92 829.566C1144.87 830.719 1145.34 832.146 1145.34 833.848C1145.34 835.306 1144.95 836.616 1144.15 837.777C1143.37 838.929 1142.29 839.837 1140.93 840.5C1139.57 841.164 1138.02 841.495 1136.28 841.495ZM1150.7 841.129V838.772L1159.55 829.082C1160.59 827.947 1161.45 826.961 1162.12 826.123C1162.79 825.276 1163.29 824.481 1163.61 823.739C1163.94 822.989 1164.11 822.203 1164.11 821.382C1164.11 820.44 1163.88 819.623 1163.43 818.934C1162.98 818.244 1162.37 817.712 1161.6 817.336C1160.82 816.961 1159.95 816.773 1158.98 816.773C1157.95 816.773 1157.05 816.987 1156.28 817.415C1155.52 817.834 1154.93 818.423 1154.51 819.183C1154.1 819.942 1153.9 820.832 1153.9 821.854H1150.81C1150.81 820.282 1151.17 818.903 1151.89 817.716C1152.62 816.529 1153.6 815.603 1154.85 814.94C1156.11 814.276 1157.52 813.945 1159.08 813.945C1160.65 813.945 1162.04 814.276 1163.26 814.94C1164.47 815.603 1165.42 816.498 1166.11 817.624C1166.8 818.75 1167.15 820.003 1167.15 821.382C1167.15 822.369 1166.97 823.333 1166.61 824.276C1166.26 825.21 1165.65 826.253 1164.78 827.406C1163.91 828.549 1162.71 829.946 1161.18 831.596L1155.15 838.038V838.248H1167.62V841.129H1150.7Z" fill="#5E5E5E"/>
<path d="M1216.54 841.495C1214.81 841.495 1213.27 841.199 1211.92 840.605C1210.57 840.011 1209.5 839.186 1208.71 838.13C1207.92 837.065 1207.49 835.83 1207.42 834.424H1210.72C1210.79 835.289 1211.09 836.035 1211.62 836.664C1212.14 837.283 1212.82 837.763 1213.67 838.104C1214.52 838.444 1215.46 838.615 1216.49 838.615C1217.64 838.615 1218.66 838.414 1219.55 838.012C1220.44 837.611 1221.14 837.052 1221.65 836.336C1222.15 835.62 1222.4 834.791 1222.4 833.848C1222.4 832.862 1222.16 831.993 1221.67 831.242C1221.18 830.483 1220.47 829.889 1219.52 829.462C1218.58 829.034 1217.43 828.82 1216.07 828.82H1213.92V825.939H1216.07C1217.13 825.939 1218.07 825.747 1218.87 825.363C1219.68 824.979 1220.31 824.438 1220.77 823.739C1221.23 823.041 1221.46 822.22 1221.46 821.278C1221.46 820.37 1221.26 819.58 1220.86 818.908C1220.46 818.235 1219.89 817.712 1219.16 817.336C1218.43 816.961 1217.58 816.773 1216.59 816.773C1215.67 816.773 1214.79 816.943 1213.97 817.284C1213.16 817.616 1212.5 818.1 1211.98 818.737C1211.47 819.366 1211.19 820.125 1211.14 821.016H1208C1208.05 819.61 1208.48 818.379 1209.27 817.323C1210.07 816.258 1211.1 815.429 1212.39 814.835C1213.68 814.242 1215.1 813.945 1216.64 813.945C1218.3 813.945 1219.72 814.281 1220.91 814.953C1222.1 815.616 1223.01 816.494 1223.65 817.585C1224.29 818.676 1224.6 819.855 1224.6 821.12C1224.6 822.631 1224.21 823.918 1223.41 824.983C1222.63 826.048 1221.56 826.786 1220.2 827.196V827.406C1221.9 827.685 1223.22 828.405 1224.17 829.566C1225.12 830.719 1225.6 832.146 1225.6 833.848C1225.6 835.306 1225.2 836.616 1224.41 837.777C1223.62 838.929 1222.55 839.837 1221.19 840.5C1219.83 841.164 1218.28 841.495 1216.54 841.495ZM1240.02 841.495C1238.29 841.495 1236.75 841.199 1235.39 840.605C1234.05 840.011 1232.98 839.186 1232.19 838.13C1231.4 837.065 1230.97 835.83 1230.9 834.424H1234.2C1234.27 835.289 1234.57 836.035 1235.09 836.664C1235.62 837.283 1236.3 837.763 1237.15 838.104C1238 838.444 1238.93 838.615 1239.96 838.615C1241.12 838.615 1242.14 838.414 1243.03 838.012C1243.92 837.611 1244.62 837.052 1245.12 836.336C1245.63 835.62 1245.88 834.791 1245.88 833.848C1245.88 832.862 1245.64 831.993 1245.15 831.242C1244.66 830.483 1243.95 829.889 1243 829.462C1242.06 829.034 1240.91 828.82 1239.55 828.82H1237.4V825.939H1239.55C1240.61 825.939 1241.54 825.747 1242.35 825.363C1243.16 824.979 1243.79 824.438 1244.25 823.739C1244.71 823.041 1244.94 822.22 1244.94 821.278C1244.94 820.37 1244.74 819.58 1244.34 818.908C1243.94 818.235 1243.37 817.712 1242.64 817.336C1241.91 816.961 1241.06 816.773 1240.07 816.773C1239.14 816.773 1238.27 816.943 1237.45 817.284C1236.64 817.616 1235.97 818.1 1235.46 818.737C1234.94 819.366 1234.67 820.125 1234.62 821.016H1231.48C1231.53 819.61 1231.95 818.379 1232.75 817.323C1233.54 816.258 1234.58 815.429 1235.87 814.835C1237.16 814.242 1238.58 813.945 1240.12 813.945C1241.78 813.945 1243.2 814.281 1244.39 814.953C1245.58 815.616 1246.49 816.494 1247.13 817.585C1247.76 818.676 1248.08 819.855 1248.08 821.12C1248.08 822.631 1247.69 823.918 1246.89 824.983C1246.11 826.048 1245.04 826.786 1243.68 827.196V827.406C1245.38 827.685 1246.7 828.405 1247.65 829.566C1248.6 830.719 1249.08 832.146 1249.08 833.848C1249.08 835.306 1248.68 836.616 1247.89 837.777C1247.1 838.929 1246.03 839.837 1244.67 840.5C1243.3 841.164 1241.75 841.495 1240.02 841.495Z" fill="#5E5E5E"/>
<path d="M1316.31 841.495C1314.59 841.495 1313.05 841.199 1311.69 840.605C1310.35 840.011 1309.28 839.186 1308.48 838.13C1307.7 837.065 1307.27 835.83 1307.2 834.424H1310.5C1310.57 835.289 1310.87 836.035 1311.39 836.664C1311.92 837.283 1312.6 837.763 1313.45 838.104C1314.29 838.444 1315.23 838.615 1316.26 838.615C1317.41 838.615 1318.44 838.414 1319.33 838.012C1320.22 837.611 1320.92 837.052 1321.42 836.336C1321.93 835.62 1322.18 834.791 1322.18 833.848C1322.18 832.862 1321.94 831.993 1321.45 831.242C1320.96 830.483 1320.24 829.889 1319.3 829.462C1318.36 829.034 1317.21 828.82 1315.84 828.82H1313.7V825.939H1315.84C1316.91 825.939 1317.84 825.747 1318.65 825.363C1319.46 824.979 1320.09 824.438 1320.54 823.739C1321.01 823.041 1321.24 822.22 1321.24 821.278C1321.24 820.37 1321.04 819.58 1320.64 818.908C1320.23 818.235 1319.67 817.712 1318.93 817.336C1318.21 816.961 1317.35 816.773 1316.37 816.773C1315.44 816.773 1314.57 816.943 1313.75 817.284C1312.94 817.616 1312.27 818.1 1311.76 818.737C1311.24 819.366 1310.96 820.125 1310.92 821.016H1307.78C1307.83 819.61 1308.25 818.379 1309.05 817.323C1309.84 816.258 1310.88 815.429 1312.16 814.835C1313.46 814.242 1314.87 813.945 1316.42 813.945C1318.08 813.945 1319.5 814.281 1320.69 814.953C1321.88 815.616 1322.79 816.494 1323.43 817.585C1324.06 818.676 1324.38 819.855 1324.38 821.12C1324.38 822.631 1323.98 823.918 1323.19 824.983C1322.4 826.048 1321.33 826.786 1319.98 827.196V827.406C1321.67 827.685 1323 828.405 1323.95 829.566C1324.9 830.719 1325.38 832.146 1325.38 833.848C1325.38 835.306 1324.98 836.616 1324.18 837.777C1323.4 838.929 1322.33 839.837 1320.96 840.5C1319.6 841.164 1318.05 841.495 1316.31 841.495ZM1330.1 835.629V832.958L1341.89 814.311H1343.83V818.449H1342.52L1333.61 832.539V832.748H1349.48V835.629H1330.1ZM1342.73 841.129V834.817V833.573V814.311H1345.82V841.129H1342.73Z" fill="#5E5E5E"/>
<path d="M1409.58 841.495C1407.85 841.495 1406.31 841.199 1404.96 840.605C1403.62 840.011 1402.55 839.186 1401.75 838.13C1400.97 837.065 1400.54 835.83 1400.47 834.424H1403.77C1403.84 835.289 1404.14 836.035 1404.66 836.664C1405.18 837.283 1405.87 837.763 1406.72 838.104C1407.56 838.444 1408.5 838.615 1409.53 838.615C1410.68 838.615 1411.7 838.414 1412.6 838.012C1413.49 837.611 1414.18 837.052 1414.69 836.336C1415.2 835.62 1415.45 834.791 1415.45 833.848C1415.45 832.862 1415.21 831.993 1414.72 831.242C1414.23 830.483 1413.51 829.889 1412.57 829.462C1411.63 829.034 1410.47 828.82 1409.11 828.82H1406.96V825.939H1409.11C1410.18 825.939 1411.11 825.747 1411.91 825.363C1412.73 824.979 1413.36 824.438 1413.81 823.739C1414.28 823.041 1414.51 822.22 1414.51 821.278C1414.51 820.37 1414.31 819.58 1413.9 818.908C1413.5 818.235 1412.94 817.712 1412.2 817.336C1411.48 816.961 1410.62 816.773 1409.64 816.773C1408.71 816.773 1407.84 816.943 1407.02 817.284C1406.21 817.616 1405.54 818.1 1405.03 818.737C1404.51 819.366 1404.23 820.125 1404.19 821.016H1401.05C1401.1 819.61 1401.52 818.379 1402.32 817.323C1403.11 816.258 1404.15 815.429 1405.43 814.835C1406.72 814.242 1408.14 813.945 1409.69 813.945C1411.35 813.945 1412.77 814.281 1413.96 814.953C1415.14 815.616 1416.06 816.494 1416.69 817.585C1417.33 818.676 1417.65 819.855 1417.65 821.12C1417.65 822.631 1417.25 823.918 1416.46 824.983C1415.67 826.048 1414.6 826.786 1413.25 827.196V827.406C1414.94 827.685 1416.27 828.405 1417.22 829.566C1418.17 830.719 1418.64 832.146 1418.64 833.848C1418.64 835.306 1418.25 836.616 1417.45 837.777C1416.67 838.929 1415.59 839.837 1414.23 840.5C1412.87 841.164 1411.32 841.495 1409.58 841.495ZM1432.38 841.495C1430.84 841.495 1429.46 841.19 1428.23 840.579C1427 839.968 1426.01 839.13 1425.27 838.065C1424.53 837 1424.12 835.786 1424.05 834.424H1427.2C1427.32 835.638 1427.87 836.642 1428.85 837.436C1429.83 838.222 1431.01 838.615 1432.38 838.615C1433.48 838.615 1434.46 838.357 1435.31 837.842C1436.18 837.327 1436.85 836.62 1437.34 835.721C1437.84 834.813 1438.09 833.787 1438.09 832.644C1438.09 831.474 1437.83 830.431 1437.32 829.514C1436.81 828.589 1436.11 827.86 1435.22 827.327C1434.33 826.795 1433.31 826.524 1432.17 826.515C1431.35 826.507 1430.51 826.633 1429.64 826.895C1428.78 827.148 1428.07 827.476 1427.51 827.877L1424.47 827.511L1426.1 814.311H1440.03V817.192H1428.82L1427.88 825.101H1428.03C1428.58 824.665 1429.27 824.302 1430.1 824.014C1430.93 823.726 1431.8 823.582 1432.7 823.582C1434.34 823.582 1435.8 823.975 1437.08 824.761C1438.37 825.538 1439.39 826.603 1440.12 827.956C1440.86 829.309 1441.23 830.854 1441.23 832.591C1441.23 834.302 1440.85 835.83 1440.08 837.174C1439.32 838.51 1438.27 839.566 1436.94 840.343C1435.6 841.111 1434.08 841.495 1432.38 841.495Z" fill="#5E5E5E"/>
<path d="M1526.71 841.495C1524.98 841.495 1523.44 841.199 1522.09 840.605C1520.75 840.011 1519.68 839.186 1518.88 838.13C1518.1 837.065 1517.67 835.83 1517.6 834.424H1520.9C1520.97 835.289 1521.27 836.035 1521.79 836.664C1522.31 837.283 1523 837.763 1523.84 838.104C1524.69 838.444 1525.63 838.615 1526.66 838.615C1527.81 838.615 1528.83 838.414 1529.72 838.012C1530.61 837.611 1531.31 837.052 1531.82 836.336C1532.33 835.62 1532.58 834.791 1532.58 833.848C1532.58 832.862 1532.33 831.993 1531.85 831.242C1531.36 830.483 1530.64 829.889 1529.7 829.462C1528.76 829.034 1527.6 828.82 1526.24 828.82H1524.09V825.939H1526.24C1527.31 825.939 1528.24 825.747 1529.04 825.363C1529.85 824.979 1530.49 824.438 1530.94 823.739C1531.4 823.041 1531.64 822.22 1531.64 821.278C1531.64 820.37 1531.44 819.58 1531.03 818.908C1530.63 818.235 1530.06 817.712 1529.33 817.336C1528.61 816.961 1527.75 816.773 1526.76 816.773C1525.84 816.773 1524.97 816.943 1524.15 817.284C1523.33 817.616 1522.67 818.1 1522.16 818.737C1521.64 819.366 1521.36 820.125 1521.32 821.016H1518.17C1518.23 819.61 1518.65 818.379 1519.44 817.323C1520.24 816.258 1521.28 815.429 1522.56 814.835C1523.85 814.242 1525.27 813.945 1526.82 813.945C1528.48 813.945 1529.9 814.281 1531.09 814.953C1532.27 815.616 1533.19 816.494 1533.82 817.585C1534.46 818.676 1534.78 819.855 1534.78 821.12C1534.78 822.631 1534.38 823.918 1533.59 824.983C1532.8 826.048 1531.73 826.786 1530.38 827.196V827.406C1532.07 827.685 1533.39 828.405 1534.35 829.566C1535.3 830.719 1535.77 832.146 1535.77 833.848C1535.77 835.306 1535.38 836.616 1534.58 837.777C1533.8 838.929 1532.72 839.837 1531.36 840.5C1530 841.164 1528.45 841.495 1526.71 841.495ZM1550.03 841.495C1548.93 841.478 1547.83 841.268 1546.73 840.867C1545.63 840.465 1544.63 839.789 1543.72 838.837C1542.81 837.877 1542.09 836.581 1541.54 834.948C1540.99 833.307 1540.71 831.247 1540.71 828.768C1540.71 826.393 1540.93 824.289 1541.38 822.456C1541.82 820.614 1542.47 819.065 1543.32 817.808C1544.16 816.542 1545.18 815.582 1546.38 814.927C1547.58 814.272 1548.94 813.945 1550.45 813.945C1551.95 813.945 1553.29 814.246 1554.46 814.848C1555.64 815.442 1556.6 816.271 1557.34 817.336C1558.08 818.401 1558.56 819.628 1558.78 821.016H1555.59C1555.29 819.811 1554.71 818.812 1553.86 818.017C1553 817.223 1551.87 816.826 1550.45 816.826C1548.37 816.826 1546.74 817.729 1545.54 819.536C1544.35 821.343 1543.76 823.879 1543.75 827.144H1543.96C1544.45 826.402 1545.03 825.769 1545.7 825.245C1546.38 824.713 1547.13 824.302 1547.95 824.014C1548.77 823.726 1549.64 823.582 1550.56 823.582C1552.09 823.582 1553.5 823.966 1554.77 824.735C1556.05 825.494 1557.07 826.546 1557.84 827.89C1558.61 829.226 1558.99 830.758 1558.99 832.486C1558.99 834.145 1558.62 835.664 1557.88 837.043C1557.13 838.414 1556.09 839.505 1554.75 840.317C1553.41 841.12 1551.84 841.513 1550.03 841.495ZM1550.03 838.615C1551.13 838.615 1552.12 838.34 1552.99 837.79C1553.87 837.24 1554.57 836.502 1555.07 835.577C1555.59 834.651 1555.85 833.621 1555.85 832.486C1555.85 831.378 1555.6 830.37 1555.1 829.462C1554.61 828.545 1553.94 827.816 1553.07 827.275C1552.22 826.734 1551.24 826.463 1550.14 826.463C1549.31 826.463 1548.54 826.629 1547.82 826.961C1547.1 827.284 1546.48 827.729 1545.93 828.296C1545.4 828.864 1544.98 829.514 1544.68 830.247C1544.37 830.972 1544.22 831.736 1544.22 832.539C1544.22 833.604 1544.47 834.599 1544.97 835.524C1545.47 836.45 1546.16 837.196 1547.03 837.763C1547.92 838.331 1548.92 838.615 1550.03 838.615Z" fill="#5E5E5E"/>
<path d="M1680.71 841.495C1678.99 841.495 1677.45 841.199 1676.09 840.605C1674.75 840.011 1673.68 839.186 1672.88 838.13C1672.1 837.065 1671.67 835.83 1671.6 834.424H1674.9C1674.97 835.289 1675.27 836.035 1675.79 836.664C1676.31 837.283 1677 837.763 1677.85 838.104C1678.69 838.444 1679.63 838.615 1680.66 838.615C1681.81 838.615 1682.84 838.414 1683.73 838.012C1684.62 837.611 1685.31 837.052 1685.82 836.336C1686.33 835.62 1686.58 834.791 1686.58 833.848C1686.58 832.862 1686.34 831.993 1685.85 831.242C1685.36 830.483 1684.64 829.889 1683.7 829.462C1682.76 829.034 1681.6 828.82 1680.24 828.82H1678.1V825.939H1680.24C1681.31 825.939 1682.24 825.747 1683.05 825.363C1683.86 824.979 1684.49 824.438 1684.94 823.739C1685.41 823.041 1685.64 822.22 1685.64 821.278C1685.64 820.37 1685.44 819.58 1685.04 818.908C1684.63 818.235 1684.07 817.712 1683.33 817.336C1682.61 816.961 1681.75 816.773 1680.77 816.773C1679.84 816.773 1678.97 816.943 1678.15 817.284C1677.34 817.616 1676.67 818.1 1676.16 818.737C1675.64 819.366 1675.36 820.125 1675.32 821.016H1672.18C1672.23 819.61 1672.65 818.379 1673.45 817.323C1674.24 816.258 1675.28 815.429 1676.56 814.835C1677.86 814.242 1679.27 813.945 1680.82 813.945C1682.48 813.945 1683.9 814.281 1685.09 814.953C1686.28 815.616 1687.19 816.494 1687.82 817.585C1688.46 818.676 1688.78 819.855 1688.78 821.12C1688.78 822.631 1688.38 823.918 1687.59 824.983C1686.8 826.048 1685.73 826.786 1684.38 827.196V827.406C1686.07 827.685 1687.4 828.405 1688.35 829.566C1689.3 830.719 1689.78 832.146 1689.78 833.848C1689.78 835.306 1689.38 836.616 1688.58 837.777C1687.8 838.929 1686.72 839.837 1685.36 840.5C1684 841.164 1682.45 841.495 1680.71 841.495ZM1695.97 841.129L1707.96 817.402V817.192H1694.14V814.311H1711.32V817.349L1699.37 841.129H1695.97Z" fill="#5E5E5E"/>
<path d="M1821.7 841.495C1819.97 841.495 1818.43 841.199 1817.08 840.605C1815.74 840.011 1814.67 839.186 1813.87 838.13C1813.09 837.065 1812.66 835.83 1812.59 834.424H1815.89C1815.96 835.289 1816.26 836.035 1816.78 836.664C1817.3 837.283 1817.99 837.763 1818.83 838.104C1819.68 838.444 1820.62 838.615 1821.65 838.615C1822.8 838.615 1823.82 838.414 1824.71 838.012C1825.6 837.611 1826.3 837.052 1826.81 836.336C1827.32 835.62 1827.57 834.791 1827.57 833.848C1827.57 832.862 1827.32 831.993 1826.84 831.242C1826.35 830.483 1825.63 829.889 1824.69 829.462C1823.75 829.034 1822.59 828.82 1821.23 828.82H1819.08V825.939H1821.23C1822.3 825.939 1823.23 825.747 1824.03 825.363C1824.85 824.979 1825.48 824.438 1825.93 823.739C1826.39 823.041 1826.63 822.22 1826.63 821.278C1826.63 820.37 1826.43 819.58 1826.02 818.908C1825.62 818.235 1825.05 817.712 1824.32 817.336C1823.6 816.961 1822.74 816.773 1821.75 816.773C1820.83 816.773 1819.96 816.943 1819.14 817.284C1818.32 817.616 1817.66 818.1 1817.15 818.737C1816.63 819.366 1816.35 820.125 1816.31 821.016H1813.17C1813.22 819.61 1813.64 818.379 1814.44 817.323C1815.23 816.258 1816.27 815.429 1817.55 814.835C1818.84 814.242 1820.26 813.945 1821.81 813.945C1823.47 813.945 1824.89 814.281 1826.08 814.953C1827.26 815.616 1828.18 816.494 1828.81 817.585C1829.45 818.676 1829.77 819.855 1829.77 821.12C1829.77 822.631 1829.37 823.918 1828.58 824.983C1827.79 826.048 1826.72 826.786 1825.37 827.196V827.406C1827.06 827.685 1828.39 828.405 1829.34 829.566C1830.29 830.719 1830.76 832.146 1830.76 833.848C1830.76 835.306 1830.37 836.616 1829.57 837.777C1828.79 838.929 1827.71 839.837 1826.35 840.5C1824.99 841.164 1823.44 841.495 1821.7 841.495ZM1844.71 841.495C1842.91 841.495 1841.32 841.177 1839.94 840.539C1838.57 839.893 1837.5 839.007 1836.73 837.881C1835.97 836.746 1835.59 835.454 1835.6 834.005C1835.59 832.871 1835.81 831.823 1836.26 830.863C1836.72 829.894 1837.34 829.086 1838.12 828.44C1838.92 827.786 1839.8 827.371 1840.78 827.196V827.039C1839.5 826.707 1838.48 825.987 1837.72 824.879C1836.96 823.761 1836.58 822.491 1836.59 821.068C1836.58 819.706 1836.93 818.489 1837.63 817.415C1838.32 816.341 1839.28 815.494 1840.51 814.874C1841.74 814.255 1843.14 813.945 1844.71 813.945C1846.26 813.945 1847.65 814.255 1848.87 814.874C1850.1 815.494 1851.06 816.341 1851.75 817.415C1852.46 818.489 1852.82 819.706 1852.83 821.068C1852.82 822.491 1852.43 823.761 1851.66 824.879C1850.9 825.987 1849.89 826.707 1848.64 827.039V827.196C1849.61 827.371 1850.48 827.786 1851.26 828.44C1852.03 829.086 1852.65 829.894 1853.12 830.863C1853.58 831.823 1853.81 832.871 1853.82 834.005C1853.81 835.454 1853.42 836.746 1852.64 837.881C1851.88 839.007 1850.81 839.893 1849.44 840.539C1848.07 841.177 1846.5 841.495 1844.71 841.495ZM1844.71 838.615C1845.92 838.615 1846.97 838.418 1847.85 838.025C1848.73 837.633 1849.41 837.078 1849.89 836.362C1850.37 835.647 1850.62 834.808 1850.63 833.848C1850.62 832.836 1850.36 831.941 1849.84 831.164C1849.33 830.387 1848.62 829.776 1847.73 829.331C1846.85 828.885 1845.84 828.663 1844.71 828.663C1843.57 828.663 1842.54 828.885 1841.65 829.331C1840.75 829.776 1840.05 830.387 1839.54 831.164C1839.03 831.941 1838.78 832.836 1838.79 833.848C1838.78 834.808 1839.01 835.647 1839.48 836.362C1839.96 837.078 1840.65 837.633 1841.54 838.025C1842.43 838.418 1843.49 838.615 1844.71 838.615ZM1844.71 825.887C1845.67 825.887 1846.52 825.695 1847.26 825.311C1848.01 824.927 1848.6 824.39 1849.03 823.7C1849.46 823.01 1849.68 822.203 1849.69 821.278C1849.68 820.37 1849.46 819.58 1849.04 818.908C1848.62 818.227 1848.04 817.703 1847.3 817.336C1846.56 816.961 1845.7 816.773 1844.71 816.773C1843.71 816.773 1842.83 816.961 1842.08 817.336C1841.33 817.703 1840.75 818.227 1840.34 818.908C1839.93 819.58 1839.72 820.37 1839.73 821.278C1839.72 822.203 1839.93 823.01 1840.35 823.7C1840.78 824.39 1841.37 824.927 1842.12 825.311C1842.87 825.695 1843.73 825.887 1844.71 825.887Z" fill="#5E5E5E"/>
<path d="M1812.64 715.323V712.966L1821.49 703.276C1822.53 702.141 1823.39 701.155 1824.06 700.317C1824.73 699.47 1825.23 698.676 1825.55 697.934C1825.88 697.183 1826.05 696.397 1826.05 695.577C1826.05 694.634 1825.82 693.818 1825.37 693.128C1824.92 692.438 1824.31 691.906 1823.54 691.53C1822.76 691.155 1821.89 690.967 1820.92 690.967C1819.89 690.967 1818.99 691.181 1818.22 691.609C1817.46 692.028 1816.87 692.617 1816.45 693.377C1816.04 694.136 1815.84 695.027 1815.84 696.048H1812.75C1812.75 694.477 1813.11 693.097 1813.83 691.91C1814.56 690.723 1815.54 689.798 1816.79 689.134C1818.05 688.471 1819.46 688.139 1821.02 688.139C1822.59 688.139 1823.99 688.471 1825.2 689.134C1826.41 689.798 1827.36 690.692 1828.05 691.819C1828.74 692.945 1829.09 694.197 1829.09 695.577C1829.09 696.563 1828.91 697.528 1828.55 698.471C1828.2 699.405 1827.59 700.448 1826.72 701.6C1825.85 702.744 1824.65 704.14 1823.12 705.79L1817.09 712.233V712.442H1829.56V715.323H1812.64ZM1843.56 715.69C1841.76 715.69 1840.17 715.371 1838.79 714.734C1837.42 714.088 1836.35 713.202 1835.58 712.076C1834.81 710.941 1834.43 709.649 1834.44 708.2C1834.43 707.065 1834.66 706.017 1835.11 705.057C1835.57 704.088 1836.18 703.281 1836.97 702.635C1837.77 701.98 1838.65 701.565 1839.63 701.391V701.233C1838.35 700.902 1837.32 700.182 1836.56 699.073C1835.81 697.955 1835.43 696.685 1835.44 695.262C1835.43 693.901 1835.77 692.683 1836.47 691.609C1837.17 690.535 1838.13 689.689 1839.35 689.069C1840.58 688.449 1841.99 688.139 1843.56 688.139C1845.11 688.139 1846.5 688.449 1847.72 689.069C1848.94 689.689 1849.9 690.535 1850.6 691.609C1851.31 692.683 1851.67 693.901 1851.68 695.262C1851.67 696.685 1851.28 697.955 1850.51 699.073C1849.75 700.182 1848.74 700.902 1847.49 701.233V701.391C1848.45 701.565 1849.33 701.98 1850.1 702.635C1850.88 703.281 1851.5 704.088 1851.96 705.057C1852.43 706.017 1852.66 707.065 1852.67 708.2C1852.66 709.649 1852.27 710.941 1851.49 712.076C1850.72 713.202 1849.65 714.088 1848.28 714.734C1846.92 715.371 1845.35 715.69 1843.56 715.69ZM1843.56 712.809C1844.77 712.809 1845.82 712.612 1846.7 712.22C1847.58 711.827 1848.26 711.272 1848.74 710.557C1849.22 709.841 1849.47 709.003 1849.48 708.043C1849.47 707.03 1849.21 706.135 1848.69 705.358C1848.18 704.581 1847.47 703.97 1846.58 703.525C1845.7 703.08 1844.69 702.857 1843.56 702.857C1842.41 702.857 1841.39 703.08 1840.49 703.525C1839.6 703.97 1838.9 704.581 1838.38 705.358C1837.88 706.135 1837.63 707.03 1837.64 708.043C1837.63 709.003 1837.86 709.841 1838.33 710.557C1838.81 711.272 1839.5 711.827 1840.39 712.22C1841.28 712.612 1842.33 712.809 1843.56 712.809ZM1843.56 700.081C1844.52 700.081 1845.37 699.889 1846.11 699.505C1846.86 699.121 1847.45 698.584 1847.88 697.894C1848.31 697.205 1848.52 696.397 1848.53 695.472C1848.52 694.564 1848.31 693.774 1847.89 693.102C1847.47 692.421 1846.89 691.897 1846.15 691.53C1845.41 691.155 1844.54 690.967 1843.56 690.967C1842.55 690.967 1841.68 691.155 1840.93 691.53C1840.17 691.897 1839.59 692.421 1839.18 693.102C1838.77 693.774 1838.57 694.564 1838.58 695.472C1838.57 696.397 1838.78 697.205 1839.2 697.894C1839.62 698.584 1840.21 699.121 1840.96 699.505C1841.72 699.889 1842.58 700.081 1843.56 700.081Z" fill="#5E5E5E"/>
<path d="M1693.34 715.323V712.966L1702.2 703.276C1703.23 702.141 1704.09 701.155 1704.76 700.317C1705.43 699.47 1705.93 698.676 1706.26 697.934C1706.59 697.183 1706.75 696.397 1706.75 695.577C1706.75 694.634 1706.53 693.818 1706.07 693.128C1705.63 692.438 1705.02 691.906 1704.24 691.53C1703.46 691.155 1702.59 690.967 1701.62 690.967C1700.59 690.967 1699.69 691.181 1698.92 691.609C1698.16 692.028 1697.57 692.617 1697.15 693.377C1696.74 694.136 1696.54 695.027 1696.54 696.048H1693.45C1693.45 694.477 1693.81 693.097 1694.54 691.91C1695.26 690.723 1696.25 689.798 1697.5 689.134C1698.75 688.471 1700.16 688.139 1701.72 688.139C1703.3 688.139 1704.69 688.471 1705.9 689.134C1707.12 689.798 1708.07 690.692 1708.76 691.819C1709.45 692.945 1709.79 694.197 1709.79 695.577C1709.79 696.563 1709.61 697.528 1709.25 698.471C1708.9 699.405 1708.29 700.448 1707.42 701.6C1706.56 702.744 1705.36 704.14 1703.82 705.79L1697.8 712.233V712.442H1710.26V715.323H1693.34ZM1716.51 715.323L1728.5 691.596V691.386H1714.68V688.506H1731.85V691.544L1719.91 715.323H1716.51Z" fill="#5E5E5E"/>
<path d="M1552.36 715.323V712.966L1561.21 703.276C1562.25 702.141 1563.1 701.155 1563.77 700.317C1564.45 699.47 1564.94 698.676 1565.27 697.934C1565.6 697.183 1565.76 696.397 1565.76 695.577C1565.76 694.634 1565.54 693.818 1565.08 693.128C1564.64 692.438 1564.03 691.906 1563.25 691.53C1562.47 691.155 1561.6 690.967 1560.63 690.967C1559.6 690.967 1558.7 691.181 1557.93 691.609C1557.17 692.028 1556.58 692.617 1556.17 693.377C1555.76 694.136 1555.55 695.027 1555.55 696.048H1552.46C1552.46 694.477 1552.82 693.097 1553.55 691.91C1554.27 690.723 1555.26 689.798 1556.51 689.134C1557.76 688.471 1559.17 688.139 1560.74 688.139C1562.31 688.139 1563.7 688.471 1564.91 689.134C1566.13 689.798 1567.08 690.692 1567.77 691.819C1568.46 692.945 1568.8 694.197 1568.8 695.577C1568.8 696.563 1568.62 697.528 1568.26 698.471C1567.92 699.405 1567.3 700.448 1566.43 701.6C1565.57 702.744 1564.37 704.14 1562.83 705.79L1556.81 712.233V712.442H1569.27V715.323H1552.36ZM1583.59 715.69C1582.49 715.672 1581.39 715.463 1580.29 715.061C1579.19 714.66 1578.18 713.983 1577.27 713.031C1576.37 712.071 1575.64 710.775 1575.09 709.142C1574.54 707.501 1574.26 705.441 1574.26 702.962C1574.26 700.587 1574.48 698.484 1574.93 696.65C1575.38 694.808 1576.02 693.259 1576.87 692.002C1577.71 690.736 1578.74 689.776 1579.93 689.121C1581.14 688.466 1582.49 688.139 1584 688.139C1585.51 688.139 1586.84 688.44 1588.01 689.043C1589.19 689.636 1590.15 690.465 1590.89 691.53C1591.63 692.596 1592.11 693.822 1592.33 695.21H1589.14C1588.84 694.005 1588.26 693.006 1587.41 692.211C1586.55 691.417 1585.42 691.02 1584 691.02C1581.93 691.02 1580.29 691.923 1579.09 693.73C1577.91 695.537 1577.31 698.073 1577.3 701.338H1577.51C1578 700.596 1578.58 699.963 1579.25 699.44C1579.93 698.907 1580.68 698.497 1581.5 698.209C1582.32 697.921 1583.19 697.777 1584.11 697.777C1585.65 697.777 1587.05 698.161 1588.33 698.929C1589.6 699.688 1590.62 700.74 1591.39 702.085C1592.16 703.42 1592.54 704.952 1592.54 706.681C1592.54 708.339 1592.17 709.858 1591.43 711.238C1590.69 712.608 1589.64 713.699 1588.3 714.511C1586.96 715.314 1585.39 715.707 1583.59 715.69ZM1583.59 712.809C1584.69 712.809 1585.67 712.534 1586.54 711.984C1587.43 711.434 1588.12 710.696 1588.63 709.771C1589.14 708.846 1589.4 707.816 1589.4 706.681C1589.4 705.572 1589.15 704.564 1588.65 703.656C1588.16 702.739 1587.49 702.01 1586.62 701.469C1585.77 700.928 1584.79 700.657 1583.69 700.657C1582.86 700.657 1582.09 700.823 1581.37 701.155C1580.66 701.478 1580.03 701.923 1579.49 702.49C1578.95 703.058 1578.54 703.708 1578.23 704.442C1577.92 705.166 1577.77 705.93 1577.77 706.733C1577.77 707.798 1578.02 708.793 1578.52 709.719C1579.02 710.644 1579.71 711.39 1580.59 711.958C1581.47 712.525 1582.47 712.809 1583.59 712.809Z" fill="#5E5E5E"/>
<path d="M1428.72 715.323V712.966L1437.57 703.276C1438.61 702.141 1439.47 701.155 1440.14 700.317C1440.81 699.47 1441.31 698.676 1441.63 697.934C1441.96 697.183 1442.13 696.397 1442.13 695.577C1442.13 694.634 1441.9 693.818 1441.45 693.128C1441 692.438 1440.39 691.906 1439.61 691.53C1438.84 691.155 1437.96 690.967 1437 690.967C1435.96 690.967 1435.07 691.181 1434.3 691.609C1433.54 692.028 1432.95 692.617 1432.53 693.377C1432.12 694.136 1431.91 695.027 1431.91 696.048H1428.82C1428.82 694.477 1429.19 693.097 1429.91 691.91C1430.64 690.723 1431.62 689.798 1432.87 689.134C1434.13 688.471 1435.54 688.139 1437.1 688.139C1438.67 688.139 1440.06 688.471 1441.28 689.134C1442.49 689.798 1443.44 690.692 1444.13 691.819C1444.82 692.945 1445.17 694.197 1445.17 695.577C1445.17 696.563 1444.99 697.528 1444.63 698.471C1444.28 699.405 1443.67 700.448 1442.8 701.6C1441.93 702.744 1440.73 704.14 1439.19 705.79L1433.17 712.233V712.442H1445.64V715.323H1428.72ZM1459.43 715.69C1457.89 715.69 1456.51 715.384 1455.27 714.773C1454.04 714.162 1453.06 713.324 1452.32 712.259C1451.57 711.194 1451.17 709.98 1451.1 708.619H1454.24C1454.36 709.832 1454.91 710.836 1455.89 711.63C1456.88 712.416 1458.06 712.809 1459.43 712.809C1460.53 712.809 1461.5 712.551 1462.36 712.036C1463.22 711.521 1463.9 710.814 1464.39 709.915C1464.89 709.007 1465.13 707.981 1465.13 706.838C1465.13 705.668 1464.88 704.625 1464.36 703.708C1463.86 702.783 1463.16 702.054 1462.27 701.522C1461.38 700.989 1460.36 700.718 1459.22 700.71C1458.4 700.701 1457.55 700.828 1456.69 701.089C1455.82 701.343 1455.11 701.67 1454.55 702.071L1451.52 701.705L1453.14 688.506H1467.07V691.386H1455.86L1454.92 699.295H1455.08C1455.63 698.859 1456.32 698.497 1457.15 698.209C1457.98 697.921 1458.84 697.777 1459.74 697.777C1461.38 697.777 1462.84 698.169 1464.13 698.955C1465.42 699.732 1466.43 700.797 1467.16 702.15C1467.91 703.503 1468.28 705.048 1468.28 706.785C1468.28 708.496 1467.89 710.024 1467.13 711.368C1466.37 712.704 1465.32 713.76 1463.98 714.537C1462.65 715.306 1461.13 715.69 1459.43 715.69Z" fill="#5E5E5E"/>
<path d="M1341.96 715.323V712.966L1350.81 703.276C1351.85 702.141 1352.7 701.155 1353.38 700.317C1354.05 699.47 1354.55 698.676 1354.87 697.934C1355.2 697.183 1355.37 696.397 1355.37 695.577C1355.37 694.634 1355.14 693.818 1354.69 693.128C1354.24 692.438 1353.63 691.906 1352.85 691.53C1352.08 691.155 1351.2 690.967 1350.23 690.967C1349.2 690.967 1348.3 691.181 1347.54 691.609C1346.78 692.028 1346.19 692.617 1345.77 693.377C1345.36 694.136 1345.15 695.027 1345.15 696.048H1342.06C1342.06 694.477 1342.42 693.097 1343.15 691.91C1343.87 690.723 1344.86 689.798 1346.11 689.134C1347.37 688.471 1348.78 688.139 1350.34 688.139C1351.91 688.139 1353.3 688.471 1354.52 689.134C1355.73 689.798 1356.68 690.692 1357.37 691.819C1358.06 692.945 1358.4 694.197 1358.4 695.577C1358.4 696.563 1358.23 697.528 1357.87 698.471C1357.52 699.405 1356.91 700.448 1356.03 701.6C1355.17 702.744 1353.97 704.14 1352.43 705.79L1346.41 712.233V712.442H1358.88V715.323H1341.96ZM1363.08 709.823V707.152L1374.86 688.506H1376.8V692.644H1375.49L1366.59 706.733V706.943H1382.46V709.823H1363.08ZM1375.7 715.323V709.012V707.768V688.506H1378.79V715.323H1375.7Z" fill="#5E5E5E"/>
<path d="M1253.03 715.323V712.966L1261.88 703.276C1262.92 702.141 1263.77 701.155 1264.45 700.317C1265.12 699.47 1265.62 698.676 1265.94 697.934C1266.27 697.183 1266.44 696.397 1266.44 695.577C1266.44 694.634 1266.21 693.818 1265.75 693.128C1265.31 692.438 1264.7 691.906 1263.92 691.53C1263.14 691.155 1262.27 690.967 1261.3 690.967C1260.27 690.967 1259.37 691.181 1258.61 691.609C1257.85 692.028 1257.26 692.617 1256.84 693.377C1256.43 694.136 1256.22 695.027 1256.22 696.048H1253.13C1253.13 694.477 1253.49 693.097 1254.22 691.91C1254.94 690.723 1255.93 689.798 1257.18 689.134C1258.43 688.471 1259.84 688.139 1261.41 688.139C1262.98 688.139 1264.37 688.471 1265.58 689.134C1266.8 689.798 1267.75 690.692 1268.44 691.819C1269.13 692.945 1269.47 694.197 1269.47 695.577C1269.47 696.563 1269.29 697.528 1268.94 698.471C1268.59 699.405 1267.98 700.448 1267.1 701.6C1266.24 702.744 1265.04 704.14 1263.5 705.79L1257.48 712.233V712.442H1269.94V715.323H1253.03ZM1284.41 715.69C1282.69 715.69 1281.15 715.393 1279.79 714.799C1278.45 714.206 1277.38 713.381 1276.58 712.324C1275.8 711.259 1275.37 710.024 1275.3 708.619H1278.6C1278.67 709.483 1278.97 710.229 1279.49 710.858C1280.01 711.478 1280.7 711.958 1281.55 712.298C1282.39 712.639 1283.33 712.809 1284.36 712.809C1285.51 712.809 1286.54 712.608 1287.43 712.207C1288.32 711.805 1289.01 711.246 1289.52 710.53C1290.03 709.815 1290.28 708.985 1290.28 708.043C1290.28 707.056 1290.04 706.187 1289.55 705.437C1289.06 704.677 1288.34 704.084 1287.4 703.656C1286.46 703.228 1285.3 703.014 1283.94 703.014H1281.8V700.134H1283.94C1285.01 700.134 1285.94 699.941 1286.75 699.557C1287.56 699.173 1288.19 698.632 1288.64 697.934C1289.11 697.235 1289.34 696.415 1289.34 695.472C1289.34 694.564 1289.14 693.774 1288.74 693.102C1288.33 692.43 1287.77 691.906 1287.03 691.53C1286.31 691.155 1285.45 690.967 1284.47 690.967C1283.54 690.967 1282.67 691.138 1281.85 691.478C1281.04 691.81 1280.37 692.294 1279.86 692.932C1279.34 693.56 1279.06 694.32 1279.02 695.21H1275.88C1275.93 693.805 1276.35 692.574 1277.15 691.517C1277.94 690.452 1278.98 689.623 1280.26 689.029C1281.56 688.436 1282.97 688.139 1284.52 688.139C1286.18 688.139 1287.6 688.475 1288.79 689.147C1289.97 689.811 1290.89 690.688 1291.52 691.779C1292.16 692.87 1292.48 694.049 1292.48 695.315C1292.48 696.825 1292.08 698.113 1291.29 699.178C1290.5 700.243 1289.43 700.98 1288.08 701.391V701.6C1289.77 701.879 1291.1 702.6 1292.05 703.761C1293 704.913 1293.48 706.34 1293.48 708.043C1293.48 709.5 1293.08 710.81 1292.28 711.971C1291.5 713.123 1290.42 714.031 1289.06 714.694C1287.7 715.358 1286.15 715.69 1284.41 715.69Z" fill="#5E5E5E"/>
<path d="M1170.6 715.323V712.966L1179.45 703.276C1180.49 702.141 1181.35 701.155 1182.02 700.317C1182.69 699.47 1183.19 698.676 1183.51 697.934C1183.85 697.183 1184.01 696.397 1184.01 695.577C1184.01 694.634 1183.78 693.818 1183.33 693.128C1182.89 692.438 1182.27 691.906 1181.5 691.53C1180.72 691.155 1179.85 690.967 1178.88 690.967C1177.85 690.967 1176.95 691.181 1176.18 691.609C1175.42 692.028 1174.83 692.617 1174.41 693.377C1174 694.136 1173.8 695.027 1173.8 696.048H1170.71C1170.71 694.477 1171.07 693.097 1171.79 691.91C1172.52 690.723 1173.51 689.798 1174.75 689.134C1176.01 688.471 1177.42 688.139 1178.98 688.139C1180.55 688.139 1181.95 688.471 1183.16 689.134C1184.37 689.798 1185.33 690.692 1186.02 691.819C1186.7 692.945 1187.05 694.197 1187.05 695.577C1187.05 696.563 1186.87 697.528 1186.51 698.471C1186.16 699.405 1185.55 700.448 1184.68 701.6C1183.82 702.744 1182.62 704.14 1181.08 705.79L1175.06 712.233V712.442H1187.52V715.323H1170.6ZM1192.93 715.323V712.966L1201.78 703.276C1202.82 702.141 1203.68 701.155 1204.35 700.317C1205.02 699.47 1205.52 698.676 1205.84 697.934C1206.17 697.183 1206.34 696.397 1206.34 695.577C1206.34 694.634 1206.11 693.818 1205.66 693.128C1205.21 692.438 1204.6 691.906 1203.82 691.53C1203.05 691.155 1202.17 690.967 1201.2 690.967C1200.17 690.967 1199.28 691.181 1198.51 691.609C1197.75 692.028 1197.16 692.617 1196.74 693.377C1196.33 694.136 1196.12 695.027 1196.12 696.048H1193.03C1193.03 694.477 1193.4 693.097 1194.12 691.91C1194.85 690.723 1195.83 689.798 1197.08 689.134C1198.34 688.471 1199.75 688.139 1201.31 688.139C1202.88 688.139 1204.27 688.471 1205.49 689.134C1206.7 689.798 1207.65 690.692 1208.34 691.819C1209.03 692.945 1209.38 694.197 1209.38 695.577C1209.38 696.563 1209.2 697.528 1208.84 698.471C1208.49 699.405 1207.88 700.448 1207.01 701.6C1206.14 702.744 1204.94 704.14 1203.4 705.79L1197.38 712.233V712.442H1209.85V715.323H1192.93Z" fill="#5E5E5E"/>
<path d="M1079.5 715.323V712.966L1088.36 703.276C1089.39 702.141 1090.25 701.155 1090.92 700.317C1091.59 699.47 1092.09 698.676 1092.41 697.934C1092.75 697.183 1092.91 696.397 1092.91 695.577C1092.91 694.634 1092.69 693.818 1092.23 693.128C1091.79 692.438 1091.18 691.906 1090.4 691.53C1089.62 691.155 1088.75 690.967 1087.78 690.967C1086.75 690.967 1085.85 691.181 1085.08 691.609C1084.32 692.028 1083.73 692.617 1083.31 693.377C1082.9 694.136 1082.7 695.027 1082.7 696.048H1079.61C1079.61 694.477 1079.97 693.097 1080.7 691.91C1081.42 690.723 1082.41 689.798 1083.65 689.134C1084.91 688.471 1086.32 688.139 1087.88 688.139C1089.46 688.139 1090.85 688.471 1092.06 689.134C1093.27 689.798 1094.23 690.692 1094.92 691.819C1095.61 692.945 1095.95 694.197 1095.95 695.577C1095.95 696.563 1095.77 697.528 1095.41 698.471C1095.06 699.405 1094.45 700.448 1093.58 701.6C1092.72 702.744 1091.52 704.14 1089.98 705.79L1083.96 712.233V712.442H1096.42V715.323H1079.5ZM1111.26 688.506V715.323H1108.01V691.91H1107.85L1101.31 696.258V692.958L1108.01 688.506H1111.26Z" fill="#5E5E5E"/>
<path d="M993.881 688.506V715.323H990.633V691.91H990.476L983.929 696.258V692.958L990.633 688.506H993.881ZM1011.02 688.506V715.323H1007.77V691.91H1007.62L1001.07 696.258V692.958L1007.77 688.506H1011.02Z" fill="#5E5E5E"/>
<path d="M901.413 688.506V715.323H898.166V691.91H898.008L891.461 696.258V692.958L898.166 688.506H901.413ZM909.126 715.323V712.966L917.977 703.276C919.016 702.141 919.872 701.155 920.544 700.317C921.216 699.47 921.714 698.676 922.037 697.934C922.368 697.183 922.534 696.397 922.534 695.577C922.534 694.634 922.307 693.818 921.853 693.128C921.408 692.438 920.797 691.906 920.02 691.53C919.243 691.155 918.37 690.967 917.401 690.967C916.371 690.967 915.472 691.181 914.704 691.609C913.944 692.028 913.355 692.617 912.936 693.377C912.526 694.136 912.321 695.027 912.321 696.048H909.23C909.23 694.477 909.593 693.097 910.317 691.91C911.042 690.723 912.028 689.798 913.276 689.134C914.534 688.471 915.943 688.139 917.506 688.139C919.077 688.139 920.47 688.471 921.683 689.134C922.896 689.798 923.848 690.692 924.538 691.819C925.227 692.945 925.572 694.197 925.572 695.577C925.572 696.563 925.393 697.528 925.035 698.471C924.686 699.405 924.075 700.448 923.202 701.6C922.338 702.744 921.137 704.14 919.601 705.79L913.578 712.233V712.442H926.044V715.323H909.126Z" fill="#5E5E5E"/>
<path d="M818.989 688.506V715.323H815.742V691.91H815.585L809.037 696.258V692.958L815.742 688.506H818.989ZM835.763 715.69C834.035 715.69 832.494 715.393 831.141 714.799C829.796 714.206 828.727 713.381 827.933 712.324C827.147 711.259 826.719 710.024 826.649 708.619H829.949C830.019 709.483 830.316 710.229 830.84 710.858C831.363 711.478 832.049 711.958 832.895 712.298C833.742 712.639 834.681 712.809 835.711 712.809C836.863 712.809 837.884 712.608 838.775 712.207C839.665 711.805 840.364 711.246 840.87 710.53C841.376 709.815 841.629 708.985 841.629 708.043C841.629 707.056 841.385 706.187 840.896 705.437C840.407 704.677 839.691 704.084 838.749 703.656C837.806 703.228 836.654 703.014 835.292 703.014H833.144V700.134H835.292C836.357 700.134 837.291 699.941 838.094 699.557C838.906 699.173 839.539 698.632 839.993 697.934C840.455 697.235 840.687 696.415 840.687 695.472C840.687 694.564 840.486 693.774 840.084 693.102C839.683 692.43 839.115 691.906 838.382 691.53C837.657 691.155 836.802 690.967 835.815 690.967C834.89 690.967 834.017 691.138 833.197 691.478C832.385 691.81 831.721 692.294 831.206 692.932C830.691 693.56 830.412 694.32 830.368 695.21H827.226C827.278 693.805 827.701 692.574 828.496 691.517C829.29 690.452 830.329 689.623 831.612 689.029C832.904 688.436 834.323 688.139 835.868 688.139C837.526 688.139 838.949 688.475 840.137 689.147C841.324 689.811 842.236 690.688 842.873 691.779C843.511 692.87 843.829 694.049 843.829 695.315C843.829 696.825 843.432 698.113 842.638 699.178C841.852 700.243 840.783 700.98 839.43 701.391V701.6C841.123 701.879 842.446 702.6 843.397 703.761C844.349 704.913 844.824 706.34 844.824 708.043C844.824 709.5 844.427 710.81 843.633 711.971C842.847 713.123 841.773 714.031 840.412 714.694C839.05 715.358 837.5 715.69 835.763 715.69Z" fill="#5E5E5E"/>
<path d="M730.057 688.506V715.323H726.81V691.91H726.653L720.106 696.258V692.958L726.81 688.506H730.057ZM737.142 709.823V707.152L748.926 688.506H750.864V692.644H749.555L740.651 706.733V706.943H756.521V709.823H737.142ZM749.765 715.323V709.012V707.768V688.506H752.855V715.323H749.765Z" fill="#5E5E5E"/>
<path d="M643.296 688.506V715.323H640.048V691.91H639.891L633.344 696.258V692.958L640.048 688.506H643.296ZM659.389 715.69C657.852 715.69 656.469 715.384 655.238 714.773C654.007 714.162 653.021 713.324 652.279 712.259C651.537 711.194 651.131 709.98 651.061 708.619H654.203C654.326 709.832 654.876 710.836 655.853 711.63C656.84 712.416 658.018 712.809 659.389 712.809C660.489 712.809 661.466 712.551 662.322 712.036C663.186 711.521 663.863 710.814 664.352 709.915C664.849 709.007 665.098 707.981 665.098 706.838C665.098 705.668 664.84 704.625 664.325 703.708C663.819 702.783 663.121 702.054 662.23 701.522C661.34 700.989 660.323 700.718 659.179 700.71C658.359 700.701 657.516 700.828 656.652 701.089C655.788 701.343 655.076 701.67 654.518 702.071L651.48 701.705L653.103 688.506H667.036V691.386H655.827L654.884 699.295H655.041C655.591 698.859 656.281 698.497 657.11 698.209C657.94 697.921 658.804 697.777 659.703 697.777C661.344 697.777 662.806 698.169 664.09 698.955C665.382 699.732 666.394 700.797 667.128 702.15C667.87 703.503 668.241 705.048 668.241 706.785C668.241 708.496 667.856 710.024 667.088 711.368C666.329 712.704 665.281 713.76 663.946 714.537C662.61 715.306 661.091 715.69 659.389 715.69Z" fill="#5E5E5E"/>
<path d="M519.66 688.506V715.323H516.413V691.91H516.256L509.708 696.258V692.958L516.413 688.506H519.66ZM536.277 715.69C535.177 715.672 534.077 715.463 532.977 715.061C531.877 714.66 530.873 713.983 529.965 713.031C529.057 712.071 528.329 710.775 527.779 709.142C527.229 707.501 526.954 705.441 526.954 702.962C526.954 700.587 527.176 698.484 527.621 696.65C528.067 694.808 528.713 693.259 529.559 692.002C530.406 690.736 531.428 689.776 532.624 689.121C533.828 688.466 535.186 688.139 536.696 688.139C538.197 688.139 539.533 688.44 540.703 689.043C541.881 689.636 542.841 690.465 543.584 691.53C544.326 692.596 544.806 693.822 545.024 695.21H541.829C541.532 694.005 540.956 693.006 540.1 692.211C539.245 691.417 538.11 691.02 536.696 691.02C534.618 691.02 532.981 691.923 531.785 693.73C530.598 695.537 530 698.073 529.992 701.338H530.201C530.69 700.596 531.27 699.963 531.943 699.44C532.624 698.907 533.374 698.497 534.195 698.209C535.015 697.921 535.884 697.777 536.801 697.777C538.337 697.777 539.742 698.161 541.017 698.929C542.292 699.688 543.313 700.74 544.081 702.085C544.849 703.42 545.233 704.952 545.233 706.681C545.233 708.339 544.862 709.858 544.12 711.238C543.378 712.608 542.335 713.699 540.991 714.511C539.655 715.314 538.084 715.707 536.277 715.69ZM536.277 712.809C537.377 712.809 538.363 712.534 539.236 711.984C540.118 711.434 540.812 710.696 541.318 709.771C541.833 708.846 542.091 707.816 542.091 706.681C542.091 705.572 541.842 704.564 541.344 703.656C540.856 702.739 540.179 702.01 539.315 701.469C538.459 700.928 537.482 700.657 536.382 700.657C535.552 700.657 534.78 700.823 534.064 701.155C533.348 701.478 532.72 701.923 532.178 702.49C531.646 703.058 531.227 703.708 530.921 704.442C530.616 705.166 530.463 705.93 530.463 706.733C530.463 707.798 530.712 708.793 531.209 709.719C531.716 710.644 532.405 711.39 533.278 711.958C534.16 712.525 535.159 712.809 536.277 712.809Z" fill="#5E5E5E"/>
<path d="M378.672 688.506V715.323H375.424V691.91H375.267L368.72 696.258V692.958L375.424 688.506H378.672ZM387.222 715.323L399.217 691.596V691.386H385.389V688.506H402.569V691.544L390.627 715.323H387.222Z" fill="#5E5E5E"/>
<path d="M259.374 688.506V715.323H256.126V691.91H255.969L249.422 696.258V692.958L256.126 688.506H259.374ZM275.676 715.69C273.878 715.69 272.289 715.371 270.91 714.734C269.54 714.088 268.47 713.202 267.702 712.076C266.934 710.941 266.554 709.649 266.563 708.2C266.554 707.065 266.777 706.017 267.231 705.057C267.684 704.088 268.304 703.281 269.09 702.635C269.884 701.98 270.77 701.565 271.748 701.391V701.233C270.465 700.902 269.443 700.182 268.684 699.073C267.925 697.955 267.549 696.685 267.558 695.262C267.549 693.901 267.894 692.683 268.592 691.609C269.291 690.535 270.251 689.689 271.473 689.069C272.704 688.449 274.105 688.139 275.676 688.139C277.23 688.139 278.618 688.449 279.84 689.069C281.063 689.689 282.023 690.535 282.721 691.609C283.428 692.683 283.786 693.901 283.795 695.262C283.786 696.685 283.398 697.955 282.63 699.073C281.87 700.182 280.862 700.902 279.605 701.233V701.391C280.574 701.565 281.447 701.98 282.224 702.635C283.001 703.281 283.62 704.088 284.083 705.057C284.546 706.017 284.781 707.065 284.79 708.2C284.781 709.649 284.389 710.941 283.612 712.076C282.843 713.202 281.774 714.088 280.403 714.734C279.042 715.371 277.466 715.69 275.676 715.69ZM275.676 712.809C276.89 712.809 277.937 712.612 278.819 712.22C279.701 711.827 280.382 711.272 280.862 710.557C281.342 709.841 281.586 709.003 281.595 708.043C281.586 707.03 281.324 706.135 280.809 705.358C280.294 704.581 279.592 703.97 278.701 703.525C277.82 703.08 276.811 702.857 275.676 702.857C274.533 702.857 273.511 703.08 272.612 703.525C271.722 703.97 271.019 704.581 270.504 705.358C269.998 706.135 269.749 707.03 269.758 708.043C269.749 709.003 269.98 709.841 270.452 710.557C270.932 711.272 271.617 711.827 272.508 712.22C273.398 712.612 274.454 712.809 275.676 712.809ZM275.676 700.081C276.637 700.081 277.488 699.889 278.23 699.505C278.981 699.121 279.57 698.584 279.998 697.894C280.425 697.205 280.644 696.397 280.652 695.472C280.644 694.564 280.43 693.774 280.011 693.102C279.592 692.421 279.011 691.897 278.269 691.53C277.527 691.155 276.663 690.967 275.676 690.967C274.673 690.967 273.795 691.155 273.044 691.53C272.294 691.897 271.713 692.421 271.303 693.102C270.893 693.774 270.692 694.564 270.701 695.472C270.692 696.397 270.897 697.205 271.316 697.894C271.744 698.584 272.333 699.121 273.084 699.505C273.834 699.889 274.699 700.081 275.676 700.081Z" fill="#5E5E5E"/>
</svg>
