<svg width="72" height="186" viewBox="0 0 72 186" fill="none" xmlns="http://www.w3.org/2000/svg">
<path d="M23.1693 168.56C33.7794 172.509 46.6664 169.797 51.7837 167.946C54.9592 155.026 54.7429 96.3908 54.2378 68.6884C52.5549 43.555 46.6331 -4.97018 36.4097 1.99658C26.1863 8.96334 22.0824 32.4268 21.3083 43.2877C17.5078 83.3995 12.5593 164.61 23.1693 168.56Z" fill="#D1A711" stroke="#D1A711"/>
<path d="M50.9207 159.217C47.1743 162.044 37.3349 166.195 27.9488 160.187C30.6763 115.914 36.0333 25.3277 35.829 14.191C35.788 12.9285 35.7868 12.7646 35.8225 13.9203C35.8251 14.0045 35.8272 14.0948 35.829 14.191C36.2248 26.3649 40.3299 140.696 50.9207 159.217Z" fill="#ECECEC" stroke="#ECECEC"/>
<path opacity="0.9" d="M62.0712 184.713H32.6875C35.3811 184.713 5.15009 184.713 3.05903 181.947C-2.79598 179.402 7.02572 145.889 21.9135 118.33C36.8012 90.7703 50.8074 106.847 55.9495 118.33C70.2496 143.475 71.3759 158.311 70.6413 165.1C70.6413 170.129 70.3965 178.762 69.6619 182.199C67.1153 185.618 63.5403 185.3 62.0712 184.713Z" fill="#D7D7D7" stroke="#606060"/>
<path opacity="0.9" d="M3.05904 181.947C-2.12345 179.694 4.97627 153.179 16.9999 128.006C19.9999 129.671 25.8999 133.4 25.4999 135C24.9999 137 19.9999 183.017 16.9999 184.23L16.7011 184.212C10.1809 183.828 3.96704 183.148 3.05904 181.947Z" stroke="#606060" stroke-width="0.5"/>
<path opacity="0.9" d="M69.6619 182.199C67.1153 185.618 63.5403 185.3 62.0711 184.713H49.4999C46.9999 180.926 51.9999 137.5 51.9999 135C51.9999 133 58.0488 129.504 61.0733 128.006C70.5211 147.355 71.2762 159.232 70.6413 165.1C70.6413 170.129 70.3965 178.762 69.6619 182.199Z" stroke="#606060" stroke-width="0.5"/>
<path opacity="0.9" d="M32.6875 184.713H49.4999C46.9999 180.926 51.9999 137.5 51.9999 135C51.9999 133 58.0488 129.504 61.0733 128.006C59.5893 124.967 57.8908 121.743 55.9495 118.33C50.8074 106.847 36.8012 90.7703 21.9134 118.33C21.2258 119.603 20.5489 120.888 19.8839 122.183C18.8953 124.108 17.9328 126.053 16.9999 128.006C19.9999 129.671 25.8999 133.4 25.4999 135C24.9999 137 19.9999 183.016 16.9999 184.23L16.701 184.212C25.1963 184.713 34.2114 184.713 32.6875 184.713Z" stroke="#606060" stroke-width="0.5"/>
<path d="M23.5 124.5C30.3333 120.833 45.8 117 53 131C46.6 98.5999 30.6667 113.167 23.5 124.5Z" fill="#4BAEB5" stroke="#4BAEB5"/>
</svg>
