<svg width="180" height="198" viewBox="0 0 180 198" fill="none" xmlns="http://www.w3.org/2000/svg">
<path d="M116.486 39.6958L141.085 31.9661C148.888 38.1857 163.481 54.374 159.431 69.3704C155.381 84.3668 163.641 102.134 168.277 109.143C174.213 128.785 183.471 170.958 173.02 182.509C162.569 194.06 146.933 184.634 140.421 178.477C99.8532 70.5911 73.9255 142.87 65.835 189.439C64.4399 192.745 58.6415 197.622 46.609 190.682C34.5764 183.742 31.0982 169.758 30.8631 163.634C29.0293 120.338 22.4145 107.61 14.9809 82.2176C9.03402 61.9035 14.5413 45.5558 18.0383 39.9212L46.4525 46.4162L81.0036 35.8504L116.486 39.6958Z" fill="#D1A711" stroke="#D1A711"/>
<path d="M47.4487 59.4761C79.2377 82.6071 100.364 65.3411 106.953 53.8167C117.129 63.8413 116.296 66.1948 118.216 71.2242C130.638 85.6785 124.598 77.7244 127.603 84.0719C129.323 87.703 148.102 151.457 158.582 182.521C103.872 21.4168 54.172 123.433 56.2344 192.255C55.1867 157.293 50.719 112.042 56.0498 99.4059C61.3806 86.7693 52.5369 67.5208 47.4487 59.4761Z" fill="#ECECEC" stroke="#ECECEC"/>
<path opacity="0.9" d="M29.5805 3.42769C10.1122 16.7147 -18.6989 53.3528 21.8024 93.6095C43.8941 115.568 88.7655 115.71 159.648 80.1579C167.658 73.0128 179.827 51.161 164.416 20.9147C163.101 16.0193 156.84 6.08041 150.276 4.71146C147.998 7.11069 140.335 13.0162 139.85 16.2787C138.256 17.1041 131.645 14.5675 129.108 14.3127C127.659 14.1671 127.374 15.8762 127.46 18.0179L127.069 14.0093C124.787 11.2177 114.356 4.19766 111.569 4.46961C110.428 3.07382 108.195 0.779887 107.2 0.87701L105.707 1.0227L75.3149 19.0597C75.2583 21.912 75.6525 27.6676 77.6819 27.8715C79.7113 28.0754 78.5115 34.6563 77.6579 37.9213L79.4787 46.284L76.6626 38.0185L76.9295 30.4568C75.9544 29.0448 74.0552 25.7135 74.2591 23.6841C74.4629 21.6547 74.3844 19.8204 74.3196 19.1568C61.822 12.0035 35.3775 -1.15701 29.5805 3.42769Z" fill="#D7D7D7" stroke="#606060"/>
<path opacity="0.9" d="M24.5824 67.1042C20.5824 69.9042 9.58235 69.2708 4.58235 68.6042L4.63834 68.6787C7.74347 76.7008 13.2149 85.0738 21.8024 93.6094C43.894 115.568 88.7655 115.71 159.648 80.1578C163.86 76.4005 169.222 68.5767 171.119 57.6041C153.119 64.0041 141.916 62.2708 138.582 60.6041C136.632 59.0718 134.908 55.3118 133.44 50.6041C115.321 59.4375 68.9824 73.7041 28.5824 60.1041L28.5154 60.073C27.2872 63.5419 25.9717 66.0417 24.5824 67.1042Z" stroke="#606060" stroke-width="0.5"/>
<path opacity="0.9" d="M127.943 22.9666C128.704 30.0271 130.693 41.794 133.44 50.6041C115.321 59.4374 68.9824 73.7041 28.5824 60.1041L28.5119 60.0831C33.2952 46.5823 36.7535 18.3789 38.081 3.1206C48.6096 5.49573 65.1878 13.9299 74.3197 19.1567C74.3844 19.8202 74.463 21.6546 74.2591 23.684C74.0552 25.7134 75.9544 29.0447 76.9295 30.4567L76.6627 38.0183L79.4788 46.2839L77.6579 37.9212C78.5115 34.6562 79.7114 28.0752 77.682 27.8714C75.6526 27.6675 75.2584 21.9119 75.315 19.0596L105.707 1.02257L107.2 0.876888C108.195 0.779765 110.428 3.0737 111.569 4.46949C114.356 4.19754 124.787 11.2176 127.069 14.0092L127.46 18.0178M127.943 22.9666C127.798 21.4737 127.525 19.6241 127.46 18.0178M127.943 22.9666L127.46 18.0178" stroke="#606060" stroke-width="0.5"/>
<path opacity="0.9" d="M171.119 57.6041C153.119 64.0041 141.916 62.2708 138.582 60.6041C136.632 59.0718 134.908 55.3118 133.44 50.6041C130.693 41.794 128.704 30.0271 127.943 22.9666C127.603 19.4832 126.571 14.0577 129.108 14.3126C131.645 14.5674 138.256 17.104 139.85 16.2786C140.335 13.016 147.998 7.11054 150.276 4.7113C156.84 6.08026 163.101 16.0191 164.416 20.9145C171.723 35.256 172.83 47.7101 171.119 57.6041Z" stroke="#606060" stroke-width="0.5"/>
<path opacity="0.9" d="M24.5824 67.1041C31.3824 61.9041 36.4157 22.2708 38.0824 3.10413C34.2012 2.22842 31.1419 2.19274 29.5805 3.4276C14.2529 13.8886 -6.89324 38.8241 4.5824 68.6041C9.5824 69.2708 20.5824 69.9041 24.5824 67.1041Z" stroke="#606060" stroke-width="0.5"/>
<path d="M24.5 78.5C43.8333 84.1667 95.3 88 146.5 58C131.667 81.5 86.5 118.5 24.5 78.5Z" fill="#4BAEB5" stroke="#4BAEB5"/>
</svg>
