<svg width="78" height="181" viewBox="0 0 78 181" fill="none" xmlns="http://www.w3.org/2000/svg">
<path d="M58.1002 30.0016C38.639 42.7587 25.3852 35.3171 19.5133 30.0016C9.02775 43.9036 14.5641 84.3829 18.255 90.9251L27.0629 97.8761C29.7193 103.192 31.032 140.717 31.032 163.942C31.032 165.714 30.4448 170.32 28.096 174.573C27.5368 176.617 27.3411 180.543 31.032 179.888C33.4087 180.297 39.756 179.807 46.1312 174.573C56.5329 167.049 60.8964 113.277 59.7779 95.8316L66.9081 90.9251C67.2437 88.3082 69.4247 45.948 58.1002 30.0016Z" fill="#D1A711" stroke="#D1A711"/>
<path d="M51.3895 48.4014C40.9878 53.6351 30.5581 50.5821 26.6435 48.4014C46.1048 91.5793 38.0651 156.035 35.5485 173.617C44.9436 144.832 52.6478 71.9802 51.3895 48.4014Z" fill="#ECECEC" stroke="#ECECEC"/>
<path opacity="0.9" d="M48.0341 9.14861C37.6324 -5.89826 27.762 2.87908 25.8047 9.14861C17.8357 21.824 -1.62555 16.2632 1.05876 39.8148C3.74307 63.3664 6.93068 77.7046 11.1249 82.7474C39.2262 123.227 73.1995 88.0629 75.2966 80.2941C79.0714 68.4366 75.017 49.0828 72.7801 35.726C69.4247 27.2212 67.4674 20.8699 58.9391 19.7796C51.8089 16.5085 49.7301 11.6019 48.0341 9.14861Z" fill="#D7D7D7" stroke="#606060"/>
<path opacity="0.9" d="M76.8005 70.5001C76.6702 74.0791 76.2152 77.4086 75.2966 80.2941C73.1995 88.0629 39.2262 123.227 11.1249 82.7474C10.0592 81.4661 9.05842 79.5845 8.11441 77.1042L8.07498 77.0001L8.4999 77.0001C22.8999 74.2001 26.4999 69.1668 26.4999 67.0001L25.3118 48.5001C29.0779 51.8335 39.799 56.5001 52.555 48.5001L53.9999 66.0001C53.8338 66.9966 58.1691 69.2839 76.801 70.4874M76.8005 70.5001C76.8007 70.4959 76.8008 70.4916 76.801 70.4874M76.8005 70.5001H76.9999C76.9334 70.4959 76.8671 70.4916 76.801 70.4874" stroke="#606060" stroke-width="0.5"/>
<path opacity="0.9" d="M22.9999 12.5492C24.033 11.5759 24.9803 10.4598 25.8047 9.14861C27.762 2.87908 37.6324 -5.89826 48.0341 9.14861C48.4771 9.78937 48.9462 10.5975 49.5245 11.5001H49.4999L52.555 48.5001C39.799 56.5001 29.0779 51.8335 25.3118 48.5001L22.9999 12.5492ZM22.9999 12.5492L22.9999 12.5001" stroke="#606060" stroke-width="0.5"/>
<path opacity="0.9" d="M26.4999 67.0001L22.9999 12.5001V12.5492C14.0463 20.985 -1.34787 18.6995 1.05876 39.8148C3.05149 57.2986 5.32159 69.7049 8.07499 77.0001L8.49991 77.0001C22.8999 74.2001 26.4999 69.1668 26.4999 67.0001Z" stroke="#606060" stroke-width="0.5"/>
<path opacity="0.9" d="M49.4999 11.5001L53.9999 66.0001C53.8332 67.0001 58.1999 69.3001 76.9999 70.5001H76.8005C77.2057 59.3721 74.4726 45.8324 72.7801 35.7259C69.4247 27.2212 67.4674 20.8699 58.9391 19.7795C53.6712 17.3628 51.1606 14.0534 49.5245 11.5001H49.4999Z" stroke="#606060" stroke-width="0.5"/>
<path d="M17 75.5C19.6667 79.5 32.7 86.3 63.5 81.5C35.5 104.3 20.8333 87 17 75.5Z" fill="#4BAEB5" stroke="#4BAEB5"/>
</svg>
