<svg width="86" height="200" viewBox="0 0 86 200" fill="none" xmlns="http://www.w3.org/2000/svg">
<path d="M18.5601 31.9722C14.7962 33.5149 13.1313 40.0717 12.9998 42.0001C9.99987 132 21.9999 199 37.795 199C51.4655 199 79.4999 51.0001 74.9998 42.0001C74.1444 37.3718 58.0625 39.4546 51.9035 29.2723C45.7444 19.0901 40.9316 17.573 37.795 18.0873C35.3998 17.7788 33.8151 24.5155 30.536 27.7295C27.1143 30.0437 21.1264 31.4579 18.5601 31.9722Z" fill="#D1A711" stroke="#D1A711"/>
<path d="M50.9999 44.5001C49.7999 39.7001 43.8332 36.5001 40.9999 35.5001C30.5999 39.9001 34.7484 51.5001 34.4999 57.5001C33.3332 85.6668 33.0576 141.116 34.4999 144C35.9999 147 37.6665 177 37.4999 192.5L56.4999 57.5001C55.1665 55.1668 52.1999 49.3001 50.9999 44.5001Z" fill="#ECECEC" stroke="#ECECEC"/>
<path opacity="0.9" d="M46.4999 124C74.4999 101 85.6665 52.0001 84.4999 32.5001C83.4999 26.5001 64.6999 29.2001 57.4999 16.0001C50.2999 2.80009 41.1665 0.833433 37.4999 1.50011C34.6999 1.10011 25.8332 9.83343 21.9999 14.0001C17.9999 17.0001 10.9999 18.8335 7.99988 19.5001C3.59988 21.5001 1.6535 30.0001 1.49987 32.5001C-2.90013 104.1 31.2825 136.5 46.4999 124Z" fill="#D7D7D7" stroke="#606060"/>
<path opacity="0.9" d="M26.4999 9.50011L21.9999 78.5001C21.8332 81.3335 18.5999 87.3001 6.99988 88.5001M7.08509 88.5001C2.57696 73.8763 0.108008 55.1495 1.49987 32.5001C1.6535 30.0001 3.59988 21.5001 7.99988 19.5001C10.9999 18.8335 17.9999 17.0001 21.9999 14.0001C23.1478 12.7523 24.7472 11.0949 26.4999 9.396" stroke="#606060" stroke-width="0.5"/>
<path opacity="0.9" d="M53.9999 10.5001L52.9999 82.0001C53.1665 83.5001 57.0999 87.1001 71.4999 89.5001M53.9999 10.5875C55.195 12.1377 56.3712 13.9309 57.4999 16.0001C64.6999 29.2001 83.4999 26.5001 84.4999 32.5001C85.2225 44.5785 81.2133 67.9749 71.4029 89.5002" stroke="#606060" stroke-width="0.5"/>
<path opacity="0.9" d="M26.4999 9.39601C30.5997 5.42179 35.5384 1.2199 37.4999 1.50011C40.5918 0.93794 47.5708 2.24822 53.9999 10.5875L53.9999 10.5001L52.9999 82.0001C53.1665 83.5001 57.0999 87.1001 71.4999 89.5001H71.403C65.3749 102.726 57.1566 115.246 46.4999 124C36.0962 132.546 16.8282 120.106 7.08508 88.5001H6.99988C18.5999 87.3001 21.8332 81.3335 21.9999 78.5001L26.4999 9.50012L26.4999 9.39601Z" stroke="#606060" stroke-width="0.5"/>
<path d="M17 92.5C21.5 95.8333 36.6 102 61 100C38.6 120.4 22.3333 103.5 17 92.5Z" fill="#4BAEB5" stroke="#4BAEB5"/>
</svg>
