<svg width="165" height="144" viewBox="0 0 165 144" fill="none" xmlns="http://www.w3.org/2000/svg">
<path d="M133.736 45.2235C130.374 28.9284 105.347 28.783 93.2532 30.7473C87.925 28.5676 78.1334 30.6821 74.7926 32.8739C70.4316 31.7001 61.3261 30.4063 52.6798 27.7248C44.0335 25.0433 35.9331 29.024 32.9637 31.3496C28.547 33.3127 25.1266 51.2462 23.9685 59.9675C23.2312 65.7702 21.0584 73.4397 20.0642 76.5491C18.6727 95.2279 26.9696 101.576 42.1863 107.167C68.7569 119.015 102.693 117.298 115.749 112.647C144.321 114.011 139.645 68.2664 133.736 45.2235Z" fill="#D1A711" stroke="#D1A711"/>
<path opacity="0.9" d="M152.228 31.966C148.124 8.0786 115.917 8.20599 100.327 11.2556C93.4994 8.12683 80.8695 11.3658 76.5404 14.6304C70.9441 12.9658 59.2435 11.1896 48.1529 7.36894C37.0622 3.54826 26.5834 9.50526 22.7303 12.9613C17.0196 15.9047 12.3736 42.2907 10.7644 55.1158C9.73654 63.6484 6.83589 74.9424 5.51405 79.5229C3.46894 106.976 14.06 116.187 33.5666 124.191C67.5997 141.23 111.296 138.247 128.162 131.237C164.913 132.852 159.519 65.7293 152.228 31.966Z" fill="#D7D7D7" stroke="#606060"/>
<path d="M118 58.5C114.4 45.7 106 42.5 90 35.0001C69.5 29.5 57 37.1667 50 42.5C45.5 46.5 37.5 58.1 41.5 72.5C45.5 86.9 59.5 95.8333 66 98.5C86 105.5 108.5 98 118 91.5C125.6 86.3 121.167 67.3333 118 58.5Z" stroke="#606060" stroke-width="0.5"/>
<path d="M118 58.5C116.94 54.7311 115.464 51.7945 113.5 49.3353C124.289 43.5569 145.981 29.6 146.434 20C149.31 23.0786 151.376 27.0042 152.228 31.9661C158.222 59.7236 162.934 110.028 144 126.149C146 111.068 129.63 93.7661 121.195 87C123.9 79.2126 120.542 65.5911 118 58.5Z" stroke="#606060" stroke-width="0.5"/>
<path opacity="0.9" d="M144 126.149C146 111.068 129.63 93.7661 121.195 87L121.096 87.2747C120.429 89.0628 119.427 90.5239 118 91.5C108.5 98 86 105.5 66 98.4999C62.1373 96.9153 55.6261 93.1176 50.1388 87.2747C48.7638 85.8107 47.4532 84.2182 46.2645 82.5C42.6645 89.8333 31.7679 106.6 16.9822 115C21.3953 118.64 26.9713 121.485 33.5666 124.191C67.5997 141.23 111.296 138.247 128.162 131.237C134.608 131.521 139.758 129.689 143.828 126.294L144 126.149Z" stroke="#606060" stroke-width="0.5"/>
<path opacity="0.9" d="M16.9822 115C31.7679 106.6 42.6645 89.8333 46.2645 82.5L46 82.1125C44.0693 79.2463 42.4828 76.0381 41.5 72.5C38.4865 61.6513 42.284 52.3918 46.2645 46.7741C40.0762 30.9934 25.5752 21.0161 19.0983 18C15.1025 26.975 12.0155 45.1443 10.7644 55.1158C9.73654 63.6484 6.83589 74.9424 5.51405 79.5229C4.18076 97.4206 8.21814 107.565 16.5953 114.676L16.9822 115Z" stroke="#606060" stroke-width="0.5"/>
<path opacity="0.9" d="M90 35.0001C69.5 29.5 57 37.1667 50 42.5C48.9916 43.3964 47.8074 44.6744 46.6218 46.2801L46.2645 46.7741C40.0762 30.9933 25.5752 21.016 19.0983 18L19.1913 17.7931C20.3078 15.3342 21.4941 13.5985 22.7303 12.9613C26.5834 9.50523 37.0622 3.54823 48.1529 7.36892C59.2435 11.1896 70.9441 12.9658 76.5404 14.6304C80.8695 11.3658 93.4994 8.1268 100.327 11.2556C112.616 8.85175 135.229 8.26357 146.265 19.8211L146.434 20C145.981 29.6 124.289 43.5568 113.5 49.3353L113.3 49.0886C108.583 43.3538 101.13 40.2173 90 35.0001Z" stroke="#606060" stroke-width="0.5"/>
<path d="M78.7235 28.0407C83.0812 30.337 91.0024 43.8331 87.613 62.0959M87.613 62.0959C84.7262 72.2542 79.3488 97.2297 83.0584 104.993M87.613 62.0959C90.6754 66.2158 96.8719 71.0925 101.808 68.4288C102.698 64.2602 107.38 62.2865 111.892 61.7972M87.613 62.0959C82.7597 65.4093 72.1416 71.3967 68.4961 68.8386C64.8505 66.2804 56.402 65.0105 52.6334 64.6953C48.2936 63.8449 40.1625 60.8358 42.3569 55.6028C40.6386 53.6355 37.3082 49.1573 37.7332 46.9829M111.892 61.7972L124.831 57.8419M111.892 61.7972C113.778 62.1355 117.903 63.8924 119.312 68.2134" stroke="#454545" stroke-width="0.5"/>
</svg>
