<svg width="72" height="152" viewBox="0 0 72 152" fill="none" xmlns="http://www.w3.org/2000/svg">
<path d="M63.4999 20.5002H18.4999H13.4999C8.99989 20.5002 9.49986 33.0002 9.49986 33.0002C9.09986 55.0002 20.3332 85.8336 24.9999 98.5003C31.1665 122 47.2999 164.6 54.4999 147C63.4999 125 66.9999 68.0002 68.9999 47.0002C70.5999 30.2002 65.9999 22.3336 63.4999 20.5002Z" fill="#D1A711" stroke="#D1A711"/>
<path d="M40.9998 37.4999H27.9998H21.4999C21.4999 37.4999 18.9998 36.4998 23.4998 43.9999C27.9998 51.5 39.6665 114.333 50.4998 144C50.9998 92.9999 51.9329 86.2942 48.9998 65.4999C46.9998 51.3209 49.4998 37.4999 40.9998 37.4999Z" fill="#ECECEC" stroke="#ECECEC"/>
<path opacity="0.9" d="M66.0303 1.00012H5.0303C0.230303 1.00012 0.696969 5.00012 1.5303 7.00012C8.36364 44.0001 26.8303 114.2 46.0303 99.0001C70.0303 80.0001 72.5303 12.5001 71.0303 7.00012C69.8303 2.60012 67.197 1.16679 66.0303 1.00012Z" fill="#D7D7D7" stroke="#606060"/>
<path d="M52.9999 54.0001L57.9999 1.00012H65.9999C69.1999 1.80012 70.6666 5.33346 70.9999 7.00012C72.5999 17.0001 69.4999 44.5001 66.4999 56.5001L52.9999 54.0001Z" stroke="#606060" stroke-width="0.5"/>
<path d="M27.9999 54.0001L19.4999 1.00012H3.99992C0.399918 1.80012 0.833251 5.33346 1.49992 7.00012C1.89992 11.8001 8.99992 42.0001 13.4999 56.5001L27.9999 54.0001Z" stroke="#606060" stroke-width="0.5"/>
<path d="M57.9999 1.00012H19.4999L27.9999 54.0001L13.4999 56.5001C25.8999 96.5001 36.9999 102 40.9999 101C54.1999 99.0001 63.4999 70.5001 66.4999 56.5001L52.9999 54.0001L57.9999 1.00012Z" stroke="#606060" stroke-width="0.5"/>
<path d="M26.5 72.5C31.5 77.6667 44.7 84.1 57.5 68.5C53.5 83 41.7 104.1 26.5 72.5Z" fill="#4BAEB5" stroke="#4BAEB5"/>
</svg>
