<svg width="78" height="181" viewBox="0 0 78 181" fill="none" xmlns="http://www.w3.org/2000/svg">
<path d="M19.4819 30.1056C38.9431 42.8627 52.1969 35.4211 58.0688 30.1056C68.5544 44.0076 63.018 84.4869 59.3271 91.0291L50.5192 97.9801C47.8628 103.296 46.5501 140.821 46.5501 164.046C46.5501 165.818 47.1373 170.424 49.4861 174.677C50.0453 176.721 50.2411 180.647 46.5501 179.992C44.1734 180.401 37.8261 179.911 31.4509 174.677C21.0492 167.153 16.6857 113.381 17.8042 95.9356L10.674 91.0291C10.3385 88.4122 8.15747 46.052 19.4819 30.1056Z" fill="#D1A711" stroke="#D1A711"/>
<path d="M26.1928 48.5054C36.5945 53.7391 47.0241 50.6861 50.9387 48.5054C31.4775 91.6833 39.5172 156.139 42.0337 173.721C32.6386 144.936 24.9345 72.0843 26.1928 48.5054Z" fill="#ECECEC" stroke="#ECECEC"/>
<path opacity="0.9" d="M29.548 9.25261C39.9497 -5.79426 49.8202 2.98308 51.7775 9.25261C59.7465 21.928 79.2077 16.3672 76.5234 39.9188C73.8391 63.4704 70.6515 77.8086 66.4573 82.8514C38.356 123.331 4.38266 88.1669 2.28555 80.3981C-1.48927 68.5406 2.56516 49.1868 4.80209 35.83C8.15747 27.3252 10.1148 20.9739 18.643 19.8836C25.7732 16.6125 27.8521 11.7059 29.548 9.25261Z" fill="#D7D7D7" stroke="#606060"/>
<path opacity="0.9" d="M0.781662 70.6041C0.911995 74.1831 1.36694 77.5126 2.28555 80.3981C4.38267 88.1669 38.356 123.331 66.4573 82.8514C67.523 81.5701 68.5238 79.6885 69.4678 77.2082L69.5072 77.1041L69.0823 77.1041C54.6823 74.3041 51.0823 69.2708 51.0823 67.1041L52.2704 48.6041C48.5043 51.9375 37.7832 56.6041 25.0272 48.6041L23.5823 66.1041C23.7484 67.1006 19.4131 69.3879 0.781204 70.5914M0.781662 70.6041C0.781507 70.5999 0.781359 70.5956 0.781204 70.5914M0.781662 70.6041H0.582275C0.648762 70.5999 0.715078 70.5956 0.781204 70.5914" stroke="#606060" stroke-width="0.5"/>
<path opacity="0.9" d="M54.5823 12.6532C53.5492 11.6799 52.6018 10.5638 51.7775 9.25261C49.8202 2.98308 39.9497 -5.79426 29.548 9.25261C29.1051 9.89338 28.636 10.7015 28.0576 11.6041H28.0823L25.0272 48.6041C37.7832 56.6041 48.5043 51.9375 52.2703 48.6041L54.5823 12.6532ZM54.5823 12.6532L54.5823 12.6041" stroke="#606060" stroke-width="0.5"/>
<path opacity="0.9" d="M51.0823 67.1041L54.5823 12.6041V12.6532C63.5359 21.089 78.9301 18.8035 76.5234 39.9188C74.5307 57.4026 72.2606 69.8089 69.5072 77.1041L69.0823 77.1041C54.6823 74.3041 51.0823 69.2708 51.0823 67.1041Z" stroke="#606060" stroke-width="0.5"/>
<path opacity="0.9" d="M28.0823 11.6041L23.5823 66.1041C23.7489 67.1041 19.3823 69.4041 0.582275 70.6041H0.781656C0.376408 59.4761 3.10953 45.9364 4.80209 35.8299C8.15748 27.3252 10.1148 20.9739 18.6431 19.8835C23.9109 17.4668 26.4216 14.1574 28.0576 11.6041H28.0823Z" stroke="#606060" stroke-width="0.5"/>
<path d="M12 79C21.1667 83.8333 46.6 91.9 59 69.5C55.5 86 38 107.8 12 79Z" fill="#4BAEB5" stroke="#4BAEB5"/>
</svg>
