<svg width="81" height="192" viewBox="0 0 81 192" fill="none" xmlns="http://www.w3.org/2000/svg">
<path d="M21.4679 159.171C31.3892 147.559 47.2019 152.636 53.8681 156.626C69.0111 129.758 46.8479 35.3037 29.1538 1.58549C20.2048 40.9068 11.5466 170.783 21.4679 159.171Z" fill="#D1A711" stroke="#D1A711"/>
<path d="M44.8084 135.27C37.9896 130.188 31.6656 133.962 29.356 136.484C38.1269 115.332 35.1071 47.9283 32.5008 16.8704C39.4445 58.4544 51.6272 140.352 44.8084 135.27Z" fill="#ECECEC" stroke="#ECECEC"/>
<path opacity="0.9" d="M69.667 108.187C49.8672 66.1937 17.677 90.6897 9.42714 108.187C6.62529 122.413 1.48856 133.206 1.02158 142.527C0.648 149.984 5.22436 158.716 7.55923 162.15C10.9215 171.569 24.526 181.119 30.908 184.716C44.7305 196.097 52.2332 189.458 54.2568 184.716C57.619 171.372 81.3413 175.886 79.9404 166.074C79.5668 133.5 73.2471 118.489 69.667 108.187Z" fill="#D7D7D7" stroke="#606060"/>
<path opacity="0.9" d="M69.6669 108.187C49.8672 66.1937 17.677 90.6897 9.42712 108.187C9.17125 109.486 8.8959 110.757 8.60641 112L23 120C23.688 124.749 24.4924 130.686 25.2686 137C31.1791 133.848 46.3 129.34 59.5 136.522C59.1692 127.711 59.1375 120.725 59.5 120C60.3 118.4 67.5108 114 71.0162 112C70.5384 110.651 70.0841 109.387 69.6669 108.187Z" stroke="#606060" stroke-width="0.5"/>
<path opacity="0.9" d="M30.908 184.716C44.7305 196.097 52.2332 189.458 54.2568 184.716C55.4503 179.979 59.2097 177.493 63.5 175.817C61.5876 173.15 60.0816 152.014 59.5 136.522C46.3 129.34 31.1791 133.848 25.2686 137C27.7066 156.831 29.8669 180.376 27.2737 182.5C28.6274 183.38 29.8643 184.128 30.908 184.716Z" stroke="#606060" stroke-width="0.5"/>
<path opacity="0.9" d="M1.02158 142.527C0.648 149.984 5.22436 158.716 7.55923 162.15C10.3716 170.028 20.3501 177.998 27.2737 182.5C29.867 180.376 27.7066 156.831 25.2686 137C24.4924 130.686 23.6881 124.749 23 120L8.60643 112C5.72602 124.372 1.44591 134.057 1.02158 142.527Z" stroke="#606060" stroke-width="0.5"/>
<path opacity="0.9" d="M79.9404 166.074C79.6104 137.296 74.6391 122.225 71.0162 112C67.5108 114 60.3 118.4 59.5 120C59.1375 120.725 59.1693 127.711 59.5 136.522C60.0816 152.015 61.5877 173.15 63.5 175.817C71.2955 172.772 80.844 172.403 79.9404 166.074Z" stroke="#606060" stroke-width="0.5"/>
<path d="M15 107.5C26.8333 104.333 52.7 101 61.5 113C49.5 79.7999 25.5 95.4999 15 107.5Z" fill="#4BAEB5" stroke="#4BAEB5"/>
</svg>
