<svg width="152" height="123" viewBox="0 0 152 123" fill="none" xmlns="http://www.w3.org/2000/svg">
<path d="M119.193 24.692C88.1959 29.6826 68.8465 26.7714 62.8671 24.692C54.6155 23.1597 33.0179 22.9846 35.601 37.1684C38.1841 51.3523 35.601 63.4348 29.8608 79.1947C22.3267 87.0746 15.869 110.058 52.1042 100.865C55.4527 99.3323 65.1632 96.4649 77.2177 97.2529C83.4363 97.2529 90.1333 100.865 105.201 100.865C125.651 102.506 128.521 70.6581 131.032 51.9433C134.337 27.3186 128.88 23.5975 119.193 24.692Z" fill="#D1A711" stroke="#D1A711"/>
<path opacity="0.9" d="M133.5 2.5002C90.2999 10.1002 63.3333 5.66687 54.9999 2.5002C43.4999 0.166854 20.3658 -0.137619 17 21.5001C13.5 44.0002 13.5 62.0001 5.5 86.0001C-1.04904e-05 102.5 -10.5001 132.5 39.9999 118.5C62.5 118.5 58.1999 111.8 74.9999 113C83.6666 113 93 118.5 114 118.5C142.5 121 146.5 72.5002 150 44.0002C154.605 6.50016 136.5 2.5002 133.5 2.5002Z" fill="#D7D7D7" stroke="#606060"/>
<path d="M69.8161 34.2738C44.5462 35.9034 41.6809 49.8906 43.407 56.6806C46.7211 77.8652 54.7991 85.5378 58.4239 86.7261C65.3283 89.9513 84.9366 94.4666 108.135 86.7261C131.334 78.9855 122.289 53.6251 114.867 41.9124C110.379 38.6872 95.086 32.6441 69.8161 34.2738Z" stroke="#606060" stroke-width="0.5"/>
<path d="M46.9837 42.9538C50.7684 38.6599 57.7294 35.0533 69.8161 34.2739C95.086 32.6443 110.379 38.6873 114.867 41.9126C114.911 41.9825 114.956 42.0529 115 42.1238V42.0001C115.799 35.6058 134.966 17.3658 144.475 9.02228M46.9837 42.9538C41.7729 28.1709 28.8272 14.1614 23 9.00012L22.9075 8.90059C31.4042 0.14957 46.4314 0.761779 54.9999 2.50032C63.3333 5.66699 90.2999 10.1003 133.5 2.50032C134.985 2.50032 140.173 3.48085 144.475 9.02228M46.9837 42.9538C46.9891 42.9692 46.9946 42.9847 47 43.0001L46.9837 42.9538ZM144.475 9.02228C144.483 9.01489 144.492 9.0075 144.5 9.00012L144.475 9.02228Z" stroke="#606060" stroke-width="0.5"/>
<path d="M46.9837 42.9539C41.7729 28.171 28.8273 14.1615 23 9.00024H22.8114C19.9533 11.9851 17.8485 16.0454 17 21.5002C13.5 44.0003 13.5 62.0002 5.50001 86.0002C3.70597 91.3823 1.37993 98.2008 0.8125 104.46L1.00001 104.5C21 84.5001 45.6161 83.0634 55.4494 84.8967L55.3142 84.7793C51.3226 81.2742 45.9558 72.9736 43.407 56.6806C42.5125 53.162 42.851 47.7107 46.9014 43.0478L46.9837 42.9539Z" stroke="#606060" stroke-width="0.5"/>
<path d="M1.00001 104.5C21 84.5001 45.6161 83.0634 55.4494 84.8967L55.5711 84.9999C56.666 85.9191 57.6472 86.4714 58.4239 86.7261C65.3283 89.9513 84.9366 94.4666 108.135 86.7261C110.281 86.01 112.151 85.1431 113.773 84.1502L114 84C114.167 91 117 107.1 127 115.5L126.685 115.605C123.104 117.845 118.916 118.931 114 118.5C93 118.5 83.6666 113 74.9999 113C58.1999 111.8 62.5 118.5 39.9999 118.5C6.16958 127.879 -0.285368 117.511 0.792878 104.684L1.00001 104.5Z" stroke="#606060" stroke-width="0.5"/>
<path d="M126.936 115.446C143.897 104.498 147.118 67.4686 150 44.0003C152.32 25.1033 148.874 14.7131 144.5 9.05489L144.459 9.0365C134.944 17.3865 115.799 35.6096 115 42.0002L115.029 42.1711C121.678 52.8092 129.425 74.1534 114.136 83.9228L114 84.0001C114.166 90.9851 116.988 107.031 126.936 115.446ZM126.936 115.446C126.957 115.464 126.979 115.482 127 115.5L126.936 115.446Z" stroke="#606060" stroke-width="0.5"/>
<path d="M39.5 43.5001C39.1667 50.5001 41.8 65.6001 55 70.0001C59.5631 71.5211 63.3813 74.4801 66.5 78.0179M77 98.5001C75.8004 93.4837 72.4031 84.7141 66.5 78.0179M66.5 78.0179C72.4448 70.0144 85.3905 62.6787 97 57.452M126.5 35.0001C126.9 37.8001 118 46.8335 113.5 51.0001C109.313 52.3606 103.357 54.5901 97 57.452M97 57.452C93.3333 54.8014 85.8 47.3001 85 38.5001M85 38.5001C84.2 29.7001 78.3333 25.5001 75.5 24.5001M85 38.5001C84.1667 34.8335 83.6 26.9001 88 24.5001" stroke="#454545" stroke-width="0.5"/>
</svg>
