<svg width="148" height="250" viewBox="0 0 148 250" fill="none" xmlns="http://www.w3.org/2000/svg">
<path d="M60.5 195.5C56.5 192.7 47.1667 203.667 43 209.5C13 199.5 -2.99997 156.5 5.00003 146.5C11.4 138.5 11 111.5 10 99C11.6667 69.6667 11.9 8.7 23.5 15.5C35.1 22.3 47 57 51.5 73.5C54.5 47.3333 62.3 -3.80003 69.5 0.999974C76.1314 5.42088 88.9269 51.4642 95.8549 79.2833C91.2919 56.6166 98.4369 41.5194 103 36.5C115.4 38.5 122.5 81.3333 124.5 102.5C133.5 110 110.5 206 107 206C104.2 206 99.5 195.333 97.5 190C93.1 191.6 85.6667 201.333 82.5 206C74.5 207.5 65.5 199 60.5 195.5Z" fill="#D1A711" stroke="#D1A711"/>
<path d="M93.5 176.5C77.1 156.5 60.6667 168.167 54.5 176.5C46.9 166.9 46.3334 148.167 47 140C43.8 136 29.3334 60.3334 22.5 23C30.7087 53.372 48.3616 113.662 54.2404 115.459C54.3297 115.486 54.4162 115.5 54.5 115.5C61.5 115.5 69.5 2 69.5 9.50002C69.5 14.8815 90.3334 84.1667 98.5 115.5C106.5 108.3 104.833 66.8333 103 49C106.5 72.1667 111.4 122.9 103 124.5C94.6 126.1 93.1667 159.833 93.5 176.5Z" fill="#ECECEC" stroke="#ECECEC"/>
<g opacity="0.9">
<path d="M24.5 136.5C41.6667 124.5 97.9 107.7 135.5 136.5C141 157.167 150.6 201.7 145 214.5C138 230.5 134 239 125.5 245C124.5 247 122 249.5 120 249.5C117.5 249.5 116.5 247 114.5 245L92.5 229C94.1667 225.667 97.5 218.3 97.5 215.5C97.5 212.7 99.8334 205.333 101 202C99.3334 204.833 96.9 210.9 96.5 212.5C96 214.5 95.5 225 90.5 227C85.5 226.167 74.5 225.4 70.5 229C67.1667 231 58.9 235.4 52.5 237C50.3334 236.833 45.1 237.1 41.5 239.5C39.09 241.107 35.3894 234.969 32.3949 228C30.4299 228.833 25.7 230.5 22.5 230.5C18.5 230.5 -24 168.5 24.5 136.5Z" fill="#D7D7D7"/>
<path d="M32.3949 228C35.3894 234.969 39.0901 241.107 41.5 239.5C45.1 237.1 50.3334 236.833 52.5 237C58.9 235.4 67.1667 231 70.5 229C74.5 225.4 85.5 226.167 90.5 227C95.5 225 96 214.5 96.5 212.5C96.9 210.9 99.3334 204.833 101 202C99.8334 205.333 97.5 212.7 97.5 215.5C97.5 218.3 94.1667 225.667 92.5 229L114.5 245C116.5 247 117.5 249.5 120 249.5C122 249.5 124.5 247 125.5 245C134 239 138 230.5 145 214.5C150.6 201.7 141 157.167 135.5 136.5C97.9 107.7 41.6667 124.5 24.5 136.5C-24 168.5 18.5 230.5 22.5 230.5C25.7 230.5 30.4299 228.833 32.3949 228ZM32.3949 228C29.798 221.956 27.7323 215.287 27.5 212.5C28.0966 217.333 29.9108 227.2 32.3949 228Z" stroke="#606060"/>
</g>
<path opacity="0.9" d="M32.3949 228C35.3894 234.969 39.0901 241.107 41.5 239.5C42.4196 238.887 43.4457 238.413 44.5 238.05M32.3949 228C29.798 221.956 27.7323 215.287 27.5 212.5C28.0966 217.333 29.9108 227.2 32.3949 228ZM32.3949 228C30.4299 228.833 25.7 230.5 22.5 230.5C18.7565 230.5 -18.709 176.195 16.2602 143M16.2602 143C18.6556 140.726 21.3908 138.551 24.5 136.5C41.6667 124.5 97.9 107.7 135.5 136.5C136.023 138.467 136.584 140.649 137.165 143M16.2602 143L35.5 156.5C36.5492 162.629 37.8323 170.523 39.1111 179M44.5 238.05C47.5734 236.992 50.8868 236.876 52.5 237C58.9 235.4 67.1667 231 70.5 229C74.5 225.4 85.5 226.167 90.5 227C95.5 225 96 214.5 96.5 212.5C96.9 210.9 99.3334 204.833 101 202C99.8334 205.333 97.5 212.7 97.5 215.5C97.5 218.3 94.1667 225.667 92.5 229L106.938 239.5M44.5 238.05C46.2705 231.293 42.7077 202.841 39.1111 179M137.165 143C142.689 165.354 150.067 202.918 145 214.5C138 230.5 134 239 125.5 245C124.5 247 122 249.5 120 249.5C117.5 249.5 116.5 247 114.5 245L106.938 239.5M137.165 143C132.61 145.833 122.8 152.5 120 156.5C118.815 158.192 116.7 167.1 114.5 178.534M106.938 239.5C105.573 232.884 110.199 200.884 114.5 178.534M39.1111 179L59 168.5C68 164.5 72.5 163.5 86.5 168.5C104.5 173 115.024 175.762 114.5 178.534" stroke="#606060"/>
<path opacity="0.9" d="M135.5 136.5C97.9 107.7 41.6667 124.5 24.5 136.5C21.3908 138.551 18.6556 140.726 16.2602 143L35.5 156.5C36.5492 162.629 37.8323 170.523 39.1111 179L59 168.5C68 164.5 72.5 163.5 86.5 168.5C104.5 173 115.024 175.762 114.5 178.534C116.7 167.1 118.815 158.192 120 156.5C122.8 152.5 132.61 145.833 137.165 143C136.584 140.649 136.023 138.467 135.5 136.5Z" stroke="#606060"/>
<path opacity="0.9" d="M32.3949 228C35.3894 234.969 39.0901 241.107 41.5 239.5C42.4196 238.887 43.4457 238.413 44.5 238.05C46.2705 231.293 42.7077 202.841 39.1111 179C37.8323 170.523 36.5492 162.629 35.5 156.5L16.2602 143C-18.709 176.195 18.7565 230.5 22.5 230.5C25.7 230.5 30.4299 228.833 32.3949 228ZM32.3949 228C29.798 221.956 27.7323 215.287 27.5 212.5C28.0966 217.333 29.9108 227.2 32.3949 228Z" stroke="#606060"/>
<path opacity="0.9" d="M125.5 245C134 239 138 230.5 145 214.5C150.067 202.918 142.689 165.354 137.165 143C132.61 145.833 122.8 152.5 120 156.5C118.815 158.192 116.7 167.1 114.5 178.534C110.199 200.884 105.573 232.884 106.938 239.5L114.5 245C116.5 247 117.5 249.5 120 249.5C122 249.5 124.5 247 125.5 245Z" stroke="#606060"/>
<path opacity="0.9" d="M97.5 215.5C97.5 218.3 94.1667 225.667 92.5 229L106.938 239.5C105.573 232.884 110.199 200.884 114.5 178.534C115.024 175.762 104.5 173 86.5 168.5C72.5 163.5 68 164.5 59 168.5L39.1111 179C42.7077 202.841 46.2705 231.293 44.5 238.05C47.5734 236.992 50.8868 236.876 52.5 237C58.9 235.4 67.1667 231 70.5 229C74.5 225.4 85.5 226.167 90.5 227C95.5 225 96 214.5 96.5 212.5C96.9 210.9 99.3334 204.833 101 202C99.8334 205.333 97.5 212.7 97.5 215.5Z" stroke="#606060"/>
</svg>
