<svg width="180" height="198" viewBox="0 0 180 198" fill="none" xmlns="http://www.w3.org/2000/svg">
<path d="M116.486 39.6959L141.085 31.9662C148.888 38.1858 163.481 54.3742 159.431 69.3705C155.381 84.3669 163.641 102.134 168.277 109.143C174.213 128.786 183.471 170.958 173.02 182.509C162.569 194.06 146.933 184.634 140.421 178.477C99.8531 70.5912 73.9254 142.87 65.8349 189.439C64.4398 192.745 58.6414 197.622 46.6088 190.682C34.5763 183.742 31.0981 169.758 30.863 163.634C29.0292 120.338 22.4144 107.61 14.9808 82.2177C9.0339 61.9037 14.5412 45.556 18.0382 39.9214L46.4524 46.4164L81.0035 35.8505L116.486 39.6959Z" fill="#D1A711" stroke="#D1A711"/>
<path d="M47.4485 59.4762C79.2376 82.6072 100.364 65.3412 106.953 53.8168C117.129 63.8414 116.296 66.1949 118.216 71.2243C130.638 85.6786 124.598 77.7245 127.603 84.072C129.323 87.7031 148.102 151.457 158.582 182.521C103.872 21.4169 54.1719 123.433 56.2343 192.256C55.1866 157.293 50.7188 112.043 56.0496 99.406C61.3805 86.7694 52.5367 67.5209 47.4485 59.4762Z" fill="#ECECEC" stroke="#ECECEC"/>
<path opacity="0.9" d="M29.5804 3.42781C10.1121 16.7148 -18.699 53.3529 21.8023 93.6096C43.894 115.568 88.7654 115.71 159.648 80.158C167.658 73.0129 179.827 51.1611 164.416 20.9148C163.101 16.0194 156.84 6.08053 150.276 4.71158C147.998 7.11081 140.335 13.0163 139.85 16.2789C138.256 17.1042 131.645 14.5677 129.108 14.3128C127.659 14.1672 127.374 15.8764 127.46 18.0181L127.069 14.0094C124.787 11.2179 114.356 4.19779 111.569 4.46973C110.428 3.07394 108.195 0.780009 107.2 0.877132L105.707 1.02282L75.3148 19.0598C75.2582 21.9122 75.6524 27.6677 77.6818 27.8716C79.7112 28.0755 78.5114 34.6565 77.6578 37.9215L79.4786 46.2841L76.6625 38.0186L76.9294 30.4569C75.9543 29.0449 74.0551 25.7136 74.2589 23.6843C74.4628 21.6549 74.3843 19.8205 74.3195 19.157C61.8219 12.0036 35.3774 -1.15688 29.5804 3.42781Z" fill="#D7D7D7" stroke="#606060"/>
<path opacity="0.9" d="M24.5822 67.1043C20.5822 69.9043 9.58223 69.2709 4.58223 68.6043L4.63821 68.6788C7.74335 76.7009 13.2148 85.0739 21.8023 93.6095C43.8939 115.568 88.7654 115.71 159.648 80.1579C163.86 76.4007 169.222 68.5768 171.119 57.6042C153.119 64.0042 141.916 62.2709 138.582 60.6042C136.632 59.0719 134.908 55.312 133.44 50.6042C115.321 59.4376 68.9822 73.7043 28.5822 60.1043L28.5153 60.0731C27.2871 63.5421 25.9716 66.0419 24.5822 67.1043Z" stroke="#606060" stroke-width="0.5"/>
<path opacity="0.9" d="M127.943 22.9667C128.703 30.0272 130.693 41.7941 133.44 50.6042C115.321 59.4375 68.9823 73.7042 28.5823 60.1042L28.5118 60.0833C33.2951 46.5825 36.7533 18.3791 38.0809 3.12072C48.6095 5.49585 65.1877 13.93 74.3196 19.1568C74.3843 19.8204 74.4628 21.6547 74.259 23.6841C74.0551 25.7135 75.9543 29.0448 76.9294 30.4568L76.6625 38.0185L79.4786 46.284L77.6578 37.9213C78.5114 34.6563 79.7113 28.0754 77.6819 27.8715C75.6525 27.6676 75.2583 21.912 75.3148 19.0597L105.707 1.0227L107.2 0.87701C108.195 0.779887 110.428 3.07382 111.569 4.46961C114.356 4.19766 124.787 11.2177 127.069 14.0093L127.46 18.0179M127.943 22.9667C127.797 21.4738 127.525 19.6242 127.46 18.0179M127.943 22.9667L127.46 18.0179" stroke="#606060" stroke-width="0.5"/>
<path opacity="0.9" d="M171.119 57.6042C153.119 64.0042 141.916 62.2709 138.582 60.6042C136.632 59.0719 134.908 55.3119 133.44 50.6042C130.693 41.7941 128.703 30.0273 127.943 22.9667C127.603 19.4833 126.571 14.0578 129.108 14.3127C131.645 14.5675 138.256 17.1041 139.85 16.2787C140.335 13.0161 147.998 7.11066 150.276 4.71143C156.84 6.08038 163.101 16.0192 164.416 20.9147C171.723 35.2561 172.83 47.7102 171.119 57.6042Z" stroke="#606060" stroke-width="0.5"/>
<path opacity="0.9" d="M24.5823 67.1043C31.3823 61.9043 36.4156 22.2709 38.0823 3.10426C34.2011 2.22854 31.1417 2.19286 29.5804 3.42772C14.2528 13.8887 -6.89336 38.8243 4.58228 68.6043C9.58228 69.2709 20.5823 69.9043 24.5823 67.1043Z" stroke="#606060" stroke-width="0.5"/>
</svg>
