<svg width="66" height="186" viewBox="0 0 66 186" fill="none" xmlns="http://www.w3.org/2000/svg">
<path d="M35 154.5C36.6 150.5 47 149.167 52 149C46.3333 100.834 31.5999 3.80031 17.9999 1.00031C4.39995 -1.79969 16.3333 109.834 23.9999 166C26.9999 163.834 33.4 158.5 35 154.5Z" fill="#D1A711" stroke="#D1A711"/>
<path d="M35.9999 140.5C37.5999 138.5 39.9999 134.334 40.9999 130.5C34.9999 119.3 23.4999 46.167 18.4999 11.0003L26.4999 138C28.9999 143.5 34.3999 142.5 35.9999 140.5Z" fill="#ECECEC" stroke="#ECECEC"/>
<path opacity="0.9" d="M56 168C62 166.8 64.8334 154.5 65.5 148.5C59.5 106 50.5 101 44 95.0002C37.0136 88.5512 24.5 88.0003 18 97.0003C7.49995 109.5 -1.50007 129.5 1.50004 146.5C8.99994 171.5 23 186.334 28 185C31 182.834 37.4 177.5 39 173.5C40.6 169.5 51 168.167 56 168Z" fill="#D7D7D7" stroke="#606060"/>
<path opacity="0.9" d="M6.53569 115.5C2.12651 125.445 -0.266103 136.492 1.50004 146.5C7.48617 166.454 17.6133 179.931 23.9999 183.881C26.7999 178.986 19.1666 139.587 14.9999 120.5L6.53569 115.5Z" stroke="#606060" stroke-width="0.5"/>
<path opacity="0.9" d="M56 168C62 166.8 64.8334 154.5 65.5 148.5C63.3513 133.28 60.8179 122.87 58.1523 115.5C56.1015 116.667 51.4999 119.3 49.4999 120.5C46.9999 122 46.9999 163.795 49.4999 168.648C51.9203 168.253 54.2798 168.058 56 168Z" stroke="#606060" stroke-width="0.5"/>
<path opacity="0.9" d="M28.0001 185C31.0001 182.834 37.4001 177.5 39.0001 173.5C40.0496 170.876 44.8854 169.4 49.5 168.648C47 163.795 47 122 49.5 120.5C51.5 119.3 56.1015 116.667 58.1523 115.5C53.3746 102.291 48.1723 98.8515 44.0001 95.0002C37.0136 88.5512 24.5 88.0003 18 97.0003C13.6813 102.142 9.6163 108.552 6.53571 115.5L15 120.5C19.1666 139.587 26.8 178.986 24 183.881C25.615 184.88 26.9909 185.269 28.0001 185Z" stroke="#606060" stroke-width="0.5"/>
<path d="M17 111C25.5 106.833 44 102.2 50 117C45.1667 101.833 31.8 79.4 17 111Z" fill="#4BAEB5" stroke="#4BAEB5"/>
</svg>
