<svg width="69" height="151" viewBox="0 0 69 151" fill="none" xmlns="http://www.w3.org/2000/svg">
<path d="M59.4998 19H14.9998H7.49979C5.09962 19 4.83317 27.6667 4.99997 32C3.00012 50.8 5.83324 68.5 7.49979 75C12.4997 108.5 37.9998 159 43.9998 148.5C48.7998 140.1 51.6665 125 52.4998 118.5C70.4998 43 61.9998 34.5 63.4998 28C64.6998 22.8 61.3331 19.8333 59.4998 19Z" fill="#D1A711" stroke="#D1A711"/>
<path d="M43.9109 31H26.2169H22.5051C18.3809 31 18.381 33.1006 20.0306 39.9277C21.6803 46.7547 25.392 85.1173 29.9286 104.198C34.4652 119.077 39.7756 147.786 41.4253 143.585C43.0749 139.383 43.0372 134.832 43.3122 133.082C47.9313 124.259 48.4474 59.8836 48.4474 59.8836C48.4474 59.8836 51.3343 31 43.9109 31Z" fill="#ECECEC" stroke="#ECECEC"/>
<path opacity="0.9" d="M56.0207 1H6.0207C1.6207 3.8 0.854031 7.16667 1.0207 8.5C4.0207 50.5 16.7207 126.8 43.5207 96C70.3207 65.2 70.0207 24.8333 66.5207 8.5C65.0207 6 60.8207 1 56.0207 1Z" fill="#D7D7D7" stroke="#606060"/>
<path d="M23 52L19.5 1H6.00001C1.60001 3.8 0.83334 7.83333 1.00001 9.5C1.00001 17.1 5.16667 44 7 55L23 52Z" stroke="#606060" stroke-width="0.5"/>
<path d="M57.5 1H46.5L45 51.5L64.5 55C68 47 69.5 22 66.5 8.5C63.7 3.7 59.3333 1.5 57.5 1Z" stroke="#606060" stroke-width="0.5"/>
<path d="M46.5 1H19.5L23 52L7 55C13 84.5 21 103.5 32 103C45 103 62 69 64.5 55L45 51.5L46.5 1Z" stroke="#606060" stroke-width="0.5"/>
</svg>
