<svg width="63" height="147" viewBox="0 0 63 147" fill="none" xmlns="http://www.w3.org/2000/svg">
<path d="M46.8967 129.833C40.6939 132.307 26.5899 128.802 20.3133 126.74C6.28316 123.381 30.2821 54.0582 35.451 19.5216C39.5862 -8.1077 43.2045 1.47997 45.4198 8.69658C49.6042 48.7316 53.0994 127.358 46.8967 129.833Z" fill="#D1A711" stroke="#D1A711"/>
<path d="M38.9478 118.73C34.4512 119.977 27.3317 116.132 24.3339 114.054C36.6245 74.155 40.1968 29.8918 40.4466 12.7476C41.8206 47.5555 43.4443 117.483 38.9478 118.73Z" fill="#ECECEC" stroke="#ECECEC"/>
<path opacity="0.9" d="M53.3747 82.3706C38.065 48.0742 20.801 67.246 14.0827 81.119C7.53925 93.8817 -3.83628 123.478 3.0092 139.764C2.82548 141.153 4.38351 143.908 12.0854 143.819C19.4434 144.89 35.0354 145.805 42.1414 146.032C45.8768 146.988 58.3439 147.05 59.9371 139.067C61.4424 126.841 62.2373 98.3858 53.3747 82.3706Z" fill="#D7D7D7" stroke="#606060"/>
<path opacity="0.9" d="M55.6528 87.2626C62.0793 103.661 61.299 128.006 59.9371 139.067C58.7058 145.236 50.9803 146.601 45.8095 146.461C43.8095 129.763 44.8095 94.2626 44.8095 91.7626C44.8095 89.7626 53.5384 88.096 55.6528 87.2626Z" stroke="#606060" stroke-width="0.5"/>
<path opacity="0.9" d="M12.0854 143.819C4.3835 143.908 2.82548 141.153 3.0092 139.764C-2.89467 125.719 4.75453 101.772 11.1682 87.2627C12.7153 87.9293 16.5095 89.7627 19.3095 91.7627C22.8095 94.2627 19.3095 141.763 17.8095 144.483C15.6315 144.273 13.668 144.049 12.0854 143.819Z" stroke="#606060" stroke-width="0.5"/>
<path opacity="0.9" d="M12.0854 143.819C13.6679 144.049 15.6315 144.273 17.8095 144.483M17.8095 144.483C25.758 145.252 36.5638 145.854 42.1414 146.032C42.9901 146.249 44.2894 146.42 45.8095 146.461C43.8095 129.763 44.8095 94.2626 44.8095 91.7626C44.8095 89.7626 53.5384 88.096 55.6528 87.2626C54.976 85.5355 54.2192 83.8966 53.3747 82.3706C38.065 48.0742 20.801 67.246 14.0827 81.1189C13.1826 82.8745 12.1911 84.9485 11.1682 87.2626C12.7153 87.9293 16.5095 89.7626 19.3095 91.7626C22.8095 94.2626 19.3095 141.763 17.8095 144.483Z" stroke="#606060" stroke-width="0.5"/>
<path d="M18 93C23 88.6667 36 81.3 48 86.5C42 74.3334 27.6 58.6001 18 93Z" fill="#4BAEB5" stroke="#4BAEB5"/>
</svg>
