<svg width="71" height="85" viewBox="0 0 71 85" fill="none" xmlns="http://www.w3.org/2000/svg">
<path d="M45.8833 19.2833C37.3021 19.7305 33.832 12.5829 27.3968 14.5839C7.80309 28.2632 9.06044 41.3426 13.8868 45.9341C17.8703 49.7238 15.4706 56.5111 19.0935 59.9865C32.1039 77.1631 46.94 65.9746 52.7318 58.2333C63.3695 51.0167 56.8673 18.7108 45.8833 19.2833Z" fill="#D1A711" stroke="#D1A711"/>
<path opacity="0.9" d="M51.7044 8.93473C39.2213 9.58532 34.1549 -1.16557 24.7979 1.8255C-3.67323 22.3351 -1.81114 41.9954 5.22187 48.9082C11.0267 54.6138 7.5526 64.8084 12.8321 70.0408C31.8031 95.8884 53.3591 79.1104 61.7657 67.4904C77.2235 56.6712 67.6827 8.10197 51.7044 8.93473Z" fill="#D7D7D7" stroke="#606060"/>
<path d="M31.5026 56.0492C23.7093 52.0572 21.7609 46.2539 21.7609 43.8513C19.7807 39.7939 21.6826 34.992 25 31.2501C28.2106 27.6286 32.7471 25 36.3735 25C42.1001 25.6519 45.1484 27.7754 46.7845 31.2501C47.375 32.5041 47.7815 33.9342 48.0636 35.5346C50 41 49.5248 47.178 48.0636 49.9503C43.7772 58.3779 35.237 57.5278 31.5026 56.0492Z" stroke="#606060" stroke-width="0.5"/>
<path opacity="0.9" d="M25 31.25C23 23.0501 14.9098 16.3557 11.0764 14.0223L11.2424 13.8338C14.6989 9.92632 19.152 5.89261 24.7979 1.8255C34.1549 -1.16557 39.2213 9.58532 51.7044 8.93473C55.6117 8.73109 59.134 11.4816 62 15.9119V16C58.6897 16.8829 51.0122 21.1691 46.7845 31.25M25 31.25C25.0428 31.2017 25.086 31.1535 25.1293 31.1055M25 31.25L25.1293 31.1055M46.7845 31.25C46.7564 31.1902 46.7278 31.1308 46.6987 31.0718M46.7845 31.25L46.6987 31.0718M46.6987 31.0718C45.0427 27.7027 42.0015 25.6406 36.3735 25C32.7955 25 28.3316 27.5589 25.1293 31.1055" stroke="#606060" stroke-width="0.5"/>
<path opacity="0.9" d="M25 31.25C23 23.05 14.9098 16.3556 11.0765 14.0222L10.9564 14.1595C-2.69937 29.8197 -0.377694 43.4043 5.22187 48.9081C10.8327 54.4231 7.77441 64.1321 12.3315 69.4999H12.5C17.6691 69.4999 23.5958 57.9714 25.958 52.1045M25 31.25C24.9725 31.281 24.9451 31.312 24.9179 31.3432M25 31.25L24.9179 31.3432M25.958 52.1045C22.7149 48.8788 21.7609 45.5325 21.7609 43.8512C19.7971 39.8274 21.6513 35.0714 24.9179 31.3432M25.958 52.1045C25.9721 52.0694 25.9861 52.0346 26 51.9999L25.958 52.1045Z" stroke="#606060" stroke-width="0.5"/>
<path d="M12.5 69.4998C17.6691 69.4998 23.5958 57.9713 25.958 52.1044L26.0364 52.182C27.4175 53.5394 29.2063 54.8729 31.5026 56.0492C34.6963 57.3136 41.4049 58.1185 45.9617 53.0536L46 53.0109C48.3333 58.1776 54.6 68.4999 61 68.4999L60.9573 68.5704C52.042 80.0974 31.2225 95.0972 12.8321 70.0406C12.664 69.8741 12.5048 69.7025 12.3539 69.5262L12.5 69.4998Z" stroke="#606060" stroke-width="0.5"/>
<path d="M46.7846 31.25C51.0122 21.169 58.6897 16.8828 62 15.9999L62.0907 16.053C70.8715 29.8018 73.4035 59.3449 61.7657 67.4905C61.5323 67.813 61.2889 68.1394 61.0357 68.4689L61 68.4998C54.6 68.4998 48.3333 58.1775 46 53.0108L46.0386 52.9674C46.7804 52.1277 47.4636 51.1298 48.0636 49.9502C49.5249 47.178 50 41 48.0636 35.5345C47.7904 33.9846 47.4006 32.5944 46.8399 31.3691M46.7846 31.25C46.8032 31.2895 46.8216 31.3292 46.8399 31.3691M46.7846 31.25L46.8399 31.3691" stroke="#606060" stroke-width="0.5"/>
<path d="M19 42.5002C24.2701 45.5514 36.28 49.6181 48 45.827M55 42.5002C52.7169 43.9775 50.3643 45.0621 48 45.827M55 50.0002C55.1666 47.718 54 43.6883 48 45.827" stroke="#454545" stroke-width="0.5"/>
</svg>
