<svg width="62" height="148" viewBox="0 0 62 148" fill="none" xmlns="http://www.w3.org/2000/svg">
<path d="M14.9129 130.07C21.1156 132.544 35.2196 129.039 41.4962 126.977C55.5263 123.618 31.5275 54.2956 26.3585 19.759C22.2233 -7.87034 18.605 1.71734 16.3897 8.93394C12.2053 48.9689 8.71006 127.596 14.9129 130.07Z" fill="#D1A711" stroke="#D1A711"/>
<path d="M22.8618 118.967C27.3583 120.214 34.4779 116.37 37.4756 114.292C25.185 74.3925 21.6127 30.1292 21.3629 12.985C19.989 47.7929 18.3652 117.721 22.8618 118.967Z" fill="#ECECEC" stroke="#ECECEC"/>
<path opacity="0.9" d="M8.43477 82.6079C23.7445 48.3115 41.0085 67.4833 47.7268 81.3562C54.2703 94.1189 65.6458 123.716 58.8003 140.001C58.984 141.39 57.426 144.146 49.7241 144.056C42.3661 145.127 26.7741 146.043 19.6681 146.269C15.9327 147.225 3.46564 147.287 1.87238 139.304C0.367119 127.078 -0.427765 98.623 8.43477 82.6079Z" fill="#D7D7D7" stroke="#606060"/>
<path opacity="0.9" d="M6.15667 87.5C-0.269834 103.898 0.510548 128.243 1.87238 139.304C3.10367 145.474 10.8292 146.838 16 146.698C18 130 17 94.5 17 92C17 90 8.27112 88.3333 6.15667 87.5Z" stroke="#606060" stroke-width="0.5"/>
<path opacity="0.9" d="M49.7242 144.056C57.426 144.146 58.984 141.39 58.8003 140.001C64.7042 125.956 57.055 102.009 50.6413 87.5C49.0942 88.1667 45.3 90 42.5 92C39 94.5 42.5 142 44 144.721C46.1781 144.51 48.1416 144.287 49.7242 144.056Z" stroke="#606060" stroke-width="0.5"/>
<path opacity="0.9" d="M49.7242 144.056C48.1416 144.287 46.1781 144.51 44 144.72M44 144.72C36.0515 145.489 25.2457 146.091 19.6681 146.269C18.8194 146.486 17.5201 146.657 16 146.698C18 130 17 94.4999 17 91.9999C17 89.9999 8.27112 88.3333 6.15668 87.4999C6.83352 85.7728 7.59031 84.1339 8.43478 82.6079C23.7445 48.3115 41.0085 67.4833 47.7268 81.3562C48.6269 83.1118 49.6184 85.1858 50.6413 87.4999C49.0942 88.1666 45.3 89.9999 42.5 91.9999C39 94.4999 42.5 142 44 144.72Z" stroke="#606060" stroke-width="0.5"/>
</svg>
