<svg width="157" height="135" viewBox="0 0 157 135" fill="none" xmlns="http://www.w3.org/2000/svg">
<path d="M130.736 41.2235C127.374 24.9284 102.347 24.783 90.2532 26.7473C84.9249 24.5676 75.1334 26.6821 71.7926 28.8739C67.4316 27.7001 58.3261 26.4063 49.6798 23.7248C41.0335 21.0433 32.9331 25.024 29.9637 27.3496C25.5469 29.3127 22.1266 47.2462 20.9685 55.9675C20.2312 61.7702 18.0584 69.4397 17.0642 72.5491C15.6727 91.2279 23.9696 97.5763 39.1863 103.167C65.7569 115.015 99.693 113.298 112.749 108.647C141.321 110.011 136.645 64.2664 130.736 41.2235Z" fill="#D1A711" stroke="#D1A711"/>
<path opacity="0.9" d="M149.228 27.9661C145.124 4.0787 112.917 4.20608 97.3268 7.2557C90.4994 4.12692 77.8695 7.36588 73.5404 10.6305C67.9441 8.96593 56.2435 7.18972 45.1529 3.36904C34.0622 -0.451643 23.5834 5.50535 19.7303 8.96143C14.0196 11.9048 9.37356 38.2908 7.76442 51.1159C6.73653 59.6485 3.83588 70.9425 2.51404 75.523C0.468931 102.976 11.06 112.187 30.5666 120.191C64.5997 137.231 108.296 134.247 125.162 127.238C161.913 128.852 156.519 61.7294 149.228 27.9661Z" fill="#D7D7D7" stroke="#606060"/>
<path d="M115 54.5C111.4 41.7 103 38.5 87 31.0001C66.5 25.5 54 33.1667 47 38.5C42.5 42.5 34.5 54.1 38.5 68.5C42.5 82.9 56.5 91.8333 63 94.5C83 101.5 105.5 94 115 87.5C122.6 82.3 118.167 63.3333 115 54.5Z" stroke="#606060" stroke-width="0.5"/>
<path d="M115 54.5001C113.94 50.7312 112.464 47.7946 110.5 45.3354C121.289 39.557 142.981 25.6001 143.434 16.0001C146.31 19.0787 148.376 23.0044 149.228 27.9662C155.222 55.7238 159.934 106.029 141 122.149C143 107.069 126.63 89.7662 118.195 83.0001C120.9 75.2127 117.542 61.5913 115 54.5001Z" stroke="#606060" stroke-width="0.5"/>
<path opacity="0.9" d="M141 122.149C143 107.069 126.63 89.7662 118.195 83.0001L118.096 83.2749C117.429 85.0629 116.427 86.524 115 87.5001C105.5 94.0001 83 101.5 63 94.5001C59.1373 92.9154 52.6261 89.1177 47.1388 83.2749C45.7638 81.8108 44.4531 80.2183 43.2645 78.5001C39.6645 85.8335 28.7679 102.6 13.9822 111C18.3953 114.641 23.9713 117.485 30.5665 120.191C64.5997 137.231 108.296 134.247 125.162 127.238C131.608 127.521 136.758 125.689 140.828 122.294L141 122.149Z" stroke="#606060" stroke-width="0.5"/>
<path opacity="0.9" d="M13.9822 111C28.7679 102.6 39.6645 85.8334 43.2645 78.5001L43 78.1126C41.0693 75.2464 39.4828 72.0383 38.5 68.5001C35.4865 57.6514 39.284 48.3919 43.2645 42.7742C37.0762 26.9935 22.5752 17.0162 16.0983 14.0001C12.1025 22.9751 9.01553 41.1444 7.76442 51.1159C6.73653 59.6485 3.83588 70.9425 2.51404 75.523C1.18075 93.4208 5.21813 103.565 13.5953 110.676L13.9822 111Z" stroke="#606060" stroke-width="0.5"/>
<path opacity="0.9" d="M87 31.0002C66.5 25.5001 54 33.1668 47 38.5001C45.9916 39.3965 44.8074 40.6746 43.6218 42.2802L43.2645 42.7742C37.0762 26.9935 22.5752 17.0161 16.0983 14.0001L16.1913 13.7932C17.3078 11.3343 18.4941 9.5986 19.7303 8.96143C23.5834 5.50535 34.0622 -0.451643 45.1529 3.36904C56.2435 7.18972 67.9441 8.96593 73.5404 10.6305C77.8695 7.36588 90.4994 4.12692 97.3268 7.2557C109.616 4.85187 132.229 4.26369 143.265 15.8212L143.434 16.0001C142.981 25.6001 121.289 39.557 110.5 45.3354L110.3 45.0887C105.583 39.3539 98.1302 36.2175 87 31.0002Z" stroke="#606060" stroke-width="0.5"/>
<path d="M75.7235 24.0408C80.0812 26.3371 88.0024 39.8332 84.613 58.096M84.613 58.096C81.7262 68.2543 76.3488 93.2299 80.0584 100.993M84.613 58.096C87.6754 62.2159 93.8719 67.0926 98.8085 64.4289C99.6984 60.2603 104.38 58.2866 108.892 57.7973M84.613 58.096C79.7597 61.4094 69.1416 67.3968 65.4961 64.8387C61.8505 62.2805 53.402 61.0106 49.6334 60.6955C45.2936 59.845 37.1625 56.8359 39.3569 51.6029C37.6386 49.6356 34.3082 45.1574 34.7332 42.983M108.892 57.7973L121.831 53.8421M108.892 57.7973C110.778 58.1356 114.903 59.8925 116.312 64.2136" stroke="#454545" stroke-width="0.5"/>
</svg>
