<svg width="71" height="186" viewBox="0 0 71 186" fill="none" xmlns="http://www.w3.org/2000/svg">
<path d="M48.64 168.322C38.0299 172.272 25.1429 169.559 20.0256 167.709C16.8501 154.788 17.0664 96.1534 17.5715 68.451C19.2545 43.3176 25.1762 -5.20755 35.3996 1.75921C45.623 8.72597 49.727 32.1895 50.501 43.0504C54.3015 83.1621 59.25 164.373 48.64 168.322Z" fill="#D1A711" stroke="#D1A711"/>
<path d="M20.8886 158.98C24.635 161.806 34.4745 165.957 43.8605 159.95C41.1331 115.676 35.7761 25.0903 35.9803 13.9536C36.0214 12.6911 36.0225 12.5273 35.9869 13.6829C35.9843 13.7671 35.9821 13.8574 35.9803 13.9536C35.5846 26.1275 31.4794 140.459 20.8886 158.98Z" fill="#ECECEC" stroke="#ECECEC"/>
<path opacity="0.9" d="M9.73817 184.476H39.1219C36.4283 184.476 66.6592 184.476 68.7503 181.71C74.6053 179.165 64.7836 145.651 49.8959 118.092C35.0081 90.5329 21.0019 106.609 15.8598 118.092C1.55972 143.237 0.43338 158.073 1.16798 164.862C1.16798 169.892 1.41283 178.525 2.14742 181.961C4.69401 185.381 8.26899 185.063 9.73817 184.476Z" fill="#D7D7D7" stroke="#606060"/>
<path opacity="0.9" d="M68.7503 181.71C73.9328 179.457 66.8331 152.942 54.8094 127.769C51.8094 129.433 45.9094 133.163 46.3094 134.763C46.8094 136.763 51.8094 182.779 54.8094 183.992L55.1083 183.975C61.6284 183.591 67.8423 182.911 68.7503 181.71Z" stroke="#606060" stroke-width="0.5"/>
<path opacity="0.9" d="M2.14743 181.961C4.69402 185.381 8.269 185.063 9.73818 184.476H22.3094C24.8094 180.689 19.8094 137.263 19.8094 134.763C19.8094 132.763 13.7605 129.267 10.736 127.769C1.28822 147.117 0.53311 158.995 1.16798 164.863C1.16798 169.892 1.41284 178.525 2.14743 181.961Z" stroke="#606060" stroke-width="0.5"/>
<path opacity="0.9" d="M39.1219 184.476H22.3094C24.8094 180.689 19.8094 137.263 19.8094 134.763C19.8094 132.763 13.7605 129.266 10.736 127.768C12.22 124.729 13.9185 121.506 15.8598 118.092C21.0019 106.609 35.0082 90.5329 49.8959 118.092C50.5835 119.365 51.2604 120.651 51.9254 121.945C52.9141 123.87 53.8766 125.815 54.8094 127.768C51.8094 129.433 45.9094 133.163 46.3094 134.763C46.8094 136.763 51.8094 182.779 54.8094 183.992L55.1083 183.975C46.613 184.476 37.5979 184.476 39.1219 184.476Z" stroke="#606060" stroke-width="0.5"/>
<path d="M19.5 131C24.5 124.333 36.9 114.1 46.5 126.5C32.1 93.7 22.5 115.833 19.5 131Z" fill="#4BAEB5" stroke="#4BAEB5"/>
</svg>
