<svg width="82" height="98" viewBox="0 0 82 98" fill="none" xmlns="http://www.w3.org/2000/svg">
<path d="M55.8609 26.1218C43.6577 10.5816 34.1732 19.6467 29.0885 26.1218C27.7395 30.6543 23.2359 40.3021 16.0136 50.4032C14.7684 53.9645 13.025 62.5763 16.0136 68.5333C17.9852 71.9867 24.4189 80.5121 38.1164 81.8071C45.2765 80.6201 57.1061 78.5696 62.0871 72.7421C66.1341 68.0072 66.8812 60.7632 68.6245 50.4032C68.6245 42.6331 57.8533 34.6688 55.8609 26.1218Z" fill="#D1A711" stroke="#D1A711"/>
<path opacity="0.9" d="M62.6466 13.6464C44.6209 -9.72303 30.6111 3.90913 23.1004 13.6464C21.1077 20.4625 14.4554 34.971 3.78712 50.1611C1.94776 55.5166 -0.627342 68.4671 3.78712 77.4254C6.69943 82.6186 16.2028 95.4393 36.4357 97.3868C47.012 95.6016 64.4859 92.5182 71.8434 83.7546C77.8213 76.6343 78.9249 65.7407 81.5 50.1611C81.5 38.4764 65.5896 26.4996 62.6466 13.6464Z" fill="#D7D7D7" stroke="#606060"/>
<path opacity="0.9" d="M51 34.4947C44.6 32.0947 35.6667 35.4947 32 37.4947C31.408 38.1896 30.727 39.0277 30 39.9701C25.3684 39.3116 16.0448 36.4946 15.8027 30.4946C19.5479 23.352 22.0152 17.3584 23.1004 13.6464C30.6111 3.90913 44.6209 -9.72303 62.6466 13.6464C63.7284 18.3712 66.5625 22.9776 69.7145 27.4946C67.8861 37.0946 61.4763 39.2541 58.5 39.1338C56.6044 37.2995 54.0579 35.6414 51 34.4947Z" stroke="#606060" stroke-width="0.5"/>
<g opacity="0.9">
<path d="M51 34.4947C44.6 32.0947 35.6667 35.4947 32 37.4947C31.408 38.1896 30.727 39.0277 30 39.9701C26.0196 45.1304 20.6618 53.4212 21 58.4946C21.4 64.4946 28.5 69.328 32 70.9946C37.3334 72.328 49.5 73.4946 55.5 67.4946C61.5 61.4946 62.3334 51.9946 62 47.9946C62.9267 45.5236 61.5636 42.0985 58.5 39.1338C56.6045 37.2995 54.058 35.6414 51 34.4947Z" stroke="#606060" stroke-width="0.5"/>
</g>
<path opacity="0.9" d="M62 47.9947C62.9267 45.5236 61.5635 42.0985 58.5 39.1339C61.4763 39.2541 67.8861 37.0947 69.7145 27.4947L69.6722 27.4341C75.1038 35.2265 81.5 42.7525 81.5 50.1611C78.9249 65.7408 77.8213 76.6343 71.8434 83.7547C72.1181 76.7627 61.9561 69.0013 56.8408 65.9947C61.6257 60.0123 62.3067 51.6752 62 47.9947Z" stroke="#606060" stroke-width="0.5"/>
<path opacity="0.9" d="M55.5 67.4946C49.5 73.4946 37.3334 72.3279 32.0001 70.9946C30.0287 70.0558 26.9151 68.1124 24.5 65.5217C19.5 66.6462 9.50005 72.1052 9.50005 84.9449C14.727 90.3023 23.3307 96.1253 36.4358 97.3867C46.915 95.618 64.1656 92.5746 71.6382 83.9946M71.8434 83.7546C72.1181 76.7626 61.9561 69.0012 56.8408 65.9946M71.8434 83.7546C71.7759 83.835 71.7074 83.9151 71.6382 83.9946M71.8434 83.7546L71.6382 83.9946" stroke="#606060" stroke-width="0.5"/>
<path opacity="0.9" d="M3.78712 77.4254C-0.627342 68.4671 1.94776 55.5166 3.78712 50.1611C8.58797 43.3254 12.5756 36.6276 15.6912 30.7069L15.8027 30.4946C16.0449 36.4946 25.3685 39.3116 30 39.9701C26.0196 45.1304 20.6618 53.4212 21 58.4946C21.1733 61.0942 22.6043 63.4747 24.4552 65.4736L24.5 65.5217C19.5 66.6462 9.5 72.1052 9.5 84.9449L9.19294 84.6267C6.52367 81.8298 4.77568 79.1882 3.78712 77.4254Z" stroke="#606060" stroke-width="0.5"/>
<path d="M54.5 58.4946C56.1667 55.8279 58 52.3946 56 49.9946C52.3333 51.6612 43.5 53.9946 37.5 49.9946C31.5 45.9946 29 53.9946 28.5 58.4946" stroke="#454545" stroke-width="0.5"/>
</svg>
