<svg width="72" height="186" viewBox="0 0 72 186" fill="none" xmlns="http://www.w3.org/2000/svg">
<path d="M23.1694 168.56C33.7795 172.509 46.6665 169.797 51.7838 167.946C54.9593 155.026 54.743 96.3908 54.2379 68.6884C52.5549 43.555 46.6332 -4.97018 36.4098 1.99658C26.1864 8.96334 22.0824 32.4268 21.3084 43.2877C17.5079 83.3995 12.5593 164.61 23.1694 168.56Z" fill="#D1A711" stroke="#D1A711"/>
<path d="M50.9208 159.217C47.1743 162.044 37.3349 166.195 27.9489 160.187C30.6763 115.914 36.0333 25.3277 35.8291 14.191C35.788 12.9285 35.7869 12.7646 35.8225 13.9203C35.8251 14.0045 35.8273 14.0948 35.8291 14.191C36.2248 26.3649 40.3299 140.696 50.9208 159.217Z" fill="#ECECEC" stroke="#ECECEC"/>
<path opacity="0.9" d="M62.0712 184.713H32.6875C35.3811 184.713 5.15016 184.713 3.05909 181.947C-2.79591 179.402 7.02578 145.889 21.9135 118.33C36.8012 90.7703 50.8075 106.847 55.9496 118.33C70.2497 143.475 71.376 158.311 70.6414 165.1C70.6414 170.129 70.3966 178.762 69.662 182.199C67.1154 185.618 63.5404 185.3 62.0712 184.713Z" fill="#D7D7D7" stroke="#606060"/>
<path opacity="0.9" d="M3.0591 181.947C-2.12339 179.694 4.97633 153.179 17 128.006C20 129.671 25.9 133.4 25.5 135C25 137 20 183.017 17 184.23L16.7011 184.212C10.181 183.828 3.9671 183.148 3.0591 181.947Z" stroke="#606060" stroke-width="0.5"/>
<path opacity="0.9" d="M69.662 182.199C67.1154 185.618 63.5404 185.3 62.0712 184.713H49.5C47 180.926 52 137.5 52 135C52 133 58.0489 129.504 61.0734 128.006C70.5212 147.355 71.2763 159.232 70.6414 165.1C70.6414 170.129 70.3965 178.762 69.662 182.199Z" stroke="#606060" stroke-width="0.5"/>
<path opacity="0.9" d="M32.6875 184.713H49.5C47 180.926 52 137.5 52 135C52 133 58.0489 129.504 61.0734 128.006C59.5893 124.967 57.8909 121.743 55.9496 118.33C50.8075 106.847 36.8012 90.7703 21.9135 118.33C21.2259 119.603 20.549 120.888 19.884 122.183C18.8953 124.108 17.9328 126.053 17 128.006C20 129.671 25.9 133.4 25.5 135C25 137 20 183.016 17 184.23L16.7011 184.212C25.1964 184.713 34.2115 184.713 32.6875 184.713Z" stroke="#606060" stroke-width="0.5"/>
</svg>
