<svg width="65" height="149" viewBox="0 0 65 149" fill="none" xmlns="http://www.w3.org/2000/svg">
<path d="M12 16.5001H52.5C57.4999 72.5001 44.5 103.5 40.5 131C37.3 153 30.5 148.833 27.5 144C6.30002 92.0001 6.16663 37.1668 12 16.5001Z" fill="#D1A711" stroke="#D1A711"/>
<path d="M21.1817 38.5026C23.3036 30.6152 23.7851 27.5479 26.2606 27.0001H35.809C45.3574 41.2413 38.4613 46.7187 41.6441 64.2464C44.1904 78.2685 37.4494 117.925 31.2606 136C15.3466 96.5629 18.5294 48.3619 21.1817 38.5026Z" fill="#ECECEC" stroke="#ECECEC"/>
<path opacity="0.9" d="M7.5 0.500122H57C63.8 3.70012 64.1667 8.83346 63.5 11.0001C59.3333 37.8335 46.1 93.1001 26.5 99.5001C6.9 105.9 1 40.5001 0.5 7.00012C1.7 2.60012 5.66667 0.833455 7.5 0.500122Z" fill="#D7D7D7" stroke="#606060"/>
<path d="M16.4357 49.9732L17.4999 0.500122L6.99994 0.500189C-6.29425e-05 3.00012 1.49994 6.00012 0.499937 7.00012C-0.519867 8.01993 1.97889 37.0943 3.46838 51.6414L16.4357 49.9732Z" stroke="#606060" stroke-width="0.5"/>
<path d="M43.225 50.886L45.9999 0.500122H56.9999C62.9999 3.30012 63.8333 8.00012 63.4999 10.0001C62.2999 22.4001 56.6666 43.1668 53.9999 52.0002L43.225 50.886Z" stroke="#606060" stroke-width="0.5"/>
<path d="M45.9999 0.500122H17.4999L16.4999 50.0001L3.99994 51.5001C8.79994 93.1001 19.4999 101.167 24.4999 100C38.0999 99.2001 49.8333 67.6668 53.9999 52.0001L42.9999 51.0001L45.9999 0.500122Z" stroke="#606060" stroke-width="0.5"/>
<path d="M12.5 75C14.5 79 22.8 85.8 40 81C24.8 100.6 15.3333 85.1667 12.5 75Z" fill="#4BAEB5" stroke="#4BAEB5"/>
</svg>
