<svg width="144" height="119" viewBox="0 0 144 119" fill="none" xmlns="http://www.w3.org/2000/svg">
<path d="M94.2781 18.1674C124.812 10.7674 127.911 40.4624 129.044 53.3887C131.463 72.7426 125.014 85.6454 121.486 89.6775C116.952 98.216 82.5634 100.113 65.936 99.9949C51.7272 99.9949 41.121 89.5589 37.594 84.3409C31.85 78.364 27.1389 59.7927 25.5014 51.2542C13.4087 23.1483 41.8768 20.6579 54.5992 21.3694C59.1339 19.9463 72.6122 21.2508 78.7844 23.1483C87.5516 20.5867 92.2627 19.8277 94.2781 18.1674Z" fill="#D1A711" stroke="#D1A711"/>
<path opacity="0.9" d="M95.8732 2.64072C136.273 -7.75928 140.373 33.974 141.873 52.1406C145.073 79.3405 136.54 97.474 131.873 103.141C125.873 115.141 80.3732 117.807 58.3732 117.641C39.5732 117.641 25.5399 102.974 20.8732 95.6407C13.2732 87.2407 7.03992 61.1407 4.87325 49.1407C-11.1268 9.64075 26.5399 6.14075 43.3732 7.14075C49.3732 5.14075 67.2066 6.97408 75.3732 9.64075C86.9732 6.04075 93.2066 4.97406 95.8732 2.64072Z" fill="#D7D7D7" stroke="#606060"/>
<path opacity="0.9" d="M141.873 52.1406C141.064 42.3353 139.497 25.6647 131.873 14.0314C126.107 20.1871 113.974 34.4628 111.574 42.3196C116.862 51.2194 114.829 62.3888 111.574 70.4211C120.352 78.2338 137.304 94.7874 134.89 98.5C139.393 90.1482 144.457 74.0988 141.873 52.1406Z" stroke="#606060"/>
<path opacity="0.9" d="M51.574 81C77.574 94.6 100.407 83.6667 108.574 76.5C109.577 74.8277 110.627 72.7571 111.574 70.4211C120.352 78.2339 137.304 94.7874 134.89 98.5C133.816 100.494 132.773 102.049 131.873 103.141C125.873 115.141 80.3733 117.807 58.3733 117.641C47.5783 117.641 38.3549 112.805 31.574 107.299C30.774 102.338 40.9074 84.0225 46.074 75.4851C47.8988 77.7428 49.8354 79.6162 51.574 81Z" stroke="#606060"/>
<path opacity="0.9" d="M20.8732 95.6407C13.2732 87.2407 7.03991 61.1407 4.87324 49.1407C0.457363 38.2391 0.129364 30.0795 2.32305 24C11.2969 31.3803 31.4775 46.7408 40.4093 49.1407C36.5503 59.4256 40.8547 69.0275 46.074 75.4851C40.9073 84.0225 30.774 102.338 31.574 107.299C26.5456 103.215 22.8603 98.7633 20.8732 95.6407Z" stroke="#606060"/>
<path opacity="0.9" d="M104.574 35C91.4074 29.5 61.274 22.8 46.074 40C43.3661 43.0643 41.5383 46.1317 40.4093 49.1407C31.4776 46.7408 11.2969 31.3803 2.3231 24C8.07778 8.05157 31.1858 6.41674 43.3733 7.14075C49.3733 5.14075 67.2066 6.97408 75.3733 9.64075C86.9733 6.04075 93.2066 4.97406 95.8733 2.64072C114.468 -2.14598 125.373 4.11118 131.873 14.0314C126.107 20.1871 113.974 34.4628 111.574 42.3196C109.971 39.6208 107.694 37.1306 104.574 35Z" stroke="#606060"/>
<path opacity="0.9" d="M104.574 35C107.694 37.1306 109.971 39.6208 111.574 42.3196C116.862 51.2194 114.829 62.3888 111.574 70.4211C110.627 72.757 109.577 74.8277 108.574 76.5C100.407 83.6666 77.574 94.6 51.574 81C49.8353 79.6161 47.8988 77.7428 46.074 75.4851C40.8547 69.0275 36.5504 59.4256 40.4093 49.1407C41.5383 46.1317 43.366 43.0643 46.074 40C61.274 22.8 91.4073 29.5 104.574 35Z" stroke="#606060"/>
<path d="M70.574 20.5C73.2406 28.1667 78.374 44.4 77.574 48C76.7946 51.5073 75.8026 56.6395 75.0241 62M85.574 100.5C84.374 96.1 77.7406 87.3333 74.574 83.5C74.0537 82.026 73.806 79.9459 73.7575 77.5M126.574 39.5C125.574 43.1667 122.574 51.2 118.574 54C112.574 54 99.074 54.8 93.074 58C87.074 61.2 78.5407 62 75.0241 62M75.0241 62C68.7074 62 54.674 61.2 49.074 58C47.2586 58 44.7997 58.1068 42.074 58.3816M75.0241 62C74.2379 67.4133 73.6694 73.0595 73.7575 77.5M22.574 64.5C26.8542 60.7905 35.2903 59.0657 42.074 58.3816M73.7575 77.5C78.363 77.8333 87.674 79 88.074 81M32.574 39.5C36.074 44.5878 42.874 55.487 42.074 58.3816M42.074 58.3816C42.074 66.687 45.4073 73.2544 47.074 75.5" stroke="#454545" stroke-width="0.5"/>
</svg>
