<svg width="70" height="149" viewBox="0 0 70 149" fill="none" xmlns="http://www.w3.org/2000/svg">
<path d="M14.5 17.5001H58H64.9999C68.5999 23.5001 67.9999 22.9476 67.9999 32.5001C67.9999 47.0001 66.4999 51.0001 62.4999 64.0001C58.5 77.0001 46 134.833 43 138.5C41.1667 150 34.4 160 22 108C9.59999 56.0001 9.49992 32.0001 10.4999 25.5001C11.5 19.0001 13.3333 17.5001 14.5 17.5001Z" fill="#D1A711" stroke="#D1A711"/>
<path d="M31.3913 112.068C31.3913 112.068 35.597 136.95 37.6998 140C45.6259 112.71 50.3811 56.5287 49.9929 46.1263C49.5076 33.1232 47.5665 33.6048 47.5665 31.6785C47.5665 29.7521 37.6998 32.6416 28.4796 30.6785C21.2259 29.134 20.5535 45.7684 21.2006 53.7949C24.5974 79.801 31.3913 112.068 31.3913 112.068Z" fill="#ECECEC" stroke="#ECECEC"/>
<path opacity="0.9" d="M59.329 1.01055H5.82904C-0.170958 3.81054 0.662376 8.84388 1.82904 11.0105C1.82904 21.0105 21.329 122.011 42.329 92.5106C63.329 63.0106 70.329 21.5105 68.329 11.0105C66.729 2.61055 61.6624 0.843882 59.329 1.01055Z" fill="#D7D7D7" stroke="#606060"/>
<path d="M22.9999 52.0002L17.4999 1.00024H5.49994C-0.100064 4.20024 0.833279 9.00024 1.99995 11.0002C0.799951 13.0002 6.49994 40.0002 10.4999 53.5002L22.9999 52.0002Z" stroke="#606060" stroke-width="0.5"/>
<path d="M46.4999 52.0002L48.9999 1.00024H60.4999C75.4999 4.50018 65.9999 37.5002 61.4999 53.0002L46.4999 52.0002Z" stroke="#606060" stroke-width="0.5"/>
<path d="M48.9999 1.00012H17.4999L22.9999 52.0001L10.4999 53.5001C20.9999 94.0001 30.9999 99.1668 34.9999 98.0001C44.1999 96.8001 56.3333 67.8335 61.4999 53.0001L46.4999 52.0001L48.9999 1.00012Z" stroke="#606060" stroke-width="0.5"/>
<path d="M24 72C26.3333 76.5 34.2 82.8 47 72C42.5 85.3333 31.6 104 24 72Z" fill="#4BAEB5" stroke="#4BAEB5"/>
</svg>
