<svg width="144" height="119" viewBox="0 0 144 119" fill="none" xmlns="http://www.w3.org/2000/svg">
<path d="M49.2959 18.1674C18.762 10.7674 15.6633 40.4624 14.5296 53.3887C12.1111 72.7426 18.5605 85.6454 22.0875 89.6775C26.6222 98.216 61.0106 100.113 77.6379 99.9949C91.8468 99.9949 102.453 89.5589 105.98 84.3409C111.724 78.364 116.435 59.7927 118.073 51.2542C130.165 23.1483 101.697 20.6579 88.9748 21.3694C84.44 19.9463 70.9618 21.2508 64.7895 23.1483C56.0224 20.5867 51.3113 19.8277 49.2959 18.1674Z" fill="#D1A711" stroke="#D1A711"/>
<path opacity="0.9" d="M47.7007 2.64072C7.30073 -7.75928 3.20073 33.974 1.70073 52.1406C-1.49927 79.3405 7.03406 97.474 11.7007 103.141C17.7007 115.141 63.2007 117.807 85.2007 117.641C104.001 117.641 118.034 102.974 122.701 95.6407C130.301 87.2407 136.534 61.1407 138.701 49.1407C154.701 9.64075 117.034 6.14075 100.201 7.14075C94.2007 5.14075 76.3674 6.97408 68.2007 9.64075C56.6007 6.04075 50.3674 4.97406 47.7007 2.64072Z" fill="#D7D7D7" stroke="#606060"/>
<path d="M73 20.5C70.3333 28.1667 65.2 44.4 66 48C66.7794 51.5073 67.7714 56.6395 68.5499 62M58 100.5C59.2 96.1 65.8333 87.3333 69 83.5C69.5202 82.026 69.768 79.9459 69.8165 77.5M17 39.5C18 43.1667 21 51.2 25 54C31 54 44.5 54.8 50.5 58C56.5 61.2 65.0333 62 68.5499 62M68.5499 62C74.8666 62 88.9 61.2 94.5 58C96.3154 58 98.7743 58.1068 101.5 58.3816M68.5499 62C69.3361 67.4133 69.9046 73.0595 69.8165 77.5M121 64.5C116.72 60.7905 108.284 59.0657 101.5 58.3816M69.8165 77.5C65.211 77.8333 55.9 79 55.5 81M111 39.5C107.5 44.5878 100.7 55.487 101.5 58.3816M101.5 58.3816C101.5 66.687 98.1667 73.2544 96.5 75.5" stroke="#454545" stroke-width="0.5"/>
<path opacity="0.9" d="M1.70073 52.1406C2.51034 42.3353 4.07738 25.6647 11.7007 14.0314C17.4672 20.1871 29.6 34.4628 32 42.3196C26.7123 51.2194 28.745 62.3888 32 70.4211C23.2222 78.2338 6.26995 94.7874 8.68363 98.5C4.18088 90.1482 -0.882594 74.0988 1.70073 52.1406Z" stroke="#606060"/>
<path opacity="0.9" d="M92 81C66 94.6 43.1667 83.6667 35 76.5C33.9966 74.8277 32.9466 72.7571 32 70.4211C23.2222 78.2339 6.26994 94.7874 8.68363 98.5C9.75849 100.494 10.8014 102.049 11.7007 103.141C17.7007 115.141 63.2007 117.807 85.2007 117.641C95.9957 117.641 105.219 112.805 112 107.299C112.8 102.338 102.667 84.0225 97.5 75.4851C95.6752 77.7428 93.7387 79.6162 92 81Z" stroke="#606060"/>
<path opacity="0.9" d="M122.701 95.6407C130.301 87.2407 136.534 61.1407 138.701 49.1407C143.117 38.2391 143.445 30.0795 141.251 24C132.277 31.3803 112.096 46.7408 103.165 49.1407C107.024 59.4256 102.719 69.0275 97.5 75.4851C102.667 84.0225 112.8 102.338 112 107.299C117.028 103.215 120.714 98.7633 122.701 95.6407Z" stroke="#606060"/>
<path opacity="0.9" d="M39 35C52.1667 29.5 82.3 22.8 97.5 40C100.208 43.0643 102.036 46.1317 103.165 49.1407C112.096 46.7408 132.277 31.3803 141.251 24C135.496 8.05157 112.388 6.41674 100.201 7.14075C94.2007 5.14075 76.3674 6.97408 68.2007 9.64075C56.6007 6.04075 50.3674 4.97406 47.7007 2.64072C29.1062 -2.14598 18.2015 4.11118 11.7007 14.0314C17.4672 20.1871 29.6 34.4628 32 42.3196C33.6035 39.6208 35.8801 37.1306 39 35Z" stroke="#606060"/>
<path opacity="0.9" d="M39 35C35.8801 37.1306 33.6035 39.6208 32 42.3196C26.7123 51.2194 28.745 62.3888 32 70.4211C32.9466 72.757 33.9966 74.8277 35 76.5C43.1667 83.6666 66 94.6 92 81C93.7387 79.6161 95.6752 77.7428 97.5 75.4851C102.719 69.0275 107.024 59.4256 103.165 49.1407C102.036 46.1317 100.208 43.0643 97.5 40C82.3 22.8 52.1667 29.5 39 35Z" stroke="#606060"/>
</svg>
