<svg width="84" height="194" viewBox="0 0 84 194" fill="none" xmlns="http://www.w3.org/2000/svg">
<path d="M60 36.5001C43.2 41.3001 30.6667 34.5001 26.5 30.5001C21.3333 38.8335 11.8 61.7001 15 86.5001C18.8333 91.8335 26.5 110.5 26.5 142.5C24.8333 152.833 20.2 175.6 15 184C14 190.5 14.9 199.6 26.5 184C41 164.5 62 142.5 70.5 86.5001C70.9 62.5001 63.6667 43.1668 60 36.5001Z" fill="#D1A711" stroke="#D1A711"/>
<path d="M35.2667 55.1727C35.1731 55.1138 35.0841 55.0562 35 55.0001C35.0908 55.0477 35.1797 55.1053 35.2667 55.1727C37.9579 56.8661 44.5422 59.6598 51.5 58.5001C58.7 57.3001 39 148.5 20.5 185.5C35.8325 150.384 43.2392 61.3513 35.2667 55.1727Z" fill="#ECECEC"/>
<path d="M35 55.0001C37.5 56.6668 44.3 59.7001 51.5 58.5001C58.7 57.3001 39 148.5 20.5 185.5C36 150 43.4 59.4001 35 55.0001Z" stroke="#ECECEC"/>
<path opacity="0.9" d="M75.5 78.0001C82.7 54.0001 83.5 38.6668 83 34.0001C82.25 27.0002 67.7 35.9002 56.5 13.5002C45.3 -8.89984 32.5 4.16682 27.5 13.5002C24.1666 17.0002 20.3 21.8001 11.5 21.0001C2.69997 20.2001 0.83331 29.3335 0.999979 34.0001C0.599979 55.2001 4.86508 70.0002 9.49998 78.0001C38.7 128.4 65.6666 99.0001 75.5 78.0001Z" fill="#D7D7D7" stroke="#606060"/>
<path opacity="0.9" d="M77 73.0001C66.2 73.4001 56.3334 70.8335 56 70.5001C51.6 68.5001 58.3334 35.5001 58 16.5001H58.1255C69.0581 35.0864 82.2858 27.3344 83 34.0001C83.4643 38.3341 82.8074 51.8681 76.9441 73.0001L77 73.0001Z" stroke="#606060" stroke-width="0.5"/>
<path opacity="0.9" d="M27 14.0001L25.5 40.0001L24 66.0001C23.8333 67.6668 20 70.8001 6 70.0001H5.89671C2.895 61.5031 0.708446 49.4514 0.999979 34.0002C0.83331 29.3335 2.69997 20.2002 11.5 21.0002C19.8639 21.7605 23.7713 17.4621 27 14.0292V14.0001Z" stroke="#606060" stroke-width="0.5"/>
<path opacity="0.9" d="M25.0374 48.0188L24 66.0001C23.8333 67.6668 20 70.8001 6 70.0001C6.83332 72.5001 8.69996 77.6001 9.49998 78.0001C38.7 128.4 65.6666 99.0001 75.5 78.0001L77 73.0001C66.2 73.4001 56.3334 70.8335 56 70.5001C54.0863 69.6302 54.2787 62.8961 55.0797 54.0001H55C35.0416 55.497 31.0167 51.0188 25.0374 48.0188ZM25.0374 48.0188C25.0249 48.0126 25.0125 48.0064 25 48.0001L25.0374 48.0188Z" stroke="#606060" stroke-width="0.5"/>
<path opacity="0.9" d="M25.0374 48.0188L26.9982 14.0311L27 14.0001L27.5 13.5002C32.5 4.16682 45.3 -8.89984 56.5 13.5002L58 16.5001C58.1884 27.2363 56.1204 42.4426 55.0797 54.0001H55C35.0416 55.497 31.0167 51.0188 25.0374 48.0188ZM25.0374 48.0188C25.0249 48.0126 25.0125 48.0064 25 48.0001L25.0374 48.0188Z" stroke="#606060" stroke-width="0.5"/>
<path d="M19.5 77C24.6667 81.6667 40.9 89.6 64.5 84C54 93.8333 30.3 106.2 19.5 77Z" fill="#4BAEB5" stroke="#4BAEB5"/>
</svg>
