<svg width="148" height="250" viewBox="0 0 148 250" fill="none" xmlns="http://www.w3.org/2000/svg">
<path d="M60.5001 195.5C56.5001 192.7 47.1667 203.667 43.0001 209.5C13.0001 199.5 -2.99994 156.5 5.00006 146.5C11.4001 138.5 11.0001 111.5 10.0001 99C11.6667 69.6667 11.9001 8.7 23.5001 15.5C35.1001 22.3 47.0001 57 51.5001 73.5C54.5001 47.3333 62.3001 -3.80003 69.5001 0.999974C76.1314 5.42088 88.927 51.4642 95.8549 79.2833C91.2919 56.6166 98.437 41.5194 103 36.5C115.4 38.5 122.5 81.3333 124.5 102.5C133.5 110 110.5 206 107 206C104.2 206 99.5001 195.333 97.5001 190C93.1001 191.6 85.6667 201.333 82.5001 206C74.5001 207.5 65.5001 199 60.5001 195.5Z" fill="#D1A711" stroke="#D1A711"/>
<path d="M93.5001 176.5C77.1001 156.5 60.6667 168.167 54.5001 176.5C46.9001 166.9 46.3334 148.167 47.0001 140C43.8001 136 29.3334 60.3334 22.5001 23C30.7087 53.372 48.3616 113.662 54.2404 115.459C54.3297 115.486 54.4163 115.5 54.5001 115.5C61.5001 115.5 69.5001 2 69.5001 9.50002C69.5001 14.8815 90.3334 84.1667 98.5001 115.5C106.5 108.3 104.833 66.8333 103 49C106.5 72.1667 111.4 122.9 103 124.5C94.6001 126.1 93.1667 159.833 93.5001 176.5Z" fill="#ECECEC" stroke="#ECECEC"/>
<g opacity="0.9">
<path d="M24.5001 136.5C41.6667 124.5 97.9001 107.7 135.5 136.5C141 157.167 150.6 201.7 145 214.5C138 230.5 134 239 125.5 245C124.5 247 122 249.5 120 249.5C117.5 249.5 116.5 247 114.5 245L92.5001 229C94.1667 225.667 97.5001 218.3 97.5001 215.5C97.5001 212.7 99.8334 205.333 101 202C99.3334 204.833 96.9001 210.9 96.5001 212.5C96.0001 214.5 95.5001 225 90.5001 227C85.5001 226.167 74.5001 225.4 70.5001 229C67.1667 231 58.9001 235.4 52.5001 237C50.3334 236.833 45.1001 237.1 41.5001 239.5C39.0901 241.107 35.3894 234.969 32.3949 228C30.43 228.833 25.7001 230.5 22.5001 230.5C18.5001 230.5 -23.9999 168.5 24.5001 136.5Z" fill="#D7D7D7"/>
<path d="M32.3949 228C35.3894 234.969 39.0901 241.107 41.5001 239.5C45.1001 237.1 50.3334 236.833 52.5001 237C58.9001 235.4 67.1667 231 70.5001 229C74.5001 225.4 85.5001 226.167 90.5001 227C95.5001 225 96.0001 214.5 96.5001 212.5C96.9001 210.9 99.3334 204.833 101 202C99.8334 205.333 97.5001 212.7 97.5001 215.5C97.5001 218.3 94.1667 225.667 92.5001 229L114.5 245C116.5 247 117.5 249.5 120 249.5C122 249.5 124.5 247 125.5 245C134 239 138 230.5 145 214.5C150.6 201.7 141 157.167 135.5 136.5C97.9001 107.7 41.6667 124.5 24.5001 136.5C-23.9999 168.5 18.5001 230.5 22.5001 230.5C25.7001 230.5 30.43 228.833 32.3949 228ZM32.3949 228C29.7981 221.956 27.7323 215.287 27.5001 212.5C28.0966 217.333 29.9108 227.2 32.3949 228Z" stroke="#606060"/>
</g>
<path opacity="0.9" d="M135.5 136.5C97.9001 107.7 41.6667 124.5 24.5001 136.5C21.3908 138.551 18.6556 140.726 16.2602 143L35.5 156.5C36.5492 162.629 37.8323 170.523 39.1111 179L59 168.5C68 164.5 72.5 163.5 86.5 168.5C104.5 173 115.024 175.762 114.5 178.534C116.7 167.1 118.816 158.192 120 156.5C122.8 152.5 132.61 145.833 137.165 143C136.584 140.649 136.023 138.467 135.5 136.5Z" stroke="#606060"/>
<path opacity="0.9" d="M32.3949 228C35.3894 234.969 39.0901 241.107 41.5001 239.5C42.4196 238.887 43.4457 238.413 44.5 238.05C46.2705 231.293 42.7077 202.841 39.1111 179C37.8323 170.523 36.5492 162.629 35.5 156.5L16.2602 143C-18.709 176.195 18.7565 230.5 22.5001 230.5C25.7001 230.5 30.43 228.833 32.3949 228ZM32.3949 228C29.7981 221.956 27.7323 215.287 27.5001 212.5C28.0966 217.333 29.9108 227.2 32.3949 228Z" stroke="#606060"/>
<path opacity="0.9" d="M125.5 245C134 239 138 230.5 145 214.5C150.067 202.918 142.689 165.354 137.165 143C132.61 145.833 122.8 152.5 120 156.5C118.816 158.192 116.7 167.1 114.5 178.534C110.199 200.884 105.573 232.884 106.938 239.5L114.5 245C116.5 247 117.5 249.5 120 249.5C122 249.5 124.5 247 125.5 245Z" stroke="#606060"/>
<path opacity="0.9" d="M97.5001 215.5C97.5001 218.3 94.1667 225.667 92.5001 229L106.938 239.5C105.573 232.884 110.199 200.884 114.5 178.534C115.024 175.762 104.5 173 86.5 168.5C72.5 163.5 68 164.5 59 168.5L39.1111 179C42.7077 202.841 46.2705 231.293 44.5 238.05C47.5734 236.992 50.8868 236.876 52.5001 237C58.9001 235.4 67.1667 231 70.5001 229C74.5001 225.4 85.5001 226.167 90.5001 227C95.5001 225 96.0001 214.5 96.5001 212.5C96.9001 210.9 99.3334 204.833 101 202C99.8334 205.333 97.5001 212.7 97.5001 215.5Z" stroke="#606060"/>
<path d="M24.5 144C50.3333 138.833 106.5 134.4 124.5 158C113.3 108.8 53.1667 128.167 24.5 144Z" fill="#4BAEB5" stroke="#4BAEB5"/>
</svg>
