<svg width="62" height="148" viewBox="0 0 62 148" fill="none" xmlns="http://www.w3.org/2000/svg">
<path d="M14.9128 130.07C21.1156 132.544 35.2195 129.039 41.4962 126.977C55.5263 123.618 31.5274 54.2956 26.3584 19.759C22.2232 -7.87034 18.6049 1.71734 16.3896 8.93394C12.2052 48.9689 8.71 127.596 14.9128 130.07Z" fill="#D1A711" stroke="#D1A711"/>
<path d="M22.8617 118.967C27.3583 120.214 34.4778 116.37 37.4755 114.292C25.1849 74.3925 21.6127 30.1292 21.3628 12.985C19.9889 47.7929 18.3651 117.721 22.8617 118.967Z" fill="#ECECEC" stroke="#ECECEC"/>
<path opacity="0.9" d="M8.43471 82.6079C23.7444 48.3115 41.0084 67.4833 47.7267 81.3562C54.2702 94.1189 65.6457 123.716 58.8003 140.001C58.984 141.39 57.4259 144.146 49.7241 144.056C42.366 145.127 26.774 146.043 19.668 146.269C15.9326 147.225 3.46558 147.287 1.87232 139.304C0.367058 127.078 -0.427826 98.623 8.43471 82.6079Z" fill="#D7D7D7" stroke="#606060"/>
<path opacity="0.9" d="M6.15661 87.5C-0.269895 103.898 0.510487 128.243 1.87232 139.304C3.10361 145.474 10.8291 146.838 15.9999 146.698C17.9999 130 16.9999 94.5 16.9999 92C16.9999 90 8.27105 88.3333 6.15661 87.5Z" stroke="#606060" stroke-width="0.5"/>
<path opacity="0.9" d="M49.7241 144.056C57.426 144.146 58.984 141.39 58.8003 140.001C64.7041 125.956 57.0549 102.009 50.6412 87.5C49.0941 88.1667 45.2999 90 42.4999 92C38.9999 94.5 42.4999 142 43.9999 144.721C46.178 144.51 48.1415 144.287 49.7241 144.056Z" stroke="#606060" stroke-width="0.5"/>
<path opacity="0.9" d="M49.7241 144.056C48.1415 144.287 46.178 144.51 43.9999 144.72M43.9999 144.72C36.0514 145.489 25.2456 146.091 19.668 146.269C18.8194 146.486 17.5201 146.657 15.9999 146.698C17.9999 130 16.9999 94.4999 16.9999 91.9999C16.9999 89.9999 8.27106 88.3333 6.15662 87.4999C6.83346 85.7728 7.59025 84.1339 8.43472 82.6079C23.7444 48.3115 41.0085 67.4833 47.7267 81.3562C48.6268 83.1118 49.6183 85.1858 50.6412 87.4999C49.0941 88.1666 45.2999 89.9999 42.4999 91.9999C38.9999 94.4999 42.4999 142 43.9999 144.72Z" stroke="#606060" stroke-width="0.5"/>
<path d="M14.5 84.5C21.6667 80.5 37.9 76.2 45.5 91C40.1667 75.0001 26.5 51.3001 14.5 84.5Z" fill="#4BAEB5" stroke="#4BAEB5"/>
</svg>
