<svg width="136" height="120" viewBox="0 0 136 120" fill="none" xmlns="http://www.w3.org/2000/svg">
<path opacity="0.9" d="M67.6879 22.0937C92.5817 17.0499 104.353 37.9721 107.127 49.0637C116.335 64.7554 114.341 80.3537 112.193 86.1913C110.504 90.2777 102.641 99.2911 84.6938 102.654C66.7471 106.016 47.3048 95.8819 39.827 90.3945C17.5384 86.4715 22.0974 61.2061 27.163 49.0637C28.0314 31.6908 54.5414 23.845 67.6879 22.0937Z" fill="#D1A711" stroke="#D1A711"/>
<path opacity="0.9" d="M66.8041 2.43233C103.461 -4.82575 120.795 25.2818 124.88 41.2429C138.438 63.8236 135.502 86.2699 132.339 94.6704C129.853 100.551 118.273 113.521 91.8459 118.36C65.4188 123.199 36.7896 108.615 25.7783 100.719C-7.04239 95.0737 -0.329071 58.7161 7.13017 41.2429C8.4089 16.2428 47.4456 4.9525 66.8041 2.43233Z" fill="#D7D7D7" stroke="#606060"/>
<path d="M96.5 48.8223C93 52.9889 86 62.2223 86 65.8223M86 65.8223C94.5 70.1556 111 80.3223 109 86.3223M86 65.8223C81.0763 65.5585 72.8035 65.0164 64.5 64.2694M44.5 61.8223C37 55.3223 51.4 37.6223 51 32.8223C50.6 28.0223 62.5 25.4889 68.5 24.8223M44.5 61.8223C49.6025 62.7672 57.0636 63.6005 64.5 64.2694M44.5 61.8223C43.1667 66.9889 39.8 77.5223 37 78.3223C34.6667 75.4889 29 69.8223 25 69.8223C21 69.8223 14.6667 71.8223 12 72.8223M64.5 64.2694C67 74.287 70.5 95.1223 64.5 98.3223" stroke="#454545" stroke-width="0.5"/>
<path d="M124.88 41.2429C138.438 63.8236 135.502 86.2699 132.339 94.6704C131.365 96.9749 128.994 100.368 124.88 103.935C114.383 102.824 102.312 84.3971 97.5888 75.3223C101.504 65.4811 96.2984 54.8776 89.6831 46.8223C101.83 43.6223 109.427 25.4889 111.707 16.8223C118.889 24.8379 123.117 34.3569 124.88 41.2429Z" stroke="#606060" stroke-width="0.5"/>
<path d="M66.8042 2.43233C87.6464 -1.69444 102.242 6.25834 111.707 16.8223C109.427 25.4889 101.83 43.6223 89.6831 46.8223C86.4951 42.9403 82.9796 39.6501 80 37.3223C59.396 28.5753 47.8756 32.5406 41.8585 41.2429C30.5452 41.2429 22.9056 26.6487 20.5 19.3515C33.9532 9.25344 54.4111 4.04571 66.8042 2.43233Z" stroke="#606060" stroke-width="0.5"/>
<path d="M7.13016 41.2429C7.59026 32.2476 12.9387 25.0271 20.5 19.3516C22.9056 26.6487 30.5451 41.2429 41.8584 41.2429C35.4932 50.4487 35.2865 64.9555 37 75.3223C38.4204 76.3588 40.0549 77.4617 41.8584 78.5774C39.1955 85.1116 31.1958 98.4338 20.5 99.4494C-6.26767 90.9538 0.0999489 57.7111 7.13016 41.2429Z" stroke="#606060" stroke-width="0.5"/>
<path d="M91.8458 118.36C65.4188 123.199 36.7895 108.615 25.7782 100.719C23.8905 100.394 22.1335 99.9679 20.5 99.4494C31.1958 98.4338 39.1955 85.1116 41.8584 78.5774C55.7144 87.1491 79.5506 96.4795 93 82.3223C95.1436 80.0659 96.6361 77.7166 97.5888 75.3223C102.312 84.3971 114.383 102.824 124.88 103.935C118.496 109.468 107.916 115.418 91.8458 118.36Z" stroke="#606060" stroke-width="0.5"/>
<path d="M93 82.3222C95.1436 80.0658 96.6362 77.7166 97.5889 75.3222C101.504 65.4811 96.2985 54.8776 89.6831 46.8223C86.4951 42.9403 82.9796 39.6501 80 37.3223C59.396 28.5753 47.8756 32.5406 41.8584 41.2429C35.4932 50.4487 35.2865 64.9555 37 75.3222C38.4205 76.3588 40.0549 77.4617 41.8584 78.5774C55.7145 87.1491 79.5506 96.4795 93 82.3222Z" stroke="#606060" stroke-width="0.5"/>
</svg>
