<svg width="125" height="235" viewBox="0 0 125 235" fill="none" xmlns="http://www.w3.org/2000/svg">
<path d="M88 29.3222C84.8 25.7222 90 18.8222 96 14.8222C96.6667 7.15551 94.4 -1.77779 88 1.82221C73.5 5.98888 52.4 12.7222 52 36.3222C51.5 65.8222 41 134.822 17.5 152.822C16.3334 162.156 16.2 182.522 25 189.322C35.6667 178.156 56 161.022 52 181.822C56.1667 180.322 65 176.622 67 173.822C69.5 170.322 96 177.322 96 184.822C101.833 176.489 113.4 156.922 113 145.322C112.5 130.822 99 36.8221 88 29.3222Z" fill="#D1A711" stroke="#D1A711"/>
<path d="M87.5 150.822C69.5 125.222 80 45.1555 87.5 8.3222C85.5 16.1555 80.3 33.8222 75.5 41.8222C69.5 51.8222 45.5 147.322 48 150.822C61.2 138.422 79.8333 145.656 87.5 150.822Z" fill="#ECECEC" stroke="#ECECEC"/>
<g opacity="0.9">
<path d="M124.5 183.322C123.7 158.922 119.5 137.322 106.5 131.822C80.8333 125.322 24.8 119.122 6 146.322C1.16666 170.656 -4.39999 220.222 12 223.822C14.3333 226.989 19.7 233.422 22.5 233.822C25.3 234.222 26 225.656 26 221.322C28.6667 214.656 38 200.822 54 198.822C54 197.822 54.5 195.222 56.5 192.822C57.5 194.322 57.5 195.822 56 198.822C62 202.822 78.5 210.422 84.5 208.822C86.3333 209.989 101.1 211.622 103.5 208.822C106.632 203.913 108.844 195.865 112.5 187.822C113.647 191.822 114.934 187.822 118 195.822C121.6 195.822 123 191.822 124.5 183.322Z" fill="#D7D7D7"/>
<path d="M114.934 166.822C115.524 171.743 116.043 180.03 112.5 187.822M112.5 187.822C108.844 195.865 106.632 203.913 103.5 208.822C101.1 211.622 86.3333 209.989 84.5 208.822C78.5 210.422 62 202.822 56 198.822C57.5 195.822 57.5 194.322 56.5 192.822C54.5 195.222 54 197.822 54 198.822C38 200.822 28.6667 214.656 26 221.322C26 225.656 25.3 234.222 22.5 233.822C19.7 233.422 14.3333 226.989 12 223.822C-4.4 220.222 1.16667 170.656 6 146.322C24.8 119.122 80.8333 125.322 106.5 131.822C119.5 137.322 123.7 158.922 124.5 183.322C123 191.822 121.6 195.822 118 195.822C114.934 187.822 113.647 191.822 112.5 187.822Z" stroke="#606060"/>
</g>
<path opacity="0.9" d="M114.934 166.822C115.524 171.743 116.043 180.03 112.5 187.822M112.5 187.822C113.647 191.822 114.934 187.822 118 195.822C121.6 195.822 123 191.822 124.5 183.322C123.907 165.251 121.45 148.715 114.934 139.119C105.367 142.916 101 146.322 99.5 153.322C99.2943 154.282 99.3122 155.873 99.5 157.916C100.408 167.785 105.284 188.189 108.063 198.822C109.387 195.371 110.784 191.596 112.5 187.822Z" stroke="#606060" stroke-width="0.5"/>
<path opacity="0.9" d="M114.934 139.119C112.652 135.758 109.872 133.249 106.5 131.822C82.1763 125.662 30.5806 119.772 9.24719 142.322C14.8315 143.489 26 147.322 26 153.322C26.2197 154.866 26.452 156.542 26.6915 158.322C38.6277 152.885 69.9 145.19 99.5 157.916C99.3122 155.873 99.2943 154.282 99.5 153.322C101 146.322 105.367 142.916 114.934 139.119Z" stroke="#606060" stroke-width="0.5"/>
<path opacity="0.9" d="M12 223.822C-4.40004 220.222 1.16663 170.656 5.99996 146.322C6.98365 144.899 8.06927 143.567 9.24714 142.322C14.8314 143.489 26 147.322 26 153.322C26.2196 154.866 26.4519 156.542 26.6915 158.322C29.3609 178.152 32.9364 210.773 30 214.18C28.1064 216.855 26.773 219.39 26 221.322C26 225.656 25.3 234.222 22.5 233.822C19.7 233.422 14.3333 226.989 12 223.822Z" stroke="#606060" stroke-width="0.5"/>
<path opacity="0.9" d="M54.0001 198.822C54.0001 197.822 54.5001 195.222 56.5001 192.822C57.5001 194.322 57.5001 195.822 56.0001 198.822C62.0001 202.822 78.5001 210.422 84.5001 208.822C86.3334 209.989 101.1 211.622 103.5 208.822C105.162 206.216 106.566 202.726 108.063 198.822C105.284 188.189 100.408 167.785 99.5001 157.916C69.9001 145.19 38.6277 152.885 26.6916 158.322C29.361 178.152 32.9365 210.773 30.0001 214.18C34.6384 207.63 42.6384 200.242 54.0001 198.822Z" stroke="#606060" stroke-width="0.5"/>
<path d="M17 162C29.5 154 65 140.4 107 150C83.1667 134.167 31.8 114.4 17 162Z" fill="#4BAEB5" stroke="#4BAEB5"/>
</svg>
