<svg width="179" height="197" viewBox="0 0 179 197" fill="none" xmlns="http://www.w3.org/2000/svg">
<path d="M63.0959 39.5918L38.4973 31.8621C30.6944 38.0817 16.1011 54.27 20.1512 69.2664C24.2014 84.2628 15.9415 102.03 11.3053 109.039C5.36967 128.681 -3.88885 170.854 6.56207 182.405C17.013 193.956 32.6492 184.53 39.161 178.373C79.7292 70.4871 105.657 142.766 113.747 189.335C115.143 192.641 120.941 197.518 132.973 190.578C145.006 183.638 148.484 169.654 148.719 163.53C150.553 120.234 157.168 107.506 164.602 82.1136C170.548 61.7995 165.041 45.4518 161.544 39.8172L133.13 46.3122L98.5788 35.7464L63.0959 39.5918Z" fill="#D1A711" stroke="#D1A711"/>
<path d="M132.134 59.3721C100.345 82.5031 79.2185 65.2371 72.6291 53.7127C62.4531 63.7373 63.286 66.0908 61.3666 71.1202C48.944 85.5745 54.9843 77.6204 51.9788 83.9679C50.2596 87.599 31.4799 151.353 21 182.417C75.7106 21.3128 125.41 123.329 123.348 192.151C124.396 157.189 128.863 111.938 123.533 99.3019C118.202 86.6653 127.045 67.4168 132.134 59.3721Z" fill="#ECECEC" stroke="#ECECEC"/>
<path opacity="0.9" d="M150.002 3.32369C169.47 16.6107 198.281 53.2488 157.78 93.5055C135.688 115.464 90.8169 115.606 19.9347 80.0539C11.9242 72.9088 -0.244381 51.057 15.1661 20.8107C16.4811 15.9153 22.7427 5.97641 29.3067 4.60745C31.5844 7.00668 39.2471 12.9122 39.7325 16.1747C41.3265 17.0001 47.9375 14.4635 50.4742 14.2087C51.9238 14.0631 52.2081 15.7722 52.1222 17.9139L52.5133 13.9053C54.7952 11.1137 65.2264 4.09366 68.0131 4.3656C69.1541 2.96982 71.3874 0.675883 72.3827 0.773006L73.8756 0.918691L104.267 18.9557C104.324 21.808 103.93 27.5636 101.9 27.7675C99.8711 27.9713 101.071 34.5523 101.925 37.8173L100.104 46.18L102.92 37.9145L102.653 30.3528C103.628 28.9408 105.527 25.6095 105.323 23.5801C105.119 21.5507 105.198 19.7164 105.263 19.0528C117.76 11.8995 144.205 -1.26101 150.002 3.32369Z" fill="#D7D7D7" stroke="#606060"/>
<path opacity="0.9" d="M155 67.0002C159 69.8002 170 69.1668 175 68.5002L174.944 68.5746C171.839 76.5968 166.367 84.9698 157.78 93.5054C135.688 115.464 90.8169 115.606 19.9347 80.0538C15.7224 76.2965 10.3604 68.4727 8.46323 57.5001C26.4632 63.9001 37.6667 62.1668 41 60.5001C42.9503 58.9678 44.6741 55.2078 46.142 50.5001C64.2613 59.3335 110.6 73.6001 151 60.0001L151.067 59.969C152.295 63.4379 153.611 65.9377 155 67.0002Z" stroke="#606060" stroke-width="0.5"/>
<path opacity="0.9" d="M51.6392 22.8626C50.8789 29.9231 48.8891 41.69 46.142 50.5001C64.2613 59.3334 110.6 73.6001 151 60.0001L151.071 59.9791C146.287 46.4783 142.829 18.2749 141.501 3.01659C130.973 5.39173 114.395 13.8259 105.263 19.0527C105.198 19.7162 105.119 21.5506 105.323 23.58C105.527 25.6094 103.628 28.9407 102.653 30.3527L102.92 37.9143L100.104 46.1799L101.925 37.8172C101.071 34.5522 99.8711 27.9712 101.9 27.7674C103.93 27.5635 104.324 21.8079 104.267 18.9556L73.8756 0.918569L72.3827 0.772884C71.3874 0.675761 69.1541 2.9697 68.0131 4.36548C65.2264 4.09354 54.7952 11.1136 52.5133 13.9052L52.1221 17.9138M51.6392 22.8626C51.7849 21.3697 52.0577 19.5201 52.1221 17.9138M51.6392 22.8626L52.1221 17.9138" stroke="#606060" stroke-width="0.5"/>
<path opacity="0.9" d="M8.46323 57.5001C26.4632 63.9001 37.6667 62.1668 41 60.5001C42.9503 58.9678 44.6741 55.2078 46.142 50.5001C48.8891 41.69 50.8789 29.9231 51.6392 22.8626C51.9792 19.3792 53.011 13.9537 50.4742 14.2086C47.9375 14.4634 41.3265 17 39.7325 16.1746C39.2471 12.912 31.5844 7.00653 29.3067 4.6073C22.7427 5.97626 16.4811 15.9151 15.1661 20.8105C7.85914 35.152 6.75258 47.6061 8.46323 57.5001Z" stroke="#606060" stroke-width="0.5"/>
<path opacity="0.9" d="M155 67.0001C148.2 61.8001 143.167 22.1668 141.5 3.00013C145.381 2.12441 148.441 2.08873 150.002 3.32359C165.33 13.7846 186.476 38.7201 175 68.5001C170 69.1668 159 69.8001 155 67.0001Z" stroke="#606060" stroke-width="0.5"/>
<path d="M18 48.5C30.3333 65.8333 75.5 96 157.5 78C57.9 115.6 23 74 18 48.5Z" fill="#4BAEB5" stroke="#4BAEB5"/>
</svg>
