<svg width="81" height="192" viewBox="0 0 81 192" fill="none" xmlns="http://www.w3.org/2000/svg">
<path d="M21.4678 159.171C31.3891 147.559 47.2019 152.636 53.8681 156.626C69.011 129.758 46.8479 35.3037 29.1537 1.58549C20.2048 40.9068 11.5466 170.783 21.4678 159.171Z" fill="#D1A711" stroke="#D1A711"/>
<path d="M44.8083 135.27C37.9895 130.188 31.6656 133.962 29.3559 136.484C38.1268 115.332 35.107 47.9283 32.5008 16.8704C39.4445 58.4544 51.6271 140.352 44.8083 135.27Z" fill="#ECECEC" stroke="#ECECEC"/>
<path opacity="0.9" d="M69.6669 108.187C49.8671 66.1937 17.677 90.6897 9.42708 108.187C6.62523 122.413 1.48849 133.206 1.02152 142.527C0.647938 149.984 5.2243 158.716 7.55917 162.15C10.9214 171.569 24.5259 181.119 30.9079 184.716C44.7304 196.097 52.2332 189.458 54.2567 184.716C57.6189 171.372 81.3413 175.886 79.9404 166.074C79.5668 133.5 73.247 118.489 69.6669 108.187Z" fill="#D7D7D7" stroke="#606060"/>
<path opacity="0.9" d="M69.6669 108.187C49.8671 66.1937 17.677 90.6897 9.42706 108.187C9.17119 109.486 8.89584 110.757 8.60635 112L23 120C23.688 124.749 24.4923 130.686 25.2685 137C31.179 133.848 46.3 129.34 59.5 136.522C59.1692 127.711 59.1374 120.725 59.5 120C60.3 118.4 67.5108 114 71.0162 112C70.5384 110.651 70.084 109.387 69.6669 108.187Z" stroke="#606060" stroke-width="0.5"/>
<path opacity="0.9" d="M30.9079 184.716C44.7304 196.097 52.2331 189.458 54.2567 184.716C55.4503 179.979 59.2096 177.493 63.5 175.817C61.5876 173.15 60.0816 152.014 59.5 136.522C46.3 129.34 31.179 133.848 25.2685 137C27.7065 156.831 29.8669 180.376 27.2736 182.5C28.6273 183.38 29.8642 184.128 30.9079 184.716Z" stroke="#606060" stroke-width="0.5"/>
<path opacity="0.9" d="M1.02152 142.527C0.647938 149.984 5.2243 158.716 7.55917 162.15C10.3715 170.028 20.35 177.998 27.2736 182.5C29.8669 180.376 27.7065 156.831 25.2685 137C24.4923 130.686 23.688 124.749 23 120L8.60637 112C5.72596 124.372 1.44585 134.057 1.02152 142.527Z" stroke="#606060" stroke-width="0.5"/>
<path opacity="0.9" d="M79.9404 166.074C79.6103 137.296 74.639 122.225 71.0162 112C67.5108 114 60.3 118.4 59.5 120C59.1374 120.725 59.1692 127.711 59.5 136.522C60.0816 152.015 61.5876 173.15 63.5 175.817C71.2954 172.772 80.844 172.403 79.9404 166.074Z" stroke="#606060" stroke-width="0.5"/>
</svg>
