<svg width="85" height="199" viewBox="0 0 85 199" fill="none" xmlns="http://www.w3.org/2000/svg">
<path d="M67.0222 31.0762C70.786 32.6189 72.451 39.1757 72.5824 41.1041C75.5824 131.104 63.5824 198.104 47.7873 198.104C34.1167 198.104 6.08241 50.1041 10.5825 41.1041C11.4379 36.4758 27.5198 38.5586 33.6788 28.3763C39.8378 18.1941 44.6507 16.677 47.7872 17.1913C50.1824 16.8828 51.7672 23.6195 55.0463 26.8336C58.468 29.1477 64.4559 30.5619 67.0222 31.0762Z" fill="#D1A711" stroke="#D1A711"/>
<path d="M34.5824 43.6041C35.7824 38.8041 41.7491 35.6041 44.5824 34.6041C54.9824 39.0041 50.8339 50.6041 51.0824 56.6041C52.2491 84.7708 52.5247 140.22 51.0824 143.104C49.5824 146.104 47.9158 176.104 48.0824 191.604L29.0824 56.6041C30.4158 54.2708 33.3824 48.4041 34.5824 43.6041Z" fill="#ECECEC" stroke="#ECECEC"/>
<path opacity="0.9" d="M39.0824 123.104C11.0824 100.104 -0.0842514 51.1041 1.08241 31.6041C2.0824 25.6041 20.8824 28.3041 28.0824 15.1041C35.2824 1.90409 44.4157 -0.0625629 48.0824 0.604115C50.8824 0.204115 59.7491 8.93743 63.5824 13.1041C67.5824 16.1041 74.5824 17.9375 77.5824 18.6041C81.9824 20.6041 83.9288 29.1041 84.0824 31.6041C88.4824 103.204 54.2998 135.604 39.0824 123.104Z" fill="#D7D7D7" stroke="#606060"/>
<path opacity="0.9" d="M78.5824 87.6041C66.9824 86.4041 63.7491 80.4375 63.5824 77.6041L59.0824 8.60412V8.5C60.8351 10.1989 62.4344 11.8563 63.5824 13.1041C67.5824 16.1041 74.5824 17.9375 77.5824 18.6041C81.9824 20.6041 83.9288 29.1041 84.0824 31.6041C85.4743 54.2535 83.0053 72.9803 78.4972 87.6041" stroke="#606060" stroke-width="0.5"/>
<path opacity="0.9" d="M14.0824 88.6041C28.4824 86.2041 32.4157 82.6041 32.5824 81.1041L31.5824 9.60413V9.69146C30.3872 11.2417 29.2111 13.0349 28.0824 15.1041C20.8824 28.3041 2.0824 25.6041 1.08241 31.6041C0.359776 43.6825 4.36895 67.0789 14.1793 88.6042" stroke="#606060" stroke-width="0.5"/>
<path opacity="0.9" d="M59.0824 8.50002C54.9825 4.52579 50.0439 0.323903 48.0824 0.604115C44.9905 0.0419444 38.0115 1.35222 31.5824 9.69146L31.5824 9.60413L32.5824 81.1041C32.4157 82.6041 28.4824 86.2041 14.0824 88.6041H14.1793C20.2074 101.83 28.4257 114.35 39.0824 123.104C49.4861 131.65 68.7541 119.21 78.4972 87.6041H78.5824C66.9824 86.4041 63.7491 80.4375 63.5824 77.6041L59.0824 8.60413L59.0824 8.50002Z" stroke="#606060" stroke-width="0.5"/>
<path d="M29 95.5C36.6667 100.333 55.9 105.1 71.5 85.5C66.1667 102.5 50.2 128.3 29 95.5Z" fill="#4BAEB5" stroke="#4BAEB5"/>
</svg>
