<svg width="173" height="211" viewBox="0 0 173 211" fill="none" xmlns="http://www.w3.org/2000/svg">
<path d="M79.9135 56.3706L117.758 38.4608C155.603 69.5672 166.816 139.321 170.554 151.575C173.544 161.378 169.308 183.938 166.816 193.993C155.136 223.214 139.717 206.09 129.906 193.993C94.3972 82.0098 90.5037 148.59 92.9956 195.878C97.1071 212.091 79.7577 206.404 70.5691 201.534C61.069 193.679 41.9753 172.69 41.6015 151.575C41.2277 130.46 26.1833 107.586 18.7078 98.7884C9.73717 61.8377 17.4619 41.6029 22.4455 36.1042L79.9135 56.3706Z" fill="#D1A711" stroke="#D1A711"/>
<path d="M56.5824 65.6042C82.5824 81.6042 93.9157 69.7709 96.5824 63.1042C110.182 71.5042 139.249 166.771 149.082 201.104C89.5824 63.1042 83.5824 102.604 80.5824 203.104C76.4157 181.771 69.2824 132.604 74.0824 118.604C78.8824 104.604 64.2491 76.1042 56.5824 65.6042Z" fill="#ECECEC" stroke="#ECECEC"/>
<path d="M39.919 106.334C-16.3581 82.0151 0.224274 30.4682 14.8803 4.3578C18.9964 -6.79355 56.5631 19.3775 62.8699 24.5228C69.1768 29.668 82.6544 28.8904 83.6527 28.8328C84.4514 28.7867 83.8319 41.9228 83.6527 44.6043C84.3823 43.3602 85.1086 30.9191 85.1502 28.7464C90.7716 22.0114 104.586 21.2812 110.79 21.7579C118.877 16.0827 118.774 6.7732 117.711 2.82784C120.345 -0.128791 126.463 1.15431 129.192 2.16543C137.901 7.27229 146.138 15.211 149.169 18.542C160.757 31.8966 164.229 58.9896 164.517 70.8668C143.141 110.393 63.193 104.512 39.919 106.334Z" fill="#D7D7D7" fill-opacity="0.9" stroke="#606060"/>
<path d="M133.082 52.6043C128.582 47.6043 115.749 31.1043 111.082 21.6043L111.061 21.5641C118.874 15.8729 118.762 6.72859 117.711 2.82784C120.345 -0.128791 126.463 1.15431 129.192 2.16543C137.901 7.27229 146.138 15.211 149.169 18.542C157.653 28.3195 161.787 45.4614 163.505 58.6043H163.582C141.982 62.2043 134.432 54.1043 133.082 52.6043Z" stroke="#606060" stroke-width="0.5"/>
<path d="M39.5605 9.15732C28.3557 2.91006 17.0349 -1.47965 14.8803 4.35774C5.67591 20.7558 -4.28826 47.1864 3.51254 70.6042H3.5824C11.5824 69.9376 27.4824 65.8042 27.0824 54.6042C26.6831 43.4231 35.2203 19.6842 39.5605 9.15732ZM39.5605 9.15732C39.5678 9.13959 39.5751 9.12189 39.5824 9.10423L39.5605 9.15732Z" stroke="#606060" stroke-width="0.5"/>
<path d="M128.527 47.1429C122.794 39.9523 114.608 28.781 111.082 21.6043L110.79 21.758C104.586 21.2812 90.7716 22.0115 85.1502 28.7465C85.1086 30.9191 84.3822 43.3602 83.6527 44.6043C83.8318 41.9229 84.4513 28.7868 83.6527 28.8329C82.6543 28.8905 69.1767 29.6681 62.8699 24.5228C59.8595 22.0669 49.7996 14.7956 39.5824 9.10425C35.4332 19.1678 27.4265 41.3589 27.0805 53.057L27.0824 53.1043C75.4169 71.08 114.809 56.6435 128.527 47.1429ZM128.527 47.1429C128.545 47.13 128.564 47.1172 128.582 47.1043L128.527 47.1429Z" stroke="#606060" stroke-width="0.5"/>
<path d="M163.507 58.6168C141.965 62.1854 134.431 54.1025 133.082 52.6043C131.989 51.3889 130.402 49.494 128.561 47.1853L128.527 47.1428C114.809 56.6434 75.417 71.0799 27.0824 53.1042V54.6042C27.4824 65.8042 11.5824 69.9376 3.58244 70.6042L3.52933 70.6545C8.15912 84.5054 19.0106 97.2987 39.919 106.334C63.193 104.512 143.141 110.393 164.517 70.8668C164.44 67.6882 164.135 63.4199 163.507 58.6168ZM163.507 58.6168C163.532 58.6126 163.557 58.6085 163.582 58.6043L163.507 58.6168Z" stroke="#606060" stroke-width="0.5"/>
<path d="M22 84.5C45.1667 87.8333 100.3 87.5 135.5 59.5C123.333 81.1667 83.6 116.5 22 84.5Z" fill="#4BAEB5" stroke="#4BAEB5"/>
</svg>
