<svg width="86" height="200" viewBox="0 0 86 200" fill="none" xmlns="http://www.w3.org/2000/svg">
<path d="M18.5601 31.9721C14.7963 33.5148 13.1313 40.0715 12.9999 42C9.99993 132 21.9999 199 37.795 199C51.4656 199 79.4999 51 74.9999 42C74.1445 37.3717 58.0626 39.4544 51.9035 29.2722C45.7445 19.09 40.9316 17.5729 37.7951 18.0872C35.3999 17.7786 33.8152 24.5153 30.5361 27.7294C27.1144 30.0436 21.1264 31.4578 18.5601 31.9721Z" fill="#D1A711" stroke="#D1A711"/>
<path d="M50.9999 44.5C49.7999 39.7 43.8332 36.5 40.9999 35.5C30.5999 39.9 34.7484 51.5 34.4999 57.5C33.3332 85.6667 33.0577 141.116 34.4999 144C35.9999 147 37.6666 177 37.4999 192.5L56.4999 57.5C55.1666 55.1667 52.1999 49.3 50.9999 44.5Z" fill="#ECECEC" stroke="#ECECEC"/>
<path opacity="0.9" d="M46.4999 124C74.4999 101 85.6666 52 84.4999 32.5C83.4999 26.5 64.6999 29.2 57.4999 16C50.2999 2.79996 41.1666 0.833311 37.4999 1.49999C34.6999 1.09999 25.8333 9.83331 21.9999 14C17.9999 17 10.9999 18.8334 7.99994 19.5C3.59994 21.5 1.65356 30 1.49993 32.5C-2.90007 104.1 31.2825 136.5 46.4999 124Z" fill="#D7D7D7" stroke="#606060"/>
<path opacity="0.9" d="M26.4999 9.49999L21.9999 78.5C21.8333 81.3333 18.5999 87.3 6.99994 88.5M7.08515 88.5C2.57702 73.8762 0.108069 55.1494 1.49993 32.5C1.65356 30 3.59994 21.5 7.99994 19.5C10.9999 18.8333 17.9999 17 21.9999 14C23.1479 12.7522 24.7473 11.0948 26.4999 9.39587" stroke="#606060" stroke-width="0.5"/>
<path opacity="0.9" d="M53.9999 10.5L52.9999 82C53.1666 83.5 57.0999 87.1 71.4999 89.5M53.9999 10.5873C55.1951 12.1376 56.3713 13.9308 57.4999 16C64.6999 29.2 83.4999 26.5 84.4999 32.5C85.2226 44.5784 81.2134 67.9748 71.403 89.5001" stroke="#606060" stroke-width="0.5"/>
<path opacity="0.9" d="M26.4999 9.39589C30.5998 5.42167 35.5384 1.21978 37.4999 1.49999C40.5918 0.937818 47.5708 2.24809 53.9999 10.5873L53.9999 10.5L52.9999 82C53.1666 83.5 57.0999 87.1 71.4999 89.5H71.403C65.375 102.726 57.1566 115.246 46.4999 124C36.0963 132.546 16.8283 120.105 7.08514 88.5H6.99994C18.5999 87.3 21.8333 81.3333 21.9999 78.5L26.4999 9.5L26.4999 9.39589Z" stroke="#606060" stroke-width="0.5"/>
</svg>
