<svg width="85" height="200" viewBox="0 0 85 200" fill="none" xmlns="http://www.w3.org/2000/svg">
<path d="M67.0221 31.9721C70.7859 33.5148 72.4509 40.0715 72.5823 42C75.5823 132 63.5823 199 47.7872 199C34.1166 199 6.08229 51 10.5823 42C11.4377 37.3717 27.5196 39.4544 33.6787 29.2722C39.8377 19.09 44.6506 17.5729 47.7871 18.0872C50.1823 17.7786 51.767 24.5153 55.0462 27.7294C58.4679 30.0436 64.4558 31.4578 67.0221 31.9721Z" fill="#D1A711" stroke="#D1A711"/>
<path d="M34.5823 44.5C35.7823 39.7 41.749 36.5 44.5823 35.5C54.9823 39.9 50.8338 51.5 51.0823 57.5C52.249 85.6667 52.5245 141.116 51.0823 144C49.5823 147 47.9156 177 48.0823 192.5L29.0823 57.5C30.4156 55.1667 33.3823 49.3 34.5823 44.5Z" fill="#ECECEC" stroke="#ECECEC"/>
<path opacity="0.9" d="M39.0823 124C11.0823 101 -0.0843735 52 1.08229 32.5C2.08228 26.5 20.8823 29.2 28.0823 16C35.2823 2.79996 44.4156 0.833311 48.0823 1.49999C50.8823 1.09999 59.7489 9.83331 63.5823 14C67.5823 17 74.5823 18.8334 77.5823 19.5C81.9823 21.5 83.9287 30 84.0823 32.5C88.4823 104.1 54.2997 136.5 39.0823 124Z" fill="#D7D7D7" stroke="#606060"/>
<path opacity="0.9" d="M59.0823 9.49999L63.5823 78.5C63.7489 81.3333 66.9823 87.3 78.5823 88.5M78.4971 88.5C83.0052 73.8762 85.4741 55.1494 84.0823 32.5C83.9287 30 81.9823 21.5 77.5823 19.5C74.5823 18.8333 67.5823 17 63.5823 14C62.4343 12.7522 60.8349 11.0948 59.0823 9.39587" stroke="#606060" stroke-width="0.5"/>
<path opacity="0.9" d="M31.5823 10.5L32.5823 82C32.4156 83.5 28.4823 87.1 14.0823 89.5M31.5823 10.5873C30.3871 12.1376 29.2109 13.9308 28.0823 16C20.8823 29.2 2.08228 26.5 1.08229 32.5C0.359653 44.5784 4.36883 67.9748 14.1792 89.5001" stroke="#606060" stroke-width="0.5"/>
<path opacity="0.9" d="M59.0823 9.39589C54.9824 5.42167 50.0438 1.21978 48.0823 1.49999C44.9904 0.937818 38.0114 2.24809 31.5823 10.5873L31.5823 10.5L32.5823 82C32.4156 83.5 28.4823 87.1 14.0823 89.5H14.1792C20.2072 102.726 28.4256 115.246 39.0823 124C49.4859 132.546 68.7539 120.105 78.4971 88.5H78.5823C66.9823 87.3 63.7489 81.3333 63.5823 78.5L59.0823 9.5L59.0823 9.39589Z" stroke="#606060" stroke-width="0.5"/>
</svg>
