<svg width="69" height="177" viewBox="0 0 69 177" fill="none" xmlns="http://www.w3.org/2000/svg">
<path d="M35.8096 152.263C41.0096 149.063 50.9763 132.263 55.3096 124.263C66.8096 109.763 60.3096 2.76278 55.3096 0.762808C51.3096 -0.83717 45.9763 9.09613 43.8096 14.2628C42.9763 9.42945 40.2096 0.362781 35.8096 2.76278C30.3096 5.76278 7.80961 139.263 10.3096 135.263C12.3096 132.063 16.4763 139.263 18.3096 143.263C21.9763 147.596 30.6096 155.463 35.8096 152.263Z" fill="#D1A711" stroke="#D1A711"/>
<path d="M39.8096 124.263C33.4096 118.663 25.4762 121.929 22.3096 124.263C36.7096 97.8626 38.9762 33.0961 37.8096 6.76283L42.8096 36.2628C50.8096 31.7628 49.3096 14.2628 52.8096 6.76282C55.6096 0.762817 39.8096 83.7628 39.8096 124.263Z" fill="#ECECEC" stroke="#ECECEC"/>
<path opacity="0.9" d="M6.80962 114.763C24.8096 50.7629 47.3097 81.2628 59.8097 107.763C67.3098 121.263 70.3096 132.763 65.3096 149.763C59.8097 161.263 39.3096 176.763 33.8096 175.763C29.3571 174.953 23.8096 170.763 22.3096 168.263C17.8096 162.263 13.4763 160.929 6.80962 162.263C2.40962 159.863 2.3096 151.263 1.3096 147.763C-1.0904 133.363 3.97629 119.763 6.80962 114.763Z" fill="#D7D7D7" stroke="#606060"/>
<path opacity="0.9" d="M59.8097 107.763C67.3098 121.263 70.3096 132.763 65.3096 149.763C62.2415 156.178 54.5056 163.838 47.3096 169.184C45.8766 167.706 46.0864 150.042 46.5265 134.763C46.6228 131.417 46.7303 128.185 46.8339 125.263C47.0826 118.248 47.3096 113.016 47.3096 112.263C47.3096 110.262 54.3416 105.763 57.8577 103.763C58.5322 105.098 59.1835 106.435 59.8097 107.763Z" stroke="#606060" stroke-width="0.5"/>
<path opacity="0.9" d="M1.30963 147.763C-1.09037 133.363 3.97632 119.763 6.80965 114.763C7.94421 110.729 9.09664 107.07 10.2633 103.763C12.6121 105.763 17.6096 110.262 18.8096 112.263C19.2929 113.068 19.4129 118.369 19.2865 125.263C19.0207 139.764 17.6652 161.315 16.3096 162.91C13.586 161.607 10.5688 161.511 6.80965 162.263C2.40965 159.863 2.30963 151.263 1.30963 147.763Z" stroke="#606060" stroke-width="0.5"/>
<path opacity="0.9" d="M33.8096 175.763C29.3571 174.953 23.8096 170.763 22.3096 168.263C20.347 165.646 18.4161 163.917 16.3096 162.91C17.6651 161.315 19.0207 139.764 19.2865 125.263C29.268 120.463 41.8104 123.263 46.8339 125.263C46.7303 128.185 46.6228 131.417 46.5265 134.763C46.0864 150.042 45.8766 167.706 47.3096 169.184C41.6059 173.421 36.2415 176.205 33.8096 175.763Z" stroke="#606060" stroke-width="0.5"/>
<path opacity="0.9" d="M47.3095 112.263C47.3095 110.262 54.3416 105.763 57.8577 103.763C45.9154 80.1243 26.679 57.2209 10.2633 103.763C12.612 105.763 17.6096 110.262 18.8096 112.263C19.2929 113.068 19.4128 118.369 19.2865 125.263C29.268 120.463 41.8104 123.263 46.8339 125.263C47.0826 118.248 47.3095 113.016 47.3095 112.263Z" stroke="#606060" stroke-width="0.5"/>
<path d="M18 108C22.5 102.167 35.2 92.9 50 102.5C42.6667 89.3334 26 72 18 108Z" fill="#4BAEB5" stroke="#4BAEB5"/>
</svg>
