<svg width="71" height="186" viewBox="0 0 71 186" fill="none" xmlns="http://www.w3.org/2000/svg">
<path d="M48.6401 168.322C38.03 172.272 25.143 169.559 20.0258 167.709C16.8502 154.788 17.0665 96.1534 17.5716 68.451C19.2546 43.3176 25.1763 -5.20755 35.3997 1.75921C45.6231 8.72597 49.7271 32.1895 50.5011 43.0504C54.3017 83.1621 59.2502 164.373 48.6401 168.322Z" fill="#D1A711" stroke="#D1A711"/>
<path d="M20.8887 158.98C24.6352 161.806 34.4746 165.957 43.8606 159.95C41.1332 115.676 35.7762 25.0903 35.9804 13.9536C36.0215 12.6911 36.0226 12.5273 35.987 13.6829C35.9844 13.7671 35.9822 13.8574 35.9804 13.9536C35.5847 26.1275 31.4796 140.459 20.8887 158.98Z" fill="#ECECEC" stroke="#ECECEC"/>
<path opacity="0.9" d="M9.7383 184.476H39.122C36.4284 184.476 66.6594 184.476 68.7504 181.71C74.6054 179.165 64.7837 145.651 49.896 118.092C35.0083 90.5329 21.002 106.609 15.8599 118.092C1.55984 143.237 0.433502 158.073 1.1681 164.862C1.1681 169.892 1.41296 178.525 2.14754 181.961C4.69413 185.381 8.26911 185.063 9.7383 184.476Z" fill="#D7D7D7" stroke="#606060"/>
<path opacity="0.9" d="M68.7504 181.71C73.9329 179.457 66.8332 152.942 54.8095 127.769C51.8095 129.433 45.9095 133.163 46.3095 134.763C46.8095 136.763 51.8095 182.779 54.8095 183.992L55.1084 183.975C61.6285 183.591 67.8424 182.911 68.7504 181.71Z" stroke="#606060" stroke-width="0.5"/>
<path opacity="0.9" d="M2.14756 181.961C4.69414 185.381 8.26912 185.063 9.73831 184.476H22.3095C24.8095 180.689 19.8095 137.263 19.8095 134.763C19.8095 132.763 13.7606 129.267 10.7362 127.769C1.28835 147.117 0.533232 158.995 1.1681 164.863C1.1681 169.892 1.41296 178.525 2.14756 181.961Z" stroke="#606060" stroke-width="0.5"/>
<path opacity="0.9" d="M39.122 184.476H22.3095C24.8095 180.689 19.8095 137.263 19.8095 134.763C19.8095 132.763 13.7606 129.266 10.7362 127.768C12.2202 124.729 13.9187 121.506 15.8599 118.092C21.0021 106.609 35.0083 90.5329 49.896 118.092C50.5837 119.365 51.2605 120.651 51.9255 121.945C52.9142 123.87 53.8767 125.815 54.8095 127.768C51.8095 129.433 45.9095 133.163 46.3095 134.763C46.8095 136.763 51.8095 182.779 54.8095 183.992L55.1084 183.975C46.6131 184.476 37.598 184.476 39.122 184.476Z" stroke="#606060" stroke-width="0.5"/>
</svg>
