<svg width="69" height="177" viewBox="0 0 69 177" fill="none" xmlns="http://www.w3.org/2000/svg">
<path d="M33 152.5C27.8 149.3 17.8333 132.5 13.5 124.5C1.99999 110 8.49999 3.00015 13.5 1.00017C17.5 -0.599804 22.8333 9.3335 25 14.5001C25.8333 9.66681 28.6 0.600147 33 3.00015C38.5 6.00015 61 139.5 58.5 135.5C56.5 132.3 52.3333 139.5 50.5 143.5C46.8333 147.833 38.2 155.7 33 152.5Z" fill="#D1A711" stroke="#D1A711"/>
<path d="M29 124.5C35.4 118.9 43.3333 122.167 46.5 124.5C32.1 98.1 29.8333 33.3334 31 7.00019L26 36.5002C18 32.0002 19.5 14.5002 16 7.00018C13.2 1.00018 29 84.0002 29 124.5Z" fill="#ECECEC" stroke="#ECECEC"/>
<path opacity="0.9" d="M61.9999 115C43.9999 51.0003 21.4999 81.5003 8.99987 108C1.49977 121.5 -1.50001 133 3.49994 150C8.99987 161.5 29.5 177 35 176C39.4525 175.191 45 171 46.5 168.5C51 162.5 55.3333 161.167 61.9999 162.5C66.3999 160.1 66.5 151.5 67.5 148C69.9 133.6 64.8333 120 61.9999 115Z" fill="#D7D7D7" stroke="#606060"/>
<path opacity="0.9" d="M8.99987 108C1.49977 121.5 -1.50001 133 3.49994 150C6.56803 156.415 14.304 164.075 21.5 169.421C22.933 167.943 22.7232 150.28 22.2831 135C22.1867 131.654 22.0793 128.422 21.9757 125.5C21.7269 118.486 21.5 113.253 21.5 112.5C21.5 110.5 14.4679 106 10.9519 104C10.2773 105.335 9.62605 106.673 8.99987 108Z" stroke="#606060" stroke-width="0.5"/>
<path opacity="0.9" d="M67.4999 148C69.8999 133.6 64.8333 120 61.9999 115C60.8654 110.966 59.7129 107.308 58.5462 104C56.1975 106 51.2 110.5 50 112.5C49.5166 113.306 49.3967 118.606 49.5231 125.5C49.7888 140.001 51.1444 161.552 52.5 163.147C55.2235 161.844 58.2408 161.748 61.9999 162.5C66.3999 160.1 66.4999 151.5 67.4999 148Z" stroke="#606060" stroke-width="0.5"/>
<path opacity="0.9" d="M35 176C39.4525 175.191 45 171 46.5 168.5C48.4626 165.884 50.3934 164.154 52.5 163.147C51.1444 161.552 49.7889 140.001 49.5231 125.5C39.5416 120.7 26.9992 123.5 21.9757 125.5C22.0793 128.422 22.1867 131.654 22.2831 135C22.7232 150.28 22.933 167.943 21.5 169.422C27.2037 173.659 32.5681 176.443 35 176Z" stroke="#606060" stroke-width="0.5"/>
<path opacity="0.9" d="M21.5 112.5C21.5 110.5 14.4679 106 10.9519 104C22.8941 80.3616 42.1305 57.4582 58.5463 104C56.1975 106 51.2 110.5 50 112.5C49.5167 113.306 49.3967 118.606 49.5231 125.5C39.5416 120.7 26.9992 123.5 21.9757 125.5C21.7269 118.486 21.5 113.253 21.5 112.5Z" stroke="#606060" stroke-width="0.5"/>
<path d="M20.5 102.5C27.1667 97.4999 42.7 90.4999 51.5 102.5C47 86.8333 34.5 64.8999 20.5 102.5Z" fill="#4BAEB5" stroke="#4BAEB5"/>
</svg>
