<svg width="147" height="251" viewBox="0 0 147 251" fill="none" xmlns="http://www.w3.org/2000/svg">
<path d="M87.3095 196.263C91.3095 193.463 100.643 204.429 104.81 210.263C134.81 200.263 150.81 157.263 142.81 147.263C136.41 139.263 136.81 112.263 137.81 99.7626C136.143 70.4293 135.91 9.46263 124.31 16.2626C112.71 23.0626 100.81 57.7626 96.3095 74.2626C93.3095 48.0959 85.5095 -3.03739 78.3095 1.76261C71.6782 6.18352 58.8826 52.2268 51.9547 80.0459C56.5176 57.3792 49.3726 42.282 44.8095 37.2626C32.4095 39.2626 25.3095 82.0959 23.3095 103.263C14.3095 110.763 37.3095 206.763 40.8095 206.763C43.6095 206.763 48.3095 196.096 50.3095 190.763C54.7095 192.363 62.1428 202.096 65.3095 206.763C73.3095 208.263 82.3095 199.763 87.3095 196.263Z" fill="#D1A711" stroke="#D1A711"/>
<path d="M54.3094 177.263C70.7094 157.263 87.1428 168.929 93.3094 177.263C100.909 167.663 101.476 148.929 100.809 140.763C104.009 136.763 118.476 61.096 125.309 23.7627C117.101 54.1347 99.4479 114.424 93.5691 116.222C93.4798 116.249 93.3932 116.263 93.3094 116.263C86.3094 116.263 78.3094 2.76264 78.3094 10.2627C78.3094 15.6441 57.4761 84.9294 49.3094 116.263C41.3094 109.063 42.9761 67.596 44.8094 49.7626C41.3094 72.9293 36.4094 123.663 44.8094 125.263C53.2094 126.863 54.6428 160.596 54.3094 177.263Z" fill="#ECECEC" stroke="#ECECEC"/>
<g opacity="0.9">
<path d="M123.309 137.263C106.143 125.263 49.9095 108.463 12.3095 137.263C6.80946 157.929 -2.79054 202.463 2.80946 215.263C9.80946 231.263 13.8095 239.763 22.3095 245.763C23.3095 247.763 25.8095 250.263 27.8095 250.263C30.3095 250.263 31.3095 247.763 33.3095 245.763L55.3095 229.763C53.6428 226.429 50.3095 219.063 50.3095 216.263C50.3095 213.463 47.9761 206.096 46.8095 202.763C48.4761 205.596 50.9095 211.663 51.3095 213.263C51.8095 215.263 52.3095 225.763 57.3095 227.763C62.3095 226.929 73.3095 226.163 77.3095 229.763C80.6428 231.763 88.9095 236.163 95.3095 237.763C97.4761 237.596 102.709 237.863 106.309 240.263C108.719 241.869 112.42 235.732 115.415 228.763C117.38 229.596 122.109 231.263 125.309 231.263C129.309 231.263 171.809 169.263 123.309 137.263Z" fill="#D7D7D7"/>
<path d="M115.415 228.763C112.42 235.732 108.719 241.869 106.309 240.263C102.709 237.863 97.4761 237.596 95.3095 237.763C88.9095 236.163 80.6428 231.763 77.3095 229.763C73.3095 226.163 62.3095 226.929 57.3095 227.763C52.3095 225.763 51.8095 215.263 51.3095 213.263C50.9095 211.663 48.4761 205.596 46.8095 202.763C47.9761 206.096 50.3095 213.463 50.3095 216.263C50.3095 219.063 53.6428 226.429 55.3095 229.763L33.3095 245.763C31.3095 247.763 30.3095 250.263 27.8095 250.263C25.8095 250.263 23.3095 247.763 22.3095 245.763C13.8095 239.763 9.80946 231.263 2.80946 215.263C-2.79054 202.463 6.80946 157.929 12.3095 137.263C49.9095 108.463 106.143 125.263 123.309 137.263C171.809 169.263 129.309 231.263 125.309 231.263C122.109 231.263 117.38 229.596 115.415 228.763ZM115.415 228.763C118.011 222.719 120.077 216.049 120.309 213.263C119.713 218.096 117.899 227.963 115.415 228.763Z" stroke="#606060"/>
</g>
<path opacity="0.9" d="M115.415 228.763C112.42 235.732 108.719 241.869 106.309 240.263C105.39 239.65 104.364 239.176 103.31 238.813M115.415 228.763C118.011 222.719 120.077 216.049 120.309 213.263C119.713 218.096 117.899 227.963 115.415 228.763ZM115.415 228.763C117.38 229.596 122.109 231.263 125.309 231.263C129.053 231.263 166.519 176.957 131.549 143.763M131.549 143.763C129.154 141.489 126.419 139.314 123.309 137.263C106.143 125.263 49.9095 108.463 12.3095 137.263C11.7861 139.229 11.2256 141.412 10.6447 143.763M131.549 143.763L112.31 157.263C111.26 163.392 109.977 171.286 108.698 179.763M103.31 238.813C100.236 237.755 96.9227 237.638 95.3095 237.763C88.9095 236.163 80.6428 231.763 77.3095 229.763C73.3095 226.163 62.3095 226.929 57.3095 227.763C52.3095 225.763 51.8095 215.263 51.3095 213.263C50.9095 211.663 48.4761 205.596 46.8095 202.763C47.9761 206.096 50.3095 213.463 50.3095 216.263C50.3095 219.063 53.6428 226.429 55.3095 229.763L40.872 240.263M103.31 238.813C101.539 232.055 105.102 203.604 108.698 179.763M10.6447 143.763C5.12012 166.117 -2.25767 203.681 2.80946 215.263C9.80946 231.263 13.8095 239.763 22.3095 245.763C23.3095 247.763 25.8095 250.263 27.8095 250.263C30.3095 250.263 31.3095 247.763 33.3095 245.763L40.872 240.263M10.6447 143.763C15.1996 146.596 25.0094 153.263 27.8095 157.263C28.994 158.955 31.1092 167.863 33.3095 179.297M40.872 240.263C42.2364 233.647 37.6104 201.647 33.3095 179.297M108.698 179.763L88.8095 169.263C79.8095 165.263 75.3095 164.263 61.3095 169.263C43.3095 173.763 32.7853 176.524 33.3095 179.297" stroke="#606060"/>
<path opacity="0.9" d="M12.3095 137.263C49.9095 108.463 106.143 125.263 123.309 137.263C126.419 139.314 129.154 141.489 131.549 143.763L112.31 157.263C111.26 163.392 109.977 171.286 108.698 179.763L88.8095 169.263C79.8095 165.263 75.3095 164.263 61.3095 169.263C43.3095 173.763 32.7853 176.524 33.3095 179.297C31.1092 167.863 28.994 158.955 27.8095 157.263C25.0094 153.263 15.1996 146.596 10.6447 143.763C11.2256 141.412 11.7861 139.229 12.3095 137.263Z" stroke="#606060"/>
<path opacity="0.9" d="M115.415 228.763C112.42 235.732 108.719 241.869 106.309 240.263C105.39 239.65 104.364 239.176 103.31 238.813C101.539 232.056 105.102 203.604 108.698 179.763C109.977 171.286 111.26 163.392 112.31 157.263L131.549 143.763C166.519 176.957 129.053 231.263 125.309 231.263C122.109 231.263 117.38 229.596 115.415 228.763ZM115.415 228.763C118.011 222.719 120.077 216.049 120.309 213.263C119.713 218.096 117.899 227.963 115.415 228.763Z" stroke="#606060"/>
<path opacity="0.9" d="M22.3095 245.763C13.8095 239.763 9.80949 231.263 2.80949 215.263C-2.25764 203.681 5.12014 166.117 10.6447 143.763C15.1996 146.596 25.0095 153.263 27.8095 157.263C28.994 158.955 31.1092 167.863 33.3095 179.297C37.6104 201.647 42.2364 233.647 40.872 240.263L33.3095 245.763C31.3095 247.763 30.3095 250.263 27.8095 250.263C25.8095 250.263 23.3095 247.763 22.3095 245.763Z" stroke="#606060"/>
<path opacity="0.9" d="M50.3095 216.263C50.3095 219.063 53.6428 226.429 55.3095 229.763L40.872 240.263C42.2364 233.647 37.6104 201.647 33.3095 179.297C32.7853 176.524 43.3095 173.763 61.3095 169.263C75.3095 164.263 79.8096 165.263 88.8096 169.263L108.698 179.763C105.102 203.604 101.539 232.055 103.31 238.813C100.236 237.755 96.9228 237.638 95.3095 237.763C88.9095 236.163 80.6428 231.763 77.3095 229.763C73.3095 226.163 62.3095 226.929 57.3095 227.763C52.3095 225.763 51.8095 215.263 51.3095 213.263C50.9095 211.663 48.4762 205.596 46.8095 202.763C47.9762 206.096 50.3095 213.463 50.3095 216.263Z" stroke="#606060"/>
<path d="M26 161.425C40 152.759 77.4 138.025 115 148.425C91.5 128.925 40.8 104.225 26 161.425Z" fill="#4BAEB5" stroke="#4BAEB5"/>
</svg>
