<svg width="153" height="215" viewBox="0 0 153 215" fill="none" xmlns="http://www.w3.org/2000/svg">
<path d="M71.5 56.9999C65.9 53.3999 55.1667 43.6665 44.5 35.4999C34.9 35.4999 21.5 57.9999 10 73.9999C0.800008 84.3999 1.00001 122 1.00002 150.5C1.00003 214 21.8334 216.667 27.5 210C23.5 154.8 51.5 134 66 130.5C78.4 132.9 77.5 144.833 78.5 153.5C84.1 165.9 58.1667 196.333 44.5 210C46.5 213.833 56.1 218 78.5 204C100.9 190 115.833 154.167 120.5 138C129.3 129.2 132.833 69.9999 133.5 41.4999C115.167 48.1665 77.1 60.5999 71.5 56.9999Z" fill="#D1A711" stroke="#D1A711"/>
<path d="M95.5 88.4999C68.3 89.2999 55.1667 81.4999 52 77.4999C43.2 75.8999 29.3333 110.5 23.5 128C10.3 176 16.3333 200 23.5 204C14.3 193.6 27.3333 147 35 125C59 91.7999 77 106.833 83 118.5C95.8 166.9 71.6667 198 58 207.5C104 187.5 99 123.5 95.5 118.5C92.7 114.5 91.5 95.4999 95.5 88.4999Z" fill="#ECECEC" stroke="#ECECEC"/>
<path opacity="0.9" d="M12.0836 72.8198C-2.6966 55.0538 18.242 17.5374 30.5588 0.999878C31.5487 2.25988 34.097 4.77987 36.3709 4.77987C36.5288 6.35487 37.4131 9.97737 39.687 11.8674C42.5293 14.2299 67.1629 20.8449 66.2155 24.1523C67.2661 28.3438 68.9283 36.2826 68.5862 39.7065C69.4278 36.6204 70.1757 30.8197 68.5841 24.1523C73.0055 22.1048 84.3117 19.2384 94.1652 24.1523C106.482 30.2948 149.591 10.4499 151.96 24.1523C152.749 52.1873 142.296 106.934 94.1652 101.642C46.0349 96.3502 19.3898 80.2223 12.0836 72.8198Z" fill="#D7D7D7" stroke="#606060"/>
<path opacity="0.9" d="M36.3709 4.77987C34.097 4.77987 31.5487 2.25988 30.5588 0.999878C21.3911 13.3091 7.4469 37.2409 7.01051 56C14.8599 56.8333 31.7212 57.3 36.3709 52.5C37.5238 51.3098 38.6393 49.042 39.687 46.1431C42.8644 37.3511 45.4178 22.7543 46.5 14.8104C43.1669 13.5948 40.511 12.5523 39.687 11.8674C37.4131 9.97737 36.5288 6.35487 36.3709 4.77987Z" stroke="#606060" stroke-width="0.5"/>
<path opacity="0.9" d="M66.2155 24.1524C67.4788 29.1924 69.6263 39.6504 68.1104 41.1624C69.0578 38.7999 70.479 32.0904 68.5841 24.1524C73.0055 22.1049 84.3117 19.2384 94.1652 24.1524C100.439 27.2811 114.702 23.6675 127.5 21.1791C123.791 30.1612 117.549 46.4126 115.228 56C75.41 63.8856 48.2765 52.7144 39.687 46.1431C42.8644 37.3511 45.4178 22.7544 46.5 14.8104C54.6631 17.7876 66.8882 21.8038 66.2155 24.1524Z" stroke="#606060" stroke-width="0.5"/>
<path opacity="0.9" d="M94.1652 101.642C46.0349 96.3502 19.3898 80.2223 12.0836 72.8198C8.3046 68.2774 6.86061 62.4439 7.01051 56C14.8599 56.8333 31.7212 57.3 36.3709 52.5C37.5238 51.3098 38.6393 49.042 39.687 46.1431C48.2765 52.7143 75.41 63.8855 115.228 56C114.42 59.3354 114.087 61.8643 114.5 63C116.5 68.5 125.635 80.5 138.797 80C129.998 94.1457 115.936 104.036 94.1652 101.642Z" stroke="#606060" stroke-width="0.5"/>
<path opacity="0.9" d="M151.96 24.1524C150.797 17.4294 139.828 18.7822 127.5 21.1791C123.791 30.1612 117.549 46.4126 115.228 56C114.42 59.3355 114.087 61.8644 114.5 63C116.5 68.5 125.635 80.5 138.797 80C149.452 62.8725 152.392 39.5064 151.96 24.1524Z" stroke="#606060" stroke-width="0.5"/>
<path d="M125 82.5C49.4 83.3 21.1667 62.8333 16.5 52.5C12.8333 62.5 16.7 84 61.5 90C106.3 96 122.5 87.5 125 82.5Z" fill="#4BAEB5" stroke="#4BAEB5"/>
</svg>
