<svg width="85" height="194" viewBox="0 0 85 194" fill="none" xmlns="http://www.w3.org/2000/svg">
<path d="M24.5825 36.6041C41.3825 41.4041 53.9158 34.6041 58.0825 30.6041C63.2491 38.9375 72.7825 61.8041 69.5825 86.6041C65.7491 91.9375 58.0825 110.604 58.0825 142.604C59.7491 152.937 64.3825 175.704 69.5825 184.104C70.5825 190.604 69.6825 199.704 58.0825 184.104C43.5825 164.604 22.5825 142.604 14.0825 86.6041C13.6825 62.6041 20.9158 43.2708 24.5825 36.6041Z" fill="#D1A711" stroke="#D1A711"/>
<path d="M49.3157 55.2767C49.4093 55.2178 49.4983 55.1602 49.5824 55.1041C49.4916 55.1517 49.4027 55.2093 49.3157 55.2767C46.6245 56.9701 40.0402 59.7638 33.0824 58.6041C25.8824 57.4041 45.5824 148.604 64.0824 185.604C48.7499 150.488 41.3432 61.4553 49.3157 55.2767Z" fill="#ECECEC"/>
<path d="M49.5824 55.1041C47.0824 56.7708 40.2824 59.8041 33.0824 58.6041C25.8824 57.4041 45.5824 148.604 64.0824 185.604C48.5824 150.104 41.1824 59.5041 49.5824 55.1041Z" stroke="#ECECEC"/>
<path opacity="0.9" d="M9.08245 78.1041C1.88245 54.1041 1.08245 38.7708 1.58245 34.1041C2.33244 27.1042 16.8825 36.0042 28.0825 13.6042C39.2825 -8.79584 52.0825 4.27083 57.0825 13.6042C60.4158 17.1042 64.2825 21.9041 73.0825 21.1041C81.8825 20.3041 83.7491 29.4375 83.5824 34.1041C83.9824 55.3041 79.7174 70.1042 75.0824 78.1041C45.8825 128.504 18.9158 99.1041 9.08245 78.1041Z" fill="#D7D7D7" stroke="#606060"/>
<path opacity="0.9" d="M7.5824 73.1041C18.3824 73.5041 28.249 70.9375 28.5824 70.6041C32.9824 68.6041 26.249 35.6041 26.5824 16.6041H26.4569C15.5243 35.1904 2.29661 27.4384 1.58243 34.1041C1.11807 38.4381 1.77497 51.9721 7.63829 73.1041L7.5824 73.1041Z" stroke="#606060" stroke-width="0.5"/>
<path opacity="0.9" d="M57.5824 14.1041L59.0824 40.1041L60.5824 66.1041C60.7491 67.7708 64.5824 70.9041 78.5824 70.1041H78.6857C81.6874 61.6071 83.874 49.5554 83.5824 34.1042C83.7491 29.4375 81.8825 20.3042 73.0825 21.1042C64.7185 21.8645 60.8111 17.5661 57.5824 14.1332V14.1041Z" stroke="#606060" stroke-width="0.5"/>
<path opacity="0.9" d="M59.545 48.1228L60.5824 66.1041C60.7491 67.7708 64.5824 70.9041 78.5824 70.1041C77.7491 72.6041 75.8824 77.7042 75.0824 78.1041C45.8824 128.504 18.9158 99.1041 9.08242 78.1041L7.5824 73.1041C18.3824 73.5041 28.249 70.9375 28.5824 70.6041C30.4961 69.7343 30.3037 63.0001 29.5027 54.1041H29.5824C49.5408 55.601 53.5657 51.1228 59.545 48.1228ZM59.545 48.1228C59.5575 48.1166 59.5699 48.1104 59.5824 48.1041L59.545 48.1228Z" stroke="#606060" stroke-width="0.5"/>
<path opacity="0.9" d="M59.545 48.1228L57.5842 14.1351L57.5824 14.1041L57.0824 13.6042C52.0824 4.27082 39.2824 -8.79583 28.0824 13.6042L26.5824 16.6041C26.394 27.3403 28.462 42.5466 29.5027 54.1041H29.5824C49.5408 55.601 53.5657 51.1228 59.545 48.1228ZM59.545 48.1228C59.5575 48.1166 59.5699 48.1104 59.5824 48.1041L59.545 48.1228Z" stroke="#606060" stroke-width="0.5"/>
<path d="M20.5 81.5C29 85.5 50.6 89.1 69 71.5C63.5 86.8333 46.1 110.3 20.5 81.5Z" fill="#4BAEB5" stroke="#4BAEB5"/>
</svg>
