<svg width="85" height="199" viewBox="0 0 85 199" fill="none" xmlns="http://www.w3.org/2000/svg">
<path d="M67.0221 31.0763C70.7859 32.6191 72.4509 39.1758 72.5823 41.1042C75.5823 131.104 63.5823 198.104 47.7872 198.104C34.1166 198.104 6.08229 50.1042 10.5823 41.1042C11.4377 36.476 27.5196 38.5587 33.6787 28.3764C39.8377 18.1942 44.6506 16.6772 47.7871 17.1914C50.1823 16.8829 51.767 23.6196 55.0462 26.8337C58.4679 29.1478 64.4558 30.5621 67.0221 31.0763Z" fill="#D1A711" stroke="#D1A711"/>
<path d="M34.5823 43.6042C35.7823 38.8042 41.749 35.6042 44.5823 34.6042C54.9823 39.0042 50.8338 50.6042 51.0823 56.6042C52.249 84.7709 52.5245 140.22 51.0823 143.104C49.5823 146.104 47.9156 176.104 48.0823 191.604L29.0823 56.6042C30.4156 54.2709 33.3823 48.4042 34.5823 43.6042Z" fill="#ECECEC" stroke="#ECECEC"/>
<path opacity="0.9" d="M39.0823 123.104C11.0823 100.104 -0.0843735 51.1043 1.08229 31.6043C2.08228 25.6042 20.8823 28.3043 28.0823 15.1042C35.2823 1.90421 44.4156 -0.0624408 48.0823 0.604237C50.8823 0.204237 59.7489 8.93755 63.5823 13.1042C67.5823 16.1042 74.5823 17.9376 77.5823 18.6043C81.9823 20.6043 83.9287 29.1043 84.0823 31.6043C88.4823 103.204 54.2997 135.604 39.0823 123.104Z" fill="#D7D7D7" stroke="#606060"/>
<path opacity="0.9" d="M78.5823 87.6042C66.9823 86.4042 63.7489 80.4376 63.5823 77.6042L59.0823 8.60424V8.50012C60.8349 10.1991 62.4343 11.8564 63.5823 13.1042C67.5823 16.1042 74.5823 17.9376 77.5823 18.6043C81.9823 20.6043 83.9287 29.1043 84.0823 31.6043C85.4741 54.2537 83.0052 72.9805 78.4971 87.6042" stroke="#606060" stroke-width="0.5"/>
<path opacity="0.9" d="M14.0823 88.6042C28.4823 86.2042 32.4156 82.6042 32.5823 81.1042L31.5823 9.60425V9.69158C30.3871 11.2418 29.2109 13.035 28.0823 15.1042C20.8823 28.3043 2.08228 25.6042 1.08229 31.6043C0.359653 43.6826 4.36883 67.079 14.1792 88.6043" stroke="#606060" stroke-width="0.5"/>
<path opacity="0.9" d="M59.0823 8.50014C54.9824 4.52591 50.0438 0.324025 48.0823 0.604237C44.9904 0.0420665 38.0114 1.35234 31.5823 9.69158L31.5823 9.60425L32.5823 81.1042C32.4156 82.6042 28.4823 86.2042 14.0823 88.6042H14.1792C20.2072 101.831 28.4256 114.351 39.0823 123.104C49.4859 131.65 68.7539 119.21 78.4971 87.6042H78.5823C66.9823 86.4043 63.7489 80.4376 63.5823 77.6042L59.0823 8.60425L59.0823 8.50014Z" stroke="#606060" stroke-width="0.5"/>
</svg>
