<svg width="70" height="87" viewBox="0 0 70 87" fill="none" xmlns="http://www.w3.org/2000/svg">
<path d="M55.0847 29.6982C42.578 5.44814 22.0691 16.4096 18.2942 31.6157C16.177 35.9332 14.9008 46.0514 15.5215 52.5686C19.2246 62.9504 22.7285 62.7677 25.1677 69.1219C46.1773 74.5083 47.3306 69.6724 51.4601 61.2703C53.5582 54.3385 55.9087 58.9917 57.5678 50.3772C59.6542 47.2666 56.3146 35.3195 55.0847 29.6982Z" fill="#D1A711" stroke="#D1A711"/>
<path opacity="0.9" d="M60.579 24.2354C42.701 -11.3824 13.4964 4.65942 8.15021 26.9679C6.31372 34.6312 2.67882 37.2666 7.11089 55.0601C18.9027 69.9665 11.9643 71.3295 22.9445 80.2701C52.8989 88.2219 53.086 82.204 58.9526 69.8819C61.9274 59.7133 61.8184 67.2292 64.1638 54.59C67.1304 50.0294 62.3443 32.4881 60.579 24.2354Z" fill="#D7D7D7" stroke="#606060"/>
<path d="M24 41.5001C22 35.9002 28.4999 28 34.5 27C42.9 27 47 31.8333 48 34.5C51.2 36.9 49.3333 47.8333 48 53C46 62.1999 36.8333 61.8333 32.5 60.5C25.7 55.3 24 45.6667 24 41.5001Z" stroke="#606060" stroke-width="0.5"/>
<path d="M22.5 45.5003C26.5 44.8336 35.5 44.5003 39.5 48.5003M39.5 48.5003C41.8333 48.8337 47.2 48.7003 50 45.5003M39.5 48.5003C33.1 46.1003 26.1667 48.6669 24.5 52.5002M39.5 48.5003C41.5 50.8336 47.4 51.3003 51 48.5003" stroke="#606060" stroke-width="0.5"/>
<path d="M55.337 15.6174C55.3921 15.5773 55.4464 15.5381 55.4999 15.4999L55.337 15.6174ZM55.337 15.6174C51.7875 18.1986 44.9999 24.5917 44.9999 30.4999L44.9007 30.4194C42.6847 28.573 39.2921 26.9999 34.4999 26.9999C31.1237 27.5626 27.5893 30.3101 25.4999 33.6031L25.4999 33.5C23.1341 22.8538 16.0392 17.8111 12.6447 16.5521M55.337 15.6174C40.7632 -3.95036 21.7676 2.50845 12.6447 16.5521M12.6447 16.5521C12.5956 16.5339 12.5474 16.5165 12.4999 16.4999L12.6447 16.5521Z" stroke="#606060" stroke-width="0.5"/>
<path opacity="0.9" d="M28 55.5001C24.4 61.1001 16.5 63.5001 13 64.0001L12.8631 63.7289C11.6843 61.4225 9.93461 58.6296 7.11092 55.0601C2.67885 37.2667 6.31375 34.6312 8.15024 26.9679C9.03169 23.2898 10.5617 19.7821 12.5826 16.6481L12.6447 16.552C16.0392 17.811 23.1341 22.8537 25.5 33.4999L25.5 33.6031C23.8762 36.1624 23.1253 39.0512 23.9999 41.5001C23.9999 44.5286 24.8981 50.4452 28 55.4483L28 55.5001Z" stroke="#606060" stroke-width="0.5"/>
<path opacity="0.9" d="M27.9999 55.5C24.3999 61.1 16.4999 63.5 12.9999 64L13.1187 64.2392C16.518 71.1703 14.7906 73.6309 22.9445 80.2702C45.2892 86.2019 51.0698 84.3601 55 77.9267C51.8379 74.6681 47.3491 63.3353 45.5 58.0761C41.8924 61.9692 35.7971 61.5143 32.5 60.4999C30.6772 59.106 29.2209 57.3936 28.0655 55.5533L27.9999 55.5Z" stroke="#606060" stroke-width="0.5"/>
<path d="M54.9999 77.9268C51.8378 74.6683 47.3491 63.3354 45.4999 58.0762L45.6089 57.9565C46.6906 56.7456 47.5372 55.1289 48 53C49.3333 47.8333 51.2 36.9 48 34.5C47.5925 33.4133 46.6702 31.9668 45.1519 30.6342L44.9999 30.5C44.9999 24.5917 51.7875 18.1986 55.337 15.6174L55.5 15.8377C57.2677 18.2403 58.9693 21.0285 60.579 24.2356C62.3443 32.4882 67.1304 50.0296 64.1637 54.5902C61.8184 67.2294 61.9274 59.7135 58.9526 69.8821C57.5188 72.8937 56.4242 75.5286 55.1514 77.6751L54.9999 77.9268Z" stroke="#606060" stroke-width="0.5"/>
</svg>
