<svg width="67" height="186" viewBox="0 0 67 186" fill="none" xmlns="http://www.w3.org/2000/svg">
<path d="M31.8094 154.263C30.2094 150.263 19.8094 148.93 14.8094 148.763C20.476 100.596 35.2094 3.56294 48.8094 0.762942C62.4094 -2.03706 50.476 109.596 42.8094 165.763C39.8094 163.596 33.4094 158.263 31.8094 154.263Z" fill="#D1A711" stroke="#D1A711"/>
<path d="M30.8094 140.263C29.2094 138.263 26.8094 134.096 25.8094 130.263C31.8094 119.063 43.3094 45.9296 48.3094 10.7629L40.3094 137.763C37.8094 143.263 32.4094 142.263 30.8094 140.263Z" fill="#ECECEC" stroke="#ECECEC"/>
<path opacity="0.9" d="M10.8093 167.763C4.80929 166.563 1.97596 154.263 1.3093 148.263C7.30931 105.763 16.3093 100.763 22.8093 94.7629C29.7957 88.3139 42.3093 87.763 48.8093 96.763C59.3094 109.263 68.3094 129.263 65.3093 146.263C57.8094 171.263 43.8093 186.096 38.8093 184.763C35.8093 182.596 29.4093 177.263 27.8093 173.263C26.2093 169.263 15.8093 167.93 10.8093 167.763Z" fill="#D7D7D7" stroke="#606060"/>
<path opacity="0.9" d="M60.2736 115.263C64.6828 125.208 67.0754 136.255 65.3093 146.263C59.3232 166.217 49.196 179.694 42.8094 183.644C40.0094 178.749 47.6427 139.35 51.8094 120.263L60.2736 115.263Z" stroke="#606060" stroke-width="0.5"/>
<path opacity="0.9" d="M10.8093 167.763C4.80929 166.563 1.97596 154.263 1.3093 148.263C3.458 133.043 5.99144 122.632 8.65701 115.263C10.7078 116.429 15.3094 119.063 17.3094 120.263C19.8094 121.763 19.8094 163.558 17.3094 168.41C14.889 168.016 12.5296 167.82 10.8093 167.763Z" stroke="#606060" stroke-width="0.5"/>
<path opacity="0.9" d="M38.8093 184.763C35.8093 182.596 29.4093 177.263 27.8093 173.263C26.7598 170.639 21.9239 169.163 17.3094 168.41C19.8094 163.558 19.8094 121.763 17.3094 120.263C15.3094 119.063 10.7078 116.429 8.65699 115.263C13.4347 102.053 18.637 98.6142 22.8093 94.7629C29.7957 88.3139 42.3093 87.763 48.8093 96.763C53.128 101.904 57.193 108.314 60.2736 115.263L51.8094 120.263C47.6427 139.35 40.0094 178.749 42.8094 183.644C41.1943 184.643 39.8185 185.032 38.8093 184.763Z" stroke="#606060" stroke-width="0.5"/>
<path d="M15 121C21.6667 114.333 38.5 104.1 52.5 116.5C34.1 81.3 19.8333 104.833 15 121Z" fill="#4BAEB5" stroke="#4BAEB5"/>
</svg>
