<svg width="70" height="149" viewBox="0 0 70 149" fill="none" xmlns="http://www.w3.org/2000/svg">
<path d="M14.5001 17.5H58.0001H65C68.6 23.5 68 22.9475 68 32.5C68 47 66.4999 51 62.5 64C58.5001 77 46.0001 134.833 43.0001 138.5C41.1667 150 34.4 160 22 108C9.60005 56 9.49998 32 10.5 25.5C11.5 19 13.3334 17.5 14.5001 17.5Z" fill="#D1A711" stroke="#D1A711"/>
<path d="M31.3913 112.068C31.3913 112.068 35.597 136.95 37.6999 140C45.626 112.71 50.3812 56.5286 49.9929 46.1261C49.5077 33.1231 47.5666 33.6047 47.5666 31.6783C47.5666 29.7519 37.6999 32.6415 28.4796 30.6783C21.2259 29.1339 20.5535 45.7683 21.2006 53.7948C24.5975 79.8009 31.3913 112.068 31.3913 112.068Z" fill="#ECECEC" stroke="#ECECEC"/>
<path opacity="0.9" d="M59.3291 1.01043H5.8291C-0.170897 3.81042 0.662437 8.84376 1.8291 11.0104C1.8291 21.0104 21.3291 122.01 42.3291 92.5104C63.3291 63.0104 70.3291 21.5104 68.3291 11.0104C66.7291 2.61043 61.6624 0.84376 59.3291 1.01043Z" fill="#D7D7D7" stroke="#606060"/>
<path d="M23 51.9999L17.5 1H5.5C-0.100003 4.2 0.83334 9 2.00001 11C0.800012 13 6.5 39.9999 10.5 53.4999L23 51.9999Z" stroke="#606060" stroke-width="0.5"/>
<path d="M46.5 52L49 1H60.5C75.5 4.49994 66 37.4999 61.5 52.9999L46.5 52Z" stroke="#606060" stroke-width="0.5"/>
<path d="M49 1H17.5L23 52L10.5 53.5C21 94 31 99.1667 35 98C44.2 96.8 56.3333 67.8333 61.5 53L46.5 52L49 1Z" stroke="#606060" stroke-width="0.5"/>
</svg>
