<svg width="64" height="50" viewBox="0 0 64 50" fill="none" xmlns="http://www.w3.org/2000/svg">
<path d="M13.9022 11.1061C23.4949 4.02328 45.0062 6.74215 49.1548 9.26878C56.2857 15.0685 43.1301 16.9885 40.919 20.8066C39.1501 23.861 39.2886 30.6286 39.579 33.6306C33.6484 43.1557 28.2947 38.0587 26.3592 34.3196C25.3727 30.8053 21.59 22.9659 14.3513 19.7227C7.11256 16.4794 11.0358 12.6269 13.9022 11.1061Z" fill="#D1A711" stroke="#D1A711"/>
<path opacity="0.9" d="M5.52122 8.07382C20.2275 -2.43524 53.1566 1.53175 59.5017 5.26047C70.4045 13.8259 52.5938 23.2996 49.1981 28.9568C46.4816 33.4825 44.3386 36.9023 44.7752 41.3449C35.6695 55.4591 27.486 47.9292 24.5325 42.3999C23.0314 37.2009 15.0881 27.7304 6.18585 20.8264C-3.34613 13.4339 1.12834 10.3325 5.52122 8.07382Z" fill="#D7D7D7" stroke="#606060"/>
<path opacity="0.9" d="M17.0272 30.9761C13.9269 27.4865 10.1515 23.9017 6.18591 20.8262C-3.34607 13.4337 1.1284 10.3323 5.52128 8.07362C8.41109 6.00858 12.0045 4.50249 15.9616 3.44373L16.0001 3.49973C19.0001 9.33312 25.0002 21.2999 25.0001 22.4999C25.0001 23.6958 19.7028 28.633 17.0272 30.9761ZM17.0272 30.9761L17.0001 30.9999" stroke="#606060" stroke-width="0.5"/>
<path opacity="0.9" d="M41 22.4998C40.2 20.0997 46.3334 8.16642 49.5 2.49976L49.5685 2.49976C54.209 3.24951 57.8055 4.26342 59.5019 5.2603C70.4046 13.8257 52.5939 23.2994 49.1982 28.9566C48.9764 29.3262 48.7584 29.6884 48.5453 30.0443L48.5001 29.9999C46.3334 28.4998 41.8 24.8998 41 22.4998Z" stroke="#606060" stroke-width="0.5"/>
<path opacity="0.9" d="M41 22.4997C40.2 20.0997 46.3334 8.16635 49.5 2.49969L49.5304 2.49354C40.2281 0.995288 26.7504 0.559022 15.9696 3.44156L16.0001 3.49966C19.0001 9.33305 25.0001 21.2998 25.0001 22.4998C27.1668 23.6664 33.4 25.2997 41 22.4997Z" stroke="#606060" stroke-width="0.5"/>
<path opacity="0.9" d="M44.7752 41.3449C35.6695 55.4591 27.486 47.9291 24.5325 42.3999C23.7016 39.5221 20.8969 35.3356 17.0482 30.9999L17.0272 30.9762C19.7027 28.6331 25 23.6958 25 22.4999C27.1667 23.6665 33.3999 25.2997 40.9999 22.4998C41.7999 24.8998 46.3333 28.5 48.5 30L48.5233 30.0811C46.138 34.0675 44.3755 37.2775 44.7752 41.3449Z" stroke="#606060" stroke-width="0.5"/>
</svg>
