<svg width="153" height="119" viewBox="0 0 153 119" fill="none" xmlns="http://www.w3.org/2000/svg">
<path d="M130.926 66.7117C129.232 72.1827 113.982 90.1763 108.899 102.456C105.579 108.875 59.7898 105.13 37.3099 102.456C28.273 103.672 11.0465 103.039 14.4353 90.7842C17.8242 78.5292 17.8242 59.6602 17.4006 51.7576C10.9618 19.6609 22.0602 11.8799 28.4142 12.0015C43.8052 16.2567 79.5855 23.0894 99.5796 16.3783C119.574 9.66719 129.091 13.582 131.35 16.3783C141.855 32.4266 135.303 56.9854 130.926 66.7117Z" fill="#D1A711" stroke="#D1A711"/>
<path opacity="0.9" d="M146.297 67.0087C144.148 74.1094 124.807 97.4628 118.36 113.4C114.149 121.731 64.511 116.871 36 113.4C24.5386 114.978 -1.98511 109.406 2.31291 93.5002C6.61094 77.5947 2.85017 57.8568 2.31291 47.6002C-5.85333 5.94286 16.8129 -0.135314 32 1.68242C51.5202 7.20517 80 5.50013 106.54 1.68242C133.079 -2.1352 140.635 4.37101 143.5 8.00025C156.824 28.8289 151.848 54.3853 146.297 67.0087Z" fill="#D7D7D7" stroke="#606060"/>
<path d="M33.3679 54.6405C36.5793 33.3236 55.9475 28.9999 73.5094 29C97.5943 29 109.47 36.0385 112.647 40.0605C115.825 50.9536 118.267 75.3541 102.612 85.8115C86.9568 96.2688 66.6519 94.526 58.4564 92.3473C48.7555 88.6604 30.1566 75.9574 33.3679 54.6405Z" stroke="#606060" stroke-width="0.5"/>
<path d="M118.36 113.4C114.149 121.731 64.511 116.871 36 113.4C29.4063 114.308 17.8274 112.849 10 108.418C25.2 102.752 37.5799 87.7785 41.8698 81C47.2072 86.7957 53.8395 90.5925 58.4564 92.3472C66.3265 94.4393 85.3636 96.1296 100.726 87C100.751 93.3333 104.519 107 119.399 111C119.024 111.816 118.676 112.617 118.36 113.4Z" stroke="#606060" stroke-width="0.5"/>
<path d="M2.31291 93.5001C6.61094 77.5946 2.85017 57.8567 2.31291 47.6001C-2.31992 23.9672 2.97058 11.7854 11.1891 6C15.7405 24.8 31.6398 37.1667 39.0206 41C36.2189 44.5037 34.222 48.9711 33.3679 54.6404C31.685 65.8121 35.9923 74.6179 41.8698 81C37.5799 87.7785 25.2 102.752 10 108.418C4.22154 105.146 0.487532 100.255 2.31291 93.5001Z" stroke="#606060" stroke-width="0.5"/>
<path d="M32 1.6823C51.5202 7.20505 80 5.50001 106.54 1.6823C121.607 -0.485005 130.555 0.675019 136 2.74701C138.4 14.9446 119.333 30.8293 109.5 37.2469C103.996 33.4127 92.5801 28.9999 73.5095 28.9999C60.6182 28.9998 46.7536 31.3295 39.0206 41C31.6398 37.1667 15.7405 24.8 11.1891 6C17.4573 1.58753 25.4288 0.895795 32 1.6823Z" stroke="#606060" stroke-width="0.5"/>
<path d="M143.5 8.00007C156.824 28.8287 151.848 54.3851 146.297 67.0086C144.253 73.7604 126.665 95.2072 119.399 111C104.519 107 100.751 93.3333 100.726 86.9999C101.362 86.6225 101.99 86.2265 102.612 85.8113C118.267 75.3539 115.825 50.9535 112.647 40.0604C111.986 39.223 110.947 38.2549 109.5 37.2468C119.333 30.8292 138.4 14.9446 136 2.74695C140.146 4.32468 142.261 6.43119 143.5 8.00007Z" stroke="#606060" stroke-width="0.5"/>
<path d="M71 24.0001C67.3333 25.7984 60.6696 31.4549 63.3478 39.6944C66.6956 49.9938 90.6087 50.4842 85.3478 59.3122C80.0869 68.1402 78.6522 72.5543 71 77.9492M71 77.9492C56.8435 82.2651 38.6377 76.1509 31.3043 72.5543C26.0435 67.1594 31.3043 65.1976 33.2174 59.3122C34.7478 54.6039 29.7101 51.1381 27 49.9938M71 77.9492C76.8985 83.5076 88.0261 95.8995 85.3478 101M93.9565 59.3122C96.8261 59.3122 103.043 64.2167 115 61.7645" stroke="#454545" stroke-width="0.5"/>
</svg>
