<svg width="81" height="193" viewBox="0 0 81 193" fill="none" xmlns="http://www.w3.org/2000/svg">
<path d="M59.3418 159.934C49.4205 148.321 33.6077 153.399 26.9415 157.389C11.7986 130.521 33.9617 36.0663 51.6559 2.34812C60.6048 41.6695 69.263 171.546 59.3418 159.934Z" fill="#D1A711" stroke="#D1A711"/>
<path d="M36.0012 136.033C42.82 130.951 49.144 134.724 51.4536 137.246C42.6827 116.095 45.7025 48.691 48.3088 17.633C41.3651 59.217 29.1824 141.115 36.0012 136.033Z" fill="#ECECEC" stroke="#ECECEC"/>
<path opacity="0.9" d="M11.1426 108.949C30.9424 66.9564 63.1326 91.4524 71.3825 108.949C74.1843 123.176 79.321 133.969 79.788 143.29C80.1616 150.746 75.5852 159.478 73.2504 162.912C69.8881 172.331 56.2836 181.881 49.9016 185.479C36.0791 196.86 28.5764 190.221 26.5528 185.479C23.1906 172.135 -0.531738 176.648 0.869186 166.837C1.24277 134.263 7.5625 119.251 11.1426 108.949Z" fill="#D7D7D7" stroke="#606060"/>
<path opacity="0.9" d="M11.1426 108.949C30.9424 66.9564 63.1325 91.4524 71.3824 108.949C71.6383 110.249 71.9136 111.519 72.2031 112.763L57.8095 120.763C57.1215 125.512 56.3172 131.449 55.541 137.763C49.6305 134.611 34.5095 130.102 21.3095 137.285C21.6403 128.474 21.6721 121.488 21.3095 120.763C20.5095 119.163 13.2987 114.763 9.79331 112.763C10.2711 111.414 10.7255 110.15 11.1426 108.949Z" stroke="#606060" stroke-width="0.5"/>
<path opacity="0.9" d="M49.9016 185.479C36.0791 196.86 28.5764 190.221 26.5528 185.479C25.3593 180.742 21.5999 178.255 17.3096 176.579C19.222 173.913 20.728 152.777 21.3096 137.285C34.5096 130.102 49.6305 134.611 55.541 137.763C53.103 157.593 50.9427 181.139 53.5359 183.263C52.1822 184.143 50.9453 184.89 49.9016 185.479Z" stroke="#606060" stroke-width="0.5"/>
<path opacity="0.9" d="M79.788 143.29C80.1616 150.746 75.5852 159.478 73.2504 162.912C70.438 170.791 60.4595 178.761 53.5359 183.263C50.9426 181.139 53.103 157.593 55.541 137.763C56.3172 131.449 57.1215 125.512 57.8096 120.763L72.2032 112.763C75.0836 125.135 79.3637 134.82 79.788 143.29Z" stroke="#606060" stroke-width="0.5"/>
<path opacity="0.9" d="M0.869188 166.837C1.19924 138.058 6.17051 122.988 9.79336 112.763C13.2988 114.763 20.5096 119.163 21.3096 120.763C21.6721 121.488 21.6403 128.474 21.3096 137.285C20.728 152.777 19.2219 173.913 17.3096 176.579C9.51414 173.534 -0.03442 173.165 0.869188 166.837Z" stroke="#606060" stroke-width="0.5"/>
</svg>
