<svg width="78" height="95" viewBox="0 0 78 95" fill="none" xmlns="http://www.w3.org/2000/svg">
<path d="M36.8289 80.9849C12.9474 76.7425 16.5658 67.2787 11.5 55.2042C11.5 40.1927 20.5461 49.0038 31.0395 24.5286C32.633 20.8117 34.6579 19.3072 40.8092 20.2862C52.0263 20.9389 57.3333 32.7958 59.625 41.4981C59.625 49.3302 66.5 51.2882 66.5 55.2042C66.2105 73.4791 46.5987 81.3112 36.8289 80.9849Z" fill="#D1A711" stroke="#D1A711"/>
<path opacity="0.9" d="M36 94.4945C3 87.9945 8 73.4946 1 54.9945C1 31.9945 13.5 45.4945 28 7.99455C30.202 2.29971 33 -0.0054512 41.5 1.49457C57 2.49457 64.3333 20.6612 67.5 33.9945C67.5 45.9946 77 48.9946 77 54.9945C76.6 82.9945 49.5 94.9945 36 94.4945Z" fill="#D7D7D7" stroke="#606060"/>
<path opacity="0.9" d="M23.0081 19.2053C24.6335 16.0734 26.303 12.3832 28 7.99455C30.202 2.29971 33 -0.00545114 41.5 1.49457C54.405 2.32715 61.649 15.0595 65.5404 26.9946H65.5C65.2358 31.2224 60.9288 39.3044 47 44.0674C43.3578 45.3128 39.0577 46.3313 34 46.9946C34.4 44.9946 28.8333 38.828 26 35.9946C24.0307 33.2376 23.1925 23.7905 23.0081 19.2053ZM23.0081 19.2053C23.0053 19.1339 23.0026 19.0636 23 18.9946L23.0081 19.2053Z" stroke="#606060" stroke-width="0.5"/>
<path d="M69.5 77.4946C69.471 77.4977 69.4419 77.5008 69.4127 77.5038M69.4127 77.5038C61.2204 78.3375 45.4057 72.8231 47 44.0674C60.9288 39.3044 65.2358 31.2224 65.5 26.9946V26.8711C66.3007 29.3133 66.9607 31.724 67.5 33.9945C67.5 45.9946 77 48.9946 77 54.9945C76.8688 64.1774 73.8659 71.6393 69.4127 77.5038Z" stroke="#606060" stroke-width="0.5"/>
<path opacity="0.9" d="M5.15666 69.5115C8.18051 80.9902 12.2438 89.8153 36 94.4945C45.1016 94.8316 60.3847 89.4871 69.5 77.3883V77.4946C61.3333 78.3765 45.4 72.9256 47 44.0674C43.3578 45.3128 39.0577 46.3313 34 46.9946C33.5009 49.4899 32.5038 72.4072 5.15666 69.5115ZM5.15666 69.5115C5.10454 69.506 5.05232 69.5003 5 69.4946L5.15666 69.5115Z" stroke="#606060" stroke-width="0.5"/>
<path opacity="0.9" d="M5.15666 69.5115C3.98004 65.045 2.96081 60.1767 1 54.9945C1 34.6863 10.7454 42.8346 23.0081 19.2053M5.15666 69.5115C32.5038 72.4072 33.5009 49.4899 34 46.9946C34.4 44.9946 28.8333 38.828 26 35.9946C24.0307 33.2376 23.1925 23.7905 23.0081 19.2053M5.15666 69.5115C5.10453 69.5059 5.05231 69.5003 5 69.4946L5.15666 69.5115ZM23.0081 19.2053C23.0053 19.1339 23.0026 19.0636 23 18.9946L23.0081 19.2053Z" stroke="#606060" stroke-width="0.5"/>
<path d="M50.5 49.9946C46.2407 53.0131 35.2778 57.239 25.5 49.9946" stroke="#454545" stroke-width="0.5"/>
</svg>
