<svg width="67" height="186" viewBox="0 0 67 186" fill="none" xmlns="http://www.w3.org/2000/svg">
<path d="M31.8095 154.263C30.2095 150.263 19.8095 148.93 14.8095 148.763C20.4762 100.596 35.2095 3.56294 48.8095 0.762942C62.4095 -2.03706 50.4762 109.596 42.8095 165.763C39.8095 163.596 33.4095 158.263 31.8095 154.263Z" fill="#D1A711" stroke="#D1A711"/>
<path d="M30.8095 140.263C29.2095 138.263 26.8095 134.096 25.8095 130.263C31.8095 119.063 43.3095 45.9296 48.3095 10.7629L40.3095 137.763C37.8095 143.263 32.4095 142.263 30.8095 140.263Z" fill="#ECECEC" stroke="#ECECEC"/>
<path opacity="0.9" d="M10.8094 167.763C4.80941 166.563 1.97609 154.263 1.30942 148.263C7.30943 105.763 16.3094 100.763 22.8094 94.7629C29.7959 88.3139 42.3094 87.763 48.8094 96.763C59.3095 109.263 68.3095 129.263 65.3094 146.263C57.8095 171.263 43.8094 186.096 38.8094 184.763C35.8094 182.596 29.4094 177.263 27.8094 173.263C26.2094 169.263 15.8094 167.93 10.8094 167.763Z" fill="#D7D7D7" stroke="#606060"/>
<path opacity="0.9" d="M60.2738 115.263C64.6829 125.208 67.0756 136.255 65.3094 146.263C59.3233 166.217 49.1961 179.694 42.8095 183.644C40.0095 178.749 47.6428 139.35 51.8095 120.263L60.2738 115.263Z" stroke="#606060" stroke-width="0.5"/>
<path opacity="0.9" d="M10.8094 167.763C4.80941 166.563 1.97608 154.263 1.30942 148.263C3.45812 133.043 5.99156 122.632 8.65714 115.263C10.7079 116.429 15.3095 119.063 17.3095 120.263C19.8095 121.763 19.8095 163.558 17.3095 168.41C14.8891 168.016 12.5297 167.82 10.8094 167.763Z" stroke="#606060" stroke-width="0.5"/>
<path opacity="0.9" d="M38.8094 184.763C35.8094 182.596 29.4094 177.263 27.8094 173.263C26.7599 170.639 21.924 169.163 17.3095 168.41C19.8095 163.558 19.8095 121.763 17.3095 120.263C15.3095 119.063 10.7079 116.429 8.65712 115.263C13.4349 102.053 18.6371 98.6142 22.8094 94.7629C29.7958 88.3139 42.3094 87.763 48.8094 96.763C53.1282 101.904 57.1931 108.314 60.2737 115.263L51.8095 120.263C47.6428 139.35 40.0095 178.749 42.8095 183.644C41.1944 184.643 39.8186 185.032 38.8094 184.763Z" stroke="#606060" stroke-width="0.5"/>
</svg>
