<svg width="69" height="151" viewBox="0 0 69 151" fill="none" xmlns="http://www.w3.org/2000/svg">
<path d="M59.4997 19.0001H14.9997H7.49973C5.09956 19.0001 4.83311 27.6668 4.99991 32.0001C3.00006 50.8001 5.83318 68.5001 7.49973 75.0001C12.4997 108.5 37.9997 159 43.9997 148.5C48.7997 140.1 51.6664 125 52.4997 118.5C70.4997 43.0001 61.9997 34.5001 63.4997 28.0001C64.6997 22.8001 61.3331 19.8335 59.4997 19.0001Z" fill="#D1A711" stroke="#D1A711"/>
<path d="M43.9108 31.0001H26.2168H22.5051C18.3809 31.0001 18.3809 33.1007 20.0306 39.9278C21.6802 46.7548 25.392 85.1174 29.9286 104.198C34.4651 119.078 39.7756 147.786 41.4252 143.585C43.0749 139.384 43.0372 134.832 43.3121 133.082C47.9312 124.259 48.4474 59.8837 48.4474 59.8837C48.4474 59.8837 51.3343 31.0001 43.9108 31.0001Z" fill="#ECECEC" stroke="#ECECEC"/>
<path opacity="0.9" d="M56.0206 1.00012H6.02064C1.62064 3.80012 0.85397 7.16679 1.02064 8.50012C4.02064 50.5001 16.7206 126.8 43.5206 96.0001C70.3206 65.2001 70.0206 24.8335 66.5206 8.50012C65.0206 6.00012 60.8206 1.00012 56.0206 1.00012Z" fill="#D7D7D7" stroke="#606060"/>
<path d="M22.9999 52.0001L19.4999 1.00012H5.99995C1.59995 3.80012 0.833279 7.83346 0.999946 9.50012C0.999946 17.1001 5.16661 44.0001 6.99994 55.0001L22.9999 52.0001Z" stroke="#606060" stroke-width="0.5"/>
<path d="M57.4999 1.00012H46.4999L44.9999 51.5001L64.4999 55.0001C67.9999 47.0001 69.4999 22.0001 66.4999 8.50012C63.6999 3.70012 59.3333 1.50012 57.4999 1.00012Z" stroke="#606060" stroke-width="0.5"/>
<path d="M46.4999 1.00012H19.4999L22.9999 52.0001L6.99994 55.0001C12.9999 84.5001 20.9999 103.5 31.9999 103C44.9999 103 61.9999 69.0001 64.4999 55.0001L44.9999 51.5001L46.4999 1.00012Z" stroke="#606060" stroke-width="0.5"/>
<path d="M21 74C26 79 38.8 86 50 74C34.8 104 24.3333 86.5 21 74Z" fill="#4BAEB5" stroke="#4BAEB5"/>
</svg>
