<svg width="125" height="235" viewBox="0 0 125 235" fill="none" xmlns="http://www.w3.org/2000/svg">
<path d="M37 29C40.2 25.4 35 18.5 29 14.5C28.3333 6.83331 30.6 -2.1 37 1.5C51.5 5.66668 72.6 12.4 73 36C73.5 65.5 84 134.5 107.5 152.5C108.667 161.833 108.8 182.2 100 189C89.3333 177.833 69 160.7 73 181.5C68.8333 180 60 176.3 58 173.5C55.5 170 29 177 29 184.5C23.1667 176.167 11.6 156.6 12 145C12.5 130.5 26 36.4999 37 29Z" fill="#D1A711" stroke="#D1A711"/>
<path d="M37.5 150.5C55.5 124.9 45 44.8333 37.5 8C39.5 15.8333 44.7 33.5 49.5 41.5C55.5 51.5 79.5 147 77 150.5C63.8 138.1 45.1667 145.333 37.5 150.5Z" fill="#ECECEC" stroke="#ECECEC"/>
<g opacity="0.9">
<path d="M0.5 183C1.3 158.6 5.5 137 18.5 131.5C44.1667 125 100.2 118.8 119 146C123.833 170.333 129.4 219.9 113 223.5C110.667 226.667 105.3 233.1 102.5 233.5C99.7 233.9 99 225.333 99 221C96.3333 214.333 87 200.5 71 198.5C71 197.5 70.5 194.9 68.5 192.5C67.5 194 67.5 195.5 69 198.5C63 202.5 46.5 210.1 40.5 208.5C38.6667 209.667 23.9 211.3 21.5 208.5C18.368 203.59 16.1563 195.542 12.5 187.5C11.353 191.5 10.0663 187.5 7 195.5C3.4 195.5 2 191.5 0.5 183Z" fill="#D7D7D7"/>
<path d="M10.0663 166.5C9.47577 171.421 8.95734 179.708 12.5 187.5M12.5 187.5C16.1563 195.542 18.368 203.59 21.5 208.5C23.9 211.3 38.6667 209.667 40.5 208.5C46.5 210.1 63 202.5 69 198.5C67.5 195.5 67.5 194 68.5 192.5C70.5 194.9 71 197.5 71 198.5C87 200.5 96.3333 214.333 99 221C99 225.333 99.7 233.9 102.5 233.5C105.3 233.1 110.667 226.667 113 223.5C129.4 219.9 123.833 170.333 119 146C100.2 118.8 44.1667 125 18.5 131.5C5.5 137 1.3 158.6 0.5 183C2 191.5 3.4 195.5 7 195.5C10.0663 187.5 11.353 191.5 12.5 187.5Z" stroke="#606060"/>
</g>
<path opacity="0.9" d="M10.0663 166.5C9.47577 171.421 8.95734 179.708 12.5 187.5M12.5 187.5C11.353 191.5 10.0663 187.5 7 195.5C3.4 195.5 2 191.5 0.5 183C1.0925 164.929 3.55001 148.393 10.0663 138.797C19.6326 142.594 24 146 25.5 153C25.7057 153.96 25.6878 155.551 25.5 157.593C24.5923 167.463 19.7163 187.867 16.9371 198.5C15.6132 195.049 14.2157 191.274 12.5 187.5Z" stroke="#606060" stroke-width="0.5"/>
<path opacity="0.9" d="M10.0663 138.797C12.3483 135.436 15.1282 132.927 18.5 131.5C42.8237 125.34 94.4194 119.45 115.753 142C110.169 143.167 99 147 99 153C98.7804 154.543 98.5481 156.22 98.3085 158C86.3723 152.562 55.1 144.868 25.5 157.593C25.6878 155.551 25.7057 153.96 25.5 153C24 146 19.6326 142.594 10.0663 138.797Z" stroke="#606060" stroke-width="0.5"/>
<path opacity="0.9" d="M113 223.5C129.4 219.9 123.833 170.333 119 146C118.016 144.577 116.931 143.245 115.753 142C110.169 143.167 99 147 99 153C98.7804 154.543 98.5481 156.22 98.3085 158C95.639 177.83 92.0636 210.45 95 213.858C96.8936 216.532 98.2269 219.067 99 221C99 225.333 99.7 233.9 102.5 233.5C105.3 233.1 110.667 226.667 113 223.5Z" stroke="#606060" stroke-width="0.5"/>
<path opacity="0.9" d="M71 198.5C71 197.5 70.5 194.9 68.5 192.5C67.5 194 67.5 195.5 69 198.5C63 202.5 46.5 210.1 40.5 208.5C38.6667 209.667 23.9 211.3 21.5 208.5C19.8376 205.894 18.4345 202.404 16.9371 198.5C19.7163 187.867 24.5923 167.463 25.5 157.593C55.1 144.868 86.3723 152.562 98.3085 158C95.639 177.83 92.0636 210.45 95 213.858C90.3616 207.307 82.3616 199.92 71 198.5Z" stroke="#606060" stroke-width="0.5"/>
<path d="M15 142.5C34.3333 140.333 79.4 141 105 161C101.167 143.167 77.8 114.5 15 142.5Z" fill="#4BAEB5" stroke="#4BAEB5"/>
</svg>
