<svg width="65" height="66" viewBox="0 0 65 66" fill="none" xmlns="http://www.w3.org/2000/svg">
<path d="M18.7833 56.9859C4.25941 57.2679 12.7317 40.7726 18.7833 33.3709C21.665 29.8463 23.767 29.1414 26.2589 16.8051C26.2589 11.8706 38.0062 9.05095 41.21 16.8051C41.3286 19.8598 44.2714 26.7446 47.9735 29.8463C53.9065 38.8928 61.1447 56.9859 49.7534 56.9859H18.7833Z" fill="#D1A711"/>
<path d="M18.7833 56.9859C4.25941 57.2679 12.7317 40.7726 18.7833 33.3709C21.665 29.8463 23.767 29.1414 26.2589 16.8051C26.2589 11.8706 38.0062 9.05095 41.21 16.8051C41.3286 19.8598 44.2714 26.7446 47.9735 29.8463C53.9065 38.8928 61.1447 56.9859 49.7534 56.9859M18.7833 56.9859C24.3603 56.9859 38.3621 56.9859 49.7534 56.9859M18.7833 56.9859H49.7534" stroke="#D1A711"/>
<g opacity="0.9">
<path d="M12.2639 64.9893C-8.1361 65.3893 3.7639 41.9893 12.2639 31.4893C16.3115 26.4893 19.2639 25.4894 22.7639 7.98929C22.7639 0.98935 39.2639 -3.01063 43.7639 7.98929C43.9306 12.3226 48.0639 22.0893 53.2639 26.4893C61.5972 39.3226 71.7639 64.9893 55.7639 64.9893H12.2639Z" fill="#D7D7D7"/>
<path d="M12.2639 64.9893C-8.1361 65.3893 3.7639 41.9893 12.2639 31.4893C16.3115 26.4893 19.2639 25.4894 22.7639 7.98929C22.7639 0.98935 39.2639 -3.01063 43.7639 7.98929C43.9306 12.3226 48.0639 22.0893 53.2639 26.4893C61.5972 39.3226 71.7639 64.9893 55.7639 64.9893M12.2639 64.9893C20.0972 64.9893 39.7639 64.9893 55.7639 64.9893M12.2639 64.9893H55.7639" stroke="#606060"/>
</g>
<path d="M20.7639 64.9895C27.9639 47.3895 20.0973 32.9895 15.2639 27.9895C4.06394 39.9895 1.26392 50.6562 1.26392 54.9895C0.06392 60.9895 5.26392 64.9895 9.26393 64.9895H20.7639Z" stroke="#606060" stroke-width="0.5"/>
<path d="M47.2639 64.9895C37.6639 52.9895 47.2639 34.3228 53.2639 26.4895C58.264 32.9895 64.7639 49.4895 64.2639 56.9895C63.8639 62.9895 59.4306 64.8228 57.2639 64.9895H47.2639Z" stroke="#606060" stroke-width="0.5"/>
<path d="M22.7639 6.98945C21.9639 16.9895 17.4306 25.1561 15.2639 27.9895C16.7639 29.4894 21.2639 34.9894 23.2639 44.9894H44.2639C44.9306 41.8227 47.6639 33.6894 53.2639 26.4894C45.2639 18.0894 43.5972 10.3228 43.7639 7.48945C36.1639 -4.11055 23.2639 2.48938 22.7639 6.98945Z" stroke="#606060" stroke-width="0.3"/>
<path d="M44.2639 44.9895H23.2639C24.7639 52.4895 22.2639 61.4895 20.7639 64.9895H47.2639C41.6639 57.7895 43.2639 48.9895 44.2639 44.9895Z" stroke="#606060" stroke-width="0.3"/>
</svg>
