<svg width="173" height="211" viewBox="0 0 173 211" fill="none" xmlns="http://www.w3.org/2000/svg">
<path d="M92.669 56.2665L54.8242 38.3568C16.9795 69.4632 5.76625 139.217 2.0285 151.471C-0.9617 161.274 3.27442 183.834 5.76625 193.889C17.4467 223.11 32.865 205.986 42.6766 193.889C78.1852 81.9058 82.0787 148.486 79.5869 195.774C75.4753 211.987 92.8247 206.3 102.013 201.43C111.513 193.575 130.607 172.586 130.981 151.471C131.355 130.356 146.399 107.482 153.875 98.6844C162.845 61.7337 155.121 41.4989 150.137 36.0002L92.669 56.2665Z" fill="#D1A711" stroke="#D1A711"/>
<path d="M116 65.5002C90 81.5002 78.6667 69.6669 76 63.0002C62.4 71.4002 33.3334 166.667 23.5 201C83 63.0002 89 102.5 92 203C96.1667 181.667 103.3 132.5 98.5 118.5C93.7 104.5 108.333 76.0002 116 65.5002Z" fill="#ECECEC" stroke="#ECECEC"/>
<path d="M132.664 106.23C188.941 81.9111 172.358 30.3642 157.702 4.25379C153.586 -6.89755 116.019 19.2735 109.713 24.4188C103.406 29.564 89.9281 28.7864 88.9298 28.7288C88.1311 28.6827 88.7506 41.8188 88.9298 44.5003C88.2002 43.2562 87.4739 30.8151 87.4323 28.6424C81.8109 21.9074 67.9967 21.1772 61.7922 21.6539C53.7057 15.9787 53.8088 6.6692 54.8711 2.72384C52.2371 -0.232795 46.1197 1.0503 43.3902 2.06143C34.6816 7.16828 26.444 15.107 23.4138 18.4379C11.8253 31.7926 8.35323 58.8856 8.06576 70.7628C29.4416 110.289 109.389 104.408 132.664 106.23Z" fill="#D7D7D7" fill-opacity="0.9" stroke="#606060"/>
<path d="M39.5 52.5003C44 47.5003 56.8334 31.0003 61.5 21.5003L61.5211 21.4601C53.7082 15.7689 53.8208 6.62459 54.8711 2.72384C52.2371 -0.232795 46.1197 1.0503 43.3902 2.06143C34.6816 7.16828 26.444 15.107 23.4138 18.438C14.9293 28.2155 10.7955 45.3574 9.07697 58.5003H9.00004C30.6 62.1003 38.15 54.0003 39.5 52.5003Z" stroke="#606060" stroke-width="0.5"/>
<path d="M133.022 9.05331C144.227 2.80605 155.547 -1.58365 157.702 4.25374C166.907 20.6518 176.871 47.0824 169.07 70.5002H169C161 69.8336 145.1 65.7002 145.5 54.5002C145.899 43.3191 137.362 19.5802 133.022 9.05331ZM133.022 9.05331C133.015 9.03558 133.007 9.01789 133 9.00023L133.022 9.05331Z" stroke="#606060" stroke-width="0.5"/>
<path d="M44.0557 47.0389C49.7888 39.8483 57.9747 28.6769 61.5 21.5003L61.7922 21.654C67.9967 21.1772 81.8109 21.9075 87.4323 28.6425C87.4739 30.8151 88.2002 43.2562 88.9298 44.5003C88.7506 41.8189 88.1311 28.6828 88.9298 28.7289C89.9281 28.7865 103.406 29.5641 109.713 24.4188C112.723 21.9629 122.783 14.6916 133 9.00024C137.149 19.0638 145.156 41.2549 145.502 52.953L145.5 53.0003C97.1655 70.976 57.7734 56.5395 44.0557 47.0389ZM44.0557 47.0389C44.0371 47.026 44.0185 47.0132 44 47.0003L44.0557 47.0389Z" stroke="#606060" stroke-width="0.5"/>
<path d="M9.07533 58.5128C30.6176 62.0814 38.1516 53.9985 39.5 52.5003C40.5939 51.2849 42.1801 49.39 44.0218 47.0813L44.0557 47.0388C57.7734 56.5394 97.1655 70.9759 145.5 53.0002V54.5002C145.1 65.7002 161 69.8336 169 70.5002L169.053 70.5505C164.423 84.4014 153.572 97.1947 132.664 106.23C109.389 104.408 29.4416 110.289 8.06576 70.7628C8.14269 67.5842 8.44771 63.3159 9.07533 58.5128ZM9.07533 58.5128C9.05025 58.5086 9.02515 58.5045 9.00004 58.5003L9.07533 58.5128Z" stroke="#606060" stroke-width="0.5"/>
<path d="M22.5 59C29.6667 70.3333 64.1 91 144.5 83C109.333 97 35.7 111.8 22.5 59Z" fill="#4BAEB5" stroke="#4BAEB5"/>
</svg>
